<svg version="1.1" xmlns="http://www.w3.org/2000/svg" xmlns:xlink="http://www.w3.org/1999/xlink" width="152" height="152" viewBox="0,0,152,152"><defs><radialGradient cx="249.09155" cy="168.16116" r="28.61366" gradientUnits="userSpaceOnUse" id="color-1"><stop offset="0" stop-color="#fff227"/><stop offset="1" stop-color="#d29608"/></radialGradient><radialGradient cx="244.84155" cy="180.41116" r="28.50329" gradientUnits="userSpaceOnUse" id="color-2"><stop offset="0" stop-color="#ffee12"/><stop offset="1" stop-color="#c39009"/></radialGradient><linearGradient x1="227.04906" y1="180.0064" x2="243.61051" y2="180.0064" gradientUnits="userSpaceOnUse" id="color-3"><stop offset="0" stop-color="#b07705"/><stop offset="1" stop-color="#b1780b"/></linearGradient><linearGradient x1="229.35063" y1="179.968" x2="240.25501" y2="179.968" gradientUnits="userSpaceOnUse" id="color-4"><stop offset="0" stop-color="#d3a006"/><stop offset="1" stop-color="#ba8718"/></linearGradient><radialGradient cx="229.50227" cy="181.82187" r="19.33575" gradientUnits="userSpaceOnUse" id="color-5"><stop offset="0" stop-color="#fbe20f"/><stop offset="1" stop-color="#fbe20f" stop-opacity="0"/></radialGradient><linearGradient x1="235.6178" y1="161.18633" x2="235.6178" y2="198.83335" gradientUnits="userSpaceOnUse" id="color-6"><stop offset="0" stop-color="#9e6805"/><stop offset="1" stop-color="#94640c"/></linearGradient></defs><g transform="translate(-164,-104)"><g data-paper-data="{&quot;isPaintingLayer&quot;:true}" fill-rule="nonzero" stroke="none" stroke-width="0" stroke-linecap="butt" stroke-linejoin="miter" stroke-miterlimit="10" stroke-dasharray="" stroke-dashoffset="0" style="mix-blend-mode: normal"><g data-paper-data="{&quot;index&quot;:null}"><path d="M235.72656,208.57555v-2h5.87734v2z" fill="#d29608"/><path d="M236.10394,152.94391v-1.5h5.50202v1.5z" fill="#e1b412"/></g><path d="M164,256v-152h152v152z" data-paper-data="{&quot;origPos&quot;:null}" fill="none"/><path d="M253.16917,180c0,17.92788 -5.71562,28.61366 -12.76623,28.61366c-7.05058,0 -12.76623,-12.81079 -12.76623,-28.61366c0,-15.80288 5.71563,-28.61366 12.76624,-28.61366c7.0506,0 12.76622,9.93578 12.76622,28.61366z" data-paper-data="{&quot;index&quot;:null}" fill="url(#color-1)"/><path d="M228.58954,196.8915c-2.97609,-12.71227 -2.08482,-30.54286 1.99071,-39.82577c4.07554,-9.28291 9.79205,-6.50286 12.76813,6.20941c2.97608,12.71227 2.08482,30.54288 -1.99072,39.82579c-4.07554,9.28291 -9.79202,6.50287 -12.76811,-6.20941z" data-paper-data="{&quot;origRot&quot;:0,&quot;index&quot;:null}" fill="url(#color-2)"/><path d="M242.21625,194.88744c-2.53885,12.12929 -7.68017,15.29957 -11.48347,7.08101c-3.80329,-8.21857 -4.82832,-24.71377 -2.28947,-36.84308c1.06631,-5.09429 2.5917,-8.60822 4.28423,-10.36177c2.33729,-2.42157 4.99331,-1.48602 7.19923,3.28075c3.80331,8.21857 4.82833,24.71376 2.28949,36.84306z" data-paper-data="{&quot;index&quot;:null}" fill="url(#color-3)"/><g data-paper-data="{&quot;index&quot;:null}"><path d="M237.0265,198.83402c-2.74852,4.44699 -5.97219,-0.39457 -7.20031,-10.81399c-1.22811,-10.41941 0.00443,-22.47102 2.75294,-26.91803c2.74851,-4.44701 5.97219,0.39456 7.20031,10.81396c1.22812,10.41941 -0.00442,22.47103 -2.75292,26.91804z" data-paper-data="{&quot;origRot&quot;:0}" fill="url(#color-4)"/><path d="M236.81729,198.293c-2.6741,4.32663 -5.81056,-0.38389 -7.00543,-10.52129c-1.19487,-10.1374 0.00429,-21.8628 2.67841,-26.18946c2.67411,-4.32665 7.00115,32.38408 4.32702,36.71073z" data-paper-data="{&quot;origRot&quot;:0}" fill="url(#color-5)"/></g><path d="M235.61779,198.83335c-2.68528,0 -4.86212,-8.42757 -4.86212,-18.82351c0,-10.39595 2.17684,-18.82351 4.86212,-18.82351c2.68528,0 4.86213,8.42758 4.86213,18.82351c0,10.39595 -2.17685,18.82351 -4.86213,18.82351z" data-paper-data="{&quot;index&quot;:null}" fill="url(#color-6)"/><g data-paper-data="{&quot;index&quot;:null}"><path d="M233.64641,185.52255v-10.77865h0.48511v10.77865z" fill="#fec207"/><path d="M234.16739,174.79815l0.00992,1.77966l-0.54265,-1.77967z" data-paper-data="{&quot;index&quot;:null}" fill="#ffcc0d"/><path d="M233.62056,185.3315l0.55648,-1.77967l0.00283,1.80983z" fill="#feff37"/><path d="M233.30492,170.77026l0.40655,-1.62887h1.55992v3.05663z" fill="#fdf94f"/><path d="M233.5253,190.80688l-0.21956,-1.77657l0.58122,-0.00788l1.38444,1.78445z" fill="#ab730c"/><path d="M233.93319,189.02691v-18.22309l1.23575,-1.65942l-0.03742,21.64733z" fill="#ebbe13"/><path d="M234.19536,170.80277l1.04791,-1.66089l2.00582,0.0166l-1.62442,1.68326z" fill="#fdf94f"/><path d="M237.18322,176.45114l0.01538,14.4212l-2.74673,-1.83613l-0.0087,-14.46661l0.06916,-3.71354l2.77355,-1.68915z" fill="#ebbe13"/><path d="M235.2385,190.80155l-1.06477,-1.83692h0.2435l2.74356,1.83276z" fill="#ab730c"/></g><g data-paper-data="{&quot;index&quot;:null}" fill="#dc9807"><path d="M234.19081,188.96718v-18.21086h0.25882l-0.00566,3.78212l0.00051,14.42874z"/><path d="M233.30251,188.98993v-18.26786h0.63882v18.26786zM233.72876,174.91253l-0.21739,10.36301z"/></g></g></g></svg>