<svg version="1.1" xmlns="http://www.w3.org/2000/svg" xmlns:xlink="http://www.w3.org/1999/xlink" width="152" height="152" viewBox="0,0,152,152"><defs><linearGradient x1="240.77703" y1="151.70044" x2="240.77703" y2="208.29956" gradientUnits="userSpaceOnUse" id="color-1"><stop offset="0" stop-color="#fffa44"/><stop offset="1" stop-color="#e2b500"/></linearGradient><linearGradient x1="222.42449" y1="156.9824" x2="254.03958" y2="203.01758" gradientUnits="userSpaceOnUse" id="color-2"><stop offset="0" stop-color="#fffa3e"/><stop offset="1" stop-color="#e6b800"/></linearGradient><radialGradient cx="212.95248" cy="188.80163" r="19.96681" gradientUnits="userSpaceOnUse" id="color-3"><stop offset="0" stop-color="#d18c00"/><stop offset="1" stop-color="#d18c00" stop-opacity="0"/></radialGradient><linearGradient x1="251.48449" y1="158.03793" x2="223.79426" y2="201.96202" gradientUnits="userSpaceOnUse" id="color-4"><stop offset="0" stop-color="#ffe100"/><stop offset="1" stop-color="#ffe138"/></linearGradient><radialGradient cx="221.08824" cy="185.16921" r="19.54602" gradientUnits="userSpaceOnUse" id="color-5"><stop offset="0" stop-color="#fff949"/><stop offset="1" stop-color="#fff949" stop-opacity="0"/></radialGradient><linearGradient x1="219.8503" y1="171.81144" x2="254.14988" y2="188.11174" gradientUnits="userSpaceOnUse" id="color-6"><stop offset="0" stop-color="#d8a30e"/><stop offset="1" stop-color="#ffdd00"/></linearGradient><radialGradient cx="254.12879" cy="185.1452" r="17.56184" gradientUnits="userSpaceOnUse" id="color-7"><stop offset="0" stop-color="#fff949"/><stop offset="1" stop-color="#fff949" stop-opacity="0"/></radialGradient><linearGradient x1="237.28116" y1="161.17993" x2="237.28116" y2="198.82693" gradientUnits="userSpaceOnUse" id="color-8"><stop offset="0" stop-color="#fcd600"/><stop offset="1" stop-color="#ffda22"/></linearGradient></defs><g transform="translate(-164,-104)"><g data-paper-data="{&quot;isPaintingLayer&quot;:true}" fill-rule="nonzero" stroke="none" stroke-width="0" stroke-linecap="butt" stroke-linejoin="miter" stroke-miterlimit="10" stroke-dasharray="" stroke-dashoffset="0" style="mix-blend-mode: normal"><path d="M268.61513,180c0,15.62941 -12.46353,28.29956 -27.83811,28.29956c-15.37454,0 -27.83811,-12.67016 -27.83811,-28.29956c0,-15.62941 12.46354,-28.29956 27.83812,-28.29956c15.37457,0 27.83812,12.67015 27.83812,28.29955z" data-paper-data="{&quot;index&quot;:null}" fill="url(#color-1)"/><path d="M216.58476,196.80817c-8.73027,-12.71227 -6.11571,-30.54286 5.83973,-39.82577c11.95545,-9.28291 28.72457,-6.50286 37.45482,6.20941c8.73025,12.71227 6.11571,30.54288 -5.83975,39.82579c-11.95545,9.28291 -28.72454,6.50287 -37.45481,-6.20941z" data-paper-data="{&quot;origRot&quot;:0,&quot;index&quot;:null}" fill="url(#color-2)"/><path d="M239.38963,208.39886c-15.46661,0 -28.00478,-12.67016 -28.00478,-28.29956c0,-37.70334 43.4714,28.29956 28.00478,28.29956z" data-paper-data="{&quot;index&quot;:null}" fill="url(#color-3)"/><path d="M258.3799,194.88103c-7.64645,12.12929 -23.13098,15.29957 -34.58567,7.08101c-11.4547,-8.21857 -14.54188,-24.71377 -6.89542,-36.84308c3.2115,-5.09429 7.80564,-8.60822 12.90315,-10.36177c7.03942,-2.42157 15.03879,-1.48602 21.68251,3.28075c11.45472,8.21857 14.54189,24.71376 6.89545,36.84306z" data-paper-data="{&quot;index&quot;:null}" fill="url(#color-4)"/><path d="M247.87852,198.51658c-10.25635,4.37369 -22.28589,-0.38806 -26.86872,-10.63571c-4.58282,-10.24764 0.01648,-22.10056 10.27283,-26.47426c10.25635,-4.3737 26.85228,32.73626 16.59592,37.10996z" data-paper-data="{&quot;origRot&quot;:0,&quot;index&quot;:null}" fill="url(#color-5)"/><g data-paper-data="{&quot;index&quot;:null}"><path d="M229.33706,199.05747c-9.47156,-4.5012 -13.71892,-16.69966 -9.48674,-27.24603c4.23217,-10.54636 15.34124,-15.44692 24.81279,-10.94573c9.47156,4.5012 13.71892,16.69965 9.48677,27.24602c-4.23216,10.54637 -15.34124,15.44693 -24.8128,10.94576z" data-paper-data="{&quot;origRot&quot;:0}" fill="url(#color-6)"/><path d="M230.05805,198.50985c-9.2152,-4.37937 5.69602,-41.53741 14.91122,-37.15804c9.21519,4.37937 13.34762,16.24764 9.23002,26.50856c-4.11762,10.26093 -14.926,15.02884 -24.14119,10.64949z" data-paper-data="{&quot;origRot&quot;:0}" fill="url(#color-7)"/></g><path d="M254.33103,180.00343c0,10.39595 -7.63348,18.82351 -17.04986,18.82351c-9.41637,0 -17.04985,-8.42757 -17.04985,-18.82351c0,-10.39595 7.63347,-18.82351 17.04985,-18.82351c9.41638,0 17.04987,8.42758 17.04987,18.82351z" data-paper-data="{&quot;index&quot;:null}" fill="url(#color-8)"/><path d="M164,256v-152h152v152z" data-paper-data="{&quot;origPos&quot;:null}" fill="none"/><path d="M226.49675,172.00883v-3.12747h12.41633v3.12747z" fill="#feff37"/><path d="M229.1288,191.04895l1.11663,-1.77156l8.66765,-1.35591v3.12747z" fill="#d19e04"/><path d="M233.60115,189.15118v-18.54765l2.362,-1.71908v22.22558z" fill="#fcc70b"/><path d="M238.47803,170.66899l0.27375,-1.78712l9.13944,0.01699l-2.16068,1.77013z" fill="#feff37"/><path d="M235.87796,191.01158v-22.21091l1.12076,1.74829l0.01492,18.57531z" fill="#ad8001"/><path d="M245.62783,190.79692l0.0881,0.31901l-2.35355,-1.9074l-0.00378,-14.76359l2.43472,-0.00002l-0.13673,-3.88572l2.23541,-1.65173v22.12948z" fill="#fcc70b"/><path d="M237.60785,191.0435l1.16026,-1.87949h6.9614l2.27895,1.87524z" fill="#d19e04"/><path d="M226.52251,176.36917v-2.39277h4.38675v2.39277z" fill="#ad8001"/><path d="M226.50416,176.35456v-7.47014l1.2007,1.68719v3.95173z" data-paper-data="{&quot;index&quot;:null}" fill="#ad8001"/><g><path d="M239.53378,185.64216v-11.02845h2.2515v11.02845z" fill="#fec207"/><path d="M241.78531,185.51872v-11.19305h1.9535v11.19304z" fill="#9e7304"/><path d="M242.84576,174.66922l-1.12427,1.85178l-1.55619,-1.85179z" data-paper-data="{&quot;index&quot;:null}" fill="#ffcc0d"/><path d="M240.22913,185.47756l1.55618,-1.85179l1.12427,1.85178z" fill="#feff37"/></g><g data-paper-data="{&quot;index&quot;:null}" fill="#fceb12"><path d="M230.18351,189.16661l0.00685,-14.76313l-2.47229,0.00149v-3.87126h5.92942v18.6329z"/><path d="M237.05409,189.1899v-18.69122h8.72357v18.69122zM242.92561,185.38943l-0.04396,-10.60489l-2.92475,0.00171l-0.00891,10.58597z"/></g><path d="M229.05646,191.11001v-14.80798l1.2007,-1.8222v14.79897z" data-paper-data="{&quot;index&quot;:null}" fill="#ad8001"/></g></g></svg>