<svg version="1.1" xmlns="http://www.w3.org/2000/svg" xmlns:xlink="http://www.w3.org/1999/xlink" width="152" height="152" viewBox="0,0,152,152"><defs><radialGradient cx="229.62472" cy="175.01124" r="15.66094" gradientUnits="userSpaceOnUse" id="color-1"><stop offset="0" stop-color="#fbf44a"/><stop offset="1" stop-color="#da9e00"/></radialGradient><radialGradient cx="232.70688" cy="170.30536" r="12.97438" gradientUnits="userSpaceOnUse" id="color-2"><stop offset="0" stop-color="#f9d722"/><stop offset="1" stop-color="#f1c814"/></radialGradient><linearGradient x1="241.33108" y1="163.46954" x2="241.33108" y2="196.56767" gradientUnits="userSpaceOnUse" id="color-3"><stop offset="0" stop-color="#d39715" stop-opacity="0"/><stop offset="1" stop-color="#d39715"/></linearGradient><radialGradient cx="233.22872" cy="179.72541" r="14.2926" gradientUnits="userSpaceOnUse" id="color-4"><stop offset="0" stop-color="#dea900"/><stop offset="1" stop-color="#f8c805"/></radialGradient><radialGradient cx="243.65051" cy="169.19733" r="10.18346" gradientUnits="userSpaceOnUse" id="color-5"><stop offset="0" stop-color="#c38701"/><stop offset="1" stop-color="#f4c402"/></radialGradient><linearGradient x1="234.82836" y1="179.99079" x2="248.06287" y2="179.99079" gradientUnits="userSpaceOnUse" id="color-6"><stop offset="0" stop-color="#fdd507"/><stop offset="1" stop-color="#dea707"/></linearGradient><radialGradient cx="238.42877" cy="183.95787" r="6.30282" gradientUnits="userSpaceOnUse" id="color-7"><stop offset="0" stop-color="#cc9903"/><stop offset="1" stop-color="#cc9903" stop-opacity="0"/></radialGradient><radialGradient cx="242.37436" cy="179.84593" r="6.66776" gradientUnits="userSpaceOnUse" id="color-8"><stop offset="0" stop-color="#fcf264"/><stop offset="1" stop-color="#fdda2c"/></radialGradient><linearGradient x1="241.74641" y1="173.42182" x2="241.74641" y2="178.04717" gradientUnits="userSpaceOnUse" id="color-9"><stop offset="0" stop-color="#d5a202"/><stop offset="1" stop-color="#d5a202" stop-opacity="0"/></linearGradient></defs><g transform="translate(-164,-103)"><g data-paper-data="{&quot;isPaintingLayer&quot;:true}" fill-rule="nonzero" stroke="none" stroke-width="0" stroke-linecap="butt" stroke-linejoin="miter" stroke-miterlimit="10" stroke-dasharray="" stroke-dashoffset="0" style="mix-blend-mode: normal"><path d="M164,255v-152h152v152z" data-paper-data="{&quot;origPos&quot;:null}" fill="none"/><g><path d="M238.86679,196.5653v-0.7195h2.94995v0.7195z" fill="#da9e00"/><path d="M238.93874,164.15184v-0.7195h2.94995v0.7195z" fill="#dba102"/><path d="M250.3035,179.99702c0,9.14576 -5.11233,16.55986 -11.41873,16.55986c-6.30639,0 -11.41873,-7.4141 -11.41873,-16.55986c0,-9.14576 5.11234,-16.55986 11.41873,-16.55986c6.30639,0 11.41873,7.4141 11.41873,16.55986z" fill="url(#color-1)"/><path d="M252.53396,179.98982c0,9.1398 -4.95732,16.54907 -11.07249,16.54907c-6.11517,0 -11.07249,-7.40927 -11.07249,-16.54906c0,-9.1398 4.95732,-16.54906 11.07249,-16.54906c6.11517,0 11.07249,7.40927 11.07249,16.54907z" fill="url(#color-2)"/><path d="M252.53396,180.0186c0,9.1398 -5.0157,16.54907 -11.20288,16.54907c-6.18718,0 -11.20288,-7.40927 -11.20288,-16.54906c0,-9.1398 5.0157,-16.54906 11.20288,-16.54906c6.18718,0 11.20288,7.40927 11.20288,16.54907z" fill="url(#color-3)"/><path d="M251.57702,179.98982c0,8.40088 -4.51117,15.21114 -10.07599,15.21114c-5.56482,0 -10.07598,-6.81026 -10.07598,-15.21114c0,-8.40088 4.51116,-15.21114 10.07598,-15.21114c5.56482,0 10.07599,6.81026 10.07599,15.21114z" fill="url(#color-4)"/><path d="M249.43352,179.98982c0,6.6615 -3.45811,12.06172 -7.72391,12.06172c-4.2658,0 -7.72391,-5.40021 -7.72391,-12.06171c0,-6.6615 3.45811,-12.06171 7.72391,-12.06171c4.2658,0 7.72391,5.40021 7.72391,12.06172z" fill="url(#color-5)"/><path d="M248.06287,179.99079c0,5.48877 -2.96264,9.9383 -6.61725,9.9383c-3.65461,0 -6.61725,-4.44953 -6.61725,-9.9383c0,-5.48877 2.96264,-9.9383 6.61725,-9.9383c3.65461,0 6.61725,4.44952 6.61725,9.9383z" fill="url(#color-6)"/><path d="M233.96068,178.99332c0,-4.17238 0.98714,-2.5902 4.46809,-2.5902c3.48095,0 6.30282,3.38237 6.30282,7.55475c0,4.17238 -0.42807,8.22666 -3.82054,7.44682c-2.9389,-0.67557 -4.5086,-2.43795 -5.46584,-4.31409c-1.33659,-2.61965 -1.48453,-5.66608 -1.48453,-8.09728z" fill="url(#color-7)"/><path d="M241.52654,186.78857v-13.33552h1.51083v13.33552z" fill="url(#color-8)"/><path d="M240.57005,186.77724v-13.32102h0.96908v13.32102z" fill="#f1c307"/><path d="M240.48586,178.04717v-4.62536h2.56456v4.62536z" fill="url(#color-9)"/></g></g></g></svg>