<svg version="1.1" xmlns="http://www.w3.org/2000/svg" xmlns:xlink="http://www.w3.org/1999/xlink" width="152" height="152" viewBox="0,0,152,152"><defs><radialGradient cx="256" cy="166.05556" r="28.61366" gradientUnits="userSpaceOnUse" id="color-1"><stop offset="0" stop-color="#fff528"/><stop offset="1" stop-color="#d29d0a"/></radialGradient><radialGradient cx="254" cy="177.5" r="28.50329" gradientUnits="userSpaceOnUse" id="color-2"><stop offset="0" stop-color="#feec2b"/><stop offset="1" stop-color="#d49f07"/></radialGradient><radialGradient cx="246.25" cy="161.125" r="26.53142" gradientUnits="userSpaceOnUse" id="color-3"><stop offset="0" stop-color="#c69807"/><stop offset="1" stop-color="#c89501"/></radialGradient><linearGradient x1="246.73573" y1="179.96801" x2="222.48838" y2="179.96801" gradientUnits="userSpaceOnUse" id="color-4"><stop offset="0" stop-color="#ad7b00"/><stop offset="1" stop-color="#eab705"/></linearGradient><radialGradient cx="223" cy="183.125" r="19.40681" gradientUnits="userSpaceOnUse" id="color-5"><stop offset="0" stop-color="#ffe522"/><stop offset="1" stop-color="#ffe522" stop-opacity="0"/></radialGradient></defs><g transform="translate(-164,-104)"><g data-paper-data="{&quot;isPaintingLayer&quot;:true}" fill-rule="nonzero" stroke="none" stroke-width="0" stroke-linecap="butt" stroke-linejoin="miter" stroke-miterlimit="10" stroke-dasharray="" stroke-dashoffset="0" style="mix-blend-mode: normal"><path d="M236.44231,208.57555v-2h7.07692v2z" data-paper-data="{&quot;index&quot;:null}" fill="#d29d0a"/><path d="M235.97917,152.94391v-1.5h6.95833v1.5z" data-paper-data="{&quot;index&quot;:null}" fill="#dfb612"/><path d="M261.3138,180c0,15.80288 -8.16393,28.61366 -18.23468,28.61366c-10.07072,0 -18.23468,-12.81079 -18.23468,-28.61366c0,-15.80288 8.16394,-28.61366 18.23469,-28.61366c10.07075,0 18.23469,12.81078 18.23469,28.61365z" data-paper-data="{&quot;index&quot;:null}" fill="url(#color-1)"/><path d="M251.02081,196.89152c-5.82598,12.71228 -17.01651,15.49232 -24.99477,6.20941c-7.97823,-9.28291 -9.723,-27.11352 -3.89703,-39.82579c5.82597,-12.71227 17.01652,-15.49232 24.99478,-6.20941c7.97822,9.28291 9.723,27.1135 3.89702,39.82577z" data-paper-data="{&quot;origRot&quot;:0,&quot;index&quot;:null}" fill="url(#color-2)"/><path d="M249.37103,194.88744c-5.03543,12.12929 -15.23247,15.29957 -22.77574,7.08101c-7.54326,-8.21857 -9.57626,-24.71377 -4.54083,-36.84308c2.11486,-5.09429 5.14025,-8.60822 8.49712,-10.36177c4.63568,-2.42157 9.9035,-1.48602 14.27861,3.28075c7.54329,8.21857 9.57628,24.71376 4.54086,36.84306z" data-paper-data="{&quot;index&quot;:null}" fill="url(#color-3)"/><g data-paper-data="{&quot;index&quot;:null}"><path d="M239.55674,198.90336c-6.1117,4.46333 -13.28002,-0.39603 -16.01088,-10.85374c-2.73086,-10.4577 0.00983,-22.55361 6.12151,-27.01696c6.11169,-4.46335 13.28002,0.39601 16.01088,10.85371c2.73087,10.4577 -0.00983,22.55362 -6.1215,27.01697z" data-paper-data="{&quot;origRot&quot;:0}" fill="url(#color-4)"/><path d="M239.09146,198.36034c-5.94626,4.34254 -12.92053,-0.38529 -15.5775,-10.55996c-2.65694,-10.17466 0.00956,-21.94315 5.95583,-26.28571c5.94627,-4.34255 15.56799,32.5031 9.62172,36.84566z" data-paper-data="{&quot;origRot&quot;:0}" fill="url(#color-5)"/></g><path d="M247.01502,180.00984c0,10.39595 -5.01104,18.82351 -11.19248,18.82351c-6.18143,0 -11.19247,-8.42757 -11.19247,-18.82351c0,-10.39595 5.01103,-18.82351 11.19247,-18.82351c6.18144,0 11.19249,8.42758 11.19249,18.82351z" data-paper-data="{&quot;index&quot;:null}" fill="#bb8907"/><path d="M164,256v-152h152v152z" data-paper-data="{&quot;origPos&quot;:null}" fill="none"/><g><path d="M229.63631,170.54248l2.30284,-1.66903h4.22745v3.13201z" fill="#fffa31"/><path d="M232.6607,191.07321l-2.06321,-1.88288l1.36236,-0.02438l4.20675,1.90726z" fill="#b98903"/><path d="M231.95348,189.17268v-18.67247l4.1214,-1.62366v22.25784z" fill="#ffce24"/><path d="M233.26782,170.5758l2.80533,-1.70184l4.01656,0.01702l-2.75002,1.72477z" fill="#fffa31"/><path d="M240.05655,176.36346l0.05105,14.77683l-4.30165,-1.95809l-0.0289,-14.78502l1.01656,-0.04795l-0.0791,-3.7955l3.37567,-1.65413z" fill="#ffce24"/><path d="M236.05738,191.06775l-2.7371,-1.88221h3.4002l3.37523,1.87795z" fill="#b98903"/><g><path d="M234.2848,185.65857v-11.04446h1.61097v11.04446z" fill="#ffce24"/><path d="M236.01488,174.6697l0.03292,1.82354l-1.80203,-1.82355z" data-paper-data="{&quot;index&quot;:null}" fill="#ffcc0d"/><path d="M234.19897,185.46281l1.84799,-1.82355l0.00938,1.85447z" fill="#feff37"/></g><path d="M229.69623,174.37316h1.22476v2.23649z" fill="#b98903"/><g data-paper-data="{&quot;index&quot;:null}" fill="#f2b00a"><path d="M230.6018,189.18814l0.00269,-14.78456l-0.97237,0.00149v-3.87687h2.33207v18.65994z"/><path d="M233.30401,189.21146v-18.71835h3.43101v18.71835zM235.61331,185.40547l-0.01728,-10.62028l-1.15031,0.00172l-0.00349,10.60134z"/></g></g></g></g></svg>