<svg version="1.1" xmlns="http://www.w3.org/2000/svg" xmlns:xlink="http://www.w3.org/1999/xlink" width="152" height="152" viewBox="0,0,152,152"><defs><radialGradient cx="218.83334" cy="165.83334" r="28.29956" gradientUnits="userSpaceOnUse" id="color-1"><stop offset="0" stop-color="#fffc3b"/><stop offset="1" stop-color="#dfaa02"/></radialGradient><radialGradient cx="219.25" cy="179.625" r="28.50329" gradientUnits="userSpaceOnUse" id="color-2"><stop offset="0" stop-color="#fffa38"/><stop offset="1" stop-color="#f2c00a"/></radialGradient><radialGradient cx="265.21551" cy="188.80163" r="20.61257" gradientUnits="userSpaceOnUse" id="color-3"><stop offset="0" stop-color="#bf8000"/><stop offset="1" stop-color="#bf8000" stop-opacity="0"/></radialGradient><radialGradient cx="228.16667" cy="167.16667" r="26.53143" gradientUnits="userSpaceOnUse" id="color-4"><stop offset="0" stop-color="#facd14"/><stop offset="1" stop-color="#facd0f"/></radialGradient><radialGradient cx="257.6423" cy="185.16921" r="20.61771" gradientUnits="userSpaceOnUse" id="color-5"><stop offset="0" stop-color="#fff949"/><stop offset="1" stop-color="#fff949" stop-opacity="0"/></radialGradient><radialGradient cx="246.00342" cy="159.83334" r="21.70945" gradientUnits="userSpaceOnUse" id="color-6"><stop offset="0" stop-color="#cb9604"/><stop offset="1" stop-color="#fac818"/></radialGradient><radialGradient cx="262.08562" cy="181.5" r="20.45878" gradientUnits="userSpaceOnUse" id="color-7"><stop offset="0" stop-color="#ffec19"/><stop offset="1" stop-color="#ffec19" stop-opacity="0"/></radialGradient><linearGradient x1="244.12951" y1="161.17992" x2="244.12951" y2="198.82694" gradientUnits="userSpaceOnUse" id="color-8"><stop offset="0" stop-color="#e7b913"/><stop offset="1" stop-color="#edbb09"/></linearGradient></defs><g transform="translate(-164,-104)"><g data-paper-data="{&quot;isPaintingLayer&quot;:true}" fill-rule="nonzero" stroke="none" stroke-width="0" stroke-linecap="butt" stroke-linejoin="miter" stroke-miterlimit="10" stroke-dasharray="" stroke-dashoffset="0" style="mix-blend-mode: normal"><path d="M164,256v-152h152v152z" data-paper-data="{&quot;origPos&quot;:null}" fill="none"/><path d="M213.16616,179.99999c0,-15.6294 11.13192,-28.29955 24.86386,-28.29955c13.73194,0 24.86386,12.67015 24.86386,28.29956c0,15.6294 -11.13194,28.29956 -24.86385,28.29956c-13.73194,0 -24.86385,-12.67015 -24.86385,-28.29956z" fill="url(#color-1)"/><path d="M223.5197,196.80817c-7.79665,-12.71227 -5.4617,-30.54286 5.21522,-39.82577c10.67695,-9.28291 25.65278,-6.50286 33.44942,6.20941c7.79663,12.71227 5.4617,30.54288 -5.21523,39.82579c-10.67695,9.28291 -25.65276,6.50287 -33.44941,-6.20941z" data-paper-data="{&quot;origRot&quot;:0}" fill="url(#color-2)"/><path d="M266.83384,180.0993c0,15.6294 -12.94368,28.29956 -28.91051,28.29956c-15.96684,0 28.91051,-66.0029 28.91051,-28.29956z" fill="url(#color-3)"/><path d="M225.4201,194.881c-6.77441,-12.1293 -4.03932,-28.62449 6.10905,-36.84306c5.88605,-4.76677 12.97313,-5.70232 19.20975,-3.28075c4.51616,1.75355 8.58638,5.26748 11.43161,10.36177c6.77442,12.12931 4.03932,28.62451 -6.10903,36.84308c-10.14835,8.21856 -23.86696,5.04828 -30.64138,-7.08101z" fill="url(#color-4)"/><path d="M229.38309,198.51657c-10.8187,-4.3737 6.68716,-41.48366 17.50586,-37.10996c10.81869,4.3737 15.67017,16.22662 10.83609,26.47426c-4.8341,10.24765 -17.52321,15.0094 -28.34191,10.63571z" data-paper-data="{&quot;origRot&quot;:0}" fill="url(#color-5)"/><g><path d="M238.10047,198.99383c-8.56997,-4.48619 -12.41306,-16.64401 -8.58373,-27.15523c3.8293,-10.51122 13.88093,-15.39544 22.45091,-10.90925c8.56997,4.48619 12.41305,16.644 8.58376,27.15522c-3.82929,10.51123 -13.88094,15.39545 -22.45092,10.90928z" data-paper-data="{&quot;origRot&quot;:0}" fill="url(#color-6)"/><path d="M238.75284,198.44803c-8.33803,-4.36478 5.15383,-41.39898 13.49185,-37.0342c8.33802,4.36478 12.07708,16.1935 8.35143,26.42022c-3.72566,10.22673 -13.50521,14.97876 -21.84323,10.614z" data-paper-data="{&quot;origRot&quot;:0}" fill="url(#color-7)"/></g><path d="M228.42982,180.00343c0,-10.39593 7.029,-18.82351 15.6997,-18.82351c8.6707,0 15.69967,8.42756 15.69967,18.82351c0,10.39594 -7.02898,18.82351 -15.69967,18.82351c-8.6707,0 -15.69969,-8.42756 -15.69969,-18.82351z" fill="url(#color-8)"/><g><path d="M247.91334,185.64305v-11.02666h2.17167v11.02666z" fill="#ffd528"/><path d="M250.17835,174.67188l-2.18297,1.82061l0.04438,-1.8206z" data-paper-data="{&quot;index&quot;:null}" fill="#ffce18"/><path d="M247.98389,185.47847l0.01265,-1.85148l2.16283,1.82061z" fill="#feff37"/><path d="M243.09753,172.01194v-3.12696h9.11019v3.12696z" fill="#feff37"/><path d="M243.09753,191.04896v-3.12696h9.10657v3.12696z" fill="#b68c09"/><path d="M243.22119,191.11003v-22.22196l2.83975,1.62104v18.64238z" fill="#ffd528"/><path d="M239.7353,170.62446l-3.6491,-1.72199l7.13731,-0.01699l0.52266,1.6991z" fill="#feff37"/><path d="M236.08559,176.36367v-7.45259l3.66132,1.65146l-0.03484,3.78939l1.6981,0.04787l-0.03893,14.76119l-3.58629,1.95493l0.0688,-14.75301z" fill="#ffd528"/><path d="M237.80094,191.03926l3.57843,-1.87493h2.37815l-0.51271,1.87918z" fill="#b68c09"/><path d="M251.95275,189.21735v-18.67326l0.24557,-1.65605v22.11944z" data-paper-data="{&quot;index&quot;:null}" fill="#9b7401"/></g><g fill="#fceb12"><path d="M241.40131,189.16693l0.00463,-14.76073l-1.67447,0.00149v-3.87063h4.01595v18.62987z"/><path d="M246.05467,189.19021v-18.68818h5.9084v18.68818zM250.03143,185.39036l-0.02976,-10.60316l-1.9809,0.00171l-0.00603,10.58425z"/></g></g></g></svg>