<svg version="1.1" xmlns="http://www.w3.org/2000/svg" xmlns:xlink="http://www.w3.org/1999/xlink" width="152" height="152" viewBox="0,0,152,152"><defs><radialGradient cx="261.16666" cy="165.83334" r="28.29956" gradientUnits="userSpaceOnUse" id="color-1"><stop offset="0" stop-color="#fffc3b"/><stop offset="1" stop-color="#dfaa02"/></radialGradient><radialGradient cx="260.75" cy="179.625" r="28.50329" gradientUnits="userSpaceOnUse" id="color-2"><stop offset="0" stop-color="#fffa38"/><stop offset="1" stop-color="#f2c00a"/></radialGradient><radialGradient cx="214.78449" cy="188.80163" r="20.61257" gradientUnits="userSpaceOnUse" id="color-3"><stop offset="0" stop-color="#bf8000"/><stop offset="1" stop-color="#bf8000" stop-opacity="0"/></radialGradient><radialGradient cx="251.83333" cy="167.16667" r="26.53143" gradientUnits="userSpaceOnUse" id="color-4"><stop offset="0" stop-color="#facd14"/><stop offset="1" stop-color="#facd0f"/></radialGradient><radialGradient cx="222.3577" cy="185.16921" r="20.61771" gradientUnits="userSpaceOnUse" id="color-5"><stop offset="0" stop-color="#fff949"/><stop offset="1" stop-color="#fff949" stop-opacity="0"/></radialGradient><radialGradient cx="234.31036" cy="159.83334" r="21.33035" gradientUnits="userSpaceOnUse" id="color-6"><stop offset="0" stop-color="#cb9604"/><stop offset="1" stop-color="#fac818"/></radialGradient><radialGradient cx="218.50899" cy="181.5" r="20.10154" gradientUnits="userSpaceOnUse" id="color-7"><stop offset="0" stop-color="#ffec19"/><stop offset="1" stop-color="#ffec19" stop-opacity="0"/></radialGradient><linearGradient x1="236.15156" y1="161.17992" x2="236.15156" y2="198.82694" gradientUnits="userSpaceOnUse" id="color-8"><stop offset="0" stop-color="#e7b913"/><stop offset="1" stop-color="#edbb09"/></linearGradient></defs><g transform="translate(-164,-104)"><g data-paper-data="{&quot;isPaintingLayer&quot;:true}" fill-rule="nonzero" stroke="none" stroke-width="0" stroke-linecap="butt" stroke-linejoin="miter" stroke-miterlimit="10" stroke-dasharray="" stroke-dashoffset="0" style="mix-blend-mode: normal"><path d="M266.83382,180c0,15.62941 -11.13191,28.29956 -24.86385,28.29956c-13.73191,0 -24.86385,-12.67016 -24.86385,-28.29956c0,-15.62941 11.13192,-28.29956 24.86386,-28.29956c13.73194,0 24.86386,12.67015 24.86386,28.29955z" data-paper-data="{&quot;index&quot;:null}" fill="url(#color-1)"/><path d="M256.4803,196.80819c-7.79665,12.71228 -22.77246,15.49232 -33.44941,6.20941c-10.67693,-9.28291 -13.01186,-27.11352 -5.21523,-39.82579c7.79664,-12.71227 22.77247,-15.49232 33.44942,-6.20941c10.67692,9.28291 13.01187,27.1135 5.21522,39.82577z" data-paper-data="{&quot;origRot&quot;:0,&quot;index&quot;:null}" fill="url(#color-2)"/><path d="M242.07667,208.39886c-15.96683,0 -28.91051,-12.67016 -28.91051,-28.29956c0,-37.70334 44.87735,28.29956 28.91051,28.29956z" data-paper-data="{&quot;index&quot;:null}" fill="url(#color-3)"/><path d="M254.5799,194.88103c-6.77442,12.12929 -20.49303,15.29957 -30.64138,7.08101c-10.14835,-8.21857 -12.88345,-24.71377 -6.10903,-36.84308c2.84523,-5.09429 6.91545,-8.60822 11.43161,-10.36177c6.23662,-2.42157 13.3237,-1.48602 19.20975,3.28075c10.14837,8.21857 12.88346,24.71376 6.10905,36.84306z" data-paper-data="{&quot;index&quot;:null}" fill="url(#color-4)"/><path d="M250.61687,198.51658c-10.8187,4.37369 -23.50781,-0.38806 -28.34191,-10.63571c-4.83408,-10.24764 0.0174,-22.10056 10.83609,-26.47426c10.8187,-4.3737 28.32456,32.73626 17.50586,37.10996z" data-paper-data="{&quot;origRot&quot;:0,&quot;index&quot;:null}" fill="url(#color-5)"/><g data-paper-data="{&quot;index&quot;:null}"><path d="M242.07529,198.99385c-8.42033,4.48617 -18.29646,-0.39805 -22.05888,-10.90928c-3.76242,-10.51122 0.01355,-22.66903 8.43387,-27.15522c8.42032,-4.48619 18.29644,0.39803 22.05887,10.90925c3.76246,10.51122 -0.01352,22.66904 -8.43384,27.15523z" data-paper-data="{&quot;origRot&quot;:0}" fill="url(#color-6)"/><path d="M241.43428,198.44805c-8.19242,4.36476 -17.8012,-0.38727 -21.46181,-10.614c-3.66059,-10.22672 0.01318,-22.05544 8.2056,-26.42022c8.19242,-4.36478 21.44869,32.66942 13.25626,37.0342z" data-paper-data="{&quot;origRot&quot;:0}" fill="url(#color-7)"/></g><path d="M251.57709,180.00343c0,10.39595 -6.90625,18.82351 -15.42554,18.82351c-8.51928,0 -15.42553,-8.42757 -15.42553,-18.82351c0,-10.39595 6.90624,-18.82351 15.42553,-18.82351c8.51929,0 15.42555,8.42758 15.42555,18.82351z" data-paper-data="{&quot;index&quot;:null}" fill="url(#color-8)"/><path d="M164,256v-152h152v152z" fill="none"/><g><path d="M227.95174,172.01194v-3.12696h9.23497v3.12696z" fill="#feff37"/><path d="M229.59706,191.04896l0.22919,-1.82824l2.44087,-0.07361l4.9196,1.90185z" fill="#b68c09"/><path d="M232.24259,189.15149v-18.64238l2.47445,-1.62104v22.22196z" fill="#ffd528"/><path d="M234.58907,170.58459l-0.33606,-1.6991l8.23952,0.01699l-1.89755,1.72199z" fill="#feff37"/><path d="M242.50233,176.36292l0.06974,14.75301l-3.63541,-1.95493l-0.03946,-14.76119l1.72136,-0.04787l-0.03532,-3.78939l1.90993,-1.65146z" fill="#ffd528"/><path d="M234.39374,191.05323l0.25312,-1.8889h5.94451l1.96448,1.87493z" fill="#b68c09"/><path d="M227.92353,176.20901l0.07462,-1.98752h2.68633v1.98752z" fill="#9b7401"/><path d="M227.96127,176.28511v-7.39706l0.24893,1.65605v3.95089z" data-paper-data="{&quot;index&quot;:null}" fill="#9b7401"/><g><path d="M236.6168,185.64305v-11.02666h2.20142v11.02666z" fill="#ffd528"/><path d="M238.69007,174.67189l0.04499,1.8206l-2.21287,-1.82061z" data-paper-data="{&quot;index&quot;:null}" fill="#ffce18"/><path d="M236.54142,185.4476l2.19245,-1.82061l0.01282,1.85148z" fill="#feff37"/></g><g data-paper-data="{&quot;index&quot;:null}" fill="#fceb12"><path d="M229.89245,189.16693l0.00469,-14.76073l-1.69741,0.00149v-3.87063h4.07096v18.62987z"/><path d="M234.60955,189.19021v-18.68818h5.98933v18.68818zM238.64078,185.39036l-0.03017,-10.60316l-2.00803,0.00171l-0.00611,10.58425z"/></g><path d="M229.60291,191.00748v-14.83187l0.32355,-1.7301v14.77184z" data-paper-data="{&quot;index&quot;:null}" fill="#9b7401"/></g></g></g></svg>