<svg version="1.1" xmlns="http://www.w3.org/2000/svg" xmlns:xlink="http://www.w3.org/1999/xlink" width="152" height="152" viewBox="0,0,152,152"><defs><linearGradient x1="239.22297" y1="151.70044" x2="239.22297" y2="208.29956" gradientUnits="userSpaceOnUse" id="color-1"><stop offset="0" stop-color="#fffa44"/><stop offset="1" stop-color="#e2b500"/></linearGradient><linearGradient x1="225.96043" y1="156.9824" x2="257.57552" y2="203.01758" gradientUnits="userSpaceOnUse" id="color-2"><stop offset="0" stop-color="#fffa3e"/><stop offset="1" stop-color="#e6b800"/></linearGradient><radialGradient cx="267.04752" cy="188.80163" r="19.96681" gradientUnits="userSpaceOnUse" id="color-3"><stop offset="0" stop-color="#d18c00"/><stop offset="1" stop-color="#d18c00" stop-opacity="0"/></radialGradient><linearGradient x1="228.51551" y1="158.03793" x2="256.20574" y2="201.96202" gradientUnits="userSpaceOnUse" id="color-4"><stop offset="0" stop-color="#ffe100"/><stop offset="1" stop-color="#ffe138"/></linearGradient><radialGradient cx="258.91176" cy="185.16921" r="19.54602" gradientUnits="userSpaceOnUse" id="color-5"><stop offset="0" stop-color="#fff949"/><stop offset="1" stop-color="#fff949" stop-opacity="0"/></radialGradient><linearGradient x1="225.85371" y1="171.81144" x2="260.33394" y2="188.11174" gradientUnits="userSpaceOnUse" id="color-6"><stop offset="0" stop-color="#d8a30e"/><stop offset="1" stop-color="#ffdd00"/></linearGradient><radialGradient cx="260.31273" cy="185.1452" r="17.65433" gradientUnits="userSpaceOnUse" id="color-7"><stop offset="0" stop-color="#fff949"/><stop offset="1" stop-color="#fff949" stop-opacity="0"/></radialGradient><linearGradient x1="242.81634" y1="161.17993" x2="242.81634" y2="198.82693" gradientUnits="userSpaceOnUse" id="color-8"><stop offset="0" stop-color="#fcd600"/><stop offset="1" stop-color="#ffda22"/></linearGradient></defs><g transform="translate(-164,-104)"><g data-paper-data="{&quot;isPaintingLayer&quot;:true}" fill-rule="nonzero" stroke="none" stroke-width="0" stroke-linecap="butt" stroke-linejoin="miter" stroke-miterlimit="10" stroke-dasharray="" stroke-dashoffset="0" style="mix-blend-mode: normal"><path d="M211.38485,179.99999c0,-15.6294 12.46355,-28.29955 27.83812,-28.29955c15.37458,0 27.83812,12.67015 27.83812,28.29956c0,15.6294 -12.46357,28.29956 -27.83811,28.29956c-15.37458,0 -27.83811,-12.67015 -27.83811,-28.29956z" fill="url(#color-1)"/><path d="M220.1207,196.80817c-8.73027,-12.71227 -6.11571,-30.54286 5.83973,-39.82577c11.95545,-9.28291 28.72457,-6.50286 37.45482,6.20941c8.73025,12.71227 6.11571,30.54288 -5.83975,39.82579c-11.95545,9.28291 -28.72454,6.50287 -37.45481,-6.20941z" data-paper-data="{&quot;origRot&quot;:0}" fill="url(#color-2)"/><path d="M268.61515,180.0993c0,15.6294 -12.53817,28.29956 -28.00478,28.29956c-15.46662,0 28.00478,-66.0029 28.00478,-28.29956z" fill="url(#color-3)"/><path d="M221.62008,194.881c-7.64644,-12.1293 -4.55927,-28.62449 6.89545,-36.84306c6.64372,-4.76677 14.64309,-5.70232 21.68251,-3.28075c5.09751,1.75355 9.69165,5.26748 12.90315,10.36177c7.64646,12.12931 4.55928,28.62451 -6.89542,36.84308c-11.45469,8.21856 -26.93922,5.04828 -34.58567,-7.08101z" fill="url(#color-4)"/><path d="M232.12145,198.51657c-10.25636,-4.3737 6.33957,-41.48366 16.59592,-37.10996c10.25635,4.3737 14.85565,16.22662 10.27283,26.47426c-4.58283,10.24765 -16.61237,15.0094 -26.86872,10.63571z" data-paper-data="{&quot;origRot&quot;:0}" fill="url(#color-5)"/><g><path d="M235.39044,199.05747c-9.52144,-4.5012 -13.79118,-16.69966 -9.53671,-27.24603c4.25446,-10.54636 15.42203,-15.44692 24.94347,-10.94573c9.52145,4.5012 13.79117,16.69965 9.53673,27.24602c-4.25445,10.54637 -15.42203,15.44693 -24.94348,10.94576z" data-paper-data="{&quot;origRot&quot;:0}" fill="url(#color-6)"/><path d="M236.11522,198.50985c-9.26373,-4.37937 5.72602,-41.53741 14.98976,-37.15804c9.26372,4.37937 13.41791,16.24764 9.27863,26.50856c-4.1393,10.26093 -15.00461,15.02884 -24.26833,10.64949z" data-paper-data="{&quot;origRot&quot;:0}" fill="url(#color-7)"/></g><path d="M225.67667,180.00343c0,-10.39593 7.6737,-18.82351 17.13967,-18.82351c9.46597,0 17.13965,8.42756 17.13965,18.82351c0,10.39594 -7.67368,18.82351 -17.13965,18.82351c-9.46597,0 -17.13966,-8.42756 -17.13966,-18.82351z" fill="url(#color-8)"/><path d="M164,256v-152h152v152z" data-paper-data="{&quot;origPos&quot;:null}" fill="none"/><g><path d="M247.46862,185.64304v-11.02668h2.25114v11.02668z" fill="#fec207"/><path d="M245.51542,185.51961v-11.19124h1.95319v11.19125z" fill="#9e7304"/><path d="M249.08836,174.67185l-1.55594,1.85149l-1.12409,-1.85148z" data-paper-data="{&quot;index&quot;:null}" fill="#ffcc0d"/><path d="M246.34452,185.47846l1.12409,-1.85148l1.55593,1.85149z" fill="#feff37"/><path d="M241.08981,172.01191v-3.12697h12.41434v3.12697z" fill="#feff37"/><path d="M241.08981,191.04896v-3.12697h12.41434v3.12697z" fill="#d19e04"/><path d="M241.24813,191.11003v-22.22201l2.36162,1.55931v18.70416z" fill="#fcc70b"/><path d="M234.27344,170.67227l-2.16033,-1.76984l9.13797,-0.01699l-1.00223,1.78683z" fill="#feff37"/><path d="M240.11807,189.20432l0.01492,-18.57232l1.12058,-1.748v22.20734z" fill="#ad8001"/><path d="M232.11234,176.36364v-7.4526l2.23505,1.65147l-0.13671,3.8851l2.43433,0.00002l-0.00378,14.76122l-2.35317,1.90709l0.08809,-14.75304z" fill="#fcc70b"/><path d="M234.30853,191.03926l2.35833,-1.87493h3.45144l1.16007,1.87918z" fill="#d19e04"/><path d="M252.29622,189.27909v-18.70417l1.20051,-1.68692v22.22201z" data-paper-data="{&quot;index&quot;:null}" fill="#ad8001"/></g><g fill="#fceb12"><path d="M236.69138,189.16693l0.00685,-14.76076l-2.47189,0.00149v-3.87064h5.92847v18.6299z"/><path d="M243.56085,189.19021v-18.68822h8.72216v18.68822zM249.43143,185.39035l-0.04395,-10.60319l-2.92428,0.00171l-0.00891,10.58427z"/></g></g></g></svg>