<svg version="1.1" xmlns="http://www.w3.org/2000/svg" xmlns:xlink="http://www.w3.org/1999/xlink" width="152" height="152" viewBox="0,0,152,152"><defs><radialGradient cx="221" cy="165.25" r="28.41067" gradientUnits="userSpaceOnUse" id="color-1"><stop offset="0" stop-color="#fff528"/><stop offset="1" stop-color="#d29d0a"/></radialGradient><radialGradient cx="222" cy="177.75" r="28.50329" gradientUnits="userSpaceOnUse" id="color-2"><stop offset="0" stop-color="#feec2b"/><stop offset="1" stop-color="#d49f07"/></radialGradient><linearGradient x1="233.27768" y1="158.03793" x2="255.21351" y2="201.96202" gradientUnits="userSpaceOnUse" id="color-3"><stop offset="0" stop-color="#c69807"/><stop offset="1" stop-color="#c89501"/></linearGradient><radialGradient cx="256.61048" cy="185.16921" r="20.95211" gradientUnits="userSpaceOnUse" id="color-4"><stop offset="0" stop-color="#fff949"/><stop offset="1" stop-color="#fff949" stop-opacity="0"/></radialGradient><linearGradient x1="231.9328" y1="171.81144" x2="258.85284" y2="188.11174" gradientUnits="userSpaceOnUse" id="color-5"><stop offset="0" stop-color="#ad7b00"/><stop offset="1" stop-color="#eab705"/></linearGradient><radialGradient cx="260.60305" cy="181.25" r="19.97343" gradientUnits="userSpaceOnUse" id="color-6"><stop offset="0" stop-color="#ffe522"/><stop offset="1" stop-color="#ffe522" stop-opacity="0"/></radialGradient><linearGradient x1="244.3619" y1="161.17993" x2="244.3619" y2="198.82693" gradientUnits="userSpaceOnUse" id="color-7"><stop offset="0" stop-color="#bb8907"/><stop offset="1" stop-color="#b88706"/></linearGradient></defs><g transform="translate(-164,-104)"><g data-paper-data="{&quot;isPaintingLayer&quot;:true}" fill-rule="nonzero" stroke="none" stroke-width="0" stroke-linecap="butt" stroke-linejoin="miter" stroke-miterlimit="10" stroke-dasharray="" stroke-dashoffset="0" style="mix-blend-mode: normal"><path d="M164,256v-152h152v152z" data-paper-data="{&quot;origPos&quot;:null}" fill="none"/><path d="M215.47785,179.99999c0,-15.69076 10.40252,-28.41066 23.23469,-28.41066c12.83217,0 23.23469,12.7199 23.23469,28.41067c0,15.69076 -10.40254,28.41067 -23.23468,28.41067c-12.83217,0 -23.23468,-12.7199 -23.23468,-28.41067z" fill="url(#color-1)"/><path d="M226.08707,196.80817c-6.92515,-12.71227 -4.85119,-30.54286 4.63226,-39.82577c9.48349,-9.28291 22.78532,-6.50286 29.71046,6.20941c6.92513,12.71227 4.85119,30.54288 -4.63227,39.82579c-9.48349,9.28291 -22.7853,6.50287 -29.71045,-6.20941z" data-paper-data="{&quot;origRot&quot;:0}" fill="url(#color-2)"/><path d="M227.8152,194.881c-6.05741,-12.1293 -3.6118,-28.62449 5.46247,-36.84306c5.26308,-4.76677 11.60006,-5.70232 17.1766,-3.28075c4.03818,1.75355 7.67761,5.26748 10.2217,10.36177c6.05742,12.12931 3.6118,28.62451 -5.46244,36.84308c-9.07425,8.21856 -21.34089,5.04828 -27.39831,-7.08101z" fill="url(#color-3)"/><path d="M227.89293,198.51657c-10.99417,-4.3737 6.79562,-41.48366 17.78979,-37.10996c10.99416,4.3737 15.92433,16.22662 11.01184,26.47426c-4.9125,10.24765 -17.80742,15.0094 -28.80159,10.63571z" data-paper-data="{&quot;origRot&quot;:0}" fill="url(#color-4)"/><g><path d="M239.3785,199.05747c-7.43374,-4.5012 -10.7673,-16.69966 -7.44568,-27.24603c3.3216,-10.54636 12.04056,-15.44692 19.47433,-10.94573c7.43374,4.5012 10.7673,16.69965 7.4457,27.24602c-3.32159,10.54637 -12.04056,15.44693 -19.47434,10.94576z" data-paper-data="{&quot;origRot&quot;:0}" fill="url(#color-5)"/><path d="M239.94438,198.50985c-7.23257,-4.37937 4.47052,-41.53741 11.70307,-37.15804c7.23256,4.37937 10.47587,16.24764 7.24419,26.50856c-3.23172,10.26093 -11.71467,15.02884 -18.94721,10.64949z" data-paper-data="{&quot;origRot&quot;:0}" fill="url(#color-6)"/></g><path d="M230.84735,180.00343c0,-10.39593 6.05068,-18.82351 13.51455,-18.82351c7.46388,0 13.51453,8.42756 13.51453,18.82351c0,10.39594 -6.05067,18.82351 -13.51453,18.82351c-7.46388,0 -13.51454,-8.42756 -13.51454,-18.82351z" fill="url(#color-7)"/><g fill="#fceb12"><path d="M242.68597,189.57926l0.00338,-15.4247l-1.2217,0.00156v-4.04474h2.93006v19.46788z"/><path d="M246.08108,189.60359v-19.52882h4.31079v19.52882zM248.98254,185.63281l-0.02172,-11.08012l-1.44528,0.00179l-0.0044,11.06035z"/></g><g><path d="M248.15912,185.64305v-11.02666h1.91069v11.02666z" fill="#ffce24"/><path d="M250.04387,174.67188l-1.92064,1.82061l0.03905,-1.8206z" data-paper-data="{&quot;index&quot;:null}" fill="#f5bb0b"/><path d="M248.11313,185.47847l0.01113,-1.85148l1.90291,1.82061z" fill="#fffa31"/><path d="M243.81401,172.01194v-3.12696h7.74519v1.66634z" fill="#fffa31"/><path d="M243.81401,191.04896v-3.12696l7.742,1.30951v1.81745z" fill="#b98903"/><path d="M243.92281,191.11003v-22.22196l2.95183,1.62104v18.64238z" fill="#ffce24"/><path d="M241.87723,170.62446l-4.23192,-1.72199l6.27954,-0.01699l1.06213,1.6991z" fill="#fffa31"/><path d="M237.64476,176.36367v-7.45259l4.30985,1.65146l-0.03066,3.78939l1.27792,0.04787l-0.03425,14.76119l-4.02774,1.95493l0.06054,-14.75301z" fill="#ffce24"/><path d="M239.15397,191.03926l4.07483,-1.87493l1.82879,-0.05317l-1.11399,1.93235z" fill="#b98903"/></g><g fill="#f3b10a"><path d="M243.1563,189.16693l0.00368,-14.76073l-1.33279,0.00149v-3.87063h3.19648v18.62987z"/><path d="M246.86012,189.19021v-18.68818h4.70275v18.68818zM250.02539,185.39036l-0.02369,-10.60316l-1.57669,0.00171l-0.00479,10.58425z"/></g></g></g></svg>