<svg version="1.1" xmlns="http://www.w3.org/2000/svg" xmlns:xlink="http://www.w3.org/1999/xlink" width="152" height="152" viewBox="0,0,152,152"><defs><radialGradient cx="259" cy="165.25" r="28.41067" gradientUnits="userSpaceOnUse" id="color-1"><stop offset="0" stop-color="#fff528"/><stop offset="1" stop-color="#d29d0a"/></radialGradient><radialGradient cx="258" cy="177.75" r="28.50329" gradientUnits="userSpaceOnUse" id="color-2"><stop offset="0" stop-color="#feec2b"/><stop offset="1" stop-color="#d49f07"/></radialGradient><linearGradient x1="246.72232" y1="158.03793" x2="224.78649" y2="201.96202" gradientUnits="userSpaceOnUse" id="color-3"><stop offset="0" stop-color="#c69807"/><stop offset="1" stop-color="#c89501"/></linearGradient><radialGradient cx="223.38952" cy="185.16921" r="20.95211" gradientUnits="userSpaceOnUse" id="color-4"><stop offset="0" stop-color="#fff949"/><stop offset="1" stop-color="#fff949" stop-opacity="0"/></radialGradient><linearGradient x1="248.0672" y1="171.81144" x2="221.14716" y2="188.11174" gradientUnits="userSpaceOnUse" id="color-5"><stop offset="0" stop-color="#ad7b00"/><stop offset="1" stop-color="#eab705"/></linearGradient><radialGradient cx="219.39695" cy="181.25" r="19.97343" gradientUnits="userSpaceOnUse" id="color-6"><stop offset="0" stop-color="#ffe522"/><stop offset="1" stop-color="#ffe522" stop-opacity="0"/></radialGradient><linearGradient x1="235.6381" y1="161.17993" x2="235.6381" y2="198.82693" gradientUnits="userSpaceOnUse" id="color-7"><stop offset="0" stop-color="#bb8907"/><stop offset="1" stop-color="#b88706"/></linearGradient></defs><g transform="translate(-164,-104)"><g data-paper-data="{&quot;isPaintingLayer&quot;:true}" fill-rule="nonzero" stroke="none" stroke-width="0" stroke-linecap="butt" stroke-linejoin="miter" stroke-miterlimit="10" stroke-dasharray="" stroke-dashoffset="0" style="mix-blend-mode: normal"><path d="M264.52213,180c0,15.69077 -10.40251,28.41067 -23.23468,28.41067c-12.83214,0 -23.23468,-12.71991 -23.23468,-28.41067c0,-15.69077 10.40252,-28.41067 23.23469,-28.41067c12.83217,0 23.23469,12.7199 23.23469,28.41066z" data-paper-data="{&quot;index&quot;:null}" fill="url(#color-1)"/><path d="M253.91293,196.80819c-6.92515,12.71228 -20.22696,15.49232 -29.71045,6.20941c-9.48346,-9.28291 -11.5574,-27.11352 -4.63227,-39.82579c6.92514,-12.71227 20.22697,-15.49232 29.71046,-6.20941c9.48345,9.28291 11.55741,27.1135 4.63226,39.82577z" data-paper-data="{&quot;origRot&quot;:0,&quot;index&quot;:null}" fill="url(#color-2)"/><path d="M252.18478,194.88103c-6.05742,12.12929 -18.32406,15.29957 -27.39831,7.08101c-9.07424,-8.21857 -11.51986,-24.71377 -5.46244,-36.84308c2.54409,-5.09429 6.18352,-8.60822 10.2217,-10.36177c5.57654,-2.42157 11.91352,-1.48602 17.1766,3.28075c9.07427,8.21857 11.51988,24.71376 5.46247,36.84306z" data-paper-data="{&quot;index&quot;:null}" fill="url(#color-3)"/><path d="M252.10703,198.51658c-10.99417,4.37369 -23.88909,-0.38806 -28.80159,-10.63571c-4.91249,-10.24764 0.01768,-22.10056 11.01184,-26.47426c10.99417,-4.3737 28.78396,32.73626 17.78979,37.10996z" data-paper-data="{&quot;origRot&quot;:0,&quot;index&quot;:null}" fill="url(#color-4)"/><g data-paper-data="{&quot;index&quot;:null}"><path d="M240.62149,199.05749c-7.43378,4.50117 -16.15275,-0.39939 -19.47434,-10.94576c-3.3216,-10.54637 0.01196,-22.74482 7.4457,-27.24602c7.43377,-4.50119 16.15273,0.39937 19.47433,10.94573c3.32162,10.54637 -0.01194,22.74483 -7.44568,27.24603z" data-paper-data="{&quot;origRot&quot;:0}" fill="url(#color-5)"/><path d="M240.05557,198.50986c-7.23255,4.37935 -15.7155,-0.38856 -18.94721,-10.64949c-3.23168,-10.26092 0.01163,-22.12919 7.24419,-26.50856c7.23256,-4.37937 18.93564,32.77867 11.70307,37.15804z" data-paper-data="{&quot;origRot&quot;:0}" fill="url(#color-6)"/></g><path d="M249.15264,180.00343c0,10.39595 -6.05066,18.82351 -13.51454,18.82351c-7.46386,0 -13.51453,-8.42757 -13.51453,-18.82351c0,-10.39595 6.05064,-18.82351 13.51453,-18.82351c7.46387,0 13.51455,8.42758 13.51455,18.82351z" data-paper-data="{&quot;index&quot;:null}" fill="url(#color-7)"/><path d="M164,256v-152h152v152z" data-paper-data="{&quot;origPos&quot;:null}" fill="none"/><g><g data-paper-data="{&quot;index&quot;:null}" fill="#fceb12"><path d="M234.9951,189.16693v-18.62987h2.80393v3.87063l-1.16911,-0.00149l0.00323,14.76073z"/><path d="M229.47326,189.19021v-18.68818h3.91094v18.68818zM232.01569,185.37315l-0.00421,-10.58425l-1.38307,-0.00171l-0.02079,10.60316z"/></g><path d="M228.03189,170.55132l2.78387,-1.49235l4.96133,-0.17399v3.12696z" fill="#fffa31"/><path d="M231.46599,190.98915l-2.1749,-1.87726l1.94046,0.0063l4.54553,1.93077z" fill="#b98903"/><path d="M231.22121,189.15149v-18.64238l4.44707,-1.62104v22.22196z" fill="#ffce24"/><path d="M241.40817,191.11593l-4.9847,-1.95493l-0.03425,-14.76119l1.27792,-0.04787l-0.03066,-3.78939l3.71176,-1.65146z" fill="#ffce24"/><path d="M235.52788,191.04351l-2.4298,-1.93235l4.69965,0.05317l3.42236,1.87493z" fill="#b98903"/><g><path d="M234.48548,185.64305v-11.02666h1.91069v11.02666z" fill="#ffce24"/><path d="M236.393,174.67189l0.03905,1.8206l-1.92064,-1.82061z" data-paper-data="{&quot;index&quot;:null}" fill="#f5bb0b"/><path d="M234.52812,185.4476l1.90291,-1.82061l0.01113,1.85148z" fill="#fffa31"/></g><path d="M227.98587,174.31146h2.02024v2.87086z" fill="#b98903"/><g data-paper-data="{&quot;index&quot;:null}" fill="#f3b10a"><path d="M229.35733,189.16693l0.00368,-14.76073l-1.33279,0.00149v-3.87063h3.19648v18.62987z"/><path d="M233.06115,189.19021v-18.68818h4.70275v18.68818zM236.22641,185.39036l-0.02369,-10.60316l-1.57669,0.00171l-0.00479,10.58425z"/></g></g><path d="M233.64285,170.52478l2.61718,-1.63929l5.70863,0.10398l-3.66101,1.63499z" fill="#fffa31"/></g></g></svg>