<svg version="1.1" xmlns="http://www.w3.org/2000/svg" xmlns:xlink="http://www.w3.org/1999/xlink" width="357" height="357" viewBox="0,0,357,357"><defs><linearGradient x1="207.3019" y1="91.28459" x2="272.90937" y2="91.28459" gradientUnits="userSpaceOnUse" id="color-1"><stop offset="0" stop-color="#d6ae04"/><stop offset="1" stop-color="#a46a00"/></linearGradient><linearGradient x1="207.04075" y1="91.2753" x2="214.22167" y2="91.2753" gradientUnits="userSpaceOnUse" id="color-2"><stop offset="0" stop-color="#d1ac30"/><stop offset="1" stop-color="#d1ac30" stop-opacity="0"/></linearGradient><linearGradient x1="260.89765" y1="91.26598" x2="272.97464" y2="91.26598" gradientUnits="userSpaceOnUse" id="color-3"><stop offset="0" stop-color="#bb7b09" stop-opacity="0"/><stop offset="1" stop-color="#bb7b09"/></linearGradient><linearGradient x1="228.32241" y1="91.26598" x2="247.51504" y2="91.26598" gradientUnits="userSpaceOnUse" id="color-4"><stop offset="0" stop-color="#e0be00"/><stop offset="1" stop-color="#e0be00" stop-opacity="0"/></linearGradient><linearGradient x1="215.20087" y1="91.26598" x2="228.51821" y2="91.26598" gradientUnits="userSpaceOnUse" id="color-5"><stop offset="0" stop-color="#e0be00" stop-opacity="0"/><stop offset="1" stop-color="#e0be00"/></linearGradient><linearGradient x1="210.37064" y1="108.74471" x2="269.60062" y2="108.74471" gradientUnits="userSpaceOnUse" id="color-6"><stop offset="0" stop-color="#d6ae04"/><stop offset="1" stop-color="#a46a00"/></linearGradient><linearGradient x1="210.13488" y1="108.81514" x2="216.61775" y2="108.81514" gradientUnits="userSpaceOnUse" id="color-7"><stop offset="0" stop-color="#d1ac30"/><stop offset="1" stop-color="#d1ac30" stop-opacity="0"/></linearGradient><linearGradient x1="258.75649" y1="108.84391" x2="269.65951" y2="108.84391" gradientUnits="userSpaceOnUse" id="color-8"><stop offset="0" stop-color="#bb7b09" stop-opacity="0"/><stop offset="1" stop-color="#bb7b09"/></linearGradient><linearGradient x1="229.34777" y1="108.7888" x2="246.67476" y2="108.7888" gradientUnits="userSpaceOnUse" id="color-9"><stop offset="0" stop-color="#e0be00"/><stop offset="1" stop-color="#e0be00" stop-opacity="0"/></linearGradient><linearGradient x1="217.50177" y1="108.7888" x2="229.52458" y2="108.7888" gradientUnits="userSpaceOnUse" id="color-10"><stop offset="0" stop-color="#e0be00" stop-opacity="0"/><stop offset="1" stop-color="#e0be00"/></linearGradient><linearGradient x1="207.0506" y1="82.06378" x2="272.98446" y2="82.06378" gradientUnits="userSpaceOnUse" id="color-11"><stop offset="0" stop-color="#edd447"/><stop offset="1" stop-color="#deb71c"/></linearGradient><radialGradient cx="234.27774" cy="81.9321" r="32.96693" gradientUnits="userSpaceOnUse" id="color-12"><stop offset="0" stop-color="#e6ce49"/><stop offset="1" stop-color="#e6ce49" stop-opacity="0"/></radialGradient><radialGradient cx="257.20256" cy="84.22716" r="32.95114" gradientUnits="userSpaceOnUse" id="color-13"><stop offset="0" stop-color="#d3ae26"/><stop offset="1" stop-color="#e4c020"/></radialGradient><radialGradient cx="257.14628" cy="97.98685" r="32.99082" gradientUnits="userSpaceOnUse" id="color-14"><stop offset="0" stop-color="#946603"/><stop offset="1" stop-color="#d6a502"/></radialGradient><radialGradient cx="257.14628" cy="100.41444" r="32.99082" gradientUnits="userSpaceOnUse" id="color-15"><stop offset="0" stop-color="#7b4e00"/><stop offset="1" stop-color="#c59700"/></radialGradient><linearGradient x1="210.35967" y1="132.9901" x2="269.60925" y2="132.9901" gradientUnits="userSpaceOnUse" id="color-16"><stop offset="0" stop-color="#d6ae04"/><stop offset="1" stop-color="#a46a00"/></linearGradient><linearGradient x1="210.12381" y1="133.0085" x2="216.60885" y2="133.0085" gradientUnits="userSpaceOnUse" id="color-17"><stop offset="0" stop-color="#d1ac30"/><stop offset="1" stop-color="#d1ac30" stop-opacity="0"/></linearGradient><linearGradient x1="258.76159" y1="132.98416" x2="269.66822" y2="132.98416" gradientUnits="userSpaceOnUse" id="color-18"><stop offset="0" stop-color="#bb7b09" stop-opacity="0"/><stop offset="1" stop-color="#bb7b09"/></linearGradient><linearGradient x1="229.34309" y1="132.98416" x2="246.67581" y2="132.98416" gradientUnits="userSpaceOnUse" id="color-19"><stop offset="0" stop-color="#e0be00"/><stop offset="1" stop-color="#e0be00" stop-opacity="0"/></linearGradient><linearGradient x1="217.49318" y1="132.98416" x2="229.51996" y2="132.98416" gradientUnits="userSpaceOnUse" id="color-20"><stop offset="0" stop-color="#e0be00" stop-opacity="0"/><stop offset="1" stop-color="#e0be00"/></linearGradient><linearGradient x1="210.35967" y1="211.7646" x2="269.60925" y2="211.7646" gradientUnits="userSpaceOnUse" id="color-21"><stop offset="0" stop-color="#d6ae04"/><stop offset="1" stop-color="#a46a00"/></linearGradient><linearGradient x1="210.12381" y1="211.83429" x2="216.60885" y2="211.83429" gradientUnits="userSpaceOnUse" id="color-22"><stop offset="0" stop-color="#d1ac30"/><stop offset="1" stop-color="#d1ac30" stop-opacity="0"/></linearGradient><linearGradient x1="258.76159" y1="211.7421" x2="269.66822" y2="211.7421" gradientUnits="userSpaceOnUse" id="color-23"><stop offset="0" stop-color="#bb7b09" stop-opacity="0"/><stop offset="1" stop-color="#bb7b09"/></linearGradient><linearGradient x1="229.34309" y1="211.7421" x2="246.67581" y2="211.7421" gradientUnits="userSpaceOnUse" id="color-24"><stop offset="0" stop-color="#e0be00"/><stop offset="1" stop-color="#e0be00" stop-opacity="0"/></linearGradient><linearGradient x1="217.49318" y1="211.7421" x2="229.51996" y2="211.7421" gradientUnits="userSpaceOnUse" id="color-25"><stop offset="0" stop-color="#e0be00" stop-opacity="0"/><stop offset="1" stop-color="#e0be00"/></linearGradient></defs><g transform="translate(-61.5,-1.5)"><g data-paper-data="{&quot;isPaintingLayer&quot;:true}" fill-rule="nonzero" stroke="none" stroke-width="0" stroke-linecap="butt" stroke-linejoin="miter" stroke-miterlimit="10" stroke-dasharray="" stroke-dashoffset="0" style="mix-blend-mode: normal"><path d="M61.5,358.5v-357h357v357z" fill="none"/><g><g><g data-paper-data="{&quot;origPos&quot;:null}"><path d="M207.3019,96.90442v-11.23969h65.60747v11.23969z" data-paper-data="{&quot;origPos&quot;:null}" fill="url(#color-1)"/><path d="M207.04075,96.88585v-11.22109h7.18092v11.22109z" data-paper-data="{&quot;origPos&quot;:null}" fill="url(#color-2)"/><path d="M260.89765,96.86724v-11.20251h12.07699v11.20251z" data-paper-data="{&quot;origPos&quot;:null,&quot;index&quot;:null}" fill="url(#color-3)"/><path d="M228.32241,96.86724v-11.20251h19.19263v11.20251z" data-paper-data="{&quot;origPos&quot;:null}" fill="url(#color-4)"/><path d="M215.20087,96.86724v-11.20251h13.31734v11.20251z" data-paper-data="{&quot;origPos&quot;:null,&quot;index&quot;:null}" fill="url(#color-5)"/></g><g data-paper-data="{&quot;origPos&quot;:null}"><path d="M210.37064,116.26577v-15.04213h59.22997v15.04213z" data-paper-data="{&quot;origPos&quot;:null}" fill="url(#color-6)"/><path d="M210.13488,116.35152v-15.07278h6.48288v15.07278z" data-paper-data="{&quot;origPos&quot;:null}" fill="url(#color-7)"/><path d="M258.75649,116.35396v-15.02011h10.90302v15.02011z" data-paper-data="{&quot;origPos&quot;:null,&quot;index&quot;:null}" fill="url(#color-8)"/><path d="M229.34777,116.29886v-15.02011h17.32699v15.02011z" data-paper-data="{&quot;origPos&quot;:null}" fill="url(#color-9)"/><path d="M217.50177,116.29886v-15.02011h12.02281v15.02011z" data-paper-data="{&quot;index&quot;:null}" fill="url(#color-10)"/></g><g data-paper-data="{&quot;origPos&quot;:null}"><path d="M207.0506,85.6647v-1.79567l1.74101,-1.3647h62.52498l1.66786,1.22107v1.93932z" data-paper-data="{&quot;origPos&quot;:null}" fill="url(#color-11)"/><path d="M207.0506,85.6647v-1.93932l1.66065,-1.22107h61.47691v3.16039z" fill="url(#color-12)"/></g><path d="M207.0513,86.48902v-1.59558h65.90228v1.59558z" data-paper-data="{&quot;origPos&quot;:null}" fill="url(#color-13)"/><path d="M207.00919,98.55987v-1.73821h65.98162v1.73821z" data-paper-data="{&quot;origPos&quot;:null}" fill="url(#color-14)"/><path d="M210.15241,101.40422l-3.1041,-1.93897l-0.03912,-1.06339h65.98162l-0.03765,1.09401l-3.30203,1.90835z" data-paper-data="{&quot;origPos&quot;:null}" fill="url(#color-15)"/></g><g><path d="M210.35967,150.30739v-34.63458h59.24958v34.63458z" data-paper-data="{&quot;origPos&quot;:null}" fill="url(#color-16)"/><path d="M210.12381,150.34417v-34.67135h6.48504v34.67135z" data-paper-data="{&quot;origPos&quot;:null}" fill="url(#color-17)"/><path d="M258.76159,150.29548v-34.62266h10.90663v34.62266z" data-paper-data="{&quot;origPos&quot;:null,&quot;index&quot;:null}" fill="url(#color-18)"/><path d="M229.34309,150.29548v-34.62266h17.33272v34.62266z" data-paper-data="{&quot;origPos&quot;:null}" fill="url(#color-19)"/><path d="M217.49318,150.29548v-34.62266h12.02678v34.62266z" data-paper-data="{&quot;origPos&quot;:null,&quot;index&quot;:null}" fill="url(#color-20)"/></g><g><path d="M210.35967,277.35638v-131.18356h59.24958v131.18356z" data-paper-data="{&quot;origPos&quot;:null}" fill="url(#color-21)"/><path d="M210.12381,277.49569v-131.32284h6.48504v131.32284z" data-paper-data="{&quot;origPos&quot;:null}" fill="url(#color-22)"/><path d="M258.76159,277.31127v-131.13841h10.90663v131.13841z" data-paper-data="{&quot;origPos&quot;:null,&quot;index&quot;:null}" fill="url(#color-23)"/><path d="M229.34309,277.31127v-131.13841h17.33272v131.13841z" data-paper-data="{&quot;origPos&quot;:null}" fill="url(#color-24)"/><path d="M217.49318,277.31127v-131.13841h12.02678v131.13841z" data-paper-data="{&quot;origPos&quot;:null,&quot;index&quot;:null}" fill="url(#color-25)"/></g></g></g></g></svg>