<svg version="1.1" xmlns="http://www.w3.org/2000/svg" xmlns:xlink="http://www.w3.org/1999/xlink" width="152" height="152" viewBox="0,0,152,152"><defs><radialGradient cx="263.90129" cy="165.87499" r="29.79878" gradientUnits="userSpaceOnUse" id="color-1"><stop offset="0" stop-color="#fffc3b"/><stop offset="1" stop-color="#dfaa02"/></radialGradient><radialGradient cx="262.59867" cy="179.37499" r="27.96031" gradientUnits="userSpaceOnUse" id="color-2"><stop offset="0" stop-color="#fffa38"/><stop offset="1" stop-color="#f2c00a"/></radialGradient><radialGradient cx="213.56949" cy="189.00453" r="20.43237" gradientUnits="userSpaceOnUse" id="color-3"><stop offset="0" stop-color="#bf8000"/><stop offset="1" stop-color="#bf8000" stop-opacity="0"/></radialGradient><linearGradient x1="236.67767" y1="153.47147" x2="236.67767" y2="206.53432" gradientUnits="userSpaceOnUse" id="color-4"><stop offset="0" stop-color="#facd14"/><stop offset="1" stop-color="#facd0f"/></linearGradient><radialGradient cx="220.68237" cy="185.17211" r="20.55359" gradientUnits="userSpaceOnUse" id="color-5"><stop offset="0" stop-color="#fff949"/><stop offset="1" stop-color="#fff949" stop-opacity="0"/></radialGradient><linearGradient x1="253.34414" y1="179.9645" x2="217.84727" y2="179.9645" gradientUnits="userSpaceOnUse" id="color-6"><stop offset="0" stop-color="#cb9604"/><stop offset="1" stop-color="#fac818"/></linearGradient><radialGradient cx="218.83325" cy="180.875" r="19.57135" gradientUnits="userSpaceOnUse" id="color-7"><stop offset="0" stop-color="#ffec19"/><stop offset="1" stop-color="#ffec19" stop-opacity="0"/></radialGradient><linearGradient x1="236.23522" y1="161.18282" x2="236.23522" y2="198.82984" gradientUnits="userSpaceOnUse" id="color-8"><stop offset="0" stop-color="#e7b913"/><stop offset="1" stop-color="#edbb09"/></linearGradient></defs><g transform="translate(-164,-104)"><g data-paper-data="{&quot;isPaintingLayer&quot;:true}" fill-rule="nonzero" stroke="none" stroke-width="0" stroke-linecap="butt" stroke-linejoin="miter" stroke-miterlimit="10" stroke-dasharray="" stroke-dashoffset="0" style="mix-blend-mode: normal"><path d="M268.01707,180.0029c0,15.72983 -12.15243,28.48138 -27.14323,28.48138c-14.99077,0 -27.14323,-12.75156 -27.14323,-28.48138c0,-15.72983 12.15244,-28.48138 27.14324,-28.48138c14.99081,0 27.14324,12.75155 27.14324,28.48137z" data-paper-data="{&quot;index&quot;:null}" fill="url(#color-1)"/><path d="M258.4418,196.81109c-8.37839,12.71228 -24.47155,15.49232 -35.94513,6.20941c-11.47357,-9.28291 -13.98272,-27.11352 -5.60436,-39.82579c8.37836,-12.71227 24.47155,-15.49232 35.94513,-6.20941c11.47355,9.28291 13.98273,27.1135 5.60434,39.82577z" data-paper-data="{&quot;origRot&quot;:0,&quot;index&quot;:null}" fill="url(#color-2)"/><path d="M240.62308,208.60176c-15.82725,0 -28.65777,-12.67016 -28.65777,-28.29956c0,-37.70334 44.48502,28.29956 28.65777,28.29956z" data-paper-data="{&quot;index&quot;:null}" fill="url(#color-3)"/><path d="M256.49918,194.88393c-7.30763,12.12929 -22.10602,15.29957 -33.05315,7.08101c-10.94714,-8.21857 -13.89752,-24.71377 -6.58988,-36.84308c3.06919,-5.09429 7.45977,-8.60822 12.3314,-10.36177c6.72749,-2.42157 14.37241,-1.48602 20.72174,3.28075c10.94715,8.21857 13.89753,24.71376 6.5899,36.84306z" data-paper-data="{&quot;index&quot;:null}" fill="url(#color-4)"/><path d="M248.85364,198.51948c-10.78505,4.37369 -23.43469,-0.38806 -28.25376,-10.63571c-4.81906,-10.24764 0.01733,-22.10056 10.80238,-26.47426c10.78505,-4.3737 28.23648,32.73626 17.45142,37.10996z" data-paper-data="{&quot;origRot&quot;:0,&quot;index&quot;:null}" fill="url(#color-5)"/><g data-paper-data="{&quot;index&quot;:null}"><path d="M242.83447,199.06039c-8.94719,4.50117 -19.44125,-0.39939 -23.4391,-10.94576c-3.99785,-10.54637 0.01437,-22.74482 8.96157,-27.24602c8.94718,-4.50119 19.44123,0.39937 23.43909,10.94573c3.99788,10.54637 -0.01434,22.74483 -8.96154,27.24603z" data-paper-data="{&quot;origRot&quot;:0}" fill="url(#color-6)"/><path d="M242.15337,198.51276c-8.70503,4.37935 -18.91503,-0.38856 -22.80469,-10.64949c-3.88964,-10.26092 0.01401,-22.12919 8.71903,-26.50856c8.70504,-4.37937 22.79074,32.77867 14.08571,37.15804z" data-paper-data="{&quot;origRot&quot;:0}" fill="url(#color-7)"/></g><path d="M252.49222,180.00633c0,10.39595 -7.27851,18.82351 -16.25701,18.82351c-8.97849,0 -16.257,-8.42757 -16.257,-18.82351c0,-10.39595 7.2785,-18.82351 16.257,-18.82351c8.97851,0 16.25703,8.42758 16.25703,18.82351z" data-paper-data="{&quot;index&quot;:null}" fill="url(#color-8)"/><path d="M164,256v-152h152v152z" data-paper-data="{&quot;origPos&quot;:null}" fill="none"/><path d="M238.46315,185.64523v-11.02811h2.04977v11.02811z" fill="#ffd528"/><path d="M227.18174,172.01233v-3.12737h10.94438v3.12737z" fill="#feff37"/><path d="M229.24117,191.05185l0.56399,-1.87121l8.32096,-1.25617v3.12737z" fill="#b68c09"/><path d="M232.85451,189.15414v-18.58695l2.57522,-1.67915v22.22489z" fill="#ffd528"/><path d="M235.822,170.57282l-0.47473,-1.68736l9.6707,0.01699l-0.80489,1.77007z" fill="#feff37"/><path d="M245.07139,191.11883l-3.81721,-1.90734l-0.04538,-14.76313l2.25851,-0.00002l-0.04062,-3.8856l1.59199,-1.65168z" fill="#ffd528"/><g><path d="M240.46004,185.59503v-11.19271h1.77846v11.1927z" fill="#9b7401"/><path d="M240.93849,174.74586l-0.47675,1.85172l-1.47657,-1.85173z" data-paper-data="{&quot;index&quot;:null}" fill="#ffce18"/><path d="M239.04327,185.55387l1.41675,-1.85173l0.47163,1.85172z" fill="#feff37"/></g><path d="M235.31391,190.98658l0.54259,-1.81961h7.60549l1.65914,1.87518z" fill="#b68c09"/><path d="M227.15289,176.27291l0.06836,-2.59779h3.96504v2.59779z" fill="#9b7401"/><path d="M227.18848,176.29526v-7.40724l0.50643,1.68714v3.92974z" data-paper-data="{&quot;index&quot;:null}" fill="#9b7401"/><g data-paper-data="{&quot;index&quot;:null}" fill="#fceb12"><path d="M229.84837,189.16957l0.00596,-14.76267l-2.15169,0.00149v-3.87114h5.1605v18.63232z"/><path d="M235.82797,189.19286v-18.69064h7.5923v18.69064zM240.93807,185.39251l-0.03824,-10.60456l-2.54546,0.00171l-0.00776,10.58564z"/></g><path d="M235.32366,190.99327v-22.17362l0.50643,1.68714v18.69612z" data-paper-data="{&quot;index&quot;:null}" fill="#9b7401"/><path d="M229.30774,190.92492v-14.65371l0.50643,-1.79936v14.66271z" data-paper-data="{&quot;index&quot;:null}" fill="#9b7401"/></g></g></svg>