<svg version="1.1" xmlns="http://www.w3.org/2000/svg" xmlns:xlink="http://www.w3.org/1999/xlink" width="152" height="152" viewBox="0,0,152,152"><defs><linearGradient x1="240.34061" y1="163.3991" x2="240.34061" y2="196.38578" gradientUnits="userSpaceOnUse" id="color-1"><stop offset="0" stop-color="#f4cd1c"/><stop offset="1" stop-color="#e3ad06"/></linearGradient><radialGradient cx="250.24317" cy="170.4557" r="15.96818" gradientUnits="userSpaceOnUse" id="color-2"><stop offset="0" stop-color="#f9d722"/><stop offset="1" stop-color="#f1c814"/></radialGradient><linearGradient x1="239.55183" y1="163.61422" x2="239.55183" y2="196.6009" gradientUnits="userSpaceOnUse" id="color-3"><stop offset="0" stop-color="#dbb100" stop-opacity="0"/><stop offset="1" stop-color="#dbb100"/></linearGradient><radialGradient cx="239.94622" cy="165.96322" r="15.15992" gradientUnits="userSpaceOnUse" id="color-4"><stop offset="0" stop-color="#dea900"/><stop offset="1" stop-color="#f8c805"/></radialGradient><radialGradient cx="242.5277" cy="169.943" r="12.0211" gradientUnits="userSpaceOnUse" id="color-5"><stop offset="0" stop-color="#c38701"/><stop offset="1" stop-color="#fed920"/></radialGradient><linearGradient x1="246.91099" y1="180.10853" x2="231.36439" y2="180.10853" gradientUnits="userSpaceOnUse" id="color-6"><stop offset="0" stop-color="#dea707"/><stop offset="1" stop-color="#fdd507"/></linearGradient><radialGradient cx="242.53041" cy="182.14047" r="6.28159" gradientUnits="userSpaceOnUse" id="color-7"><stop offset="0" stop-color="#cc9903"/><stop offset="1" stop-color="#cc9903" stop-opacity="0"/></radialGradient><linearGradient x1="239.06984" y1="173.56167" x2="239.06984" y2="178.17145" gradientUnits="userSpaceOnUse" id="color-8"><stop offset="0" stop-color="#d5a202"/><stop offset="1" stop-color="#d5a202" stop-opacity="0"/></linearGradient><radialGradient cx="235.70868" cy="181.62371" r="6.26637" gradientUnits="userSpaceOnUse" id="color-9"><stop offset="0" stop-color="#fcd840"/><stop offset="1" stop-color="#fcd840" stop-opacity="0"/></radialGradient></defs><g transform="translate(-164,-103)"><g data-paper-data="{&quot;isPaintingLayer&quot;:true}" fill-rule="nonzero" stroke="none" stroke-width="0" stroke-linecap="butt" stroke-linejoin="miter" stroke-miterlimit="10" stroke-dasharray="" stroke-dashoffset="0" style="mix-blend-mode: normal"><path d="M164,255v-152h152v152z" data-paper-data="{&quot;origPos&quot;:null}" fill="none"/><g><path d="M226.52227,179.89244c0,-9.10903 6.18668,-16.49334 13.81834,-16.49334c7.63166,0 13.81834,7.38432 13.81834,16.49334c0,9.10902 -6.18667,16.49334 -13.81834,16.49334c-7.63166,0 -13.81834,-7.38432 -13.81834,-16.49334z" data-paper-data="{&quot;index&quot;:null}" fill="url(#color-1)"/><path d="M225.84105,180.10757c0,-9.10903 6.10121,-16.49334 13.62744,-16.49334c7.52623,0 13.62744,7.38432 13.62744,16.49334c0,9.10902 -6.10121,16.49334 -13.62744,16.49334c-7.52623,0 -13.62744,-7.38432 -13.62744,-16.49334z" data-paper-data="{&quot;index&quot;:null}" fill="url(#color-2)"/><path d="M225.94861,180.10757c0,-9.10903 6.09036,-16.49334 13.60322,-16.49334c7.51285,0 13.60321,7.38432 13.60321,16.49334c0,9.10902 -6.09036,16.49334 -13.60321,16.49334c-7.51286,0 -13.60322,-7.38432 -13.60322,-16.49334z" data-paper-data="{&quot;index&quot;:null}" fill="url(#color-3)"/><path d="M239.2211,164.94764c6.72427,0 12.17536,6.78732 12.17536,15.15992c0,8.37259 -5.45109,15.15992 -12.17536,15.15992c-6.72427,0 -12.17536,-6.78732 -12.17536,-15.15992c0,-8.37259 5.45109,-15.15992 12.17536,-15.15992z" data-paper-data="{&quot;index&quot;:null}" fill="url(#color-4)"/><path d="M229.8991,180.10757c0,-6.63907 4.08214,-12.0211 9.11772,-12.0211c5.03558,0 9.11772,5.38202 9.11772,12.0211c0,6.63907 -4.08214,12.0211 -9.11772,12.0211c-5.03558,0 -9.11772,-5.38203 -9.11772,-12.0211z" data-paper-data="{&quot;index&quot;:null}" fill="url(#color-5)"/><path d="M239.13769,170.20369c4.29307,0 7.7733,4.43454 7.7733,9.90483c0,5.47029 -3.48023,9.90483 -7.7733,9.90483c-4.29308,0 -7.7733,-4.43455 -7.7733,-9.90483c0,-5.47029 3.48022,-9.90483 7.7733,-9.90483z" data-paper-data="{&quot;index&quot;:null}" fill="url(#color-6)"/><path d="M242.53041,189.66978c-3.46923,0 -6.28159,-3.37098 -6.28159,-7.52931c0,-4.15833 2.81236,-7.52931 6.28159,-7.52931c3.46923,0 6.28159,3.37098 6.28159,7.52931c0,4.15833 -2.81236,7.52931 -6.28159,7.52931z" data-paper-data="{&quot;index&quot;:null}" fill="url(#color-7)"/><path d="M237.56445,186.88341v-13.29061h1.50575v13.29061z" data-paper-data="{&quot;index&quot;:null}" fill="#fdda2c"/><path d="M239.05764,186.87212v-13.27617h1.46777v13.27617z" data-paper-data="{&quot;index&quot;:null}" fill="#fcce00"/><path d="M237.55144,178.17145v-4.60978h2.98617v4.60978z" data-paper-data="{&quot;index&quot;:null}" fill="url(#color-8)"/><path d="M229.44231,181.62371c0,-5.36233 2.80554,-9.70936 6.26637,-9.70936c3.46082,0 6.26637,4.34703 6.26637,9.70936c0,5.36233 -2.80555,9.70936 -6.26637,9.70936c-3.46082,0 -6.26637,-4.34703 -6.26637,-9.70936z" fill="url(#color-9)"/></g></g></g></svg>