<svg version="1.1" xmlns="http://www.w3.org/2000/svg" xmlns:xlink="http://www.w3.org/1999/xlink" width="484" height="366.24997" viewBox="0,0,484,366.24997"><defs><linearGradient x1="-2" y1="180.12499" x2="482" y2="180.12499" gradientUnits="userSpaceOnUse" id="color-1"><stop offset="0" stop-color="#a8a4f8"/><stop offset="1" stop-color="#b85bcc"/></linearGradient><linearGradient x1="8.59946" y1="-4.12498" x2="8.59946" y2="119.98277" gradientUnits="userSpaceOnUse" id="color-2"><stop offset="0" stop-color="#d0fcf8"/><stop offset="1" stop-color="#d0fcf8" stop-opacity="0"/></linearGradient><linearGradient x1="25.9991" y1="-4.12498" x2="25.9991" y2="128.3304" gradientUnits="userSpaceOnUse" id="color-3"><stop offset="0" stop-color="#d0fcf8"/><stop offset="1" stop-color="#d0fcf8" stop-opacity="0"/></linearGradient><linearGradient x1="43.39874" y1="-4.12498" x2="43.39874" y2="135.85261" gradientUnits="userSpaceOnUse" id="color-4"><stop offset="0" stop-color="#c8f1f7"/><stop offset="1" stop-color="#c8f1f7" stop-opacity="0"/></linearGradient><linearGradient x1="60.77817" y1="-4.12498" x2="60.77817" y2="138.87501" gradientUnits="userSpaceOnUse" id="color-5"><stop offset="0" stop-color="#d0fcf8"/><stop offset="1" stop-color="#d0fcf8" stop-opacity="0"/></linearGradient><linearGradient x1="78.17782" y1="-4.12498" x2="78.17782" y2="136.87501" gradientUnits="userSpaceOnUse" id="color-6"><stop offset="0" stop-color="#d0fcf8"/><stop offset="1" stop-color="#d0fcf8" stop-opacity="0"/></linearGradient><linearGradient x1="95.57746" y1="-4.12498" x2="95.57746" y2="132.46481" gradientUnits="userSpaceOnUse" id="color-7"><stop offset="0" stop-color="#d0fcf8"/><stop offset="1" stop-color="#d0fcf8" stop-opacity="0"/></linearGradient><linearGradient x1="112.9771" y1="-4.12498" x2="112.9771" y2="119.21809" gradientUnits="userSpaceOnUse" id="color-8"><stop offset="0" stop-color="#d0fcf8"/><stop offset="1" stop-color="#d0fcf8" stop-opacity="0"/></linearGradient><linearGradient x1="130.37674" y1="-4.12498" x2="130.37674" y2="112.50777" gradientUnits="userSpaceOnUse" id="color-9"><stop offset="0" stop-color="#d0fcf8"/><stop offset="1" stop-color="#d0fcf8" stop-opacity="0"/></linearGradient><linearGradient x1="147.77637" y1="-4.12498" x2="147.77637" y2="109.33115" gradientUnits="userSpaceOnUse" id="color-10"><stop offset="0" stop-color="#d0fcf8"/><stop offset="1" stop-color="#d0fcf8" stop-opacity="0"/></linearGradient><linearGradient x1="165.1097" y1="-4.12498" x2="165.1097" y2="106.82239" gradientUnits="userSpaceOnUse" id="color-11"><stop offset="0" stop-color="#d0fcf8"/><stop offset="1" stop-color="#d0fcf8" stop-opacity="0"/></linearGradient><linearGradient x1="182.44304" y1="-4.12498" x2="182.44304" y2="106.82239" gradientUnits="userSpaceOnUse" id="color-12"><stop offset="0" stop-color="#d0fcf8"/><stop offset="1" stop-color="#d0fcf8" stop-opacity="0"/></linearGradient><linearGradient x1="199.77637" y1="-4.12498" x2="199.77637" y2="110.16742" gradientUnits="userSpaceOnUse" id="color-13"><stop offset="0" stop-color="#c8f1f7"/><stop offset="1" stop-color="#c8f1f7" stop-opacity="0"/></linearGradient><linearGradient x1="217.10971" y1="-4.12498" x2="217.10971" y2="117.69374" gradientUnits="userSpaceOnUse" id="color-14"><stop offset="0" stop-color="#d0fcf8"/><stop offset="1" stop-color="#d0fcf8" stop-opacity="0"/></linearGradient><linearGradient x1="234.44304" y1="-4.12498" x2="234.44304" y2="123.54753" gradientUnits="userSpaceOnUse" id="color-15"><stop offset="0" stop-color="#c8f1f7"/><stop offset="1" stop-color="#c8f1f7" stop-opacity="0"/></linearGradient><linearGradient x1="251.89304" y1="-4.12497" x2="251.89304" y2="123.54756" gradientUnits="userSpaceOnUse" id="color-16"><stop offset="0" stop-color="#c8ecf8"/><stop offset="1" stop-color="#c8ecf8" stop-opacity="0"/></linearGradient><linearGradient x1="269.30971" y1="-3.60232" x2="269.30971" y2="124.07019" gradientUnits="userSpaceOnUse" id="color-17"><stop offset="0" stop-color="#c8ecf8"/><stop offset="1" stop-color="#c8ecf8" stop-opacity="0"/></linearGradient><linearGradient x1="286.69304" y1="-3.60232" x2="286.69304" y2="122.39768" gradientUnits="userSpaceOnUse" id="color-18"><stop offset="0" stop-color="#d0fcf8"/><stop offset="1" stop-color="#d0fcf8" stop-opacity="0"/></linearGradient><linearGradient x1="304.02637" y1="-3.60232" x2="304.02637" y2="119.67984" gradientUnits="userSpaceOnUse" id="color-19"><stop offset="0" stop-color="#c8ecf8"/><stop offset="1" stop-color="#c8ecf8" stop-opacity="0"/></linearGradient><linearGradient x1="321.35971" y1="-3.60232" x2="321.35971" y2="114.0351" gradientUnits="userSpaceOnUse" id="color-20"><stop offset="0" stop-color="#c8dff7"/><stop offset="1" stop-color="#c8dff7" stop-opacity="0"/></linearGradient><linearGradient x1="338.69304" y1="-3.60232" x2="338.69304" y2="106.5088" gradientUnits="userSpaceOnUse" id="color-21"><stop offset="0" stop-color="#c8d0f7"/><stop offset="1" stop-color="#c8d0f7" stop-opacity="0"/></linearGradient><linearGradient x1="356.02638" y1="-3.8114" x2="356.02638" y2="102.53657" gradientUnits="userSpaceOnUse" id="color-22"><stop offset="0" stop-color="#dfc8f7"/><stop offset="1" stop-color="#dfc8f7" stop-opacity="0"/></linearGradient><linearGradient x1="373.35971" y1="-3.81138" x2="373.35971" y2="100.02781" gradientUnits="userSpaceOnUse" id="color-23"><stop offset="0" stop-color="#f8c8f8"/><stop offset="1" stop-color="#f8c8f8" stop-opacity="0"/></linearGradient><linearGradient x1="390.69304" y1="-3.60232" x2="390.69304" y2="99.60967" gradientUnits="userSpaceOnUse" id="color-24"><stop offset="0" stop-color="#f3b5f7"/><stop offset="1" stop-color="#f3b5f7" stop-opacity="0"/></linearGradient><linearGradient x1="408.02638" y1="-3.60232" x2="408.02638" y2="102.11845" gradientUnits="userSpaceOnUse" id="color-25"><stop offset="0" stop-color="#f8a0f8"/><stop offset="1" stop-color="#f8a0f8" stop-opacity="0"/></linearGradient><linearGradient x1="425.35971" y1="-3.60232" x2="425.35971" y2="109.64477" gradientUnits="userSpaceOnUse" id="color-26"><stop offset="0" stop-color="#f8a0f8"/><stop offset="1" stop-color="#f8a0f8" stop-opacity="0"/></linearGradient><linearGradient x1="442.69304" y1="-3.81138" x2="442.69304" y2="119.47078" gradientUnits="userSpaceOnUse" id="color-27"><stop offset="0" stop-color="#f7abf7"/><stop offset="1" stop-color="#f7abf7" stop-opacity="0"/></linearGradient><linearGradient x1="460.02638" y1="-3.81136" x2="460.02638" y2="119.4708" gradientUnits="userSpaceOnUse" id="color-28"><stop offset="0" stop-color="#f8a0f8"/><stop offset="1" stop-color="#f8a0f8" stop-opacity="0"/></linearGradient><linearGradient x1="475.19305" y1="-3.81136" x2="475.19305" y2="119.4708" gradientUnits="userSpaceOnUse" id="color-29"><stop offset="0" stop-color="#f8a0f8"/><stop offset="1" stop-color="#f8a0f8" stop-opacity="0"/></linearGradient><linearGradient x1="8.59946" y1="-4.12498" x2="8.59946" y2="80.05999" gradientUnits="userSpaceOnUse" id="color-30"><stop offset="0" stop-color="#d0fcf8"/><stop offset="1" stop-color="#d0fcf8" stop-opacity="0"/></linearGradient><linearGradient x1="25.9991" y1="-4.12498" x2="25.9991" y2="85.72238" gradientUnits="userSpaceOnUse" id="color-31"><stop offset="0" stop-color="#d0fcf8"/><stop offset="1" stop-color="#d0fcf8" stop-opacity="0"/></linearGradient><linearGradient x1="43.39874" y1="-4.12498" x2="43.39874" y2="90.82486" gradientUnits="userSpaceOnUse" id="color-32"><stop offset="0" stop-color="#c8f1f7"/><stop offset="1" stop-color="#c8f1f7" stop-opacity="0"/></linearGradient><linearGradient x1="60.77817" y1="-4.12498" x2="60.77817" y2="92.87502" gradientUnits="userSpaceOnUse" id="color-33"><stop offset="0" stop-color="#d0fcf8"/><stop offset="1" stop-color="#d0fcf8" stop-opacity="0"/></linearGradient><linearGradient x1="78.17782" y1="-4.12498" x2="78.17782" y2="91.51837" gradientUnits="userSpaceOnUse" id="color-34"><stop offset="0" stop-color="#d0fcf8"/><stop offset="1" stop-color="#d0fcf8" stop-opacity="0"/></linearGradient><linearGradient x1="95.57746" y1="-4.12498" x2="95.57746" y2="88.52683" gradientUnits="userSpaceOnUse" id="color-35"><stop offset="0" stop-color="#d0fcf8"/><stop offset="1" stop-color="#d0fcf8" stop-opacity="0"/></linearGradient><linearGradient x1="112.9771" y1="-4.12498" x2="112.9771" y2="79.5413" gradientUnits="userSpaceOnUse" id="color-36"><stop offset="0" stop-color="#d0fcf8"/><stop offset="1" stop-color="#d0fcf8" stop-opacity="0"/></linearGradient><linearGradient x1="130.37674" y1="-4.12498" x2="130.37674" y2="74.98955" gradientUnits="userSpaceOnUse" id="color-37"><stop offset="0" stop-color="#d0fcf8"/><stop offset="1" stop-color="#d0fcf8" stop-opacity="0"/></linearGradient><linearGradient x1="147.77637" y1="-4.12498" x2="147.77637" y2="72.83477" gradientUnits="userSpaceOnUse" id="color-38"><stop offset="0" stop-color="#d0fcf8"/><stop offset="1" stop-color="#d0fcf8" stop-opacity="0"/></linearGradient><linearGradient x1="165.1097" y1="-4.12498" x2="165.1097" y2="71.13302" gradientUnits="userSpaceOnUse" id="color-39"><stop offset="0" stop-color="#d0fcf8"/><stop offset="1" stop-color="#d0fcf8" stop-opacity="0"/></linearGradient><linearGradient x1="182.44304" y1="-4.12498" x2="182.44304" y2="71.13302" gradientUnits="userSpaceOnUse" id="color-40"><stop offset="0" stop-color="#d0fcf8"/><stop offset="1" stop-color="#d0fcf8" stop-opacity="0"/></linearGradient><linearGradient x1="199.77637" y1="-4.12498" x2="199.77637" y2="73.40202" gradientUnits="userSpaceOnUse" id="color-41"><stop offset="0" stop-color="#c8f1f7"/><stop offset="1" stop-color="#c8f1f7" stop-opacity="0"/></linearGradient><linearGradient x1="217.10971" y1="-4.12498" x2="217.10971" y2="78.50729" gradientUnits="userSpaceOnUse" id="color-42"><stop offset="0" stop-color="#d0fcf8"/><stop offset="1" stop-color="#d0fcf8" stop-opacity="0"/></linearGradient><linearGradient x1="234.44304" y1="-4.12498" x2="234.44304" y2="82.47804" gradientUnits="userSpaceOnUse" id="color-43"><stop offset="0" stop-color="#c8f1f7"/><stop offset="1" stop-color="#c8f1f7" stop-opacity="0"/></linearGradient><linearGradient x1="251.89304" y1="-4.12497" x2="251.89304" y2="82.47807" gradientUnits="userSpaceOnUse" id="color-44"><stop offset="0" stop-color="#c8ecf8"/><stop offset="1" stop-color="#c8ecf8" stop-opacity="0"/></linearGradient><linearGradient x1="269.30971" y1="-3.77044" x2="269.30971" y2="82.83258" gradientUnits="userSpaceOnUse" id="color-45"><stop offset="0" stop-color="#c8ecf8"/><stop offset="1" stop-color="#c8ecf8" stop-opacity="0"/></linearGradient><linearGradient x1="286.69304" y1="-3.77044" x2="286.69304" y2="81.69808" gradientUnits="userSpaceOnUse" id="color-46"><stop offset="0" stop-color="#d0fcf8"/><stop offset="1" stop-color="#d0fcf8" stop-opacity="0"/></linearGradient><linearGradient x1="304.02637" y1="-3.77044" x2="304.02637" y2="79.85451" gradientUnits="userSpaceOnUse" id="color-47"><stop offset="0" stop-color="#c8ecf8"/><stop offset="1" stop-color="#c8ecf8" stop-opacity="0"/></linearGradient><linearGradient x1="321.35971" y1="-3.77045" x2="321.35971" y2="76.02557" gradientUnits="userSpaceOnUse" id="color-48"><stop offset="0" stop-color="#c8dff7"/><stop offset="1" stop-color="#c8dff7" stop-opacity="0"/></linearGradient><linearGradient x1="338.69304" y1="-3.77044" x2="338.69304" y2="70.92031" gradientUnits="userSpaceOnUse" id="color-49"><stop offset="0" stop-color="#c8d0f7"/><stop offset="1" stop-color="#c8d0f7" stop-opacity="0"/></linearGradient><linearGradient x1="356.02638" y1="-3.91227" x2="356.02638" y2="68.22586" gradientUnits="userSpaceOnUse" id="color-50"><stop offset="0" stop-color="#dfc8f7"/><stop offset="1" stop-color="#dfc8f7" stop-opacity="0"/></linearGradient><linearGradient x1="373.35971" y1="-3.91226" x2="373.35971" y2="66.52411" gradientUnits="userSpaceOnUse" id="color-51"><stop offset="0" stop-color="#f8c8f8"/><stop offset="1" stop-color="#f8c8f8" stop-opacity="0"/></linearGradient><linearGradient x1="390.69304" y1="-3.77044" x2="390.69304" y2="66.24048" gradientUnits="userSpaceOnUse" id="color-52"><stop offset="0" stop-color="#f3b5f7"/><stop offset="1" stop-color="#f3b5f7" stop-opacity="0"/></linearGradient><linearGradient x1="408.02638" y1="-3.77045" x2="408.02638" y2="67.94222" gradientUnits="userSpaceOnUse" id="color-53"><stop offset="0" stop-color="#f8a0f8"/><stop offset="1" stop-color="#f8a0f8" stop-opacity="0"/></linearGradient><linearGradient x1="425.35971" y1="-3.77044" x2="425.35971" y2="73.04751" gradientUnits="userSpaceOnUse" id="color-54"><stop offset="0" stop-color="#f8a0f8"/><stop offset="1" stop-color="#f8a0f8" stop-opacity="0"/></linearGradient><linearGradient x1="442.69304" y1="-3.91226" x2="442.69304" y2="79.71271" gradientUnits="userSpaceOnUse" id="color-55"><stop offset="0" stop-color="#f7abf7"/><stop offset="1" stop-color="#f7abf7" stop-opacity="0"/></linearGradient><linearGradient x1="460.02638" y1="-3.91225" x2="460.02638" y2="79.71272" gradientUnits="userSpaceOnUse" id="color-56"><stop offset="0" stop-color="#f8a0f8"/><stop offset="1" stop-color="#f8a0f8" stop-opacity="0"/></linearGradient><linearGradient x1="475.19305" y1="-3.91225" x2="475.19305" y2="79.71272" gradientUnits="userSpaceOnUse" id="color-57"><stop offset="0" stop-color="#f8a0f8"/><stop offset="1" stop-color="#f8a0f8" stop-opacity="0"/></linearGradient><linearGradient x1="8.59946" y1="-4.12498" x2="8.59946" y2="80.05999" gradientUnits="userSpaceOnUse" id="color-58"><stop offset="0" stop-color="#d0fcf8"/><stop offset="1" stop-color="#d0fcf8" stop-opacity="0"/></linearGradient><linearGradient x1="25.9991" y1="-4.12498" x2="25.9991" y2="85.72238" gradientUnits="userSpaceOnUse" id="color-59"><stop offset="0" stop-color="#d0fcf8"/><stop offset="1" stop-color="#d0fcf8" stop-opacity="0"/></linearGradient><linearGradient x1="43.39874" y1="-4.12498" x2="43.39874" y2="90.82486" gradientUnits="userSpaceOnUse" id="color-60"><stop offset="0" stop-color="#c8f1f7"/><stop offset="1" stop-color="#c8f1f7" stop-opacity="0"/></linearGradient><linearGradient x1="60.77817" y1="-4.12498" x2="60.77817" y2="92.87502" gradientUnits="userSpaceOnUse" id="color-61"><stop offset="0" stop-color="#d0fcf8"/><stop offset="1" stop-color="#d0fcf8" stop-opacity="0"/></linearGradient><linearGradient x1="78.17782" y1="-4.12498" x2="78.17782" y2="91.51837" gradientUnits="userSpaceOnUse" id="color-62"><stop offset="0" stop-color="#d0fcf8"/><stop offset="1" stop-color="#d0fcf8" stop-opacity="0"/></linearGradient><linearGradient x1="95.57746" y1="-4.12498" x2="95.57746" y2="88.52683" gradientUnits="userSpaceOnUse" id="color-63"><stop offset="0" stop-color="#d0fcf8"/><stop offset="1" stop-color="#d0fcf8" stop-opacity="0"/></linearGradient><linearGradient x1="112.9771" y1="-4.12498" x2="112.9771" y2="79.5413" gradientUnits="userSpaceOnUse" id="color-64"><stop offset="0" stop-color="#d0fcf8"/><stop offset="1" stop-color="#d0fcf8" stop-opacity="0"/></linearGradient><linearGradient x1="130.37674" y1="-4.12498" x2="130.37674" y2="74.98955" gradientUnits="userSpaceOnUse" id="color-65"><stop offset="0" stop-color="#d0fcf8"/><stop offset="1" stop-color="#d0fcf8" stop-opacity="0"/></linearGradient><linearGradient x1="147.77637" y1="-4.12498" x2="147.77637" y2="72.83477" gradientUnits="userSpaceOnUse" id="color-66"><stop offset="0" stop-color="#d0fcf8"/><stop offset="1" stop-color="#d0fcf8" stop-opacity="0"/></linearGradient><linearGradient x1="165.1097" y1="-4.12498" x2="165.1097" y2="71.13302" gradientUnits="userSpaceOnUse" id="color-67"><stop offset="0" stop-color="#d0fcf8"/><stop offset="1" stop-color="#d0fcf8" stop-opacity="0"/></linearGradient><linearGradient x1="182.44304" y1="-4.12498" x2="182.44304" y2="71.13302" gradientUnits="userSpaceOnUse" id="color-68"><stop offset="0" stop-color="#d0fcf8"/><stop offset="1" stop-color="#d0fcf8" stop-opacity="0"/></linearGradient><linearGradient x1="199.77637" y1="-4.12498" x2="199.77637" y2="73.40202" gradientUnits="userSpaceOnUse" id="color-69"><stop offset="0" stop-color="#c8f1f7"/><stop offset="1" stop-color="#c8f1f7" stop-opacity="0"/></linearGradient><linearGradient x1="217.10971" y1="-4.12498" x2="217.10971" y2="78.50729" gradientUnits="userSpaceOnUse" id="color-70"><stop offset="0" stop-color="#d0fcf8"/><stop offset="1" stop-color="#d0fcf8" stop-opacity="0"/></linearGradient><linearGradient x1="234.44304" y1="-4.12498" x2="234.44304" y2="82.47804" gradientUnits="userSpaceOnUse" id="color-71"><stop offset="0" stop-color="#c8f1f7"/><stop offset="1" stop-color="#c8f1f7" stop-opacity="0"/></linearGradient><linearGradient x1="251.89304" y1="-4.12497" x2="251.89304" y2="82.47807" gradientUnits="userSpaceOnUse" id="color-72"><stop offset="0" stop-color="#c8ecf8"/><stop offset="1" stop-color="#c8ecf8" stop-opacity="0"/></linearGradient><linearGradient x1="269.30971" y1="-3.77044" x2="269.30971" y2="82.83258" gradientUnits="userSpaceOnUse" id="color-73"><stop offset="0" stop-color="#c8ecf8"/><stop offset="1" stop-color="#c8ecf8" stop-opacity="0"/></linearGradient><linearGradient x1="286.69304" y1="-3.77044" x2="286.69304" y2="81.69808" gradientUnits="userSpaceOnUse" id="color-74"><stop offset="0" stop-color="#d0fcf8"/><stop offset="1" stop-color="#d0fcf8" stop-opacity="0"/></linearGradient><linearGradient x1="304.02637" y1="-3.77044" x2="304.02637" y2="79.85451" gradientUnits="userSpaceOnUse" id="color-75"><stop offset="0" stop-color="#c8ecf8"/><stop offset="1" stop-color="#c8ecf8" stop-opacity="0"/></linearGradient><linearGradient x1="321.35971" y1="-3.77045" x2="321.35971" y2="76.02557" gradientUnits="userSpaceOnUse" id="color-76"><stop offset="0" stop-color="#c8dff7"/><stop offset="1" stop-color="#c8dff7" stop-opacity="0"/></linearGradient><linearGradient x1="338.69304" y1="-3.77044" x2="338.69304" y2="70.92031" gradientUnits="userSpaceOnUse" id="color-77"><stop offset="0" stop-color="#c8d0f7"/><stop offset="1" stop-color="#c8d0f7" stop-opacity="0"/></linearGradient><linearGradient x1="356.02638" y1="-3.91227" x2="356.02638" y2="68.22586" gradientUnits="userSpaceOnUse" id="color-78"><stop offset="0" stop-color="#dfc8f7"/><stop offset="1" stop-color="#dfc8f7" stop-opacity="0"/></linearGradient><linearGradient x1="373.35971" y1="-3.91226" x2="373.35971" y2="66.52411" gradientUnits="userSpaceOnUse" id="color-79"><stop offset="0" stop-color="#f8c8f8"/><stop offset="1" stop-color="#f8c8f8" stop-opacity="0"/></linearGradient><linearGradient x1="390.69304" y1="-3.77044" x2="390.69304" y2="66.24048" gradientUnits="userSpaceOnUse" id="color-80"><stop offset="0" stop-color="#f3b5f7"/><stop offset="1" stop-color="#f3b5f7" stop-opacity="0"/></linearGradient><linearGradient x1="408.02638" y1="-3.77045" x2="408.02638" y2="67.94222" gradientUnits="userSpaceOnUse" id="color-81"><stop offset="0" stop-color="#f8a0f8"/><stop offset="1" stop-color="#f8a0f8" stop-opacity="0"/></linearGradient><linearGradient x1="425.35971" y1="-3.77044" x2="425.35971" y2="73.04751" gradientUnits="userSpaceOnUse" id="color-82"><stop offset="0" stop-color="#f8a0f8"/><stop offset="1" stop-color="#f8a0f8" stop-opacity="0"/></linearGradient><linearGradient x1="442.69304" y1="-3.91226" x2="442.69304" y2="79.71271" gradientUnits="userSpaceOnUse" id="color-83"><stop offset="0" stop-color="#f7abf7"/><stop offset="1" stop-color="#f7abf7" stop-opacity="0"/></linearGradient><linearGradient x1="460.02638" y1="-3.91225" x2="460.02638" y2="79.71272" gradientUnits="userSpaceOnUse" id="color-84"><stop offset="0" stop-color="#f8a0f8"/><stop offset="1" stop-color="#f8a0f8" stop-opacity="0"/></linearGradient><linearGradient x1="475.19305" y1="-3.91225" x2="475.19305" y2="79.71272" gradientUnits="userSpaceOnUse" id="color-85"><stop offset="0" stop-color="#f8a0f8"/><stop offset="1" stop-color="#f8a0f8" stop-opacity="0"/></linearGradient></defs><g transform="translate(2,4.12498)"><g data-paper-data="{&quot;isPaintingLayer&quot;:true}" fill-rule="nonzero" stroke="none" stroke-width="0" stroke-linecap="butt" stroke-linejoin="miter" stroke-miterlimit="10" stroke-dasharray="" stroke-dashoffset="0" style="mix-blend-mode: normal"><path d="M-2,362.12499v-364h484v364z" fill="url(#color-1)"/><g><path d="M-0.10036,119.98277v-124.10775h17.39964v124.10775z" fill="url(#color-2)"/><path d="M17.29928,128.3304v-132.45537h17.39964v132.45538z" fill="url(#color-3)"/><path d="M34.69892,135.85261v-139.97759h17.39964v139.97759z" fill="url(#color-4)"/><path d="M52.07835,138.87501v-143h17.39964v143z" fill="url(#color-5)"/><path d="M69.478,136.87501v-141h17.39964v141z" fill="url(#color-6)"/><path d="M86.87764,132.46481v-136.58977h17.39964v136.58978z" fill="url(#color-7)"/><path d="M104.27728,119.21809v-123.34307h17.39964v123.34307z" fill="url(#color-8)"/><path d="M121.67692,112.50777v-116.63275h17.39964v116.63275z" fill="url(#color-9)"/><path d="M139.07655,109.33115v-113.45613h17.39964v113.45613z" fill="url(#color-10)"/><path d="M156.40988,106.82239v-110.94737h17.39964v110.94737z" fill="url(#color-11)"/><path d="M173.74322,106.82239v-110.94737h17.39964v110.94737z" fill="url(#color-12)"/><path d="M191.07655,110.16742v-114.2924h17.39964v114.2924z" fill="url(#color-13)"/><path d="M208.40989,117.69374v-121.81871h17.39964v121.81871z" fill="url(#color-14)"/><path d="M225.74322,123.54753v-127.67251h17.39964v127.67251z" fill="url(#color-15)"/><path d="M243.19322,123.54755v-127.67251h17.39964v127.67252z" fill="url(#color-16)"/><path d="M260.60989,124.07019v-127.67251h17.39964v127.67251z" fill="url(#color-17)"/><path d="M277.99322,122.39768v-125.99999h17.39964v125.99999z" fill="url(#color-18)"/><path d="M295.32655,119.67984v-123.28216h17.39964v123.28216z" fill="url(#color-19)"/><path d="M312.65989,114.0351v-117.63744h17.39964v117.63744z" fill="url(#color-20)"/><path d="M329.99322,106.50879v-110.1111h17.39964v110.11111z" fill="url(#color-21)"/><path d="M347.32656,102.53657v-106.34796h17.39964v106.34797z" fill="url(#color-22)"/><path d="M364.65989,100.02779v-103.83917h17.39964v103.83919z" fill="url(#color-23)"/><path d="M381.99322,99.60967v-103.21199h17.39964v103.21199z" fill="url(#color-24)"/><path d="M399.32656,102.11845v-105.72077h17.39964v105.72077z" fill="url(#color-25)"/><path d="M416.65989,109.64475v-113.24707h17.39964v113.24709z" fill="url(#color-26)"/><path d="M433.99322,119.47078v-123.28217h17.39964v123.28217z" fill="url(#color-27)"/><path d="M451.32656,119.47078v-123.28216h17.39964v123.28217z" fill="url(#color-28)"/><path d="M468.65989,119.47078v-123.28216h13.06631v123.28217z" fill="url(#color-29)"/></g><g><path d="M-0.10036,80.05999v-84.18497h17.39964v84.18497z" fill="url(#color-30)"/><path d="M17.29928,85.72238v-89.84735h17.39964v89.84736z" fill="url(#color-31)"/><path d="M34.69892,90.82486v-94.94984h17.39964v94.94984z" fill="url(#color-32)"/><path d="M52.07835,92.87502v-97h17.39964v97z" fill="url(#color-33)"/><path d="M69.478,91.51837v-95.64335h17.39964v95.64335z" fill="url(#color-34)"/><path d="M86.87764,88.52683v-92.6518h17.39964v92.65181z" fill="url(#color-35)"/><path d="M104.27728,79.5413v-83.66628h17.39964v83.66628z" fill="url(#color-36)"/><path d="M121.67692,74.98955v-79.11453h17.39964v79.11453z" fill="url(#color-37)"/><path d="M139.07655,72.83477v-76.95976h17.39964v76.95976z" fill="url(#color-38)"/><path d="M156.40988,71.13302v-75.258h17.39964v75.258z" fill="url(#color-39)"/><path d="M173.74322,71.13302v-75.258h17.39964v75.258z" fill="url(#color-40)"/><path d="M191.07655,73.40202v-77.52701h17.39964v77.52701z" fill="url(#color-41)"/><path d="M208.40989,78.50729v-82.63227h17.39964v82.63227z" fill="url(#color-42)"/><path d="M225.74322,82.47804v-86.60303h17.39964v86.60303z" fill="url(#color-43)"/><path d="M243.19322,82.47806v-86.60303h17.39964v86.60304z" fill="url(#color-44)"/><path d="M260.60989,82.83258v-86.60303h17.39964v86.60303z" fill="url(#color-45)"/><path d="M277.99322,81.69808v-85.46853h17.39964v85.46853z" fill="url(#color-46)"/><path d="M295.32655,79.85451v-83.62496h17.39964v83.62496z" fill="url(#color-47)"/><path d="M312.65989,76.02557v-79.79602h17.39964v79.79602z" fill="url(#color-48)"/><path d="M329.99322,70.9203v-74.69075h17.39964v74.69076z" fill="url(#color-49)"/><path d="M347.32656,68.22586v-72.13813h17.39964v72.13813z" fill="url(#color-50)"/><path d="M364.65989,66.5241v-70.43636h17.39964v70.43637z" fill="url(#color-51)"/><path d="M381.99322,66.24048v-70.01092h17.39964v70.01092z" fill="url(#color-52)"/><path d="M399.32656,67.94222v-71.71269h17.39964v71.71269z" fill="url(#color-53)"/><path d="M416.65989,73.0475v-76.81794h17.39964v76.81795z" fill="url(#color-54)"/><path d="M433.99322,79.71271v-83.62497h17.39964v83.62497z" fill="url(#color-55)"/><path d="M451.32656,79.71271v-83.62496h17.39964v83.62497z" fill="url(#color-56)"/><path d="M468.65989,79.71271v-83.62496h13.06631v83.62497z" fill="url(#color-57)"/></g><g><path d="M-0.10036,80.05999v-84.18497h17.39964v84.18497z" fill="url(#color-58)"/><path d="M17.29928,85.72238v-89.84735h17.39964v89.84736z" fill="url(#color-59)"/><path d="M34.69892,90.82486v-94.94984h17.39964v94.94984z" fill="url(#color-60)"/><path d="M52.07835,92.87502v-97h17.39964v97z" fill="url(#color-61)"/><path d="M69.478,91.51837v-95.64335h17.39964v95.64335z" fill="url(#color-62)"/><path d="M86.87764,88.52683v-92.6518h17.39964v92.65181z" fill="url(#color-63)"/><path d="M104.27728,79.5413v-83.66628h17.39964v83.66628z" fill="url(#color-64)"/><path d="M121.67692,74.98955v-79.11453h17.39964v79.11453z" fill="url(#color-65)"/><path d="M139.07655,72.83477v-76.95976h17.39964v76.95976z" fill="url(#color-66)"/><path d="M156.40988,71.13302v-75.258h17.39964v75.258z" fill="url(#color-67)"/><path d="M173.74322,71.13302v-75.258h17.39964v75.258z" fill="url(#color-68)"/><path d="M191.07655,73.40202v-77.52701h17.39964v77.52701z" fill="url(#color-69)"/><path d="M208.40989,78.50729v-82.63227h17.39964v82.63227z" fill="url(#color-70)"/><path d="M225.74322,82.47804v-86.60303h17.39964v86.60303z" fill="url(#color-71)"/><path d="M243.19322,82.47806v-86.60303h17.39964v86.60304z" fill="url(#color-72)"/><path d="M260.60989,82.83258v-86.60303h17.39964v86.60303z" fill="url(#color-73)"/><path d="M277.99322,81.69808v-85.46853h17.39964v85.46853z" fill="url(#color-74)"/><path d="M295.32655,79.85451v-83.62496h17.39964v83.62496z" fill="url(#color-75)"/><path d="M312.65989,76.02557v-79.79602h17.39964v79.79602z" fill="url(#color-76)"/><path d="M329.99322,70.9203v-74.69075h17.39964v74.69076z" fill="url(#color-77)"/><path d="M347.32656,68.22586v-72.13813h17.39964v72.13813z" fill="url(#color-78)"/><path d="M364.65989,66.5241v-70.43636h17.39964v70.43637z" fill="url(#color-79)"/><path d="M381.99322,66.24048v-70.01092h17.39964v70.01092z" fill="url(#color-80)"/><path d="M399.32656,67.94222v-71.71269h17.39964v71.71269z" fill="url(#color-81)"/><path d="M416.65989,73.0475v-76.81794h17.39964v76.81795z" fill="url(#color-82)"/><path d="M433.99322,79.71271v-83.62497h17.39964v83.62497z" fill="url(#color-83)"/><path d="M451.32656,79.71271v-83.62496h17.39964v83.62497z" fill="url(#color-84)"/><path d="M468.65989,79.71271v-83.62496h13.06631v83.62497z" fill="url(#color-85)"/></g></g></g></svg>