<svg version="1.1" xmlns="http://www.w3.org/2000/svg" xmlns:xlink="http://www.w3.org/1999/xlink" width="498.39316" height="41.40408" viewBox="0,0,498.39316,41.40408"><defs><linearGradient x1="363.90939" y1="63.0148" x2="363.90939" y2="83.30713" gradientUnits="userSpaceOnUse" id="color-1"><stop offset="0" stop-color="#91e3eb"/><stop offset="1" stop-color="#91e3eb" stop-opacity="0"/></linearGradient><linearGradient x1="363.59908" y1="53.80733" x2="363.59908" y2="70.3769" gradientUnits="userSpaceOnUse" id="color-2"><stop offset="0" stop-color="#f5fdfd"/><stop offset="1" stop-color="#beeef3"/></linearGradient><linearGradient x1="363.59908" y1="56.67347" x2="363.59908" y2="73.24304" gradientUnits="userSpaceOnUse" id="color-3"><stop offset="0" stop-color="#76d2df" stop-opacity="0"/><stop offset="1" stop-color="#76d2df"/></linearGradient><linearGradient x1="115.10298" y1="63.0148" x2="115.10298" y2="83.30714" gradientUnits="userSpaceOnUse" id="color-4"><stop offset="0" stop-color="#91e3eb"/><stop offset="1" stop-color="#91e3eb" stop-opacity="0"/></linearGradient><linearGradient x1="115.5689" y1="54.26927" x2="115.5689" y2="67.75064" gradientUnits="userSpaceOnUse" id="color-5"><stop offset="0" stop-color="#f5fdfd"/><stop offset="1" stop-color="#daf0f2"/></linearGradient><linearGradient x1="115.41582" y1="56.67348" x2="115.41582" y2="73.24304" gradientUnits="userSpaceOnUse" id="color-6"><stop offset="0" stop-color="#76d2df" stop-opacity="0"/><stop offset="1" stop-color="#76d2df"/></linearGradient></defs><g transform="translate(10.19658,-54.17332)"><g data-paper-data="{&quot;isPaintingLayer&quot;:true}" fill-rule="nonzero" stroke="none" stroke-width="0" stroke-linecap="butt" stroke-linejoin="miter" stroke-miterlimit="10" stroke-dasharray="" stroke-dashoffset="0" style="mix-blend-mode: normal"><g><g fill="url(#color-1)"><path d="M239.6984,83.30713v-23.12566l248.49818,1.5v21.62566z"/></g><path d="M487.97998,67.60062c0,0 -7.27435,0.6283 -21.42307,0.45225c-6.25982,-0.07789 -28.54845,-2.05626 -41.10324,-2.17871c-11.74496,-0.11455 -28.32376,3.42802 -42.57462,3.07622c-11.50802,-0.28409 -35.46068,-3.04646 -47.26366,-3.09483c-8.6882,-0.03561 -24.92441,2.5565 -32.80602,2.31814c-11.43314,-0.34577 -20.26017,-2.92744 -28.61787,-3.20636c-22.56604,-0.75308 -34.97333,-1.96215 -34.97333,-1.96215c0,0 -0.96305,-9.20327 1.108,-8.82023c4.99136,0.92314 17.85839,1.08982 33.74529,1.72211c8.38558,0.33373 17.25525,2.95481 28.74456,3.30505c7.96181,0.24271 24.28659,-2.86131 33.06799,-2.82288c11.57884,0.05069 35.30046,2.81308 46.5987,3.09305c14.3976,0.35678 31.1186,-3.182 42.97299,-3.06637c12.55582,0.12246 34.84517,2.10083 41.10511,2.17872c14.1471,0.17604 21.41918,-0.45229 21.41918,-0.45229v9.45829z" fill="url(#color-2)"/><path d="M487.97998,70.46676c0,0 -7.27435,0.6283 -21.42307,0.45225c-6.25982,-0.0779 -28.54845,-2.05626 -41.10324,-2.17871c-11.74496,-0.11455 -28.32376,3.42803 -42.57462,3.07622c-11.50802,-0.28409 -35.46068,-3.04646 -47.26366,-3.09483c-8.6882,-0.03561 -24.92441,2.5565 -32.80602,2.31813c-11.43314,-0.34577 -20.26017,-2.92744 -28.61787,-3.20636c-22.56604,-0.75308 -34.97333,-1.96215 -34.97333,-1.96215v-9.45829c0,0 12.37448,1.46553 34.85329,2.36017c8.38558,0.33374 17.25525,2.95481 28.74456,3.30505c7.96181,0.24271 24.28659,-2.86132 33.06799,-2.82288c11.57884,0.05069 35.30046,2.81307 46.5987,3.09305c14.3976,0.35678 31.1186,-3.182 42.97299,-3.06638c12.55582,0.12246 34.84517,2.10083 41.10511,2.17873c14.1471,0.17604 21.41918,-0.4523 21.41918,-0.4523v9.45829z" fill="url(#color-3)"/></g><g><g fill="url(#color-4)"><path d="M-10.19658,83.30714v-21.95901l249.88484,-3v24.95901z"/></g><path d="M-9.97823,67.26728v-9.45829c0,0 7.33132,0.62834 21.59366,0.4523c6.31092,-0.0779 28.78183,-2.22294 41.43992,-2.3454c11.95095,-0.11562 28.80815,2.42315 43.32304,2.06637c11.39026,-0.27997 35.30511,-0.20902 46.97826,-0.25971c8.85293,-0.03844 25.31068,-1.93441 33.33733,-2.17712c11.5829,-0.35024 20.52482,1.36202 28.97871,1.02828c18.58998,-0.73389 30.73066,-1.97572 34.38009,-2.30216c1.81412,-0.16227 0.7571,8.40028 0.7571,8.40028c0,0 -12.50835,2.20908 -35.2582,2.96215c-8.42578,0.27891 -17.32472,-1.47274 -28.85097,-1.12698c-7.94582,0.23836 -24.31427,2.64625 -33.07324,2.68187c-11.89913,0.04837 -36.04689,-0.02261 -47.64864,0.26149c-14.36694,0.35181 -31.08079,-2.19077 -42.92141,-2.07622c-12.65705,0.12245 -35.12724,2.26749 -41.43805,2.34538c-14.26397,0.17605 -21.59758,-0.45225 -21.59758,-0.45225z" fill="url(#color-5)"/><path d="M-9.97823,70.46676v-9.45829c0,0 7.33132,0.62834 21.59366,0.4523c6.31092,-0.0779 28.78183,-2.22294 41.43992,-2.3454c11.95095,-0.11562 28.80815,2.42315 43.32304,2.06637c11.39026,-0.27997 35.30511,-0.20902 46.97826,-0.25971c8.85293,-0.03844 25.31068,-1.93441 33.33733,-2.17712c11.5829,-0.35024 20.52482,1.36202 28.97871,1.02828c22.66192,-0.89464 35.28005,-3.36017 35.28005,-3.36017l-0.14286,9.45829c0,0 -12.50835,2.20908 -35.2582,2.96215c-8.42578,0.27891 -17.32472,-1.47274 -28.85097,-1.12698c-7.94582,0.23836 -24.31427,2.64625 -33.07324,2.68187c-11.89913,0.04837 -36.04689,-0.02261 -47.64864,0.26149c-14.36694,0.35181 -31.08079,-2.19077 -42.92141,-2.07622c-12.65705,0.12245 -35.12724,2.26749 -41.43805,2.34538c-14.26397,0.17605 -21.59758,-0.45225 -21.59758,-0.45225z" fill="url(#color-6)"/></g><g fill="#7ac7ce"><g><path d="M453.68264,90.77386c3.02554,0 5.47824,0.55301 5.47824,1.23517c0,0.68215 -2.45269,1.23516 -5.47824,1.23516c-3.02554,0 -5.47823,-0.84944 -5.47823,-1.5316c0,-0.68215 2.45269,-0.93873 5.47823,-0.93873z"/><path d="M427.28749,89.93396c0,-0.95503 3.30742,-1.72923 7.38733,-1.72923c4.0799,0 7.29122,-0.01458 7.38732,0.93873c0.16601,1.64672 -3.30742,2.51974 -7.38732,2.51974c-4.0799,0 -7.38733,-0.77422 -7.38733,-1.72922z"/><path d="M406.7856,91.56436c2.33792,0 4.23319,0.50877 4.23319,1.13635c0,0.62758 -1.89526,1.13634 -4.23319,1.13634c-2.33792,0 -4.23319,-0.80519 -4.23319,-1.43278c0,-0.62758 1.89526,-0.83991 4.23319,-0.83991z"/><path d="M381.4695,87.36481c0,-1.17332 3.54775,-0.54347 7.71934,-0.54347c4.17159,0 7.55333,0.95115 7.55333,2.12447c0,1.17333 -3.38174,2.12448 -7.55333,2.12448c-4.17159,0 -7.71934,-1.64286 -7.71934,-3.7055z"/><path d="M358.01164,88.69051c3.07139,0 5.56125,1.04707 5.56125,1.72922c0,0.68216 -2.48986,0.7411 -5.56125,0.7411c-3.07139,0 -5.22922,0.13868 -5.22922,-0.54347c0,-0.68216 2.15784,-1.92687 5.22922,-1.92687z"/><path d="M343.20484,92.31659c4.0799,0 7.38732,0.23591 7.38732,1.13634c0,0.90046 -3.30742,2.12447 -7.38732,2.12447c-4.0799,0 -7.38733,-1.42167 -7.38733,-2.32211c0,-0.90046 3.30742,-0.93872 7.38733,-0.93872z"/><path d="M315.56464,90.57623c2.65882,0 4.81421,0.97038 4.81421,1.67983c0,0.70946 -2.1554,0.88932 -4.81421,0.88932c-2.65881,0 -4.81421,-0.08106 -4.81421,-0.7905c0,-0.70946 2.1554,-1.77862 4.81421,-1.77862z"/><path d="M297.75127,87.11777c3.89654,0 7.05531,0.95115 7.05531,2.12448c0,1.17332 -3.15877,2.12448 -7.05531,2.12448c-3.89654,0 -7.0553,-0.95116 -7.0553,-2.12448c0,-1.17333 3.15877,-2.12448 7.0553,-2.12448z"/><path d="M262.56028,92.31266c2.93386,0 5.31224,0.55301 5.31224,1.23517c0,0.68215 -2.37837,1.23517 -5.31224,1.23517c-2.93387,0 -5.31224,-0.55301 -5.31224,-1.23517c0,-0.68215 2.37838,-1.23517 5.31224,-1.23517z"/><path d="M245.76757,88.55598c0.18044,-0.81152 3.3845,-1.22849 7.15647,-0.93133c3.77196,0.29717 6.68346,1.19592 6.50302,2.00744c-0.18044,0.81152 -3.3845,1.22849 -7.15647,0.93133c-3.77196,-0.29716 -6.68346,-1.19592 -6.50302,-2.00743z"/></g><path d="M15.09657,92.40428c0,0.62758 -2.61777,1.43278 -5.84694,1.43278c-3.22918,0 -5.84694,-0.50876 -5.84694,-1.13634c0,-0.62758 2.61777,-1.13634 5.84694,-1.13634c3.22918,0 5.84694,0.21232 5.84694,0.83991z"/><path d="M44.21666,87.36481c0,2.06264 -4.90021,3.7055 -10.66208,3.7055c-5.76187,0 -10.43279,-0.95116 -10.43279,-2.12448c0,-1.17332 4.67092,-2.12447 10.43279,-2.12447c5.76187,0 10.66208,-0.62985 10.66208,0.54347z"/><path d="M78.83974,91.91021c0,0.68215 -2.98044,0.54347 -7.2227,0.54347c-4.24225,0 -7.68128,-0.05892 -7.68128,-0.7411c0,-0.68215 3.43903,-1.72922 7.68128,-1.72922c4.24225,0 7.2227,1.24469 7.2227,1.92687z"/><path d="M107.27194,91.10056c0,0.90046 -4.56826,2.32211 -10.2035,2.32211c-5.63524,0 -10.20349,-1.22403 -10.20349,-2.12447c0,-0.90046 4.56825,-1.13634 10.20349,-1.13634c5.63524,0 10.2035,0.03827 10.2035,0.93872z"/><path d="M141.89503,92.35487c0,0.70946 -2.97707,0.7905 -6.64947,0.7905c-3.6724,0 -6.64947,-0.17986 -6.64947,-0.88932c0,-0.70946 2.97707,-1.67982 6.64947,-1.67982c3.6724,0 6.64947,1.06918 6.64947,1.77863z"/><path d="M169.59458,89.24226c0,1.17332 -4.36294,2.12448 -9.7449,2.12448c-5.38196,0 -9.74491,-0.95116 -9.74491,-2.12448c0,-1.17333 4.36294,-2.12448 9.74491,-2.12448c5.38196,0 9.7449,0.95115 9.7449,2.12448z"/><path d="M205.59342,91.91021c0,0.68215 -3.28504,1.23517 -7.33734,1.23517c-4.0523,0 -7.33734,-0.55301 -7.33734,-1.23517c0,-0.68215 3.28505,-1.23516 7.33734,-1.23516c4.0523,0 7.33734,0.55301 7.33734,1.23516z"/><path d="M231.65044,88.55599c0.24923,0.81152 -3.77218,1.71027 -8.98208,2.00743c-5.2099,0.29716 -9.63539,-0.11981 -9.88463,-0.93133c-0.24923,-0.81152 3.77218,-1.71027 8.98208,-2.00744c5.2099,-0.29716 9.63539,0.11981 9.88463,0.93133z"/></g><g fill="#c7eff3"><g><path d="M453.68264,68.61565c3.02554,0 5.47824,0.80952 5.47824,1.80812c0,0.9986 -2.45269,1.80812 -5.47824,1.80812c-3.02554,0 -5.47823,-1.24347 -5.47823,-2.24206c0,-0.9986 2.45269,-1.37417 5.47823,-1.37417z"/><path d="M427.28749,67.38613c0,-1.39803 3.30742,-2.53137 7.38733,-2.53137c4.0799,0 7.29122,-0.02136 7.38732,1.37418c0.16601,2.41057 -3.30742,3.68856 -7.38732,3.68856c-4.0799,0 -7.38733,-1.13334 -7.38733,-2.53137z"/><path d="M406.7856,69.77284c2.33792,0 4.23319,0.74477 4.23319,1.66347c0,0.91871 -1.89526,1.66347 -4.23319,1.66347c-2.33792,0 -4.23319,-1.1787 -4.23319,-2.09742c0,-0.91871 1.89526,-1.22952 4.23319,-1.22952z"/><path d="M381.4695,63.62526c0,-1.71759 3.54775,-0.79557 7.71934,-0.79557c4.17159,0 7.55333,1.39238 7.55333,3.10995c0,1.71759 -3.38174,3.10997 -7.55333,3.10997c-4.17159,0 -7.71934,-2.40492 -7.71934,-5.42435z"/><path d="M358.01164,65.56591c3.07139,0 5.56125,1.53276 5.56125,2.53136c0,0.9986 -2.48986,1.08487 -5.56125,1.08487c-3.07139,0 -5.22922,0.20303 -5.22922,-0.79558c0,-0.9986 2.15784,-2.82066 5.22922,-2.82066z"/><path d="M343.20484,70.87399c4.0799,0 7.38732,0.34531 7.38732,1.66347c0,1.31814 -3.30742,3.10995 -7.38732,3.10995c-4.0799,0 -7.38733,-2.08112 -7.38733,-3.39927c0,-1.31814 3.30742,-1.37417 7.38733,-1.37417z"/><path d="M315.56464,68.32636c2.65882,0 4.81421,1.42048 4.81421,2.45904c0,1.03854 -2.1554,1.30185 -4.81421,1.30185c-2.65881,0 -4.81421,-0.11865 -4.81421,-1.15721c0,-1.03854 2.1554,-2.60369 4.81421,-2.60369z"/><path d="M297.75127,63.26364c3.89654,0 7.05531,1.39236 7.05531,3.10995c0,1.71759 -3.15877,3.10997 -7.05531,3.10997c-3.89654,0 -7.0553,-1.39239 -7.0553,-3.10997c0,-1.71759 3.15877,-3.10995 7.0553,-3.10995z"/><path d="M262.56028,70.86825c2.93386,0 5.31224,0.80952 5.31224,1.80812c0,0.9986 -2.37837,1.80812 -5.31224,1.80812c-2.93387,0 -5.31224,-0.80952 -5.31224,-1.80812c0,-0.99859 2.37838,-1.80812 5.31224,-1.80812z"/><path d="M245.76757,65.36898c0.18044,-1.18795 3.3845,-1.79833 7.15647,-1.36333c3.77196,0.435 6.68346,1.75066 6.50302,2.93862c-0.18044,1.18796 -3.3845,1.79834 -7.15647,1.36334c-3.77196,-0.435 -6.68346,-1.75066 -6.50302,-2.93862z"/></g><path d="M15.09657,71.00238c0,0.91871 -2.61777,2.09742 -5.84694,2.09742c-3.22918,0 -5.84694,-0.74477 -5.84694,-1.66347c0,-0.9187 2.61777,-1.66347 5.84694,-1.66347c3.22918,0 5.84694,0.31081 5.84694,1.22953z"/><path d="M44.21666,63.62526c0,3.01943 -4.90021,5.42434 -10.66208,5.42434c-5.76187,0 -10.43279,-1.39237 -10.43279,-3.10996c0,-1.71759 4.67092,-3.10995 10.43279,-3.10995c5.76187,0 10.66208,-0.92202 10.66208,0.79557z"/><path d="M78.83974,70.27912c0,0.99859 -2.98044,0.79557 -7.2227,0.79557c-4.24225,0 -7.68128,-0.08627 -7.68128,-1.08488c0,-0.9986 3.43903,-2.53137 7.68128,-2.53137c4.24225,0 7.2227,1.82207 7.2227,2.82066z"/><path d="M107.27194,69.0939c0,1.31814 -4.56826,3.39927 -10.2035,3.39927c-5.63524,0 -10.20349,-1.79182 -10.20349,-3.10996c0,-1.31814 4.56825,-1.66347 10.20349,-1.66347c5.63524,0 10.2035,0.05603 10.2035,1.37417z"/><path d="M141.89503,70.93005c0,1.03854 -2.97707,1.15721 -6.64947,1.15721c-3.6724,0 -6.64947,-0.26331 -6.64947,-1.30185c0,-1.03854 2.97707,-2.45904 6.64947,-2.45904c3.6724,0 6.64947,1.56515 6.64947,2.60369z"/><path d="M169.59458,66.37359c0,1.71759 -4.36294,3.10997 -9.7449,3.10997c-5.38196,0 -9.74491,-1.39238 -9.74491,-3.10997c0,-1.71759 4.36294,-3.10995 9.74491,-3.10995c5.38196,0 9.7449,1.39238 9.7449,3.10995z"/><path d="M205.59342,70.27912c0,0.99859 -3.28504,1.80812 -7.33734,1.80812c-4.0523,0 -7.33734,-0.80952 -7.33734,-1.80812c0,-0.9986 3.28505,-1.80812 7.33734,-1.80812c4.0523,0 7.33734,0.80952 7.33734,1.80812z"/><path d="M231.65044,65.36898c0.24923,1.18796 -3.77218,2.50362 -8.98208,2.93862c-5.2099,0.435 -9.63539,-0.17539 -9.88463,-1.36334c-0.24923,-1.18796 3.77218,-2.50362 8.98208,-2.93862c5.2099,-0.435 9.63539,0.1754 9.88463,1.36333z"/></g></g></g></svg>