<svg version="1.1" xmlns="http://www.w3.org/2000/svg" xmlns:xlink="http://www.w3.org/1999/xlink" width="152" height="152" viewBox="0,0,152,152"><defs><linearGradient x1="240" y1="185.5301" x2="240" y2="196.87441" gradientUnits="userSpaceOnUse" id="color-1"><stop offset="0" stop-color="#facd01"/><stop offset="1" stop-color="#b67402"/></linearGradient><linearGradient x1="240" y1="163.38687" x2="240" y2="167.58643" gradientUnits="userSpaceOnUse" id="color-2"><stop offset="0" stop-color="#d59306"/><stop offset="1" stop-color="#f8f12e"/></linearGradient><linearGradient x1="240" y1="167.58643" x2="240" y2="171.78602" gradientUnits="userSpaceOnUse" id="color-3"><stop offset="0" stop-color="#f8f12e"/><stop offset="1" stop-color="#f8f12e" stop-opacity="0"/></linearGradient><radialGradient cx="243.21786" cy="174.13124" r="16.74378" gradientUnits="userSpaceOnUse" id="color-4"><stop offset="0" stop-color="#f7d02c"/><stop offset="1" stop-color="#b88b28"/></radialGradient><radialGradient cx="236.89123" cy="173.59576" r="16.74378" gradientUnits="userSpaceOnUse" id="color-5"><stop offset="0" stop-color="#f7d02c"/><stop offset="1" stop-color="#b88b28"/></radialGradient></defs><g transform="translate(-164,-103)"><g data-paper-data="{&quot;isPaintingLayer&quot;:true}" fill-rule="nonzero" stroke="none" stroke-width="0" stroke-linecap="butt" stroke-linejoin="miter" stroke-miterlimit="10" stroke-dasharray="" stroke-dashoffset="0" style="mix-blend-mode: normal"><path d="M164,255v-152h152v152z" data-paper-data="{&quot;origPos&quot;:null}" fill="none"/><g><path d="M238.38198,196.87322v-0.72721h2.98152v0.72721z" fill="#cb8d06"/><path d="M238.4547,164.11287v-0.72721h2.98152v0.72721z" fill="#d29d17"/><path d="M237.5457,196.87441v-33.48755h4.90859v33.48755z" fill="#facd01"/><path d="M237.5457,196.87441v-11.34432h4.90859v11.34432z" fill="url(#color-1)"/><path d="M237.5457,167.58643v-4.19958h4.90859v4.19958z" fill="url(#color-2)"/><path d="M237.5457,171.78602v-4.19958h4.90859v4.19958z" fill="url(#color-3)"/><path d="M242.4543,196.87441v-33.48755l1.0908,1.0908v31.30596z" fill="url(#color-4)"/><path d="M236.45491,195.79352v-31.30596l1.0908,-1.0908v33.48755z" data-paper-data="{&quot;index&quot;:null}" fill="url(#color-5)"/></g></g></g></svg>