<svg version="1.1" xmlns="http://www.w3.org/2000/svg" xmlns:xlink="http://www.w3.org/1999/xlink" width="152" height="152" viewBox="0,0,152,152"><defs><radialGradient cx="224" cy="166.05556" r="28.61366" gradientUnits="userSpaceOnUse" id="color-1"><stop offset="0" stop-color="#fff528"/><stop offset="1" stop-color="#d29d0a"/></radialGradient><radialGradient cx="226" cy="177.5" r="28.50329" gradientUnits="userSpaceOnUse" id="color-2"><stop offset="0" stop-color="#feec2b"/><stop offset="1" stop-color="#d49f07"/></radialGradient><radialGradient cx="233.75" cy="161.125" r="26.53142" gradientUnits="userSpaceOnUse" id="color-3"><stop offset="0" stop-color="#c69807"/><stop offset="1" stop-color="#c89501"/></radialGradient><linearGradient x1="233.26427" y1="179.96801" x2="257.51162" y2="179.96801" gradientUnits="userSpaceOnUse" id="color-4"><stop offset="0" stop-color="#ad7b00"/><stop offset="1" stop-color="#eab705"/></linearGradient><radialGradient cx="257" cy="183.125" r="19.40681" gradientUnits="userSpaceOnUse" id="color-5"><stop offset="0" stop-color="#ffe522"/><stop offset="1" stop-color="#ffe522" stop-opacity="0"/></radialGradient></defs><g transform="translate(-164,-104)"><g data-paper-data="{&quot;isPaintingLayer&quot;:true}" fill-rule="nonzero" stroke="none" stroke-width="0" stroke-linecap="butt" stroke-linejoin="miter" stroke-miterlimit="10" stroke-dasharray="" stroke-dashoffset="0" style="mix-blend-mode: normal"><path d="M236.48077,208.57555v-2h7.07692v2z" fill="#d29d0a"/><path d="M237.0625,152.94391v-1.5h6.95833v1.5z" fill="#dfb612"/><path d="M164,256v-152h152v152z" data-paper-data="{&quot;origPos&quot;:null}" fill="none"/><path d="M218.68618,179.99999c0,-15.80287 8.16394,-28.61365 18.23469,-28.61365c10.07075,0 18.23469,12.81078 18.23469,28.61366c0,15.80287 -8.16396,28.61366 -18.23468,28.61366c-10.07075,0 -18.23468,-12.81078 -18.23468,-28.61366z" fill="url(#color-1)"/><path d="M228.97919,196.8915c-5.82598,-12.71227 -4.0812,-30.54286 3.89702,-39.82577c7.97826,-9.28291 19.16881,-6.50286 24.99478,6.20941c5.82597,12.71227 4.0812,30.54288 -3.89703,39.82579c-7.97826,9.28291 -19.16879,6.50287 -24.99477,-6.20941z" data-paper-data="{&quot;origRot&quot;:0}" fill="url(#color-2)"/><path d="M230.62895,194.88741c-5.03542,-12.1293 -3.00243,-28.62449 4.54086,-36.84306c4.37511,-4.76677 9.64293,-5.70232 14.27861,-3.28075c3.35687,1.75355 6.38226,5.26748 8.49712,10.36177c5.03543,12.12931 3.00243,28.62451 -4.54083,36.84308c-7.54327,8.21856 -17.74031,5.04828 -22.77574,-7.08101z" fill="url(#color-3)"/><g><path d="M240.44325,198.90334c-6.11167,-4.46335 -8.85237,-16.55927 -6.1215,-27.01697c2.73086,-10.4577 9.89919,-15.31706 16.01088,-10.85371c6.11168,4.46335 8.85237,16.55926 6.12151,27.01696c-2.73086,10.45771 -9.89918,15.31707 -16.01088,10.85374z" data-paper-data="{&quot;origRot&quot;:0}" fill="url(#color-4)"/><path d="M240.90849,198.36033c-5.94627,-4.34256 3.67545,-41.18821 9.62172,-36.84566c5.94627,4.34256 8.61277,16.11105 5.95583,26.28571c-2.65697,10.17467 -9.63124,14.9025 -15.5775,10.55996z" data-paper-data="{&quot;origRot&quot;:0}" fill="url(#color-5)"/></g><path d="M232.98497,180.00984c0,-10.39593 5.01105,-18.82351 11.19249,-18.82351c6.18144,0 11.19247,8.42756 11.19247,18.82351c0,10.39594 -5.01104,18.82351 -11.19247,18.82351c-6.18144,0 -11.19248,-8.42756 -11.19248,-18.82351z" fill="#bb8907"/><g><path d="M247.51636,185.52255v-10.77865h1.57221v10.77865z" fill="#ffce24"/><path d="M249.12667,174.79814l-1.75867,1.77967l0.03213,-1.77966z" data-paper-data="{&quot;index&quot;:null}" fill="#f5bb0b"/><path d="M247.35966,185.36167l0.00916,-1.80983l1.80351,1.77967z" fill="#fffa31"/><path d="M243.82215,172.19802v-3.05663h6.10051l0.27262,1.62887z" fill="#fffa31"/><path d="M243.82215,190.80688v-3.05663l6.37051,1.28006l-0.27262,1.77657z" fill="#b98903"/><path d="M243.91165,190.86657v-21.72217l3.03481,1.58458v18.22309z" fill="#ffce24"/><path d="M242.67727,170.84175l-3.93106,-1.68326l5.16713,-0.0166l1.69845,1.66089z" fill="#fffa31"/><path d="M238.74576,176.45188v-7.28497l4.48969,1.61432l-0.02522,3.70417l0.99209,0.04679l-0.0282,14.42919l-4.19813,1.91096l0.04982,-14.4212z" fill="#ffce24"/><path d="M239.98761,190.79739l4.17746,-1.83276h1.39552l-1.63185,1.83692z" fill="#b98903"/></g><g fill="#f2b00a"><path d="M244.06983,188.96718l0.00269,-14.42874l-0.97179,0.00146v-3.78358h2.33066v18.21086z"/><path d="M246.77041,188.98993v-18.26786h3.42894v18.26786zM249.07832,185.27554l-0.01727,-10.36469l-1.14963,0.00167l-0.00348,10.34619z"/></g></g></g></svg>