<svg version="1.1" xmlns="http://www.w3.org/2000/svg" xmlns:xlink="http://www.w3.org/1999/xlink" width="152" height="152" viewBox="0,0,152,152"><defs><radialGradient cx="225.7524" cy="169.375" r="28.61366" gradientUnits="userSpaceOnUse" id="color-1"><stop offset="0" stop-color="#fff227"/><stop offset="1" stop-color="#d29608"/></radialGradient><radialGradient cx="230.7524" cy="179.125" r="28.50329" gradientUnits="userSpaceOnUse" id="color-2"><stop offset="0" stop-color="#ffee12"/><stop offset="1" stop-color="#c39009"/></radialGradient><linearGradient x1="237.66018" y1="158.04434" x2="251.29529" y2="201.96843" gradientUnits="userSpaceOnUse" id="color-3"><stop offset="0" stop-color="#b1780b"/><stop offset="1" stop-color="#b07705"/></linearGradient><linearGradient x1="238.30971" y1="171.91596" x2="254.09807" y2="188.02004" gradientUnits="userSpaceOnUse" id="color-4"><stop offset="0" stop-color="#ba8718"/><stop offset="1" stop-color="#d3a006"/></linearGradient><radialGradient cx="254.58179" cy="183.08333" r="19.61928" gradientUnits="userSpaceOnUse" id="color-5"><stop offset="0" stop-color="#fbe20f"/><stop offset="1" stop-color="#fbe20f" stop-opacity="0"/></radialGradient><linearGradient x1="245.08222" y1="161.18634" x2="245.08222" y2="198.83334" gradientUnits="userSpaceOnUse" id="color-6"><stop offset="0" stop-color="#9e6805"/><stop offset="1" stop-color="#94640c"/></linearGradient></defs><g transform="translate(-164,-104)"><g data-paper-data="{&quot;isPaintingLayer&quot;:true}" fill-rule="nonzero" stroke="none" stroke-width="0" stroke-linecap="butt" stroke-linejoin="miter" stroke-miterlimit="10" stroke-dasharray="" stroke-dashoffset="0" style="mix-blend-mode: normal"><path d="M164,256v-152h152v152z" data-paper-data="{&quot;origPos&quot;:null}" fill="none"/><path d="M237.58403,208.57555v-2h7.07692v2z" fill="#d29608"/><path d="M237.68156,152.94391v-1.5h6.375v1.5z" fill="#dcaa0f"/><path d="M238.39706,151.38634c8.75579,0 15.85374,12.81078 15.85374,28.61366c0,15.80287 -7.09797,28.61366 -15.85373,28.61366c-8.75579,0 -15.85373,-10.68578 -15.85373,-28.61366c0,-18.67788 7.09794,-28.61366 15.85372,-28.61366z" fill="url(#color-1)"/><path d="M232.78259,196.8915c-4.44572,-12.71227 -3.11431,-30.54286 2.97375,-39.82577c6.08809,-9.28291 14.62745,-6.50286 19.07316,6.20941c4.44571,12.71227 3.11431,30.54288 -2.97376,39.82579c-6.08809,9.28291 -14.62743,6.50287 -19.07315,-6.20941z" data-paper-data="{&quot;origRot&quot;:0}" fill="url(#color-2)"/><path d="M234.26474,194.88741c-3.76523,-12.1293 -2.24507,-28.62449 3.39543,-36.84306c3.27149,-4.76677 7.2105,-5.70232 10.67682,-3.28075c2.5101,1.75355 4.77233,5.26748 6.35372,10.36177c3.76524,12.12931 2.24507,28.62451 -3.3954,36.84308c-5.64048,8.21856 -13.26531,5.04828 -17.03055,-7.08101z" fill="url(#color-3)"/><g><path d="M242.67655,198.834c-4.35983,-4.44701 -6.31493,-16.49863 -4.36683,-26.91804c1.94808,-10.41941 7.06169,-15.26097 11.42153,-10.81396c4.35983,4.44701 6.31493,16.49862 4.36684,26.91803c-1.94808,10.41942 -7.06168,15.26098 -11.42153,10.81399z" data-paper-data="{&quot;origRot&quot;:0}" fill="url(#color-4)"/><path d="M243.00842,198.29298c-4.24183,-4.32665 2.62192,-41.03738 6.86375,-36.71073c4.24183,4.32665 6.14401,16.05206 4.24865,26.18946c-1.89538,10.13741 -6.87055,14.84793 -11.11237,10.52129z" data-paper-data="{&quot;origRot&quot;:0}" fill="url(#color-5)"/></g><path d="M237.03259,180.00984c0,-10.39593 3.60394,-18.82351 8.04963,-18.82351c4.44569,0 8.04962,8.42756 8.04962,18.82351c0,10.39594 -3.60394,18.82351 -8.04962,18.82351c-4.44569,0 -8.04962,-8.42756 -8.04962,-18.82351z" fill="url(#color-6)"/><g><path d="M248.02283,185.64946v-11.02666h0.95798v11.02666z" fill="#ebbe13"/><path d="M249.00402,174.67829l-1.0716,1.82061l0.01958,-1.8206z" data-paper-data="{&quot;index&quot;:null}" fill="#e7b706"/><path d="M247.92735,185.48488l0.00559,-1.85148l1.09892,1.82061z" fill="#fff243"/><path d="M245.77186,172.01835v-3.12696h3.08047l0.80282,1.66634z" fill="#fdf94f"/><path d="M245.77186,191.05537v-3.12696l3.88169,1.30951l-0.43359,1.81745z" fill="#ab730c"/><path d="M245.8264,191.11644v-22.22196l1.84918,1.62104v18.64238z" fill="#ebbe13"/><path d="M245.07426,170.63087l-3.7851,-1.72199l4.53826,-0.01699l1.03491,1.6991z" fill="#fdf94f"/><path d="M241.21651,176.37008v-7.45259l4.19787,1.65146l-0.01536,3.78939l0.6045,0.04787l-0.01719,14.76119l-4.02021,1.95493l0.03036,-14.75301z" fill="#ebbe13"/><path d="M242.04076,191.04567l3.94006,-1.87493h0.85032l-0.99432,1.87918z" fill="#ab730c"/></g><g fill="#dc9807"><path d="M246.01046,189.17334l0.0016,-14.76073l-0.57823,0.00149v-3.87063h1.38678v18.62987z"/><path d="M247.61736,189.19662v-18.68818h2.04027v18.68818zM248.99059,185.39677l-0.01028,-10.60316l-0.68404,0.00171l-0.00208,10.58425z"/></g></g></g></svg>