<svg version="1.1" xmlns="http://www.w3.org/2000/svg" xmlns:xlink="http://www.w3.org/1999/xlink" width="152" height="152" viewBox="0,0,152,152"><defs><radialGradient cx="250.37529" cy="175.01124" r="15.66094" gradientUnits="userSpaceOnUse" id="color-1"><stop offset="0" stop-color="#fbf44a"/><stop offset="1" stop-color="#da9e00"/></radialGradient><radialGradient cx="247.29313" cy="170.30536" r="12.97438" gradientUnits="userSpaceOnUse" id="color-2"><stop offset="0" stop-color="#f9d722"/><stop offset="1" stop-color="#f1c814"/></radialGradient><linearGradient x1="238.66893" y1="163.46954" x2="238.66893" y2="196.56767" gradientUnits="userSpaceOnUse" id="color-3"><stop offset="0" stop-color="#d39715" stop-opacity="0"/><stop offset="1" stop-color="#d39715"/></linearGradient><radialGradient cx="229.26147" cy="179.08264" r="15.21114" gradientUnits="userSpaceOnUse" id="color-4"><stop offset="0" stop-color="#dea900"/><stop offset="1" stop-color="#f8c805"/></radialGradient><radialGradient cx="236.3495" cy="169.19733" r="10.18346" gradientUnits="userSpaceOnUse" id="color-5"><stop offset="0" stop-color="#c38701"/><stop offset="1" stop-color="#f4c402"/></radialGradient><linearGradient x1="245.17165" y1="179.99079" x2="231.93714" y2="179.99079" gradientUnits="userSpaceOnUse" id="color-6"><stop offset="0" stop-color="#dea707"/><stop offset="1" stop-color="#fdd507"/></linearGradient><radialGradient cx="241.49928" cy="183.95787" r="6.30282" gradientUnits="userSpaceOnUse" id="color-7"><stop offset="0" stop-color="#cc9903"/><stop offset="1" stop-color="#cc9903" stop-opacity="0"/></radialGradient><radialGradient cx="237.62565" cy="179.84593" r="6.66776" gradientUnits="userSpaceOnUse" id="color-8"><stop offset="0" stop-color="#fcf264"/><stop offset="1" stop-color="#fdda2c"/></radialGradient><linearGradient x1="238.2536" y1="173.42182" x2="238.2536" y2="178.04717" gradientUnits="userSpaceOnUse" id="color-9"><stop offset="0" stop-color="#d5a202"/><stop offset="1" stop-color="#d5a202" stop-opacity="0"/></linearGradient></defs><g transform="translate(-164,-103)"><g data-paper-data="{&quot;isPaintingLayer&quot;:true}" fill-rule="nonzero" stroke="none" stroke-width="0" stroke-linecap="butt" stroke-linejoin="miter" stroke-miterlimit="10" stroke-dasharray="" stroke-dashoffset="0" style="mix-blend-mode: normal"><path d="M164,255v-152h152v152z" data-paper-data="{&quot;origPos&quot;:null}" fill="none"/><g><path d="M238.18327,196.5653v-0.7195h2.94995v0.7195z" data-paper-data="{&quot;index&quot;:null}" fill="#da9e00"/><path d="M238.11132,164.15184v-0.7195h2.94995v0.7195z" data-paper-data="{&quot;index&quot;:null}" fill="#dba102"/><path d="M229.69651,179.99702c0,-9.14576 5.11234,-16.55986 11.41873,-16.55986c6.30639,0 11.41873,7.4141 11.41873,16.55986c0,9.14576 -5.11233,16.55986 -11.41873,16.55986c-6.3064,0 -11.41873,-7.4141 -11.41873,-16.55986z" data-paper-data="{&quot;index&quot;:null}" fill="url(#color-1)"/><path d="M227.46605,179.98983c0,-9.1398 4.95732,-16.54907 11.07249,-16.54907c6.11517,0 11.07249,7.40927 11.07249,16.54906c0,9.1398 -4.95732,16.54906 -11.07249,16.54906c-6.11517,0 -11.07249,-7.40927 -11.07249,-16.54907z" data-paper-data="{&quot;index&quot;:null}" fill="url(#color-2)"/><path d="M227.46605,180.01861c0,-9.1398 5.01571,-16.54907 11.20288,-16.54907c6.18718,0 11.20288,7.40927 11.20288,16.54906c0,9.1398 -5.0157,16.54906 -11.20288,16.54906c-6.18718,0 -11.20288,-7.40927 -11.20288,-16.54907z" data-paper-data="{&quot;index&quot;:null}" fill="url(#color-3)"/><path d="M238.49898,164.77868c5.56482,0 10.07598,6.81026 10.07598,15.21114c0,8.40088 -4.51116,15.21114 -10.07598,15.21114c-5.56482,0 -10.07599,-6.81026 -10.07599,-15.21114c0,-8.40088 4.51117,-15.21114 10.07599,-15.21114z" data-paper-data="{&quot;index&quot;:null}" fill="url(#color-4)"/><path d="M230.56649,179.98983c0,-6.6615 3.45811,-12.06172 7.72391,-12.06172c4.2658,0 7.72391,5.40021 7.72391,12.06171c0,6.6615 -3.45811,12.06171 -7.72391,12.06171c-4.2658,0 -7.72391,-5.40021 -7.72391,-12.06172z" data-paper-data="{&quot;index&quot;:null}" fill="url(#color-5)"/><path d="M238.55439,170.0525c3.65461,0 6.61725,4.44953 6.61725,9.9383c0,5.48877 -2.96264,9.9383 -6.61725,9.9383c-3.65461,0 -6.61725,-4.44953 -6.61725,-9.9383c0,-5.48877 2.96264,-9.9383 6.61725,-9.9383z" data-paper-data="{&quot;index&quot;:null}" fill="url(#color-6)"/><path d="M244.48285,187.0906c-0.95724,1.87614 -2.52695,3.63852 -5.46584,4.31409c-3.39247,0.77984 -3.82054,-3.27445 -3.82054,-7.44682c0,-4.17238 2.82187,-7.55475 6.30282,-7.55475c3.48095,0 4.46809,-1.58218 4.46809,2.5902c0,2.4312 -0.14793,5.47763 -1.48453,8.09728z" data-paper-data="{&quot;index&quot;:null}" fill="url(#color-7)"/><path d="M236.96264,186.78857v-13.33552h1.51083v13.33552z" data-paper-data="{&quot;index&quot;:null}" fill="url(#color-8)"/><path d="M238.46088,186.77724v-13.32102h0.96908v13.32102z" data-paper-data="{&quot;index&quot;:null}" fill="#f1c307"/><path d="M236.94959,178.04717v-4.62536h2.56456v4.62536z" data-paper-data="{&quot;index&quot;:null}" fill="url(#color-9)"/></g></g></g></svg>