<svg version="1.1" xmlns="http://www.w3.org/2000/svg" xmlns:xlink="http://www.w3.org/1999/xlink" width="152" height="152" viewBox="0,0,152,152"><defs><radialGradient cx="233.02862" cy="177.18378" r="17.32572" gradientUnits="userSpaceOnUse" id="color-1"><stop offset="0" stop-color="#f9f97b"/><stop offset="1" stop-color="#cb8d06"/></radialGradient><radialGradient cx="236.61745" cy="170.2702" r="7.77534" gradientUnits="userSpaceOnUse" id="color-2"><stop offset="0" stop-color="#f9d722"/><stop offset="1" stop-color="#f1c814"/></radialGradient><linearGradient x1="241.9497" y1="163.4096" x2="241.9497" y2="196.62775" gradientUnits="userSpaceOnUse" id="color-3"><stop offset="0" stop-color="#ddaf16" stop-opacity="0"/><stop offset="1" stop-color="#ddaf16"/></linearGradient><linearGradient x1="236.41261" y1="179.98978" x2="248.11677" y2="179.98978" gradientUnits="userSpaceOnUse" id="color-4"><stop offset="0" stop-color="#f8c805"/><stop offset="1" stop-color="#ecbb00"/></linearGradient><radialGradient cx="243.64171" cy="169.15815" r="6.12656" gradientUnits="userSpaceOnUse" id="color-5"><stop offset="0" stop-color="#cc9502"/><stop offset="1" stop-color="#f8c805"/></radialGradient><linearGradient x1="238.23963" y1="179.99076" x2="245.74525" y2="179.99076" gradientUnits="userSpaceOnUse" id="color-6"><stop offset="0" stop-color="#f8c805"/><stop offset="1" stop-color="#ebba00"/></linearGradient><linearGradient x1="242.02191" y1="173.17607" x2="242.02191" y2="185.09087" gradientUnits="userSpaceOnUse" id="color-7"><stop offset="0" stop-color="#ffde20"/><stop offset="1" stop-color="#ffde20" stop-opacity="0"/></linearGradient></defs><g transform="translate(-164,-103)"><g data-paper-data="{&quot;isPaintingLayer&quot;:true}" fill-rule="nonzero" stroke="none" stroke-width="0" stroke-linecap="butt" stroke-linejoin="miter" stroke-miterlimit="10" stroke-dasharray="" stroke-dashoffset="0" style="mix-blend-mode: normal"><path d="M164,255v-152h152v152z" data-paper-data="{&quot;origPos&quot;:null}" fill="none"/><g><path d="M245.32221,180.01867c0,9.17294 -3.12642,16.60908 -6.98306,16.60908c-3.85664,0 -6.98306,-7.43613 -6.98306,-16.60907c0,-9.17294 3.12642,-16.60907 6.98306,-16.60907c3.85664,0 6.98306,7.43613 6.98306,16.60908z" fill="url(#color-1)"/><path d="M238.39331,196.62537v-0.72211h2.96065v0.72211z" fill="#cb8d06"/><path d="M238.46552,164.09437v-0.72211h2.96064v0.72211z" fill="#d29d17"/><path d="M248.49949,179.98979c0,9.17294 -2.97084,16.60908 -6.63557,16.60908c-3.66472,0 -6.63557,-7.43613 -6.63557,-16.60907c0,-9.17294 2.97084,-16.60907 6.63557,-16.60907c3.66473,0 6.63557,7.43613 6.63557,16.60908z" fill="url(#color-2)"/><path d="M248.64391,180.01867c0,9.17294 -2.9971,16.60908 -6.69422,16.60908c-3.69711,0 -6.69421,-7.43613 -6.69421,-16.60907c0,-9.17294 2.9971,-16.60907 6.69421,-16.60907c3.69711,0 6.69422,7.43613 6.69422,16.60908z" fill="url(#color-3)"/><path d="M248.11677,179.98979c0,8.43135 -2.62006,15.2663 -5.85208,15.2663c-3.23202,0 -5.85208,-6.83495 -5.85208,-15.2663c0,-8.43135 2.62006,-15.2663 5.85208,-15.2663c3.23202,0 5.85208,6.83495 5.85208,15.2663z" fill="url(#color-4)"/><path d="M247.12088,179.98979c0,6.68566 -2.08047,12.10545 -4.64686,12.10545c-2.56639,0 -4.64685,-5.41979 -4.64685,-12.10545c0,-6.68566 2.08047,-12.10545 4.64685,-12.10545c2.56639,0 4.64686,5.41979 4.64686,12.10545z" fill="url(#color-5)"/><path d="M245.74525,179.99076c0,5.50867 -1.68019,9.97434 -3.75281,9.97434c-2.07262,0 -3.75281,-4.46566 -3.75281,-9.97434c0,-5.50867 1.68019,-9.97433 3.75281,-9.97433c2.07262,0 3.75281,4.46566 3.75281,9.97433z" fill="url(#color-6)"/><path d="M241.37201,185.09087v-11.9148h1.2998v11.9148z" fill="url(#color-7)"/></g></g></g></svg>