<svg version="1.1" xmlns="http://www.w3.org/2000/svg" xmlns:xlink="http://www.w3.org/1999/xlink" width="498.39316" height="35.79659" viewBox="0,0,498.39316,35.79659"><defs><linearGradient x1="363.90939" y1="63.0148" x2="363.90939" y2="83.30713" gradientUnits="userSpaceOnUse" id="color-1"><stop offset="0" stop-color="#91e3eb"/><stop offset="1" stop-color="#91e3eb" stop-opacity="0"/></linearGradient><linearGradient x1="363.59908" y1="53.80733" x2="363.59908" y2="70.3769" gradientUnits="userSpaceOnUse" id="color-2"><stop offset="0" stop-color="#f5fdfd"/><stop offset="1" stop-color="#beeef3"/></linearGradient><linearGradient x1="363.59908" y1="56.67347" x2="363.59908" y2="73.24304" gradientUnits="userSpaceOnUse" id="color-3"><stop offset="0" stop-color="#76d2df" stop-opacity="0"/><stop offset="1" stop-color="#76d2df"/></linearGradient><linearGradient x1="115.10298" y1="63.0148" x2="115.10298" y2="83.30714" gradientUnits="userSpaceOnUse" id="color-4"><stop offset="0" stop-color="#91e3eb"/><stop offset="1" stop-color="#91e3eb" stop-opacity="0"/></linearGradient><linearGradient x1="115.5689" y1="55.67679" x2="115.5689" y2="68.87847" gradientUnits="userSpaceOnUse" id="color-5"><stop offset="0" stop-color="#f5fdfd"/><stop offset="1" stop-color="#daf0f2"/></linearGradient><linearGradient x1="115.41582" y1="56.67348" x2="115.41582" y2="73.24304" gradientUnits="userSpaceOnUse" id="color-6"><stop offset="0" stop-color="#76d2df" stop-opacity="0"/><stop offset="1" stop-color="#76d2df"/></linearGradient></defs><g transform="translate(10.19658,-55.67332)"><g data-paper-data="{&quot;isPaintingLayer&quot;:true}" fill-rule="nonzero" stroke="none" stroke-width="0" stroke-linecap="butt" stroke-linejoin="miter" stroke-miterlimit="10" stroke-dasharray="" stroke-dashoffset="0" style="mix-blend-mode: normal"><g><g fill="url(#color-1)"><path d="M239.68471,83.30713v-21.62566h248.51187v21.62566z"/></g><path d="M487.97998,67.60062c0,0 -7.27435,-0.8717 -21.42307,-1.04775c-6.25982,-0.07789 -28.54845,0.94374 -41.10324,0.82129c-11.74496,-0.11455 -28.32376,0.42802 -42.57462,0.07622c-11.50802,-0.28409 -35.46068,-0.04646 -47.26366,-0.09483c-8.6882,-0.03561 -24.92441,1.0565 -32.80602,0.81814c-11.43314,-0.34577 -20.26017,-1.42744 -28.61787,-1.70636c-22.56604,-0.75308 -34.97333,-1.96215 -34.97333,-1.96215c0,0 -0.96305,-9.20327 1.108,-8.82023c4.99136,0.92314 17.85839,1.08982 33.74529,1.72211c8.38558,0.33373 17.25525,1.45481 28.74456,1.80505c7.96181,0.24271 24.28659,-1.36131 33.06799,-1.32288c11.57884,0.05069 35.30046,-0.18692 46.5987,0.09305c14.3976,0.35678 31.1186,-0.182 42.97299,-0.06637c12.55582,0.12246 34.84517,-0.89917 41.10511,-0.82128c14.1471,0.17604 21.41918,1.04771 21.41918,1.04771v9.45829z" fill="url(#color-2)"/><path d="M487.97998,70.46676c0,0 -7.27435,-0.8717 -21.42307,-1.04775c-6.25982,-0.0779 -28.54845,0.94374 -41.10324,0.82129c-11.74496,-0.11455 -28.32376,0.42803 -42.57462,0.07622c-11.50802,-0.28409 -35.46068,-0.04646 -47.26366,-0.09483c-8.6882,-0.03561 -24.92441,1.0565 -32.80602,0.81813c-11.43314,-0.34577 -20.26017,-1.42744 -28.61787,-1.70636c-22.56604,-0.75308 -34.97333,-1.96215 -34.97333,-1.96215v-9.45829c0,0 12.37448,1.46553 34.85329,2.36017c8.38558,0.33374 17.25525,1.45481 28.74456,1.80505c7.96181,0.24271 24.28659,-1.36132 33.06799,-1.32288c11.57884,0.05069 35.30046,-0.18693 46.5987,0.09305c14.3976,0.35678 31.1186,-0.182 42.97299,-0.06638c12.55582,0.12246 34.84517,-0.89917 41.10511,-0.82127c14.1471,0.17604 21.41918,1.0477 21.41918,1.0477v9.45829z" fill="url(#color-3)"/></g><g><g fill="url(#color-4)"><path d="M-10.19658,83.30714v-21.45901l249.88484,-1.5v22.95901z"/></g><path d="M-9.97823,67.60062v-9.45829c0,0 7.33132,-0.87166 21.59366,-1.0477c6.31092,-0.0779 28.78183,2.44373 41.43992,2.32127c11.95095,-0.11562 28.80815,-1.41019 43.32304,-1.76697c11.39026,-0.27997 35.30511,1.29098 46.97826,1.24029c8.85293,-0.03844 25.31068,-2.93441 33.33733,-3.17712c11.5829,-0.35024 20.52482,2.02869 28.97871,1.69495c18.58998,-0.73389 30.73066,-0.97572 34.38009,-1.30216c1.81412,-0.16227 0.7571,8.40028 0.7571,8.40028c0,0 -12.50835,1.20908 -35.2582,1.96215c-8.42578,0.27891 -17.32472,-2.13941 -28.85097,-1.79365c-7.94582,0.23836 -24.31427,3.64625 -33.07324,3.68187c-11.89913,0.04837 -36.04689,-1.52261 -47.64864,-1.23851c-14.36694,0.35181 -31.08079,1.64257 -42.92141,1.75712c-12.65705,0.12245 -35.12724,-2.39918 -41.43805,-2.32129c-14.26397,0.17605 -21.59758,1.04775 -21.59758,1.04775z" fill="url(#color-5)"/><path d="M-9.97823,70.46676v-9.45829c0,0 7.33132,-0.87166 21.59366,-1.0477c6.31092,-0.0779 28.78183,2.44373 41.43992,2.32127c11.95095,-0.11562 28.80815,-1.41019 43.32304,-1.76697c11.39026,-0.27997 35.30511,1.29098 46.97826,1.24029c8.85293,-0.03844 25.31068,-2.93441 33.33733,-3.17712c11.5829,-0.35024 20.52482,2.02869 28.97871,1.69495c22.66192,-0.89464 35.56576,-2.36017 35.56576,-2.36017l-0.42857,9.45829c0,0 -12.50835,1.20908 -35.2582,1.96215c-8.42578,0.27891 -17.32472,-2.13941 -28.85097,-1.79365c-7.94582,0.23836 -24.31427,3.64625 -33.07324,3.68187c-11.89913,0.04837 -36.04689,-1.52261 -47.64864,-1.23851c-14.36694,0.35181 -31.08079,1.64257 -42.92141,1.75712c-12.65705,0.12245 -35.12724,-2.39918 -41.43805,-2.32129c-14.26397,0.17605 -21.59758,1.04775 -21.59758,1.04775z" fill="url(#color-6)"/></g><g fill="#93d2d8"><path d="M453.68264,84.62922c3.02554,0 5.47824,0.78753 5.47824,1.75899c0,0.97145 -2.45269,1.75898 -5.47824,1.75898c-3.02554,0 -5.47823,-1.20968 -5.47823,-2.18114c0,-0.97145 2.45269,-1.33683 5.47823,-1.33683z"/><path d="M427.28749,83.43311c0,-1.36005 3.30742,-2.46258 7.38733,-2.46258c4.0799,0 7.29122,-0.02077 7.38732,1.33684c0.16601,2.34507 -3.30742,3.58834 -7.38732,3.58834c-4.0799,0 -7.38733,-1.10255 -7.38733,-2.46258z"/><path d="M406.7856,85.75495c2.33792,0 4.23319,0.72453 4.23319,1.61827c0,0.89374 -1.89526,1.61826 -4.23319,1.61826c-2.33792,0 -4.23319,-1.14667 -4.23319,-2.04042c0,-0.89374 1.89526,-1.19611 4.23319,-1.19611z"/><path d="M381.4695,79.77441c0,-1.67092 3.54775,-0.77395 7.71934,-0.77395c4.17159,0 7.55333,1.35453 7.55333,3.02545c0,1.67092 -3.38174,3.02546 -7.55333,3.02546c-4.17159,0 -7.71934,-2.33958 -7.71934,-5.27697z"/><path d="M358.01164,81.66233c3.07139,0 5.56125,1.49112 5.56125,2.46258c0,0.97146 -2.48986,1.0554 -5.56125,1.0554c-3.07139,0 -5.22922,0.1975 -5.22922,-0.77395c0,-0.97146 2.15784,-2.74403 5.22922,-2.74403z"/><path d="M343.20484,86.8262c4.0799,0 7.38732,0.33595 7.38732,1.61826c0,1.28233 -3.30742,3.02545 -7.38732,3.02545c-4.0799,0 -7.38733,-2.02458 -7.38733,-3.30689c0,-1.28233 3.30742,-1.33683 7.38733,-1.33683z"/><path d="M315.56464,84.34777c2.65882,0 4.81421,1.38191 4.81421,2.39223c0,1.01033 -2.1554,1.26647 -4.81421,1.26647c-2.65881,0 -4.81421,-0.11544 -4.81421,-1.12575c0,-1.01033 2.1554,-2.53293 4.81421,-2.53293z"/><path d="M297.75127,79.42261c3.89654,0 7.05531,1.35453 7.05531,3.02545c0,1.67092 -3.15877,3.02546 -7.05531,3.02546c-3.89654,0 -7.0553,-1.35454 -7.0553,-3.02546c0,-1.67092 3.15877,-3.02545 7.0553,-3.02545z"/><path d="M262.56028,86.8206c2.93386,0 5.31224,0.78753 5.31224,1.75899c0,0.97145 -2.37837,1.75899 -5.31224,1.75899c-2.93387,0 -5.31224,-0.78754 -5.31224,-1.75899c0,-0.97145 2.37838,-1.75899 5.31224,-1.75899z"/><path d="M245.76757,81.47075c0.18044,-1.15568 3.3845,-1.74949 7.15647,-1.32631c3.77196,0.42319 6.68346,1.7031 6.50302,2.85878c-0.18044,1.15568 -3.3845,1.74949 -7.15647,1.32631c-3.77196,-0.42318 -6.68346,-1.7031 -6.50302,-2.85877z"/></g><path d="M15.09657,86.95108c0,0.89374 -2.61777,2.04042 -5.84694,2.04042c-3.22918,0 -5.84694,-0.72452 -5.84694,-1.61826c0,-0.89374 2.61777,-1.61826 5.84694,-1.61826c3.22918,0 5.84694,0.30237 5.84694,1.19611z" fill="#93d2d8"/><path d="M44.21666,79.77441c0,2.93739 -4.90021,5.27697 -10.66208,5.27697c-5.76187,0 -10.43279,-1.35454 -10.43279,-3.02546c0,-1.67092 4.67092,-3.02545 10.43279,-3.02545c5.76187,0 10.66208,-0.89697 10.66208,0.77395z" fill="#93d2d8"/><path d="M78.83974,86.24748c0,0.97145 -2.98044,0.77395 -7.2227,0.77395c-4.24225,0 -7.68128,-0.08392 -7.68128,-1.0554c0,-0.97145 3.43903,-2.46258 7.68128,-2.46258c4.24225,0 7.2227,1.77255 7.2227,2.74403z" fill="#93d2d8"/><path d="M107.27194,85.09447c0,1.28233 -4.56826,3.30689 -10.2035,3.30689c-5.63524,0 -10.20349,-1.74313 -10.20349,-3.02545c0,-1.28233 4.56825,-1.61826 10.20349,-1.61826c5.63524,0 10.2035,0.05449 10.2035,1.33683z" fill="#93d2d8"/><path d="M141.89503,86.88072c0,1.01033 -2.97707,1.12575 -6.64947,1.12575c-3.6724,0 -6.64947,-0.25614 -6.64947,-1.26647c0,-1.01033 2.97707,-2.39223 6.64947,-2.39223c3.6724,0 6.64947,1.52261 6.64947,2.53294z" fill="#93d2d8"/><path d="M169.59458,82.44807c0,1.67092 -4.36294,3.02546 -9.7449,3.02546c-5.38196,0 -9.74491,-1.35454 -9.74491,-3.02546c0,-1.67092 4.36294,-3.02545 9.74491,-3.02545c5.38196,0 9.7449,1.35453 9.7449,3.02545z" fill="#93d2d8"/><path d="M205.59342,86.24748c0,0.97145 -3.28504,1.75899 -7.33734,1.75899c-4.0523,0 -7.33734,-0.78754 -7.33734,-1.75899c0,-0.97145 3.28505,-1.75898 7.33734,-1.75898c4.0523,0 7.33734,0.78754 7.33734,1.75898z" fill="#93d2d8"/><path d="M231.65044,81.47076c0.24923,1.15568 -3.77218,2.43559 -8.98208,2.85877c-5.2099,0.42318 -9.63539,-0.17062 -9.88463,-1.32631c-0.24923,-1.15568 3.77218,-2.43559 8.98208,-2.85878c5.2099,-0.42318 9.63539,0.17062 9.88463,1.32631z" fill="#93d2d8"/></g></g></svg>