<svg version="1.1" xmlns="http://www.w3.org/2000/svg" xmlns:xlink="http://www.w3.org/1999/xlink" width="613" height="421.99987" viewBox="0,0,613,421.99987"><defs><linearGradient x1="481.00002" y1="367.00015" x2="163" y2="112.77481" gradientUnits="userSpaceOnUse" id="color-1"><stop offset="0" stop-color="#009ad1"/><stop offset="1" stop-color="#0086c7"/></linearGradient><linearGradient x1="-2.99998" y1="360.50015" x2="127" y2="230.5001" gradientUnits="userSpaceOnUse" id="color-2"><stop offset="0" stop-color="#54c7ff"/><stop offset="1" stop-color="#54c7ff" stop-opacity="0"/></linearGradient><radialGradient cx="441.59863" cy="158.88799" r="59.5" gradientUnits="userSpaceOnUse" id="color-3"><stop offset="0" stop-color="#c2e7f7"/><stop offset="1" stop-color="#c2e7f7" stop-opacity="0"/></radialGradient><radialGradient cx="66.59861" cy="186.88802" r="59.5" gradientUnits="userSpaceOnUse" id="color-4"><stop offset="0" stop-color="#c2e7f7"/><stop offset="1" stop-color="#c2e7f7" stop-opacity="0"/></radialGradient><radialGradient cx="24.59863" cy="180.88801" r="59.5" gradientUnits="userSpaceOnUse" id="color-5"><stop offset="0" stop-color="#c2e7f7"/><stop offset="1" stop-color="#c2e7f7" stop-opacity="0"/></radialGradient><radialGradient cx="392.59863" cy="178.88801" r="59.5" gradientUnits="userSpaceOnUse" id="color-6"><stop offset="0" stop-color="#c2e7f7"/><stop offset="1" stop-color="#c2e7f7" stop-opacity="0"/></radialGradient><radialGradient cx="346.59865" cy="197.88802" r="59.5" gradientUnits="userSpaceOnUse" id="color-7"><stop offset="0" stop-color="#c2e7f7"/><stop offset="1" stop-color="#c2e7f7" stop-opacity="0"/></radialGradient><radialGradient cx="309.59864" cy="179.88801" r="59.5" gradientUnits="userSpaceOnUse" id="color-8"><stop offset="0" stop-color="#c2e7f7"/><stop offset="1" stop-color="#c2e7f7" stop-opacity="0"/></radialGradient><radialGradient cx="224.59863" cy="200.88802" r="59.5" gradientUnits="userSpaceOnUse" id="color-9"><stop offset="0" stop-color="#c2e7f7"/><stop offset="1" stop-color="#c2e7f7" stop-opacity="0"/></radialGradient><radialGradient cx="189.59864" cy="191.88802" r="59.5" gradientUnits="userSpaceOnUse" id="color-10"><stop offset="0" stop-color="#c2e7f7"/><stop offset="1" stop-color="#c2e7f7" stop-opacity="0"/></radialGradient><radialGradient cx="317.59864" cy="217.88802" r="59.5" gradientUnits="userSpaceOnUse" id="color-11"><stop offset="0" stop-color="#c2e7f7"/><stop offset="1" stop-color="#c2e7f7" stop-opacity="0"/></radialGradient><radialGradient cx="267.59863" cy="234.88798" r="59.5" gradientUnits="userSpaceOnUse" id="color-12"><stop offset="0" stop-color="#c2e7f7"/><stop offset="1" stop-color="#c2e7f7" stop-opacity="0"/></radialGradient><radialGradient cx="212.59863" cy="226.888" r="59.5" gradientUnits="userSpaceOnUse" id="color-13"><stop offset="0" stop-color="#c2e7f7"/><stop offset="1" stop-color="#c2e7f7" stop-opacity="0"/></radialGradient><radialGradient cx="272.59863" cy="256.88796" r="59.5" gradientUnits="userSpaceOnUse" id="color-14"><stop offset="0" stop-color="#c2e7f7"/><stop offset="1" stop-color="#c2e7f7" stop-opacity="0"/></radialGradient><radialGradient cx="295.59864" cy="299.88796" r="59.5" gradientUnits="userSpaceOnUse" id="color-15"><stop offset="0" stop-color="#c2e7f7"/><stop offset="1" stop-color="#c2e7f7" stop-opacity="0"/></radialGradient><radialGradient cx="70.59861" cy="212.88802" r="59.5" gradientUnits="userSpaceOnUse" id="color-16"><stop offset="0" stop-color="#c2e7f7"/><stop offset="1" stop-color="#c2e7f7" stop-opacity="0"/></radialGradient><radialGradient cx="98.59864" cy="241.88798" r="59.5" gradientUnits="userSpaceOnUse" id="color-17"><stop offset="0" stop-color="#c2e7f7"/><stop offset="1" stop-color="#c2e7f7" stop-opacity="0"/></radialGradient><radialGradient cx="111.59864" cy="253.88796" r="59.5" gradientUnits="userSpaceOnUse" id="color-18"><stop offset="0" stop-color="#c2e7f7"/><stop offset="1" stop-color="#c2e7f7" stop-opacity="0"/></radialGradient><radialGradient cx="156.59864" cy="168.88801" r="59.5" gradientUnits="userSpaceOnUse" id="color-19"><stop offset="0" stop-color="#c2e7f7"/><stop offset="1" stop-color="#c2e7f7" stop-opacity="0"/></radialGradient><radialGradient cx="24.59863" cy="183.88801" r="59.5" gradientUnits="userSpaceOnUse" id="color-20"><stop offset="0" stop-color="#c2e7f7"/><stop offset="1" stop-color="#c2e7f7" stop-opacity="0"/></radialGradient><radialGradient cx="396.59863" cy="164.88799" r="59.5" gradientUnits="userSpaceOnUse" id="color-21"><stop offset="0" stop-color="#c2e7f7"/><stop offset="1" stop-color="#c2e7f7" stop-opacity="0"/></radialGradient><radialGradient cx="342.59865" cy="191.88802" r="59.5" gradientUnits="userSpaceOnUse" id="color-22"><stop offset="0" stop-color="#c2e7f7"/><stop offset="1" stop-color="#c2e7f7" stop-opacity="0"/></radialGradient><radialGradient cx="69.59861" cy="177.88801" r="59.5" gradientUnits="userSpaceOnUse" id="color-23"><stop offset="0" stop-color="#c2e7f7"/><stop offset="1" stop-color="#c2e7f7" stop-opacity="0"/></radialGradient><radialGradient cx="60.59861" cy="190.88802" r="59.5" gradientUnits="userSpaceOnUse" id="color-24"><stop offset="0" stop-color="#c2e7f7"/><stop offset="1" stop-color="#c2e7f7" stop-opacity="0"/></radialGradient><radialGradient cx="18.59861" cy="184.88801" r="59.5" gradientUnits="userSpaceOnUse" id="color-25"><stop offset="0" stop-color="#c2e7f7"/><stop offset="1" stop-color="#c2e7f7" stop-opacity="0"/></radialGradient><radialGradient cx="386.59863" cy="182.88801" r="59.5" gradientUnits="userSpaceOnUse" id="color-26"><stop offset="0" stop-color="#c2e7f7"/><stop offset="1" stop-color="#c2e7f7" stop-opacity="0"/></radialGradient><radialGradient cx="340.59865" cy="201.88802" r="59.5" gradientUnits="userSpaceOnUse" id="color-27"><stop offset="0" stop-color="#c2e7f7"/><stop offset="1" stop-color="#c2e7f7" stop-opacity="0"/></radialGradient><radialGradient cx="303.59864" cy="183.88801" r="59.5" gradientUnits="userSpaceOnUse" id="color-28"><stop offset="0" stop-color="#c2e7f7"/><stop offset="1" stop-color="#c2e7f7" stop-opacity="0"/></radialGradient><radialGradient cx="218.59862" cy="204.88802" r="59.5" gradientUnits="userSpaceOnUse" id="color-29"><stop offset="0" stop-color="#c2e7f7"/><stop offset="1" stop-color="#c2e7f7" stop-opacity="0"/></radialGradient><radialGradient cx="183.59862" cy="195.88802" r="59.5" gradientUnits="userSpaceOnUse" id="color-30"><stop offset="0" stop-color="#c2e7f7"/><stop offset="1" stop-color="#c2e7f7" stop-opacity="0"/></radialGradient><radialGradient cx="311.59864" cy="221.88802" r="59.5" gradientUnits="userSpaceOnUse" id="color-31"><stop offset="0" stop-color="#c2e7f7"/><stop offset="1" stop-color="#c2e7f7" stop-opacity="0"/></radialGradient><radialGradient cx="261.59862" cy="238.88798" r="59.5" gradientUnits="userSpaceOnUse" id="color-32"><stop offset="0" stop-color="#c2e7f7"/><stop offset="1" stop-color="#c2e7f7" stop-opacity="0"/></radialGradient><radialGradient cx="206.59862" cy="230.88798" r="59.5" gradientUnits="userSpaceOnUse" id="color-33"><stop offset="0" stop-color="#c2e7f7"/><stop offset="1" stop-color="#c2e7f7" stop-opacity="0"/></radialGradient><radialGradient cx="266.59862" cy="260.88796" r="59.5" gradientUnits="userSpaceOnUse" id="color-34"><stop offset="0" stop-color="#c2e7f7"/><stop offset="1" stop-color="#c2e7f7" stop-opacity="0"/></radialGradient><radialGradient cx="64.59861" cy="216.88802" r="59.5" gradientUnits="userSpaceOnUse" id="color-35"><stop offset="0" stop-color="#c2e7f7"/><stop offset="1" stop-color="#c2e7f7" stop-opacity="0"/></radialGradient><radialGradient cx="92.59861" cy="245.88798" r="59.5" gradientUnits="userSpaceOnUse" id="color-36"><stop offset="0" stop-color="#c2e7f7"/><stop offset="1" stop-color="#c2e7f7" stop-opacity="0"/></radialGradient><radialGradient cx="105.59861" cy="257.88796" r="59.5" gradientUnits="userSpaceOnUse" id="color-37"><stop offset="0" stop-color="#c2e7f7"/><stop offset="1" stop-color="#c2e7f7" stop-opacity="0"/></radialGradient><radialGradient cx="150.59859" cy="172.88801" r="59.5" gradientUnits="userSpaceOnUse" id="color-38"><stop offset="0" stop-color="#c2e7f7"/><stop offset="1" stop-color="#c2e7f7" stop-opacity="0"/></radialGradient><radialGradient cx="390.59863" cy="168.88801" r="59.5" gradientUnits="userSpaceOnUse" id="color-39"><stop offset="0" stop-color="#c2e7f7"/><stop offset="1" stop-color="#c2e7f7" stop-opacity="0"/></radialGradient><radialGradient cx="336.59865" cy="195.88802" r="59.5" gradientUnits="userSpaceOnUse" id="color-40"><stop offset="0" stop-color="#c2e7f7"/><stop offset="1" stop-color="#c2e7f7" stop-opacity="0"/></radialGradient><radialGradient cx="55.59861" cy="181.88801" r="59.5" gradientUnits="userSpaceOnUse" id="color-41"><stop offset="0" stop-color="#c2e7f7"/><stop offset="1" stop-color="#c2e7f7" stop-opacity="0"/></radialGradient><radialGradient cx="224" cy="144.49992" r="63.5" gradientUnits="userSpaceOnUse" id="color-42"><stop offset="0" stop-color="#c2e7f7"/><stop offset="1" stop-color="#c2e7f7" stop-opacity="0"/></radialGradient><radialGradient cx="247" cy="156.49992" r="63.5" gradientUnits="userSpaceOnUse" id="color-43"><stop offset="0" stop-color="#c2e7f7"/><stop offset="1" stop-color="#c2e7f7" stop-opacity="0"/></radialGradient><radialGradient cx="292" cy="146.49992" r="63.5" gradientUnits="userSpaceOnUse" id="color-44"><stop offset="0" stop-color="#c2e7f7"/><stop offset="1" stop-color="#c2e7f7" stop-opacity="0"/></radialGradient><radialGradient cx="259" cy="125.49992" r="63.5" gradientUnits="userSpaceOnUse" id="color-45"><stop offset="0" stop-color="#c2e7f7"/><stop offset="1" stop-color="#c2e7f7" stop-opacity="0"/></radialGradient><radialGradient cx="217" cy="138.49992" r="63.5" gradientUnits="userSpaceOnUse" id="color-46"><stop offset="0" stop-color="#c2e7f7"/><stop offset="1" stop-color="#c2e7f7" stop-opacity="0"/></radialGradient><radialGradient cx="240" cy="150.49992" r="63.5" gradientUnits="userSpaceOnUse" id="color-47"><stop offset="0" stop-color="#c2e7f7"/><stop offset="1" stop-color="#c2e7f7" stop-opacity="0"/></radialGradient><radialGradient cx="285" cy="140.49992" r="63.5" gradientUnits="userSpaceOnUse" id="color-48"><stop offset="0" stop-color="#c2e7f7"/><stop offset="1" stop-color="#c2e7f7" stop-opacity="0"/></radialGradient><radialGradient cx="252" cy="119.49994" r="63.5" gradientUnits="userSpaceOnUse" id="color-49"><stop offset="0" stop-color="#c2e7f7"/><stop offset="1" stop-color="#c2e7f7" stop-opacity="0"/></radialGradient><radialGradient cx="10" cy="268.49994" r="63.5" gradientUnits="userSpaceOnUse" id="color-50"><stop offset="0" stop-color="#c2e7f7"/><stop offset="1" stop-color="#c2e7f7" stop-opacity="0"/></radialGradient><radialGradient cx="33" cy="280.49994" r="63.5" gradientUnits="userSpaceOnUse" id="color-51"><stop offset="0" stop-color="#c2e7f7"/><stop offset="1" stop-color="#c2e7f7" stop-opacity="0"/></radialGradient><radialGradient cx="78" cy="270.49994" r="63.5" gradientUnits="userSpaceOnUse" id="color-52"><stop offset="0" stop-color="#c2e7f7"/><stop offset="1" stop-color="#c2e7f7" stop-opacity="0"/></radialGradient><radialGradient cx="45" cy="249.49994" r="63.5" gradientUnits="userSpaceOnUse" id="color-53"><stop offset="0" stop-color="#c2e7f7"/><stop offset="1" stop-color="#c2e7f7" stop-opacity="0"/></radialGradient><radialGradient cx="14" cy="337.49994" r="63.5" gradientUnits="userSpaceOnUse" id="color-54"><stop offset="0" stop-color="#c2e7f7"/><stop offset="1" stop-color="#c2e7f7" stop-opacity="0"/></radialGradient><radialGradient cx="37" cy="349.49994" r="63.5" gradientUnits="userSpaceOnUse" id="color-55"><stop offset="0" stop-color="#c2e7f7"/><stop offset="1" stop-color="#c2e7f7" stop-opacity="0"/></radialGradient><radialGradient cx="82" cy="339.49994" r="63.5" gradientUnits="userSpaceOnUse" id="color-56"><stop offset="0" stop-color="#c2e7f7"/><stop offset="1" stop-color="#c2e7f7" stop-opacity="0"/></radialGradient><radialGradient cx="49" cy="318.49994" r="63.5" gradientUnits="userSpaceOnUse" id="color-57"><stop offset="0" stop-color="#c2e7f7"/><stop offset="1" stop-color="#c2e7f7" stop-opacity="0"/></radialGradient><radialGradient cx="143" cy="310.49994" r="63.5" gradientUnits="userSpaceOnUse" id="color-58"><stop offset="0" stop-color="#c2e7f7"/><stop offset="1" stop-color="#c2e7f7" stop-opacity="0"/></radialGradient><radialGradient cx="166" cy="322.49994" r="63.5" gradientUnits="userSpaceOnUse" id="color-59"><stop offset="0" stop-color="#c2e7f7"/><stop offset="1" stop-color="#c2e7f7" stop-opacity="0"/></radialGradient><radialGradient cx="211" cy="312.49994" r="63.5" gradientUnits="userSpaceOnUse" id="color-60"><stop offset="0" stop-color="#c2e7f7"/><stop offset="1" stop-color="#c2e7f7" stop-opacity="0"/></radialGradient><radialGradient cx="178" cy="291.49994" r="63.5" gradientUnits="userSpaceOnUse" id="color-61"><stop offset="0" stop-color="#c2e7f7"/><stop offset="1" stop-color="#c2e7f7" stop-opacity="0"/></radialGradient><radialGradient cx="123" cy="329.49994" r="63.5" gradientUnits="userSpaceOnUse" id="color-62"><stop offset="0" stop-color="#c2e7f7"/><stop offset="1" stop-color="#c2e7f7" stop-opacity="0"/></radialGradient><radialGradient cx="146" cy="341.49994" r="63.5" gradientUnits="userSpaceOnUse" id="color-63"><stop offset="0" stop-color="#c2e7f7"/><stop offset="1" stop-color="#c2e7f7" stop-opacity="0"/></radialGradient><radialGradient cx="191" cy="331.49994" r="63.5" gradientUnits="userSpaceOnUse" id="color-64"><stop offset="0" stop-color="#c2e7f7"/><stop offset="1" stop-color="#c2e7f7" stop-opacity="0"/></radialGradient><radialGradient cx="158" cy="310.49994" r="63.5" gradientUnits="userSpaceOnUse" id="color-65"><stop offset="0" stop-color="#c2e7f7"/><stop offset="1" stop-color="#c2e7f7" stop-opacity="0"/></radialGradient><radialGradient cx="126" cy="236.49994" r="63.5" gradientUnits="userSpaceOnUse" id="color-66"><stop offset="0" stop-color="#c2e7f7"/><stop offset="1" stop-color="#c2e7f7" stop-opacity="0"/></radialGradient><radialGradient cx="149" cy="248.49994" r="63.5" gradientUnits="userSpaceOnUse" id="color-67"><stop offset="0" stop-color="#c2e7f7"/><stop offset="1" stop-color="#c2e7f7" stop-opacity="0"/></radialGradient><radialGradient cx="194" cy="238.49994" r="63.5" gradientUnits="userSpaceOnUse" id="color-68"><stop offset="0" stop-color="#c2e7f7"/><stop offset="1" stop-color="#c2e7f7" stop-opacity="0"/></radialGradient><radialGradient cx="161" cy="217.49994" r="63.5" gradientUnits="userSpaceOnUse" id="color-69"><stop offset="0" stop-color="#c2e7f7"/><stop offset="1" stop-color="#c2e7f7" stop-opacity="0"/></radialGradient><radialGradient cx="240" cy="331.49994" r="63.5" gradientUnits="userSpaceOnUse" id="color-70"><stop offset="0" stop-color="#c2e7f7"/><stop offset="1" stop-color="#c2e7f7" stop-opacity="0"/></radialGradient><radialGradient cx="263" cy="343.49994" r="63.5" gradientUnits="userSpaceOnUse" id="color-71"><stop offset="0" stop-color="#c2e7f7"/><stop offset="1" stop-color="#c2e7f7" stop-opacity="0"/></radialGradient><radialGradient cx="308" cy="333.49994" r="63.5" gradientUnits="userSpaceOnUse" id="color-72"><stop offset="0" stop-color="#c2e7f7"/><stop offset="1" stop-color="#c2e7f7" stop-opacity="0"/></radialGradient><radialGradient cx="275" cy="312.49994" r="63.5" gradientUnits="userSpaceOnUse" id="color-73"><stop offset="0" stop-color="#c2e7f7"/><stop offset="1" stop-color="#c2e7f7" stop-opacity="0"/></radialGradient><radialGradient cx="337" cy="291.49994" r="63.5" gradientUnits="userSpaceOnUse" id="color-74"><stop offset="0" stop-color="#c2e7f7"/><stop offset="1" stop-color="#c2e7f7" stop-opacity="0"/></radialGradient><radialGradient cx="360" cy="303.49994" r="63.5" gradientUnits="userSpaceOnUse" id="color-75"><stop offset="0" stop-color="#c2e7f7"/><stop offset="1" stop-color="#c2e7f7" stop-opacity="0"/></radialGradient><radialGradient cx="405" cy="293.49994" r="63.5" gradientUnits="userSpaceOnUse" id="color-76"><stop offset="0" stop-color="#c2e7f7"/><stop offset="1" stop-color="#c2e7f7" stop-opacity="0"/></radialGradient><radialGradient cx="372" cy="272.49994" r="63.5" gradientUnits="userSpaceOnUse" id="color-77"><stop offset="0" stop-color="#c2e7f7"/><stop offset="1" stop-color="#c2e7f7" stop-opacity="0"/></radialGradient><radialGradient cx="398" cy="249.49994" r="63.5" gradientUnits="userSpaceOnUse" id="color-78"><stop offset="0" stop-color="#c2e7f7"/><stop offset="1" stop-color="#c2e7f7" stop-opacity="0"/></radialGradient><radialGradient cx="421" cy="261.49994" r="63.5" gradientUnits="userSpaceOnUse" id="color-79"><stop offset="0" stop-color="#c2e7f7"/><stop offset="1" stop-color="#c2e7f7" stop-opacity="0"/></radialGradient><radialGradient cx="466" cy="251.49994" r="63.5" gradientUnits="userSpaceOnUse" id="color-80"><stop offset="0" stop-color="#c2e7f7"/><stop offset="1" stop-color="#c2e7f7" stop-opacity="0"/></radialGradient><radialGradient cx="433" cy="230.49994" r="63.5" gradientUnits="userSpaceOnUse" id="color-81"><stop offset="0" stop-color="#c2e7f7"/><stop offset="1" stop-color="#c2e7f7" stop-opacity="0"/></radialGradient><radialGradient cx="343" cy="340.49994" r="63.5" gradientUnits="userSpaceOnUse" id="color-82"><stop offset="0" stop-color="#c2e7f7"/><stop offset="1" stop-color="#c2e7f7" stop-opacity="0"/></radialGradient><radialGradient cx="366" cy="352.49994" r="63.5" gradientUnits="userSpaceOnUse" id="color-83"><stop offset="0" stop-color="#c2e7f7"/><stop offset="1" stop-color="#c2e7f7" stop-opacity="0"/></radialGradient><radialGradient cx="411" cy="342.49994" r="63.5" gradientUnits="userSpaceOnUse" id="color-84"><stop offset="0" stop-color="#c2e7f7"/><stop offset="1" stop-color="#c2e7f7" stop-opacity="0"/></radialGradient><radialGradient cx="378" cy="321.49994" r="63.5" gradientUnits="userSpaceOnUse" id="color-85"><stop offset="0" stop-color="#c2e7f7"/><stop offset="1" stop-color="#c2e7f7" stop-opacity="0"/></radialGradient><radialGradient cx="428" cy="342.49994" r="63.5" gradientUnits="userSpaceOnUse" id="color-86"><stop offset="0" stop-color="#c2e7f7"/><stop offset="1" stop-color="#c2e7f7" stop-opacity="0"/></radialGradient><radialGradient cx="451" cy="354.49994" r="63.5" gradientUnits="userSpaceOnUse" id="color-87"><stop offset="0" stop-color="#c2e7f7"/><stop offset="1" stop-color="#c2e7f7" stop-opacity="0"/></radialGradient><radialGradient cx="496" cy="344.49994" r="63.5" gradientUnits="userSpaceOnUse" id="color-88"><stop offset="0" stop-color="#c2e7f7"/><stop offset="1" stop-color="#c2e7f7" stop-opacity="0"/></radialGradient><radialGradient cx="463" cy="323.49994" r="63.5" gradientUnits="userSpaceOnUse" id="color-89"><stop offset="0" stop-color="#c2e7f7"/><stop offset="1" stop-color="#c2e7f7" stop-opacity="0"/></radialGradient></defs><g transform="translate(53.5,3.99993)"><g data-paper-data="{&quot;isPaintingLayer&quot;:true}" fill-rule="nonzero" stroke="none" stroke-width="0" stroke-linecap="butt" stroke-linejoin="miter" stroke-miterlimit="10" stroke-dasharray="" stroke-dashoffset="0" style="mix-blend-mode: normal"><g><g><path d="M481.00002,-3.99993v363h-484v-363z" data-paper-data="{&quot;origRot&quot;:0}" fill="url(#color-1)"/><path d="M-2.99998,359.50015v-129l1.95726,-111.69978c0,0 -8.56277,-83.86401 23.87624,-99.5798c122.21726,-59.21084 159.56487,47.66237 251.16651,121.27958c91.60164,73.61721 171.19207,218.15605 171.19207,218.15605l-318.19207,0.84395z" data-paper-data="{&quot;origPos&quot;:null,&quot;origRot&quot;:0}" fill="url(#color-2)"/></g><g><path d="M455.32267,100.97857c0,0 33.68908,23.12462 33.70802,32.24189c0.04155,20.00543 -33.46757,83.51972 -33.46757,83.51972c0,0 -9.15501,1.64784 -13.96444,1.64784c-32.86095,0 -59.5,-26.63905 -59.5,-59.5c0,-32.86095 26.63905,-59.5 59.5,-59.5c4.72343,0 13.72399,1.59054 13.72399,1.59054z" fill="url(#color-3)"/><path d="M66.59869,246.38802c-32.86095,0 -59.5,-26.63905 -59.5,-59.5c0,-32.86095 26.63905,-59.5 59.5,-59.5c32.86095,0 59.5,26.63905 59.5,59.5c0,32.86095 -26.63905,59.5 -59.5,59.5z" fill="url(#color-4)"/><path d="M24.59869,240.38801c-21.31449,0 -50.51891,-28.05089 -50.51891,-28.05089l-0.53905,-62.0172c0,0 29.37397,-28.93191 51.05796,-28.93191c32.86095,0 59.5,26.63905 59.5,59.5c0,32.86095 -26.63905,59.5 -59.5,59.5z" fill="url(#color-5)"/><path d="M392.5987,238.38801c-32.86095,0 -59.5,-26.63905 -59.5,-59.5c0,-32.86095 26.63905,-59.5 59.5,-59.5c32.86095,0 59.5,26.63905 59.5,59.5c0,32.86095 -26.63905,59.5 -59.5,59.5z" fill="url(#color-6)"/><path d="M346.59869,257.38802c-32.86095,0 -59.5,-26.63905 -59.5,-59.5c0,-32.86095 26.63905,-59.5 59.5,-59.5c32.86095,0 59.5,26.63905 59.5,59.5c0,32.86095 -26.63905,59.5 -59.5,59.5z" fill="url(#color-7)"/><path d="M309.59869,239.38801c-32.86095,0 -59.5,-26.63905 -59.5,-59.5c0,-32.86095 26.63905,-59.5 59.5,-59.5c32.86095,0 59.5,26.63905 59.5,59.5c0,32.86095 -26.63905,59.5 -59.5,59.5z" fill="url(#color-8)"/><path d="M224.59869,260.38802c-32.86095,0 -59.5,-26.63905 -59.5,-59.5c0,-32.86095 26.63905,-59.5 59.5,-59.5c32.86095,0 59.5,26.63905 59.5,59.5c0,32.86095 -26.63905,59.5 -59.5,59.5z" fill="url(#color-9)"/><path d="M189.59869,251.38802c-32.86095,0 -59.5,-26.63905 -59.5,-59.5c0,-32.86095 26.63905,-59.5 59.5,-59.5c32.86095,0 59.5,26.63905 59.5,59.5c0,32.86095 -26.63905,59.5 -59.5,59.5z" fill="url(#color-10)"/><path d="M317.59871,277.38802c-32.86095,0 -59.5,-26.63905 -59.5,-59.5c0,-32.86095 26.63905,-59.5 59.5,-59.5c32.86095,0 59.5,26.63905 59.5,59.5c0,32.86095 -26.63905,59.5 -59.5,59.5z" fill="url(#color-11)"/><path d="M267.59869,294.38796c-32.86095,0 -59.5,-26.63905 -59.5,-59.5c0,-32.86095 26.63905,-59.5 59.5,-59.5c32.86095,0 59.5,26.63905 59.5,59.5c0,32.86095 -26.63905,59.5 -59.5,59.5z" fill="url(#color-12)"/><path d="M212.59869,286.38796c-32.86095,0 -59.5,-26.63905 -59.5,-59.5c0,-32.86095 26.63905,-59.5 59.5,-59.5c32.86095,0 59.5,26.63905 59.5,59.5c0,32.86095 -26.63905,59.5 -59.5,59.5z" fill="url(#color-13)"/><path d="M272.59869,316.38796c-32.86095,0 -59.5,-26.63905 -59.5,-59.5c0,-32.86095 26.63905,-59.5 59.5,-59.5c32.86095,0 59.5,26.63905 59.5,59.5c0,32.86095 -26.63905,59.5 -59.5,59.5z" fill="url(#color-14)"/><path d="M295.59869,359.38802c-32.86095,0 -59.5,-26.63905 -59.5,-59.5c0,-32.86095 26.63905,-59.5 59.5,-59.5c32.86095,0 59.5,26.63905 59.5,59.5c0,32.86095 -26.63905,59.5 -59.5,59.5z" fill="url(#color-15)"/><path d="M70.59869,272.38802c-32.86095,0 -59.5,-26.63905 -59.5,-59.5c0,-32.86095 26.63905,-59.5 59.5,-59.5c32.86095,0 59.5,26.63905 59.5,59.5c0,32.86095 -26.63905,59.5 -59.5,59.5z" fill="url(#color-16)"/><path d="M98.59869,301.38796c-32.86095,0 -59.5,-26.63905 -59.5,-59.5c0,-32.86095 26.63905,-59.5 59.5,-59.5c32.86095,0 59.5,26.63905 59.5,59.5c0,32.86095 -26.63905,59.5 -59.5,59.5z" fill="url(#color-17)"/><path d="M111.59869,313.38796c-32.86095,0 -59.5,-26.63905 -59.5,-59.5c0,-32.86095 26.63905,-59.5 59.5,-59.5c32.86095,0 59.5,26.63905 59.5,59.5c0,32.86095 -26.63905,59.5 -59.5,59.5z" fill="url(#color-18)"/><path d="M156.59867,228.38801c-32.86095,0 -59.5,-26.63905 -59.5,-59.5c0,-32.86095 26.63905,-59.5 59.5,-59.5c32.86095,0 59.5,26.63905 59.5,59.5c0,32.86095 -26.63905,59.5 -59.5,59.5z" fill="url(#color-19)"/><path d="M24.59869,243.38801c-21.47913,0 -50.76093,-28.4422 -50.76093,-28.4422l-0.00001,-62.11559c0,0 29.2818,-28.44221 50.76094,-28.44221c32.86095,0 59.5,26.63905 59.5,59.5c0,32.86095 -26.63905,59.5 -59.5,59.5z" fill="url(#color-20)"/><path d="M396.5987,224.38799c-32.86095,0 -59.5,-26.63905 -59.5,-59.5c0,-32.86095 26.63905,-59.5 59.5,-59.5c32.86095,0 59.5,26.63905 59.5,59.5c0,32.86095 -26.63905,59.5 -59.5,59.5z" fill="url(#color-21)"/><path d="M342.59869,251.38802c-32.86095,0 -59.5,-26.63905 -59.5,-59.5c0,-32.86095 26.63905,-59.5 59.5,-59.5c32.86095,0 59.5,26.63905 59.5,59.5c0,32.86095 -26.63905,59.5 -59.5,59.5z" fill="url(#color-22)"/><path d="M69.59869,237.38801c-32.86095,0 -59.5,-26.63905 -59.5,-59.5c0,-32.86095 26.63905,-59.5 59.5,-59.5c32.86095,0 59.5,26.63905 59.5,59.5c0,32.86095 -26.63905,59.5 -59.5,59.5z" fill="url(#color-23)"/><path d="M60.59869,250.38802c-32.86095,0 -59.5,-26.63905 -59.5,-59.5c0,-32.86095 26.63905,-59.5 59.5,-59.5c32.86095,0 59.5,26.63905 59.5,59.5c0,32.86095 -26.63905,59.5 -59.5,59.5z" fill="url(#color-24)"/><path d="M78.09865,184.888c0,32.86095 -26.63905,59.5 -59.5,59.5c-17.43291,0 -43.99718,-19.4432 -43.99718,-19.4432l-1.10142,-78.08274c0,0 26.69758,-21.47405 45.0986,-21.47405c32.86095,0 59.5,26.63905 59.5,59.5z" fill="url(#color-25)"/><path d="M386.5987,242.38801c-32.86095,0 -59.5,-26.63905 -59.5,-59.5c0,-32.86095 26.63905,-59.5 59.5,-59.5c32.86095,0 59.5,26.63905 59.5,59.5c0,32.86095 -26.63905,59.5 -59.5,59.5z" fill="url(#color-26)"/><path d="M340.59868,261.38802c-32.86095,0 -59.5,-26.63905 -59.5,-59.5c0,-32.86095 26.63905,-59.5 59.5,-59.5c32.86095,0 59.5,26.63905 59.5,59.5c0,32.86095 -26.63905,59.5 -59.5,59.5z" fill="url(#color-27)"/><path d="M303.59868,243.38801c-32.86095,0 -59.5,-26.63905 -59.5,-59.5c0,-32.86095 26.63905,-59.5 59.5,-59.5c32.86095,0 59.5,26.63905 59.5,59.5c0,32.86095 -26.63905,59.5 -59.5,59.5z" fill="url(#color-28)"/><path d="M218.59869,264.38802c-32.86095,0 -59.5,-26.63905 -59.5,-59.5c0,-32.86095 26.63905,-59.5 59.5,-59.5c32.86095,0 59.5,26.63905 59.5,59.5c0,32.86095 -26.63905,59.5 -59.5,59.5z" fill="url(#color-29)"/><path d="M183.59869,255.38802c-32.86095,0 -59.5,-26.63905 -59.5,-59.5c0,-32.86095 26.63905,-59.5 59.5,-59.5c32.86095,0 59.5,26.63905 59.5,59.5c0,32.86095 -26.63905,59.5 -59.5,59.5z" fill="url(#color-30)"/><path d="M311.59872,281.38802c-32.86095,0 -59.5,-26.63905 -59.5,-59.5c0,-32.86095 26.63905,-59.5 59.5,-59.5c32.86095,0 59.5,26.63905 59.5,59.5c0,32.86095 -26.63905,59.5 -59.5,59.5z" fill="url(#color-31)"/><path d="M261.59869,298.38796c-32.86095,0 -59.5,-26.63905 -59.5,-59.5c0,-32.86095 26.63905,-59.5 59.5,-59.5c32.86095,0 59.5,26.63905 59.5,59.5c0,32.86095 -26.63905,59.5 -59.5,59.5z" fill="url(#color-32)"/><path d="M206.59869,290.38796c-32.86095,0 -59.5,-26.63905 -59.5,-59.5c0,-32.86095 26.63905,-59.5 59.5,-59.5c32.86095,0 59.5,26.63905 59.5,59.5c0,32.86095 -26.63905,59.5 -59.5,59.5z" fill="url(#color-33)"/><path d="M266.59869,320.38796c-32.86095,0 -59.5,-26.63905 -59.5,-59.5c0,-32.86095 26.63905,-59.5 59.5,-59.5c32.86095,0 59.5,26.63905 59.5,59.5c0,32.86095 -26.63905,59.5 -59.5,59.5z" fill="url(#color-34)"/><path d="M64.59869,276.38802c-32.86095,0 -59.5,-26.63905 -59.5,-59.5c0,-32.86095 26.63905,-59.5 59.5,-59.5c32.86095,0 59.5,26.63905 59.5,59.5c0,32.86095 -26.63905,59.5 -59.5,59.5z" fill="url(#color-35)"/><path d="M92.59869,305.38796c-32.86095,0 -59.5,-26.63905 -59.5,-59.5c0,-32.86095 26.63905,-59.5 59.5,-59.5c32.86095,0 59.5,26.63905 59.5,59.5c0,32.86095 -26.63905,59.5 -59.5,59.5z" fill="url(#color-36)"/><path d="M105.59869,317.38796c-32.86095,0 -59.5,-26.63905 -59.5,-59.5c0,-32.86095 26.63905,-59.5 59.5,-59.5c32.86095,0 59.5,26.63905 59.5,59.5c0,32.86095 -26.63905,59.5 -59.5,59.5z" fill="url(#color-37)"/><path d="M150.59867,232.38801c-32.86095,0 -59.5,-26.63905 -59.5,-59.5c0,-32.86095 26.63905,-59.5 59.5,-59.5c32.86095,0 59.5,26.63905 59.5,59.5c0,32.86095 -26.63905,59.5 -59.5,59.5z" fill="url(#color-38)"/><path d="M390.5987,228.38801c-32.86095,0 -59.5,-26.63905 -59.5,-59.5c0,-32.86095 26.63905,-59.5 59.5,-59.5c32.86095,0 59.5,26.63905 59.5,59.5c0,32.86095 -26.63905,59.5 -59.5,59.5z" fill="url(#color-39)"/><path d="M336.59868,255.38802c-32.86095,0 -59.5,-26.63905 -59.5,-59.5c0,-32.86095 26.63905,-59.5 59.5,-59.5c32.86095,0 59.5,26.63905 59.5,59.5c0,32.86095 -26.63905,59.5 -59.5,59.5z" fill="url(#color-40)"/><path d="M55.59869,241.38801c-32.86095,0 -59.5,-26.63905 -59.5,-59.5c0,-32.86095 26.63905,-59.5 59.5,-59.5c32.86095,0 59.5,26.63905 59.5,59.5c0,32.86095 -26.63905,59.5 -59.5,59.5z" fill="url(#color-41)"/><path d="M160.5,144.49992c0,-35.07008 28.42992,-63.5 63.5,-63.5c35.07008,0 63.5,28.42992 63.5,63.5c0,35.07008 -28.42992,63.5 -63.5,63.5c-35.07008,0 -63.5,-28.42992 -63.5,-63.5z" fill="url(#color-42)"/><path d="M183.5,156.49992c0,-35.07008 28.42992,-63.5 63.5,-63.5c35.07008,0 63.5,28.42992 63.5,63.5c0,35.07008 -28.42992,63.5 -63.5,63.5c-35.07008,0 -63.5,-28.42992 -63.5,-63.5z" fill="url(#color-43)"/><path d="M228.5,146.49992c0,-35.07008 28.42992,-63.5 63.5,-63.5c35.07008,0 63.5,28.42992 63.5,63.5c0,35.07008 -28.42992,63.5 -63.5,63.5c-35.07008,0 -63.5,-28.42992 -63.5,-63.5z" fill="url(#color-44)"/><path d="M195.5,125.49992c0,-35.07008 28.42992,-63.5 63.5,-63.5c35.07008,0 63.5,28.42992 63.5,63.5c0,35.07008 -28.42992,63.5 -63.5,63.5c-35.07008,0 -63.5,-28.42992 -63.5,-63.5z" fill="url(#color-45)"/><g><path d="M153.5,138.49992c0,-35.07008 28.42992,-63.5 63.5,-63.5c35.07008,0 63.5,28.42992 63.5,63.5c0,35.07008 -28.42992,63.5 -63.5,63.5c-35.07008,0 -63.5,-28.42992 -63.5,-63.5z" fill="url(#color-46)"/><path d="M176.5,150.49992c0,-35.07008 28.42992,-63.5 63.5,-63.5c35.07008,0 63.5,28.42992 63.5,63.5c0,35.07008 -28.42992,63.5 -63.5,63.5c-35.07008,0 -63.5,-28.42992 -63.5,-63.5z" fill="url(#color-47)"/><path d="M221.5,140.49992c0,-35.07008 28.42992,-63.5 63.5,-63.5c35.07008,0 63.5,28.42992 63.5,63.5c0,35.07008 -28.42992,63.5 -63.5,63.5c-35.07008,0 -63.5,-28.42992 -63.5,-63.5z" fill="url(#color-48)"/><path d="M188.5,119.49994c0,-35.07008 28.42992,-63.5 63.5,-63.5c35.07008,0 63.5,28.42992 63.5,63.5c0,35.07008 -28.42992,63.5 -63.5,63.5c-35.07008,0 -63.5,-28.42992 -63.5,-63.5z" fill="url(#color-49)"/></g><g><path d="M-53.5,268.49994c0,-35.07008 28.42992,-63.5 63.5,-63.5c35.07008,0 63.5,28.42992 63.5,63.5c0,35.07008 -28.42992,63.5 -63.5,63.5c-35.07008,0 -63.5,-28.42992 -63.5,-63.5z" fill="url(#color-50)"/><path d="M-30.5,280.49994c0,-35.07008 28.42992,-63.5 63.5,-63.5c35.07008,0 63.5,28.42992 63.5,63.5c0,35.07008 -28.42992,63.5 -63.5,63.5c-35.07008,0 -63.5,-28.42992 -63.5,-63.5z" fill="url(#color-51)"/><path d="M14.5,270.49994c0,-35.07008 28.42992,-63.5 63.5,-63.5c35.07008,0 63.5,28.42992 63.5,63.5c0,35.07008 -28.42992,63.5 -63.5,63.5c-35.07008,0 -63.5,-28.42992 -63.5,-63.5z" fill="url(#color-52)"/><path d="M-18.5,249.49994c0,-35.07008 28.42992,-63.5 63.5,-63.5c35.07008,0 63.5,28.42992 63.5,63.5c0,35.07008 -28.42992,63.5 -63.5,63.5c-35.07008,0 -63.5,-28.42992 -63.5,-63.5z" fill="url(#color-53)"/></g><g><path d="M-49.5,337.49994c0,-35.07008 28.42992,-63.5 63.5,-63.5c35.07008,0 63.5,28.42992 63.5,63.5c0,35.07008 -28.42992,63.5 -63.5,63.5c-35.07008,0 -63.5,-28.42992 -63.5,-63.5z" fill="url(#color-54)"/><path d="M-26.5,349.49994c0,-35.07008 28.42992,-63.5 63.5,-63.5c35.07008,0 63.5,28.42992 63.5,63.5c0,35.07008 -28.42992,63.5 -63.5,63.5c-35.07008,0 -63.5,-28.42992 -63.5,-63.5z" fill="url(#color-55)"/><path d="M18.5,339.49994c0,-35.07008 28.42992,-63.5 63.5,-63.5c35.07008,0 63.5,28.42992 63.5,63.5c0,35.07008 -28.42992,63.5 -63.5,63.5c-35.07008,0 -63.5,-28.42992 -63.5,-63.5z" fill="url(#color-56)"/><path d="M-14.5,318.49994c0,-35.07008 28.42992,-63.5 63.5,-63.5c35.07008,0 63.5,28.42992 63.5,63.5c0,35.07008 -28.42992,63.5 -63.5,63.5c-35.07008,0 -63.5,-28.42992 -63.5,-63.5z" fill="url(#color-57)"/></g><g><path d="M79.5,310.49994c0,-35.07008 28.42992,-63.5 63.5,-63.5c35.07008,0 63.5,28.42992 63.5,63.5c0,35.07008 -28.42992,63.5 -63.5,63.5c-35.07008,0 -63.5,-28.42992 -63.5,-63.5z" fill="url(#color-58)"/><path d="M102.5,322.49994c0,-35.07008 28.42992,-63.5 63.5,-63.5c35.07008,0 63.5,28.42992 63.5,63.5c0,35.07008 -28.42992,63.5 -63.5,63.5c-35.07008,0 -63.5,-28.42992 -63.5,-63.5z" fill="url(#color-59)"/><path d="M147.5,312.49994c0,-35.07008 28.42992,-63.5 63.5,-63.5c35.07008,0 63.5,28.42992 63.5,63.5c0,35.07008 -28.42992,63.5 -63.5,63.5c-35.07008,0 -63.5,-28.42992 -63.5,-63.5z" fill="url(#color-60)"/><path d="M114.5,291.49994c0,-35.07008 28.42992,-63.5 63.5,-63.5c35.07008,0 63.5,28.42992 63.5,63.5c0,35.07008 -28.42992,63.5 -63.5,63.5c-35.07008,0 -63.5,-28.42992 -63.5,-63.5z" fill="url(#color-61)"/></g><g><path d="M59.5,329.49994c0,-35.07008 28.42992,-63.5 63.5,-63.5c35.07008,0 63.5,28.42992 63.5,63.5c0,35.07008 -28.42992,63.5 -63.5,63.5c-35.07008,0 -63.5,-28.42992 -63.5,-63.5z" fill="url(#color-62)"/><path d="M82.5,341.49994c0,-35.07008 28.42992,-63.5 63.5,-63.5c35.07008,0 63.5,28.42992 63.5,63.5c0,35.07008 -28.42992,63.5 -63.5,63.5c-35.07008,0 -63.5,-28.42992 -63.5,-63.5z" fill="url(#color-63)"/><path d="M127.5,331.49994c0,-35.07008 28.42992,-63.5 63.5,-63.5c35.07008,0 63.5,28.42992 63.5,63.5c0,35.07008 -28.42992,63.5 -63.5,63.5c-35.07008,0 -63.5,-28.42992 -63.5,-63.5z" fill="url(#color-64)"/><path d="M94.5,310.49994c0,-35.07008 28.42992,-63.5 63.5,-63.5c35.07008,0 63.5,28.42992 63.5,63.5c0,35.07008 -28.42992,63.5 -63.5,63.5c-35.07008,0 -63.5,-28.42992 -63.5,-63.5z" fill="url(#color-65)"/></g><g><path d="M62.5,236.49994c0,-35.07008 28.42992,-63.5 63.5,-63.5c35.07008,0 63.5,28.42992 63.5,63.5c0,35.07008 -28.42992,63.5 -63.5,63.5c-35.07008,0 -63.5,-28.42992 -63.5,-63.5z" fill="url(#color-66)"/><path d="M85.5,248.49994c0,-35.07008 28.42992,-63.5 63.5,-63.5c35.07008,0 63.5,28.42992 63.5,63.5c0,35.07008 -28.42992,63.5 -63.5,63.5c-35.07008,0 -63.5,-28.42992 -63.5,-63.5z" fill="url(#color-67)"/><path d="M130.5,238.49994c0,-35.07008 28.42992,-63.5 63.5,-63.5c35.07008,0 63.5,28.42992 63.5,63.5c0,35.07008 -28.42992,63.5 -63.5,63.5c-35.07008,0 -63.5,-28.42992 -63.5,-63.5z" fill="url(#color-68)"/><path d="M97.5,217.49994c0,-35.07008 28.42992,-63.5 63.5,-63.5c35.07008,0 63.5,28.42992 63.5,63.5c0,35.07008 -28.42992,63.5 -63.5,63.5c-35.07008,0 -63.5,-28.42992 -63.5,-63.5z" fill="url(#color-69)"/></g><g><path d="M176.5,331.49994c0,-35.07008 28.42992,-63.5 63.5,-63.5c35.07008,0 63.5,28.42992 63.5,63.5c0,35.07008 -28.42992,63.5 -63.5,63.5c-35.07008,0 -63.5,-28.42992 -63.5,-63.5z" fill="url(#color-70)"/><path d="M199.5,343.49994c0,-35.07008 28.42992,-63.5 63.5,-63.5c35.07008,0 63.5,28.42992 63.5,63.5c0,35.07008 -28.42992,63.5 -63.5,63.5c-35.07008,0 -63.5,-28.42992 -63.5,-63.5z" fill="url(#color-71)"/><path d="M244.5,333.49994c0,-35.07008 28.42992,-63.5 63.5,-63.5c35.07008,0 63.5,28.42992 63.5,63.5c0,35.07008 -28.42992,63.5 -63.5,63.5c-35.07008,0 -63.5,-28.42992 -63.5,-63.5z" fill="url(#color-72)"/><path d="M211.5,312.49994c0,-35.07008 28.42992,-63.5 63.5,-63.5c35.07008,0 63.5,28.42992 63.5,63.5c0,35.07008 -28.42992,63.5 -63.5,63.5c-35.07008,0 -63.5,-28.42992 -63.5,-63.5z" fill="url(#color-73)"/></g><g><path d="M273.5,291.49994c0,-35.07008 28.42992,-63.5 63.5,-63.5c35.07008,0 63.5,28.42992 63.5,63.5c0,35.07008 -28.42992,63.5 -63.5,63.5c-35.07008,0 -63.5,-28.42992 -63.5,-63.5z" fill="url(#color-74)"/><path d="M296.5,303.49994c0,-35.07008 28.42992,-63.5 63.5,-63.5c35.07008,0 63.5,28.42992 63.5,63.5c0,35.07008 -28.42992,63.5 -63.5,63.5c-35.07008,0 -63.5,-28.42992 -63.5,-63.5z" fill="url(#color-75)"/><path d="M341.5,293.49994c0,-35.07008 28.42992,-63.5 63.5,-63.5c35.07008,0 63.5,28.42992 63.5,63.5c0,35.07008 -28.42992,63.5 -63.5,63.5c-35.07008,0 -63.5,-28.42992 -63.5,-63.5z" fill="url(#color-76)"/><path d="M308.5,272.49994c0,-35.07008 28.42992,-63.5 63.5,-63.5c35.07008,0 63.5,28.42992 63.5,63.5c0,35.07008 -28.42992,63.5 -63.5,63.5c-35.07008,0 -63.5,-28.42992 -63.5,-63.5z" fill="url(#color-77)"/></g><g><path d="M334.5,249.49994c0,-35.07008 28.42992,-63.5 63.5,-63.5c35.07008,0 63.5,28.42992 63.5,63.5c0,35.07008 -28.42992,63.5 -63.5,63.5c-35.07008,0 -63.5,-28.42992 -63.5,-63.5z" fill="url(#color-78)"/><path d="M357.5,261.49994c0,-35.07008 28.42992,-63.5 63.5,-63.5c35.07008,0 63.5,28.42992 63.5,63.5c0,35.07008 -28.42992,63.5 -63.5,63.5c-35.07008,0 -63.5,-28.42992 -63.5,-63.5z" fill="url(#color-79)"/><path d="M402.5,251.49994c0,-35.07008 28.42992,-63.5 63.5,-63.5c35.07008,0 63.5,28.42992 63.5,63.5c0,35.07008 -28.42992,63.5 -63.5,63.5c-35.07008,0 -63.5,-28.42992 -63.5,-63.5z" fill="url(#color-80)"/><path d="M369.5,230.49994c0,-35.07008 28.42992,-63.5 63.5,-63.5c35.07008,0 63.5,28.42992 63.5,63.5c0,35.07008 -28.42992,63.5 -63.5,63.5c-35.07008,0 -63.5,-28.42992 -63.5,-63.5z" fill="url(#color-81)"/></g><g><path d="M279.5,340.49994c0,-35.07008 28.42992,-63.5 63.5,-63.5c35.07008,0 63.5,28.42992 63.5,63.5c0,35.07008 -28.42992,63.5 -63.5,63.5c-35.07008,0 -63.5,-28.42992 -63.5,-63.5z" fill="url(#color-82)"/><path d="M302.5,352.49994c0,-35.07008 28.42992,-63.5 63.5,-63.5c35.07008,0 63.5,28.42992 63.5,63.5c0,35.07008 -28.42992,63.5 -63.5,63.5c-35.07008,0 -63.5,-28.42992 -63.5,-63.5z" fill="url(#color-83)"/><path d="M347.5,342.49994c0,-35.07008 28.42992,-63.5 63.5,-63.5c35.07008,0 63.5,28.42992 63.5,63.5c0,35.07008 -28.42992,63.5 -63.5,63.5c-35.07008,0 -63.5,-28.42992 -63.5,-63.5z" fill="url(#color-84)"/><path d="M314.5,321.49994c0,-35.07008 28.42992,-63.5 63.5,-63.5c35.07008,0 63.5,28.42992 63.5,63.5c0,35.07008 -28.42992,63.5 -63.5,63.5c-35.07008,0 -63.5,-28.42992 -63.5,-63.5z" fill="url(#color-85)"/></g><g><path d="M364.5,342.49994c0,-35.07008 28.42992,-63.5 63.5,-63.5c35.07008,0 63.5,28.42992 63.5,63.5c0,35.07008 -28.42992,63.5 -63.5,63.5c-35.07008,0 -63.5,-28.42992 -63.5,-63.5z" fill="url(#color-86)"/><path d="M387.5,354.49994c0,-35.07008 28.42992,-63.5 63.5,-63.5c35.07008,0 63.5,28.42992 63.5,63.5c0,35.07008 -28.42992,63.5 -63.5,63.5c-35.07008,0 -63.5,-28.42992 -63.5,-63.5z" fill="url(#color-87)"/><path d="M432.5,344.49994c0,-35.07008 28.42992,-63.5 63.5,-63.5c35.07008,0 63.5,28.42992 63.5,63.5c0,35.07008 -28.42992,63.5 -63.5,63.5c-35.07008,0 -63.5,-28.42992 -63.5,-63.5z" fill="url(#color-88)"/><path d="M399.5,323.49994c0,-35.07008 28.42992,-63.5 63.5,-63.5c35.07008,0 63.5,28.42992 63.5,63.5c0,35.07008 -28.42992,63.5 -63.5,63.5c-35.07008,0 -63.5,-28.42992 -63.5,-63.5z" fill="url(#color-89)"/></g></g></g><path d="" fill="#80b0f8"/><path d="" fill="#60a0e0"/></g></g></svg>