<svg version="1.1" xmlns="http://www.w3.org/2000/svg" xmlns:xlink="http://www.w3.org/1999/xlink" width="152" height="152" viewBox="0,0,152,152"><defs><radialGradient cx="254.24761" cy="169.375" r="28.61366" gradientUnits="userSpaceOnUse" id="color-1"><stop offset="0" stop-color="#fff227"/><stop offset="1" stop-color="#d29608"/></radialGradient><radialGradient cx="249.24761" cy="179.125" r="28.50329" gradientUnits="userSpaceOnUse" id="color-2"><stop offset="0" stop-color="#ffee12"/><stop offset="1" stop-color="#c39009"/></radialGradient><linearGradient x1="242.33983" y1="158.04434" x2="228.70472" y2="201.96843" gradientUnits="userSpaceOnUse" id="color-3"><stop offset="0" stop-color="#b1780b"/><stop offset="1" stop-color="#b07705"/></linearGradient><linearGradient x1="241.6903" y1="171.91596" x2="225.90194" y2="188.02004" gradientUnits="userSpaceOnUse" id="color-4"><stop offset="0" stop-color="#ba8718"/><stop offset="1" stop-color="#d3a006"/></linearGradient><radialGradient cx="225.41822" cy="183.08333" r="19.61928" gradientUnits="userSpaceOnUse" id="color-5"><stop offset="0" stop-color="#fbe20f"/><stop offset="1" stop-color="#fbe20f" stop-opacity="0"/></radialGradient><linearGradient x1="234.91779" y1="161.18634" x2="234.91779" y2="198.83334" gradientUnits="userSpaceOnUse" id="color-6"><stop offset="0" stop-color="#9e6805"/><stop offset="1" stop-color="#94640c"/></linearGradient></defs><g transform="translate(-164,-104)"><g data-paper-data="{&quot;isPaintingLayer&quot;:true}" fill-rule="nonzero" stroke="none" stroke-width="0" stroke-linecap="butt" stroke-linejoin="miter" stroke-miterlimit="10" stroke-dasharray="" stroke-dashoffset="0" style="mix-blend-mode: normal"><path d="M235.33906,208.57555v-2h7.07692v2z" data-paper-data="{&quot;index&quot;:null}" fill="#d29608"/><path d="M235.94345,152.94391v-1.5h6.375v1.5z" data-paper-data="{&quot;index&quot;:null}" fill="#dcaa0f"/><path d="M257.45667,180c0,17.92788 -7.09794,28.61366 -15.85373,28.61366c-8.75576,0 -15.85373,-12.81079 -15.85373,-28.61366c0,-15.80288 7.09795,-28.61366 15.85374,-28.61366c8.75578,0 15.85372,9.93578 15.85372,28.61366z" data-paper-data="{&quot;index&quot;:null}" fill="url(#color-1)"/><path d="M247.21742,196.89152c-4.44572,12.71228 -12.98506,15.49232 -19.07315,6.20941c-6.08807,-9.28291 -7.41947,-27.11352 -2.97376,-39.82579c4.44571,-12.71227 12.98507,-15.49232 19.07316,-6.20941c6.08806,9.28291 7.41947,27.1135 2.97375,39.82577z" data-paper-data="{&quot;origRot&quot;:0,&quot;index&quot;:null}" fill="url(#color-2)"/><path d="M245.73525,194.88744c-3.76524,12.12929 -11.39007,15.29957 -17.03055,7.08101c-5.64047,-8.21857 -7.16064,-24.71377 -3.3954,-36.84308c1.58139,-5.09429 3.84362,-8.60822 6.35372,-10.36177c3.46632,-2.42157 7.40533,-1.48602 10.67682,3.28075c5.6405,8.21857 7.16066,24.71376 3.39543,36.84306z" data-paper-data="{&quot;index&quot;:null}" fill="url(#color-3)"/><g data-paper-data="{&quot;index&quot;:null}"><path d="M237.32345,198.83402c-4.35985,4.44699 -9.47345,-0.39457 -11.42153,-10.81399c-1.94809,-10.41941 0.00701,-22.47102 4.36684,-26.91803c4.35984,-4.44701 9.47345,0.39455 11.42153,10.81396c1.9481,10.41941 -0.007,22.47103 -4.36683,26.91804z" data-paper-data="{&quot;origRot&quot;:0}" fill="url(#color-4)"/><path d="M236.99156,198.293c-4.24182,4.32664 -9.21699,-0.38388 -11.11237,-10.52129c-1.89536,-10.1374 0.00682,-21.86281 4.24865,-26.18946c4.24183,-4.32665 11.10558,32.38408 6.86375,36.71073z" data-paper-data="{&quot;origRot&quot;:0}" fill="url(#color-5)"/></g><path d="M242.96741,180.00984c0,10.39595 -3.60393,18.82351 -8.04962,18.82351c-4.44568,0 -8.04962,-8.42757 -8.04962,-18.82351c0,-10.39595 3.60393,-18.82351 8.04962,-18.82351c4.44569,0 8.04963,8.42758 8.04963,18.82351z" data-paper-data="{&quot;index&quot;:null}" fill="url(#color-6)"/><path d="M164,256v-152h152v152z" data-paper-data="{&quot;origPos&quot;:null}" fill="none"/><path d="M230.31493,174.19806l1.14935,-0.09091l-0.42857,2.35714z" fill="#ab730c"/><g data-paper-data="{&quot;index&quot;:null}"><path d="M231.00235,185.64946v-11.02666h0.95798v11.02666z" fill="#fec207"/><path d="M232.03115,174.6783l0.01958,1.8206l-1.0716,-1.82061z" data-paper-data="{&quot;index&quot;:null}" fill="#ffcc0d"/><path d="M230.95129,185.45401l1.09892,-1.82061l0.00559,1.85148z" fill="#feff37"/><path d="M230.328,170.55773l0.80282,-1.66634h3.08047v3.12696z" fill="#fdf94f"/><path d="M231.31002,191.05537l-0.36523,-1.81745l3.2665,-1.30951v3.12696z" fill="#ab730c"/><path d="M231.69239,189.1579v-18.64238l2.46437,-1.62104v22.22196z" fill="#ebbe13"/><path d="M232.57399,170.52264l1.58174,-1.63075l3.78637,0.01699l-3.03321,1.72199z" fill="#fdf94f"/><path d="M237.98666,176.36933l0.03036,14.75301l-4.02021,-1.95493l-0.01719,-14.76119l0.55904,-0.04787l-0.01536,-3.78939l3.49143,-1.65146z" fill="#ebbe13"/><path d="M234.14633,191.04992l-1.60951,-1.87918h2.01234l3.39322,1.87493z" fill="#ab730c"/></g><g data-paper-data="{&quot;index&quot;:null}" fill="#dc9807"><path d="M230.90215,189.17334l0.0016,-14.76073l-0.57823,0.00149v-3.87063h1.38678v18.62987z"/><path d="M232.50905,189.19662v-18.68818h2.04027v18.68818zM233.88229,185.39677c0,0 -0.00613,-6.32188 -0.00799,-8.23794c-0.00099,-1.02668 -0.0023,-2.36522 -0.0023,-2.36522l-0.68404,0.00171l-0.00208,10.58425z"/></g></g></g></svg>