<svg version="1.1" xmlns="http://www.w3.org/2000/svg" xmlns:xlink="http://www.w3.org/1999/xlink" width="498.39315" height="27.20453" viewBox="0,0,498.39315,27.20453"><defs><linearGradient x1="363.90939" y1="63.0148" x2="363.90939" y2="83.30713" gradientUnits="userSpaceOnUse" id="color-1"><stop offset="0" stop-color="#91e3eb"/><stop offset="1" stop-color="#91e3eb" stop-opacity="0"/></linearGradient><linearGradient x1="363.59908" y1="53.80733" x2="363.59908" y2="70.3769" gradientUnits="userSpaceOnUse" id="color-2"><stop offset="0" stop-color="#f5fdfd"/><stop offset="1" stop-color="#beeef3"/></linearGradient><linearGradient x1="363.59908" y1="56.67347" x2="363.59908" y2="73.24304" gradientUnits="userSpaceOnUse" id="color-3"><stop offset="0" stop-color="#76d2df" stop-opacity="0"/><stop offset="1" stop-color="#76d2df"/></linearGradient><linearGradient x1="115.10298" y1="63.0148" x2="115.10298" y2="83.30714" gradientUnits="userSpaceOnUse" id="color-4"><stop offset="0" stop-color="#91e3eb"/><stop offset="1" stop-color="#91e3eb" stop-opacity="0"/></linearGradient><linearGradient x1="115.41582" y1="53.80733" x2="115.41582" y2="70.3769" gradientUnits="userSpaceOnUse" id="color-5"><stop offset="0" stop-color="#f5fdfd"/><stop offset="1" stop-color="#daf0f2"/></linearGradient><linearGradient x1="115.41582" y1="56.67348" x2="115.41582" y2="73.24304" gradientUnits="userSpaceOnUse" id="color-6"><stop offset="0" stop-color="#76d2df" stop-opacity="0"/><stop offset="1" stop-color="#76d2df"/></linearGradient></defs><g transform="translate(10.19658,-56.10261)"><g data-paper-data="{&quot;isPaintingLayer&quot;:true}" fill-rule="nonzero" stroke="none" stroke-width="0" stroke-linecap="butt" stroke-linejoin="miter" stroke-miterlimit="10" stroke-dasharray="" stroke-dashoffset="0" style="mix-blend-mode: normal"><path d="M240.47935,83.30713l0.14285,-18.76852l247.57437,1.14286v17.62566z" fill="url(#color-1)"/><path d="M487.97998,67.60062c0,0 -7.27435,-0.8717 -21.42307,-1.04775c-6.25982,-0.07789 -28.54845,3.94374 -41.10324,3.82129c-11.74496,-0.11455 -28.32376,-4.07198 -42.57462,-4.42378c-11.50802,-0.28409 -35.46068,3.95354 -47.26366,3.90517c-8.6882,-0.03561 -24.92441,-2.9435 -32.80602,-3.18186c-11.43314,-0.34577 -20.26017,1.57256 -28.61787,1.29364c-22.56604,-0.75308 -34.97333,-3.46215 -34.97333,-3.46215c0,0 -0.82019,-8.63184 1.25086,-8.2488c4.99136,0.92314 17.71553,2.01839 33.60243,2.65068c8.38558,0.33373 17.25525,-1.54519 28.74456,-1.19495c7.96181,0.24271 24.28659,2.63869 33.06799,2.67712c11.57884,0.05069 35.30046,-4.18692 46.5987,-3.90695c14.3976,0.35678 31.1186,4.318 42.97299,4.43363c12.55582,0.12246 34.84517,-3.89917 41.10511,-3.82128c14.1471,0.17604 21.41918,1.04771 21.41918,1.04771v9.45829z" fill="url(#color-2)"/><path d="M487.97998,70.46676c0,0 -7.27435,-0.8717 -21.42307,-1.04775c-6.25982,-0.0779 -28.54845,3.94374 -41.10324,3.82129c-11.74496,-0.11455 -28.32376,-4.07197 -42.57462,-4.42378c-11.50802,-0.28409 -35.46068,3.95354 -47.26366,3.90517c-8.6882,-0.03561 -24.92441,-2.9435 -32.80602,-3.18187c-11.43314,-0.34577 -20.26017,1.57256 -28.61787,1.29364c-22.56604,-0.75308 -34.97333,-3.46215 -34.97333,-3.46215v-9.45829c0,0 12.37448,2.96553 34.85329,3.86017c8.38558,0.33374 17.25525,-1.54519 28.74456,-1.19495c7.96181,0.24271 24.28659,2.63868 33.06799,2.67712c11.57884,0.05069 35.30046,-4.18693 46.5987,-3.90695c14.3976,0.35678 31.1186,4.318 42.97299,4.43362c12.55582,0.12246 34.84517,-3.89917 41.10511,-3.82127c14.1471,0.17604 21.41918,1.0477 21.41918,1.0477v9.45829z" fill="url(#color-3)"/><path d="M-10.19658,83.30714v-17.95901l250.83484,-0.71429l-0.18571,18.6733z" fill="url(#color-4)"/><path d="M-9.97823,67.60062v-9.45829c0,0 7.33132,-0.87166 21.59366,-1.0477c6.31092,-0.0779 28.78183,3.94373 41.43992,3.82127c11.95095,-0.11562 28.80815,-4.41019 43.32304,-4.76697c11.39026,-0.27997 35.30511,4.29098 46.97826,4.24029c8.85293,-0.03844 25.31068,-2.43441 33.33733,-2.67712c11.5829,-0.35024 20.52482,1.52869 28.97871,1.19495c18.58998,-0.73389 30.73066,-2.47572 34.38009,-2.80216c1.81412,-0.16227 0.7571,8.40028 0.7571,8.40028c0,0 -12.50835,2.70908 -35.2582,3.46215c-8.42578,0.27891 -17.32472,-1.63941 -28.85097,-1.29365c-7.94582,0.23836 -24.31427,3.14625 -33.07324,3.18187c-11.89913,0.04837 -36.04689,-4.52261 -47.64864,-4.23851c-14.36694,0.35181 -31.08079,4.64257 -42.92141,4.75712c-12.65705,0.12245 -35.12724,-3.89918 -41.43805,-3.82129c-14.26397,0.17605 -21.59758,1.04775 -21.59758,1.04775z" fill="url(#color-5)"/><path d="M-9.97823,70.46676v-9.45829c0,0 7.33132,-0.87166 21.59366,-1.0477c6.31092,-0.0779 28.78183,3.94373 41.43992,3.82127c11.95095,-0.11562 28.80815,-4.41019 43.32304,-4.76697c11.39026,-0.27997 35.30511,4.29098 46.97826,4.24029c8.85293,-0.03844 25.31068,-2.43441 33.33733,-2.67712c11.5829,-0.35024 20.52482,1.52869 28.97871,1.19495c22.66192,-0.89464 35.4229,-3.86017 35.4229,-3.86017l-0.28571,9.45829c0,0 -12.50835,2.70908 -35.2582,3.46215c-8.42578,0.27891 -17.32472,-1.63941 -28.85097,-1.29365c-7.94582,0.23836 -24.31427,3.14625 -33.07324,3.18187c-11.89913,0.04837 -36.04689,-4.52261 -47.64864,-4.23851c-14.36694,0.35181 -31.08079,4.64257 -42.92141,4.75712c-12.65705,0.12245 -35.12724,-3.89918 -41.43805,-3.82129c-14.26397,0.17605 -21.59758,1.04775 -21.59758,1.04775z" fill="url(#color-6)"/><g fill="#c7eff3"><g><path d="M453.68264,69.32348c3.02554,0 5.47824,1.28321 5.47824,2.86615c0,1.58292 -2.45269,2.86614 -5.47824,2.86614c-3.02554,0 -5.47823,-1.97108 -5.47823,-3.55402c0,-1.58292 2.45269,-2.17827 5.47823,-2.17827z"/><path d="M427.28749,67.3745c0,-2.2161 3.30742,-4.01261 7.38733,-4.01261c4.0799,0 7.29122,-0.03385 7.38732,2.17828c0.16601,3.82114 -3.30742,5.84694 -7.38732,5.84694c-4.0799,0 -7.38733,-1.79651 -7.38733,-4.01261z"/><path d="M406.7856,71.15779c2.33792,0 4.23319,1.18057 4.23319,2.63687c0,1.4563 -1.89526,2.63685 -4.23319,2.63685c-2.33792,0 -4.23319,-1.86843 -4.23319,-3.32473c0,-1.4563 1.89526,-1.94899 4.23319,-1.94899z"/><path d="M381.4695,61.41292c0,-2.72264 3.54775,-1.26111 7.71934,-1.26111c4.17159,0 7.55333,2.20713 7.55333,4.92977c0,2.72264 -3.38174,4.92978 -7.55333,4.92978c-4.17159,0 -7.71934,-3.81218 -7.71934,-8.59845z"/><path d="M358.01164,64.48914c3.07139,0 5.56125,2.42968 5.56125,4.01261c0,1.58294 -2.48986,1.71969 -5.56125,1.71969c-3.07139,0 -5.22922,0.32182 -5.22922,-1.26111c0,-1.58294 2.15784,-4.47119 5.22922,-4.47119z"/><path d="M343.20484,72.90331c4.0799,0 7.38732,0.54739 7.38732,2.63686c0,2.08946 -3.30742,4.92977 -7.38732,4.92977c-4.0799,0 -7.38733,-3.2989 -7.38733,-5.38837c0,-2.08947 3.30742,-2.17827 7.38733,-2.17827z"/><path d="M315.56464,68.8649c2.65882,0 4.81421,2.25171 4.81421,3.89796c0,1.64625 -2.1554,2.06363 -4.81421,2.06363c-2.65881,0 -4.81421,-0.18809 -4.81421,-1.83434c0,-1.64625 2.1554,-4.12725 4.81421,-4.12725z"/><path d="M297.75127,60.83968c3.89654,0 7.05531,2.20713 7.05531,4.92977c0,2.72264 -3.15877,4.92978 -7.05531,4.92978c-3.89654,0 -7.0553,-2.20714 -7.0553,-4.92978c0,-2.72264 3.15877,-4.92977 7.0553,-4.92977z"/><path d="M262.56028,72.89418c2.93386,0 5.31224,1.28321 5.31224,2.86615c0,1.58292 -2.37837,2.86615 -5.31224,2.86615c-2.93387,0 -5.31224,-1.28322 -5.31224,-2.86615c0,-1.58292 2.37838,-2.86615 5.31224,-2.86615z"/><path d="M245.76757,64.17698c0.18044,-1.88309 3.3845,-2.85065 7.15647,-2.16111c3.77196,0.68955 6.68346,2.77508 6.50302,4.65818c-0.18044,1.88309 -3.3845,2.85065 -7.15647,2.16111c-3.77196,-0.68954 -6.68346,-2.77508 -6.50302,-4.65817z"/></g><path d="M15.09657,73.1068c0,1.4563 -2.61777,3.32473 -5.84694,3.32473c-3.22918,0 -5.84694,-1.18056 -5.84694,-2.63686c0,-1.4563 2.61777,-2.63686 5.84694,-2.63686c3.22918,0 5.84694,0.49269 5.84694,1.94899z"/><path d="M44.21666,61.41291c0,4.78627 -4.90021,8.59845 -10.66208,8.59845c-5.76187,0 -10.43279,-2.20714 -10.43279,-4.92978c0,-2.72264 4.67092,-4.92977 10.43279,-4.92977c5.76187,0 10.66208,-1.46154 10.66208,1.26111z"/><path d="M78.83974,71.96034c0,1.58293 -2.98044,1.26111 -7.2227,1.26111c-4.24225,0 -7.68128,-0.13676 -7.68128,-1.71969c0,-1.58293 3.43903,-4.01261 7.68128,-4.01261c4.24225,0 7.2227,2.88826 7.2227,4.47119z"/><path d="M107.27194,70.08158c0,2.08947 -4.56826,5.38837 -10.2035,5.38837c-5.63524,0 -10.20349,-2.84031 -10.20349,-4.92977c0,-2.08947 4.56825,-2.63686 10.20349,-2.63686c5.63524,0 10.2035,0.0888 10.2035,2.17827z"/><path d="M141.89503,72.99214c0,1.64625 -2.97707,1.83434 -6.64947,1.83434c-3.6724,0 -6.64947,-0.41738 -6.64947,-2.06363c0,-1.64625 2.97707,-3.89797 6.64947,-3.89797c3.6724,0 6.64947,2.481 6.64947,4.12726z"/><path d="M169.59458,65.76945c0,2.72264 -4.36294,4.92978 -9.7449,4.92978c-5.38196,0 -9.74491,-2.20714 -9.74491,-4.92978c0,-2.72264 4.36294,-4.92977 9.74491,-4.92977c5.38196,0 9.7449,2.20713 9.7449,4.92977z"/><path d="M205.59342,71.96034c0,1.58293 -3.28504,2.86615 -7.33734,2.86615c-4.0523,0 -7.33734,-1.28323 -7.33734,-2.86615c0,-1.58293 3.28505,-2.86614 7.33734,-2.86614c4.0523,0 7.33734,1.28322 7.33734,2.86614z"/><path d="M231.65044,64.17699c0.24923,1.88309 -3.77218,3.96863 -8.98208,4.65817c-5.2099,0.68954 -9.63539,-0.27802 -9.88463,-2.16111c-0.24923,-1.88309 3.77218,-3.96863 8.98208,-4.65818c5.2099,-0.68954 9.63539,0.27802 9.88463,2.16111z"/></g></g></g></svg>