<svg version="1.1" xmlns="http://www.w3.org/2000/svg" xmlns:xlink="http://www.w3.org/1999/xlink" width="152" height="152" viewBox="0,0,152,152"><defs><linearGradient x1="238.20365" y1="151.70044" x2="238.20365" y2="208.29956" gradientUnits="userSpaceOnUse" id="color-1"><stop offset="0" stop-color="#fffa44"/><stop offset="1" stop-color="#e2b500"/></linearGradient><linearGradient x1="223.75421" y1="156.9824" x2="257.02043" y2="203.01758" gradientUnits="userSpaceOnUse" id="color-2"><stop offset="0" stop-color="#fffa3e"/><stop offset="1" stop-color="#e6b800"/></linearGradient><linearGradient x1="226.13734" y1="158.03793" x2="255.67805" y2="201.96202" gradientUnits="userSpaceOnUse" id="color-3"><stop offset="0" stop-color="#ffe100"/><stop offset="1" stop-color="#ffe138"/></linearGradient><linearGradient x1="221.51914" y1="171.81064" x2="259.74714" y2="188.11254" gradientUnits="userSpaceOnUse" id="color-4"><stop offset="0" stop-color="#e7ad0e"/><stop offset="1" stop-color="#ffdd00"/></linearGradient><radialGradient cx="259.95156" cy="185.20759" r="19.80694" gradientUnits="userSpaceOnUse" id="color-5"><stop offset="0" stop-color="#fff949"/><stop offset="1" stop-color="#fff949" stop-opacity="0"/></radialGradient><linearGradient x1="240.69857" y1="161.17993" x2="240.69857" y2="198.82693" gradientUnits="userSpaceOnUse" id="color-6"><stop offset="0" stop-color="#fcd600"/><stop offset="1" stop-color="#ffda22"/></linearGradient></defs><g transform="translate(-164,-104)"><g data-paper-data="{&quot;isPaintingLayer&quot;:true}" fill-rule="nonzero" stroke="none" stroke-width="0" stroke-linecap="butt" stroke-linejoin="miter" stroke-miterlimit="10" stroke-dasharray="" stroke-dashoffset="0" style="mix-blend-mode: normal"><path d="M210.36553,179.99999c0,-15.6294 12.46355,-28.29955 27.83812,-28.29955c15.37458,0 27.83812,12.67015 27.83812,28.29956c0,15.6294 -12.46357,28.29956 -27.83811,28.29956c-15.37458,0 -27.83811,-12.67015 -27.83811,-28.29956z" fill="url(#color-1)"/><path d="M217.60948,196.80817c-9.18622,-12.71227 -6.43512,-30.54286 6.14472,-39.82577c12.57985,-9.28291 31.22475,-6.50286 40.41096,6.20941c9.1862,12.71227 6.43512,30.54288 -6.14474,39.82579c-12.57985,9.28291 -31.22472,6.50287 -40.41095,-6.20941z" data-paper-data="{&quot;origRot&quot;:0}" fill="url(#color-2)"/><path d="M218.78111,194.881c-8.15744,-12.1293 -4.86396,-28.62449 7.35625,-36.84306c12.22018,-8.21856 28.73951,-5.04827 36.89695,7.08102c8.15746,12.12931 4.86397,28.62451 -7.35623,36.84308c-12.22018,8.21856 -28.73951,5.04828 -36.89695,-7.08101z" fill="url(#color-3)"/><path d="M232.09246,199.05934c-10.55638,-4.50164 -15.29021,-16.7013 -10.57329,-27.2487c4.71689,-10.5474 17.09831,-15.44844 27.65467,-10.9468c10.55637,4.50164 15.29021,16.70129 10.57333,27.24869c-4.71688,10.54741 -17.09831,15.44845 -27.65468,10.94683z" data-paper-data="{&quot;origRot&quot;:0}" fill="url(#color-4)"/><path d="M232.80363,198.73313c-10.39327,-4.43208 6.4242,-42.03742 16.81746,-37.60534c10.39326,4.43208 15.05396,16.44323 10.40996,26.82766c-4.64401,10.38445 -16.83413,15.20976 -27.22739,10.77769z" data-paper-data="{&quot;origRot&quot;:0}" fill="url(#color-5)"/><path d="M221.83077,180.00343c0,-10.39593 8.4474,-18.82351 18.8678,-18.82351c10.42039,0 18.86778,8.42756 18.86778,18.82351c0,10.39594 -8.44739,18.82351 -18.86778,18.82351c-10.42039,0 -18.86779,-8.42756 -18.86779,-18.82351z" fill="url(#color-6)"/><path d="M164,256v-152h152v152z" data-paper-data="{&quot;origPos&quot;:null}" fill="none"/><g><path d="M246.59561,185.64304v-11.02668h2.74747v11.02668z" fill="#fec207"/><path d="M244.21176,185.51961v-11.19124h2.38382v11.19125z" fill="#d19e04"/><path d="M248.49458,174.86324l-1.89899,1.85149l-1.85857,-1.85148z" data-paper-data="{&quot;index&quot;:null}" fill="#ffcc0d"/><path d="M244.73701,185.47846l1.85857,-1.85148l1.89898,1.85149z" fill="#feff37"/><path d="M238.81041,172.01191v-3.12697h15.15142v3.12697z" fill="#feff37"/><path d="M238.81041,191.11275v-3.12697h15.15142v3.12697z" fill="#d19e04"/><path d="M239.00364,191.11003v-22.22201l2.18154,1.68691v18.70416z" fill="#fcc70b"/><path d="M229.74035,170.67227l-1.88581,-1.76984l11.15269,-0.01699l-1.97403,1.78683z" fill="#feff37"/><path d="M236.95702,189.20432l0.01821,-18.57232l2.03504,-1.748v22.20734z" fill="#d19e04"/><path d="M232.70486,189.23984l0.00846,-14.76076l-3.05227,0.00149v-3.87064h7.3204v18.6299z" fill="#fceb12"/><path d="M241.18718,189.26312v-18.68822h10.77v18.68822zM248.43607,185.46326l-0.05427,-10.60319l-3.61085,0.00171l-0.011,10.58427z" fill="#fceb12"/><path d="M227.8536,176.36364v-7.4526l1.89359,1.71982v3.81674l2.97105,0.00002l-0.00461,14.76122l-2.20461,1.90709l0.10751,-14.75304z" fill="#fcc70b"/><path d="M230.534,191.10761l2.21089,-1.93874h4.20684l2.0888,1.94298z" fill="#d19e04"/><path d="M251.94253,189.27909v-18.70417l2.01024,-1.68692v22.22201z" data-paper-data="{&quot;index&quot;:null}" fill="#d19e04"/></g></g></g></svg>