<svg version="1.1" xmlns="http://www.w3.org/2000/svg" xmlns:xlink="http://www.w3.org/1999/xlink" width="152" height="152" viewBox="0,0,152,152"><defs><radialGradient cx="246.32306" cy="165.40053" r="16.6402" gradientUnits="userSpaceOnUse" id="color-1"><stop offset="0" stop-color="#f4d815"/><stop offset="1" stop-color="#f1cc09"/></radialGradient><linearGradient x1="240" y1="163.3598" x2="240" y2="196.6402" gradientUnits="userSpaceOnUse" id="color-2"><stop offset="0" stop-color="#e1b219" stop-opacity="0"/><stop offset="1" stop-color="#e1b219"/></linearGradient><radialGradient cx="229.14807" cy="173.30797" r="15.29491" gradientUnits="userSpaceOnUse" id="color-3"><stop offset="0" stop-color="#fcc208"/><stop offset="1" stop-color="#f6d613"/></radialGradient><radialGradient cx="239.38833" cy="168.37977" r="12.12814" gradientUnits="userSpaceOnUse" id="color-4"><stop offset="0" stop-color="#d29505"/><stop offset="1" stop-color="#feda10"/></radialGradient><linearGradient x1="240.00012" y1="170.00795" x2="240.00012" y2="189.99401" gradientUnits="userSpaceOnUse" id="color-5"><stop offset="0" stop-color="#f5cb13"/><stop offset="1" stop-color="#fbca07"/></linearGradient><radialGradient cx="235.34491" cy="180.22265" r="7.51588" gradientUnits="userSpaceOnUse" id="color-6"><stop offset="0" stop-color="#fbfc77"/><stop offset="1" stop-color="#fbfc77" stop-opacity="0"/></radialGradient><linearGradient x1="240.07711" y1="180.12405" x2="241.79472" y2="180.12405" gradientUnits="userSpaceOnUse" id="color-7"><stop offset="0" stop-color="#f9db1f"/><stop offset="1" stop-color="#f8dc1b"/></linearGradient><linearGradient x1="238.41713" y1="180.1276" x2="240.09143" y2="180.1276" gradientUnits="userSpaceOnUse" id="color-8"><stop offset="0" stop-color="#f3c717"/><stop offset="1" stop-color="#efc913"/></linearGradient><linearGradient x1="240.07751" y1="173.39582" x2="240.07751" y2="178.04665" gradientUnits="userSpaceOnUse" id="color-9"><stop offset="0" stop-color="#d5a202"/><stop offset="1" stop-color="#d5a202" stop-opacity="0"/></linearGradient><linearGradient x1="237.93999" y1="173.4304" x2="237.93999" y2="186.82479" gradientUnits="userSpaceOnUse" id="color-10"><stop offset="0" stop-color="#f6cb12"/><stop offset="1" stop-color="#facb0c"/></linearGradient><radialGradient cx="244.06948" cy="183.52687" r="5.42597" gradientUnits="userSpaceOnUse" id="color-11"><stop offset="0" stop-color="#e2b902"/><stop offset="1" stop-color="#e2b902" stop-opacity="0"/></radialGradient></defs><g transform="translate(-164,-103)"><g data-paper-data="{&quot;isPaintingLayer&quot;:true}" fill-rule="nonzero" stroke="none" stroke-width="0" stroke-linecap="butt" stroke-linejoin="miter" stroke-miterlimit="10" stroke-dasharray="" stroke-dashoffset="0" style="mix-blend-mode: normal"><path d="M164,255v-152h152v152z" data-paper-data="{&quot;origPos&quot;:null}" fill="none"/><g><path d="M254.76525,180c0,9.19013 -6.61062,16.64021 -14.76525,16.64021c-8.15463,0 -14.76525,-7.45007 -14.76525,-16.6402c0,-9.19013 6.61062,-16.6402 14.76525,-16.6402c8.15463,0 14.76525,7.45007 14.76525,16.64021z" fill="url(#color-1)"/><path d="M254.76525,180c0,9.19013 -6.61062,16.64021 -14.76525,16.64021c-8.15463,0 -14.76525,-7.45007 -14.76525,-16.6402c0,-9.19013 6.61062,-16.6402 14.76525,-16.6402c8.15463,0 14.76525,7.45007 14.76525,16.64021z" fill="url(#color-2)"/><path d="M253.57154,180c0,8.44715 -6.07618,15.29491 -13.57154,15.29491c-7.49535,0 -13.57154,-6.84776 -13.57154,-15.29491c0,-8.44715 6.07618,-15.29491 13.57154,-15.29491c7.49536,0 13.57154,6.84776 13.57154,15.29491z" fill="url(#color-3)"/><path d="M250.77959,180c0,6.69819 -4.81812,12.12814 -10.76159,12.12814c-5.94346,0 -10.76159,-5.42995 -10.76159,-12.12814c0,-6.69819 4.81812,-12.12814 10.76159,-12.12814c5.94346,0 10.76159,5.42995 10.76159,12.12814z" fill="url(#color-4)"/><g><g><path d="M248.86717,180.00098c0,5.519 -3.96991,9.99303 -8.86705,9.99303c-4.89713,0 -8.86705,-4.47403 -8.86705,-9.99303c0,-5.519 3.96992,-9.99303 8.86705,-9.99303c4.89714,0 8.86705,4.47403 8.86705,9.99303z" fill="url(#color-5)"/><path d="M227.82903,180.22265c0,-6.43157 3.36497,-11.6454 7.51588,-11.6454c4.15091,0 7.51588,5.21382 7.51588,11.6454c0,6.43158 -3.36498,11.6454 -7.51588,11.6454c-4.15091,0 -7.51588,-5.21382 -7.51588,-11.6454z" fill="url(#color-6)"/></g><path d="M240.07711,186.9945v-13.74091h1.71761v13.74091z" fill="url(#color-7)"/></g><path d="M238.41713,186.82479v-13.39439h1.6743v13.39439z" fill="url(#color-8)"/><path d="M238.40322,178.04665v-4.65083h3.3486v4.65083z" fill="url(#color-9)"/><path d="M237.47088,186.82479v-13.39439h0.93821v13.39439z" fill="url(#color-10)"/><path d="M238.64351,183.52687c0,-2.99668 2.42929,-5.42597 5.42597,-5.42597c2.99668,0 5.42597,2.42929 5.42597,5.42597c0,2.99668 -2.42929,5.42597 -5.42597,5.42597c-2.99668,0 -5.42597,-2.42929 -5.42597,-5.42597z" fill="url(#color-11)"/></g></g></g></svg>