<svg version="1.1" xmlns="http://www.w3.org/2000/svg" xmlns:xlink="http://www.w3.org/1999/xlink" width="152" height="152" viewBox="0,0,152,152"><defs><radialGradient cx="231.08573" cy="169.33333" r="28.61366" gradientUnits="userSpaceOnUse" id="color-1"><stop offset="0" stop-color="#fff227"/><stop offset="1" stop-color="#d29608"/></radialGradient><radialGradient cx="235.08573" cy="177.66667" r="28.50329" gradientUnits="userSpaceOnUse" id="color-2"><stop offset="0" stop-color="#ffee12"/><stop offset="1" stop-color="#c39009"/></radialGradient><linearGradient x1="236.38949" y1="180.0064" x2="252.95094" y2="180.0064" gradientUnits="userSpaceOnUse" id="color-3"><stop offset="0" stop-color="#b1780b"/><stop offset="1" stop-color="#b07705"/></linearGradient><linearGradient x1="239.82576" y1="179.968" x2="250.71145" y2="179.968" gradientUnits="userSpaceOnUse" id="color-4"><stop offset="0" stop-color="#ba8718"/><stop offset="1" stop-color="#d3a006"/></linearGradient><radialGradient cx="250.75459" cy="181" r="20.65547" gradientUnits="userSpaceOnUse" id="color-5"><stop offset="0" stop-color="#fbe20f"/><stop offset="1" stop-color="#fbe20f" stop-opacity="0"/></radialGradient><linearGradient x1="244.38221" y1="161.18633" x2="244.38221" y2="198.83335" gradientUnits="userSpaceOnUse" id="color-6"><stop offset="0" stop-color="#9e6805"/><stop offset="1" stop-color="#94640c"/></linearGradient></defs><g transform="translate(-164,-104)"><g data-paper-data="{&quot;isPaintingLayer&quot;:true}" fill-rule="nonzero" stroke="none" stroke-width="0" stroke-linecap="butt" stroke-linejoin="miter" stroke-miterlimit="10" stroke-dasharray="" stroke-dashoffset="0" style="mix-blend-mode: normal"><path d="M164,256v-152h152v152z" data-paper-data="{&quot;origPos&quot;:null}" fill="none"/><g><path d="M238.3961,208.57555v-2h5.87734v2z" fill="#d29608"/><path d="M238.39404,152.94391v-1.5h5.50202v1.5z" fill="#e0b312"/></g><path d="M239.59705,151.38634c7.05061,0 12.76624,12.81078 12.76624,28.61366c0,15.80287 -5.71565,28.61366 -12.76623,28.61366c-7.05061,0 -12.76623,-10.68578 -12.76623,-28.61366c0,-18.67788 5.71562,-28.61366 12.76622,-28.61366z" fill="url(#color-1)"/><path d="M236.65162,196.8915c-2.97609,-12.71227 -2.08482,-30.54286 1.99071,-39.82577c4.07554,-9.28291 9.79205,-6.50286 12.76813,6.20941c2.97608,12.71227 2.08482,30.54288 -1.99072,39.82579c-4.07554,9.28291 -9.79202,6.50287 -12.76811,-6.20941z" data-paper-data="{&quot;origRot&quot;:0}" fill="url(#color-2)"/><path d="M237.78374,194.88741c-2.53884,-12.1293 -1.51382,-28.62449 2.28949,-36.84306c2.20592,-4.76677 4.86194,-5.70232 7.19923,-3.28075c1.69253,1.75355 3.21792,5.26748 4.28423,10.36177c2.53885,12.12931 1.51382,28.62451 -2.28947,36.84308c-3.8033,8.21856 -8.94462,5.04828 -11.48347,-7.08101z" fill="url(#color-3)"/><g><path d="M243.04872,199.06388c-2.74379,-4.5012 -3.97422,-16.69966 -2.7482,-27.24603c1.22601,-10.54636 4.44418,-15.44692 7.18797,-10.94573c2.74379,4.5012 3.97422,16.69965 2.74821,27.24602c-1.22601,10.54637 -4.44417,15.44693 -7.18797,10.94576z" data-paper-data="{&quot;origRot&quot;:0}" fill="url(#color-4)"/><path d="M243.25758,198.51626c-2.66955,-4.37937 1.65008,-41.53741 4.31961,-37.15804c2.66955,4.37937 3.86666,16.24764 2.67383,26.50856c-1.19282,10.26093 -4.3239,15.02884 -6.99342,10.64949z" data-paper-data="{&quot;origRot&quot;:0}" fill="url(#color-5)"/></g><path d="M239.52008,180.00984c0,-10.39593 2.17685,-18.82351 4.86213,-18.82351c2.68528,0 4.86212,8.42756 4.86212,18.82351c0,10.39594 -2.17684,18.82351 -4.86212,18.82351c-2.68528,0 -4.86213,-8.42756 -4.86213,-18.82351z" fill="url(#color-6)"/><g><path d="M245.8885,185.64946v-11.02666h0.49628v11.02666z" fill="#fec207"/><path d="M246.39681,174.67829l-0.55514,1.82061l0.01014,-1.8206z" data-paper-data="{&quot;index&quot;:null}" fill="#ffcc0d"/><path d="M245.83904,185.48488l0.0029,-1.85148l0.56928,1.82061z" fill="#feff37"/><path d="M244.72241,172.01835v-3.12696h1.59582l0.4159,1.66634z" fill="#fdf94f"/><path d="M244.72241,191.05537l1.41629,-1.8255l0.59459,0.00806l-0.22462,1.81745z" fill="#ab790c"/><path d="M244.86549,191.03988l-0.03828,-22.14541l1.26418,1.6976v18.64238z" fill="#ebbe13"/><path d="M244.36101,170.63087l-1.96085,-1.72199l2.35102,-0.01699l1.07202,1.6991z" fill="#fdf94f"/><path d="M242.36253,176.37008v-7.45259l3.0168,1.72802l-0.00795,3.78939l0.19832,0.00959l-0.0089,14.79947l-2.80993,1.87838l0.01573,-14.75301z" fill="#ebbe13"/><path d="M242.78953,191.04567l2.80669,-1.87493h0.2491l-1.08927,1.87918z" fill="#ab790c"/></g><g fill="#dc9807"><path d="M245.56835,189.17334l0.00052,-14.76073l-0.18522,0.00149v-3.87063h0.4442v18.62987z"/><path d="M246.08307,189.19662v-18.68818h0.65352v18.68818zM246.52293,185.39677l-0.00329,-10.60316l-0.2191,0.00171l-0.00067,10.58425z"/></g></g></g></svg>