<svg version="1.1" xmlns="http://www.w3.org/2000/svg" xmlns:xlink="http://www.w3.org/1999/xlink" width="613" height="460.30081" viewBox="0,0,613,460.30081"><defs><linearGradient x1="481.00002" y1="367.00015" x2="163" y2="112.77481" gradientUnits="userSpaceOnUse" id="color-1"><stop offset="0" stop-color="#009ad1"/><stop offset="1" stop-color="#0086c7"/></linearGradient><linearGradient x1="-2.99998" y1="360.50015" x2="127" y2="230.5001" gradientUnits="userSpaceOnUse" id="color-2"><stop offset="0" stop-color="#54c7ff"/><stop offset="1" stop-color="#54c7ff" stop-opacity="0"/></linearGradient><radialGradient cx="441.59863" cy="158.88799" r="59.5" gradientUnits="userSpaceOnUse" id="color-3"><stop offset="0" stop-color="#c2e7f7"/><stop offset="1" stop-color="#c2e7f7" stop-opacity="0"/></radialGradient><radialGradient cx="66.59861" cy="186.88802" r="59.5" gradientUnits="userSpaceOnUse" id="color-4"><stop offset="0" stop-color="#c2e7f7"/><stop offset="1" stop-color="#c2e7f7" stop-opacity="0"/></radialGradient><radialGradient cx="24.59863" cy="180.88801" r="59.5" gradientUnits="userSpaceOnUse" id="color-5"><stop offset="0" stop-color="#c2e7f7"/><stop offset="1" stop-color="#c2e7f7" stop-opacity="0"/></radialGradient><radialGradient cx="392.59863" cy="178.88801" r="59.5" gradientUnits="userSpaceOnUse" id="color-6"><stop offset="0" stop-color="#c2e7f7"/><stop offset="1" stop-color="#c2e7f7" stop-opacity="0"/></radialGradient><radialGradient cx="346.59865" cy="197.88802" r="59.5" gradientUnits="userSpaceOnUse" id="color-7"><stop offset="0" stop-color="#c2e7f7"/><stop offset="1" stop-color="#c2e7f7" stop-opacity="0"/></radialGradient><radialGradient cx="309.59864" cy="179.88801" r="59.5" gradientUnits="userSpaceOnUse" id="color-8"><stop offset="0" stop-color="#c2e7f7"/><stop offset="1" stop-color="#c2e7f7" stop-opacity="0"/></radialGradient><radialGradient cx="224.59863" cy="200.88802" r="59.5" gradientUnits="userSpaceOnUse" id="color-9"><stop offset="0" stop-color="#c2e7f7"/><stop offset="1" stop-color="#c2e7f7" stop-opacity="0"/></radialGradient><radialGradient cx="189.59864" cy="191.88802" r="59.5" gradientUnits="userSpaceOnUse" id="color-10"><stop offset="0" stop-color="#c2e7f7"/><stop offset="1" stop-color="#c2e7f7" stop-opacity="0"/></radialGradient><radialGradient cx="317.59864" cy="217.88802" r="59.5" gradientUnits="userSpaceOnUse" id="color-11"><stop offset="0" stop-color="#c2e7f7"/><stop offset="1" stop-color="#c2e7f7" stop-opacity="0"/></radialGradient><radialGradient cx="267.59863" cy="234.88798" r="59.5" gradientUnits="userSpaceOnUse" id="color-12"><stop offset="0" stop-color="#c2e7f7"/><stop offset="1" stop-color="#c2e7f7" stop-opacity="0"/></radialGradient><radialGradient cx="212.59863" cy="226.888" r="59.5" gradientUnits="userSpaceOnUse" id="color-13"><stop offset="0" stop-color="#c2e7f7"/><stop offset="1" stop-color="#c2e7f7" stop-opacity="0"/></radialGradient><radialGradient cx="272.59863" cy="256.88796" r="59.5" gradientUnits="userSpaceOnUse" id="color-14"><stop offset="0" stop-color="#c2e7f7"/><stop offset="1" stop-color="#c2e7f7" stop-opacity="0"/></radialGradient><radialGradient cx="295.59864" cy="299.88796" r="59.5" gradientUnits="userSpaceOnUse" id="color-15"><stop offset="0" stop-color="#c2e7f7"/><stop offset="1" stop-color="#c2e7f7" stop-opacity="0"/></radialGradient><radialGradient cx="70.59861" cy="212.88802" r="59.5" gradientUnits="userSpaceOnUse" id="color-16"><stop offset="0" stop-color="#c2e7f7"/><stop offset="1" stop-color="#c2e7f7" stop-opacity="0"/></radialGradient><radialGradient cx="98.59864" cy="241.88798" r="59.5" gradientUnits="userSpaceOnUse" id="color-17"><stop offset="0" stop-color="#c2e7f7"/><stop offset="1" stop-color="#c2e7f7" stop-opacity="0"/></radialGradient><radialGradient cx="111.59864" cy="253.88796" r="59.5" gradientUnits="userSpaceOnUse" id="color-18"><stop offset="0" stop-color="#c2e7f7"/><stop offset="1" stop-color="#c2e7f7" stop-opacity="0"/></radialGradient><radialGradient cx="156.59864" cy="168.88801" r="59.5" gradientUnits="userSpaceOnUse" id="color-19"><stop offset="0" stop-color="#c2e7f7"/><stop offset="1" stop-color="#c2e7f7" stop-opacity="0"/></radialGradient><radialGradient cx="24.59863" cy="183.88801" r="59.5" gradientUnits="userSpaceOnUse" id="color-20"><stop offset="0" stop-color="#c2e7f7"/><stop offset="1" stop-color="#c2e7f7" stop-opacity="0"/></radialGradient><radialGradient cx="396.59863" cy="164.88799" r="59.5" gradientUnits="userSpaceOnUse" id="color-21"><stop offset="0" stop-color="#c2e7f7"/><stop offset="1" stop-color="#c2e7f7" stop-opacity="0"/></radialGradient><radialGradient cx="342.59865" cy="191.88802" r="59.5" gradientUnits="userSpaceOnUse" id="color-22"><stop offset="0" stop-color="#c2e7f7"/><stop offset="1" stop-color="#c2e7f7" stop-opacity="0"/></radialGradient><radialGradient cx="69.59861" cy="177.88801" r="59.5" gradientUnits="userSpaceOnUse" id="color-23"><stop offset="0" stop-color="#c2e7f7"/><stop offset="1" stop-color="#c2e7f7" stop-opacity="0"/></radialGradient><radialGradient cx="60.59861" cy="190.88802" r="59.5" gradientUnits="userSpaceOnUse" id="color-24"><stop offset="0" stop-color="#c2e7f7"/><stop offset="1" stop-color="#c2e7f7" stop-opacity="0"/></radialGradient><radialGradient cx="18.59861" cy="184.88801" r="59.5" gradientUnits="userSpaceOnUse" id="color-25"><stop offset="0" stop-color="#c2e7f7"/><stop offset="1" stop-color="#c2e7f7" stop-opacity="0"/></radialGradient><radialGradient cx="386.59863" cy="182.88801" r="59.5" gradientUnits="userSpaceOnUse" id="color-26"><stop offset="0" stop-color="#c2e7f7"/><stop offset="1" stop-color="#c2e7f7" stop-opacity="0"/></radialGradient><radialGradient cx="340.59865" cy="201.88802" r="59.5" gradientUnits="userSpaceOnUse" id="color-27"><stop offset="0" stop-color="#c2e7f7"/><stop offset="1" stop-color="#c2e7f7" stop-opacity="0"/></radialGradient><radialGradient cx="303.59864" cy="183.88801" r="59.5" gradientUnits="userSpaceOnUse" id="color-28"><stop offset="0" stop-color="#c2e7f7"/><stop offset="1" stop-color="#c2e7f7" stop-opacity="0"/></radialGradient><radialGradient cx="218.59862" cy="204.88802" r="59.5" gradientUnits="userSpaceOnUse" id="color-29"><stop offset="0" stop-color="#c2e7f7"/><stop offset="1" stop-color="#c2e7f7" stop-opacity="0"/></radialGradient><radialGradient cx="183.59862" cy="195.88802" r="59.5" gradientUnits="userSpaceOnUse" id="color-30"><stop offset="0" stop-color="#c2e7f7"/><stop offset="1" stop-color="#c2e7f7" stop-opacity="0"/></radialGradient><radialGradient cx="311.59864" cy="221.88802" r="59.5" gradientUnits="userSpaceOnUse" id="color-31"><stop offset="0" stop-color="#c2e7f7"/><stop offset="1" stop-color="#c2e7f7" stop-opacity="0"/></radialGradient><radialGradient cx="261.59862" cy="238.88798" r="59.5" gradientUnits="userSpaceOnUse" id="color-32"><stop offset="0" stop-color="#c2e7f7"/><stop offset="1" stop-color="#c2e7f7" stop-opacity="0"/></radialGradient><radialGradient cx="206.59862" cy="230.88798" r="59.5" gradientUnits="userSpaceOnUse" id="color-33"><stop offset="0" stop-color="#c2e7f7"/><stop offset="1" stop-color="#c2e7f7" stop-opacity="0"/></radialGradient><radialGradient cx="266.59862" cy="260.88796" r="59.5" gradientUnits="userSpaceOnUse" id="color-34"><stop offset="0" stop-color="#c2e7f7"/><stop offset="1" stop-color="#c2e7f7" stop-opacity="0"/></radialGradient><radialGradient cx="64.59861" cy="216.88802" r="59.5" gradientUnits="userSpaceOnUse" id="color-35"><stop offset="0" stop-color="#c2e7f7"/><stop offset="1" stop-color="#c2e7f7" stop-opacity="0"/></radialGradient><radialGradient cx="92.59861" cy="245.88798" r="59.5" gradientUnits="userSpaceOnUse" id="color-36"><stop offset="0" stop-color="#c2e7f7"/><stop offset="1" stop-color="#c2e7f7" stop-opacity="0"/></radialGradient><radialGradient cx="105.59861" cy="257.88796" r="59.5" gradientUnits="userSpaceOnUse" id="color-37"><stop offset="0" stop-color="#c2e7f7"/><stop offset="1" stop-color="#c2e7f7" stop-opacity="0"/></radialGradient><radialGradient cx="150.59859" cy="172.88801" r="59.5" gradientUnits="userSpaceOnUse" id="color-38"><stop offset="0" stop-color="#c2e7f7"/><stop offset="1" stop-color="#c2e7f7" stop-opacity="0"/></radialGradient><radialGradient cx="390.59863" cy="168.88801" r="59.5" gradientUnits="userSpaceOnUse" id="color-39"><stop offset="0" stop-color="#c2e7f7"/><stop offset="1" stop-color="#c2e7f7" stop-opacity="0"/></radialGradient><radialGradient cx="336.59865" cy="195.88802" r="59.5" gradientUnits="userSpaceOnUse" id="color-40"><stop offset="0" stop-color="#c2e7f7"/><stop offset="1" stop-color="#c2e7f7" stop-opacity="0"/></radialGradient><radialGradient cx="55.59861" cy="181.88801" r="59.5" gradientUnits="userSpaceOnUse" id="color-41"><stop offset="0" stop-color="#c2e7f7"/><stop offset="1" stop-color="#c2e7f7" stop-opacity="0"/></radialGradient><radialGradient cx="224" cy="144.49992" r="63.5" gradientUnits="userSpaceOnUse" id="color-42"><stop offset="0" stop-color="#c2e7f7"/><stop offset="1" stop-color="#c2e7f7" stop-opacity="0"/></radialGradient><radialGradient cx="247" cy="156.49992" r="63.5" gradientUnits="userSpaceOnUse" id="color-43"><stop offset="0" stop-color="#c2e7f7"/><stop offset="1" stop-color="#c2e7f7" stop-opacity="0"/></radialGradient><radialGradient cx="292" cy="146.49992" r="63.5" gradientUnits="userSpaceOnUse" id="color-44"><stop offset="0" stop-color="#c2e7f7"/><stop offset="1" stop-color="#c2e7f7" stop-opacity="0"/></radialGradient><radialGradient cx="259" cy="125.49992" r="63.5" gradientUnits="userSpaceOnUse" id="color-45"><stop offset="0" stop-color="#c2e7f7"/><stop offset="1" stop-color="#c2e7f7" stop-opacity="0"/></radialGradient><radialGradient cx="217" cy="138.49992" r="63.5" gradientUnits="userSpaceOnUse" id="color-46"><stop offset="0" stop-color="#c2e7f7"/><stop offset="1" stop-color="#c2e7f7" stop-opacity="0"/></radialGradient><radialGradient cx="240" cy="150.49992" r="63.5" gradientUnits="userSpaceOnUse" id="color-47"><stop offset="0" stop-color="#c2e7f7"/><stop offset="1" stop-color="#c2e7f7" stop-opacity="0"/></radialGradient><radialGradient cx="285" cy="140.49992" r="63.5" gradientUnits="userSpaceOnUse" id="color-48"><stop offset="0" stop-color="#c2e7f7"/><stop offset="1" stop-color="#c2e7f7" stop-opacity="0"/></radialGradient><radialGradient cx="252" cy="119.49994" r="63.5" gradientUnits="userSpaceOnUse" id="color-49"><stop offset="0" stop-color="#c2e7f7"/><stop offset="1" stop-color="#c2e7f7" stop-opacity="0"/></radialGradient><radialGradient cx="10" cy="268.49994" r="63.5" gradientUnits="userSpaceOnUse" id="color-50"><stop offset="0" stop-color="#c2e7f7"/><stop offset="1" stop-color="#c2e7f7" stop-opacity="0"/></radialGradient><radialGradient cx="33" cy="280.49994" r="63.5" gradientUnits="userSpaceOnUse" id="color-51"><stop offset="0" stop-color="#c2e7f7"/><stop offset="1" stop-color="#c2e7f7" stop-opacity="0"/></radialGradient><radialGradient cx="78" cy="270.49994" r="63.5" gradientUnits="userSpaceOnUse" id="color-52"><stop offset="0" stop-color="#c2e7f7"/><stop offset="1" stop-color="#c2e7f7" stop-opacity="0"/></radialGradient><radialGradient cx="45" cy="249.49994" r="63.5" gradientUnits="userSpaceOnUse" id="color-53"><stop offset="0" stop-color="#c2e7f7"/><stop offset="1" stop-color="#c2e7f7" stop-opacity="0"/></radialGradient><radialGradient cx="14" cy="337.49994" r="63.5" gradientUnits="userSpaceOnUse" id="color-54"><stop offset="0" stop-color="#c2e7f7"/><stop offset="1" stop-color="#c2e7f7" stop-opacity="0"/></radialGradient><radialGradient cx="37" cy="349.49994" r="63.5" gradientUnits="userSpaceOnUse" id="color-55"><stop offset="0" stop-color="#c2e7f7"/><stop offset="1" stop-color="#c2e7f7" stop-opacity="0"/></radialGradient><radialGradient cx="82" cy="339.49994" r="63.5" gradientUnits="userSpaceOnUse" id="color-56"><stop offset="0" stop-color="#c2e7f7"/><stop offset="1" stop-color="#c2e7f7" stop-opacity="0"/></radialGradient><radialGradient cx="49" cy="318.49994" r="63.5" gradientUnits="userSpaceOnUse" id="color-57"><stop offset="0" stop-color="#c2e7f7"/><stop offset="1" stop-color="#c2e7f7" stop-opacity="0"/></radialGradient><radialGradient cx="143" cy="310.49994" r="63.5" gradientUnits="userSpaceOnUse" id="color-58"><stop offset="0" stop-color="#c2e7f7"/><stop offset="1" stop-color="#c2e7f7" stop-opacity="0"/></radialGradient><radialGradient cx="166" cy="322.49994" r="63.5" gradientUnits="userSpaceOnUse" id="color-59"><stop offset="0" stop-color="#c2e7f7"/><stop offset="1" stop-color="#c2e7f7" stop-opacity="0"/></radialGradient><radialGradient cx="211" cy="312.49994" r="63.5" gradientUnits="userSpaceOnUse" id="color-60"><stop offset="0" stop-color="#c2e7f7"/><stop offset="1" stop-color="#c2e7f7" stop-opacity="0"/></radialGradient><radialGradient cx="178" cy="291.49994" r="63.5" gradientUnits="userSpaceOnUse" id="color-61"><stop offset="0" stop-color="#c2e7f7"/><stop offset="1" stop-color="#c2e7f7" stop-opacity="0"/></radialGradient><radialGradient cx="123" cy="329.49994" r="63.5" gradientUnits="userSpaceOnUse" id="color-62"><stop offset="0" stop-color="#c2e7f7"/><stop offset="1" stop-color="#c2e7f7" stop-opacity="0"/></radialGradient><radialGradient cx="146" cy="341.49994" r="63.5" gradientUnits="userSpaceOnUse" id="color-63"><stop offset="0" stop-color="#c2e7f7"/><stop offset="1" stop-color="#c2e7f7" stop-opacity="0"/></radialGradient><radialGradient cx="191" cy="331.49994" r="63.5" gradientUnits="userSpaceOnUse" id="color-64"><stop offset="0" stop-color="#c2e7f7"/><stop offset="1" stop-color="#c2e7f7" stop-opacity="0"/></radialGradient><radialGradient cx="158" cy="310.49994" r="63.5" gradientUnits="userSpaceOnUse" id="color-65"><stop offset="0" stop-color="#c2e7f7"/><stop offset="1" stop-color="#c2e7f7" stop-opacity="0"/></radialGradient><radialGradient cx="126" cy="236.49994" r="63.5" gradientUnits="userSpaceOnUse" id="color-66"><stop offset="0" stop-color="#c2e7f7"/><stop offset="1" stop-color="#c2e7f7" stop-opacity="0"/></radialGradient><radialGradient cx="149" cy="248.49994" r="63.5" gradientUnits="userSpaceOnUse" id="color-67"><stop offset="0" stop-color="#c2e7f7"/><stop offset="1" stop-color="#c2e7f7" stop-opacity="0"/></radialGradient><radialGradient cx="194" cy="238.49994" r="63.5" gradientUnits="userSpaceOnUse" id="color-68"><stop offset="0" stop-color="#c2e7f7"/><stop offset="1" stop-color="#c2e7f7" stop-opacity="0"/></radialGradient><radialGradient cx="161" cy="217.49994" r="63.5" gradientUnits="userSpaceOnUse" id="color-69"><stop offset="0" stop-color="#c2e7f7"/><stop offset="1" stop-color="#c2e7f7" stop-opacity="0"/></radialGradient><radialGradient cx="240" cy="331.49994" r="63.5" gradientUnits="userSpaceOnUse" id="color-70"><stop offset="0" stop-color="#c2e7f7"/><stop offset="1" stop-color="#c2e7f7" stop-opacity="0"/></radialGradient><radialGradient cx="263" cy="343.49994" r="63.5" gradientUnits="userSpaceOnUse" id="color-71"><stop offset="0" stop-color="#c2e7f7"/><stop offset="1" stop-color="#c2e7f7" stop-opacity="0"/></radialGradient><radialGradient cx="308" cy="333.49994" r="63.5" gradientUnits="userSpaceOnUse" id="color-72"><stop offset="0" stop-color="#c2e7f7"/><stop offset="1" stop-color="#c2e7f7" stop-opacity="0"/></radialGradient><radialGradient cx="275" cy="312.49994" r="63.5" gradientUnits="userSpaceOnUse" id="color-73"><stop offset="0" stop-color="#c2e7f7"/><stop offset="1" stop-color="#c2e7f7" stop-opacity="0"/></radialGradient><radialGradient cx="337" cy="291.49994" r="63.5" gradientUnits="userSpaceOnUse" id="color-74"><stop offset="0" stop-color="#c2e7f7"/><stop offset="1" stop-color="#c2e7f7" stop-opacity="0"/></radialGradient><radialGradient cx="360" cy="303.49994" r="63.5" gradientUnits="userSpaceOnUse" id="color-75"><stop offset="0" stop-color="#c2e7f7"/><stop offset="1" stop-color="#c2e7f7" stop-opacity="0"/></radialGradient><radialGradient cx="405" cy="293.49994" r="63.5" gradientUnits="userSpaceOnUse" id="color-76"><stop offset="0" stop-color="#c2e7f7"/><stop offset="1" stop-color="#c2e7f7" stop-opacity="0"/></radialGradient><radialGradient cx="372" cy="272.49994" r="63.5" gradientUnits="userSpaceOnUse" id="color-77"><stop offset="0" stop-color="#c2e7f7"/><stop offset="1" stop-color="#c2e7f7" stop-opacity="0"/></radialGradient><radialGradient cx="398" cy="249.49994" r="63.5" gradientUnits="userSpaceOnUse" id="color-78"><stop offset="0" stop-color="#c2e7f7"/><stop offset="1" stop-color="#c2e7f7" stop-opacity="0"/></radialGradient><radialGradient cx="421" cy="261.49994" r="63.5" gradientUnits="userSpaceOnUse" id="color-79"><stop offset="0" stop-color="#c2e7f7"/><stop offset="1" stop-color="#c2e7f7" stop-opacity="0"/></radialGradient><radialGradient cx="466" cy="251.49994" r="63.5" gradientUnits="userSpaceOnUse" id="color-80"><stop offset="0" stop-color="#c2e7f7"/><stop offset="1" stop-color="#c2e7f7" stop-opacity="0"/></radialGradient><radialGradient cx="433" cy="230.49994" r="63.5" gradientUnits="userSpaceOnUse" id="color-81"><stop offset="0" stop-color="#c2e7f7"/><stop offset="1" stop-color="#c2e7f7" stop-opacity="0"/></radialGradient><radialGradient cx="343" cy="340.49994" r="63.5" gradientUnits="userSpaceOnUse" id="color-82"><stop offset="0" stop-color="#c2e7f7"/><stop offset="1" stop-color="#c2e7f7" stop-opacity="0"/></radialGradient><radialGradient cx="366" cy="352.49994" r="63.5" gradientUnits="userSpaceOnUse" id="color-83"><stop offset="0" stop-color="#c2e7f7"/><stop offset="1" stop-color="#c2e7f7" stop-opacity="0"/></radialGradient><radialGradient cx="411" cy="342.49994" r="63.5" gradientUnits="userSpaceOnUse" id="color-84"><stop offset="0" stop-color="#c2e7f7"/><stop offset="1" stop-color="#c2e7f7" stop-opacity="0"/></radialGradient><radialGradient cx="378" cy="321.49994" r="63.5" gradientUnits="userSpaceOnUse" id="color-85"><stop offset="0" stop-color="#c2e7f7"/><stop offset="1" stop-color="#c2e7f7" stop-opacity="0"/></radialGradient><radialGradient cx="428" cy="342.49994" r="63.5" gradientUnits="userSpaceOnUse" id="color-86"><stop offset="0" stop-color="#c2e7f7"/><stop offset="1" stop-color="#c2e7f7" stop-opacity="0"/></radialGradient><radialGradient cx="451" cy="354.49994" r="63.5" gradientUnits="userSpaceOnUse" id="color-87"><stop offset="0" stop-color="#c2e7f7"/><stop offset="1" stop-color="#c2e7f7" stop-opacity="0"/></radialGradient><radialGradient cx="496" cy="344.49994" r="63.5" gradientUnits="userSpaceOnUse" id="color-88"><stop offset="0" stop-color="#c2e7f7"/><stop offset="1" stop-color="#c2e7f7" stop-opacity="0"/></radialGradient><radialGradient cx="463" cy="323.49994" r="63.5" gradientUnits="userSpaceOnUse" id="color-89"><stop offset="0" stop-color="#c2e7f7"/><stop offset="1" stop-color="#c2e7f7" stop-opacity="0"/></radialGradient><radialGradient cx="12.70076" cy="61" r="59.5" gradientUnits="userSpaceOnUse" id="color-90"><stop offset="0" stop-color="#c2e7f7"/><stop offset="1" stop-color="#c2e7f7" stop-opacity="0"/></radialGradient><radialGradient cx="387.70074" cy="89.00001" r="59.5" gradientUnits="userSpaceOnUse" id="color-91"><stop offset="0" stop-color="#c2e7f7"/><stop offset="1" stop-color="#c2e7f7" stop-opacity="0"/></radialGradient><radialGradient cx="429.70074" cy="83" r="59.5" gradientUnits="userSpaceOnUse" id="color-92"><stop offset="0" stop-color="#c2e7f7"/><stop offset="1" stop-color="#c2e7f7" stop-opacity="0"/></radialGradient><radialGradient cx="61.70075" cy="81" r="59.5" gradientUnits="userSpaceOnUse" id="color-93"><stop offset="0" stop-color="#c2e7f7"/><stop offset="1" stop-color="#c2e7f7" stop-opacity="0"/></radialGradient><radialGradient cx="107.70073" cy="100.00001" r="59.5" gradientUnits="userSpaceOnUse" id="color-94"><stop offset="0" stop-color="#c2e7f7"/><stop offset="1" stop-color="#c2e7f7" stop-opacity="0"/></radialGradient><radialGradient cx="144.70072" cy="82" r="59.5" gradientUnits="userSpaceOnUse" id="color-95"><stop offset="0" stop-color="#c2e7f7"/><stop offset="1" stop-color="#c2e7f7" stop-opacity="0"/></radialGradient><radialGradient cx="229.70076" cy="103.00001" r="59.5" gradientUnits="userSpaceOnUse" id="color-96"><stop offset="0" stop-color="#c2e7f7"/><stop offset="1" stop-color="#c2e7f7" stop-opacity="0"/></radialGradient><radialGradient cx="264.70074" cy="94.00001" r="59.5" gradientUnits="userSpaceOnUse" id="color-97"><stop offset="0" stop-color="#c2e7f7"/><stop offset="1" stop-color="#c2e7f7" stop-opacity="0"/></radialGradient><radialGradient cx="21.70075" cy="381.00001" r="59.5" gradientUnits="userSpaceOnUse" id="color-98"><stop offset="0" stop-color="#a8e0f8"/><stop offset="1" stop-color="#a8e0f8" stop-opacity="0"/></radialGradient><radialGradient cx="136.70072" cy="120.00001" r="59.5" gradientUnits="userSpaceOnUse" id="color-99"><stop offset="0" stop-color="#c2e7f7"/><stop offset="1" stop-color="#c2e7f7" stop-opacity="0"/></radialGradient><radialGradient cx="186.70076" cy="136.99997" r="59.5" gradientUnits="userSpaceOnUse" id="color-100"><stop offset="0" stop-color="#c2e7f7"/><stop offset="1" stop-color="#c2e7f7" stop-opacity="0"/></radialGradient><radialGradient cx="241.70076" cy="128.99999" r="59.5" gradientUnits="userSpaceOnUse" id="color-101"><stop offset="0" stop-color="#c2e7f7"/><stop offset="1" stop-color="#c2e7f7" stop-opacity="0"/></radialGradient><radialGradient cx="181.70076" cy="158.99997" r="59.5" gradientUnits="userSpaceOnUse" id="color-102"><stop offset="0" stop-color="#c2e7f7"/><stop offset="1" stop-color="#c2e7f7" stop-opacity="0"/></radialGradient><radialGradient cx="158.70072" cy="202.00001" r="59.5" gradientUnits="userSpaceOnUse" id="color-103"><stop offset="0" stop-color="#c2e7f7"/><stop offset="1" stop-color="#c2e7f7" stop-opacity="0"/></radialGradient><radialGradient cx="123.70073" cy="239" r="59.5" gradientUnits="userSpaceOnUse" id="color-104"><stop offset="0" stop-color="#c2e7f7"/><stop offset="1" stop-color="#c2e7f7" stop-opacity="0"/></radialGradient><radialGradient cx="91.70073" cy="262.99998" r="59.5" gradientUnits="userSpaceOnUse" id="color-105"><stop offset="0" stop-color="#c2e7f7"/><stop offset="1" stop-color="#c2e7f7" stop-opacity="0"/></radialGradient><radialGradient cx="64.70076" cy="288.99998" r="59.5" gradientUnits="userSpaceOnUse" id="color-106"><stop offset="0" stop-color="#c2e7f7"/><stop offset="1" stop-color="#c2e7f7" stop-opacity="0"/></radialGradient><radialGradient cx="39.70075" cy="318.99998" r="59.5" gradientUnits="userSpaceOnUse" id="color-107"><stop offset="0" stop-color="#c2e7f7"/><stop offset="1" stop-color="#c2e7f7" stop-opacity="0"/></radialGradient><radialGradient cx="14.70072" cy="343.00001" r="59.5" gradientUnits="userSpaceOnUse" id="color-108"><stop offset="0" stop-color="#c2e7f7"/><stop offset="1" stop-color="#c2e7f7" stop-opacity="0"/></radialGradient><radialGradient cx="129.70072" cy="355.00001" r="59.5" gradientUnits="userSpaceOnUse" id="color-109"><stop offset="0" stop-color="#c2e7f7"/><stop offset="1" stop-color="#c2e7f7" stop-opacity="0"/></radialGradient><radialGradient cx="155.70072" cy="333.99998" r="59.5" gradientUnits="userSpaceOnUse" id="color-110"><stop offset="0" stop-color="#c2e7f7"/><stop offset="1" stop-color="#c2e7f7" stop-opacity="0"/></radialGradient><radialGradient cx="180.70076" cy="309.99998" r="59.5" gradientUnits="userSpaceOnUse" id="color-111"><stop offset="0" stop-color="#c2e7f7"/><stop offset="1" stop-color="#c2e7f7" stop-opacity="0"/></radialGradient><radialGradient cx="207.70076" cy="278.99998" r="59.5" gradientUnits="userSpaceOnUse" id="color-112"><stop offset="0" stop-color="#c2e7f7"/><stop offset="1" stop-color="#c2e7f7" stop-opacity="0"/></radialGradient><radialGradient cx="230.70076" cy="254" r="59.5" gradientUnits="userSpaceOnUse" id="color-113"><stop offset="0" stop-color="#c2e7f7"/><stop offset="1" stop-color="#c2e7f7" stop-opacity="0"/></radialGradient><radialGradient cx="383.70074" cy="115.00001" r="59.5" gradientUnits="userSpaceOnUse" id="color-114"><stop offset="0" stop-color="#c2e7f7"/><stop offset="1" stop-color="#c2e7f7" stop-opacity="0"/></radialGradient><radialGradient cx="355.70074" cy="143.99997" r="59.5" gradientUnits="userSpaceOnUse" id="color-115"><stop offset="0" stop-color="#c2e7f7"/><stop offset="1" stop-color="#c2e7f7" stop-opacity="0"/></radialGradient><radialGradient cx="342.70074" cy="155.99997" r="59.5" gradientUnits="userSpaceOnUse" id="color-116"><stop offset="0" stop-color="#c2e7f7"/><stop offset="1" stop-color="#c2e7f7" stop-opacity="0"/></radialGradient><radialGradient cx="297.70074" cy="71" r="59.5" gradientUnits="userSpaceOnUse" id="color-117"><stop offset="0" stop-color="#c2e7f7"/><stop offset="1" stop-color="#c2e7f7" stop-opacity="0"/></radialGradient><radialGradient cx="429.70074" cy="86" r="59.5" gradientUnits="userSpaceOnUse" id="color-118"><stop offset="0" stop-color="#c2e7f7"/><stop offset="1" stop-color="#c2e7f7" stop-opacity="0"/></radialGradient><radialGradient cx="57.70075" cy="66.99998" r="59.5" gradientUnits="userSpaceOnUse" id="color-119"><stop offset="0" stop-color="#c2e7f7"/><stop offset="1" stop-color="#c2e7f7" stop-opacity="0"/></radialGradient><radialGradient cx="111.70073" cy="94.00001" r="59.5" gradientUnits="userSpaceOnUse" id="color-120"><stop offset="0" stop-color="#c2e7f7"/><stop offset="1" stop-color="#c2e7f7" stop-opacity="0"/></radialGradient><radialGradient cx="384.70074" cy="80" r="59.5" gradientUnits="userSpaceOnUse" id="color-121"><stop offset="0" stop-color="#c2e7f7"/><stop offset="1" stop-color="#c2e7f7" stop-opacity="0"/></radialGradient><radialGradient cx="393.70078" cy="93.00001" r="59.5" gradientUnits="userSpaceOnUse" id="color-122"><stop offset="0" stop-color="#c2e7f7"/><stop offset="1" stop-color="#c2e7f7" stop-opacity="0"/></radialGradient><radialGradient cx="435.70078" cy="87" r="59.5" gradientUnits="userSpaceOnUse" id="color-123"><stop offset="0" stop-color="#c2e7f7"/><stop offset="1" stop-color="#c2e7f7" stop-opacity="0"/></radialGradient><radialGradient cx="67.70076" cy="85" r="59.5" gradientUnits="userSpaceOnUse" id="color-124"><stop offset="0" stop-color="#c2e7f7"/><stop offset="1" stop-color="#c2e7f7" stop-opacity="0"/></radialGradient><radialGradient cx="113.70073" cy="104.00001" r="59.5" gradientUnits="userSpaceOnUse" id="color-125"><stop offset="0" stop-color="#c2e7f7"/><stop offset="1" stop-color="#c2e7f7" stop-opacity="0"/></radialGradient><radialGradient cx="150.70072" cy="86" r="59.5" gradientUnits="userSpaceOnUse" id="color-126"><stop offset="0" stop-color="#c2e7f7"/><stop offset="1" stop-color="#c2e7f7" stop-opacity="0"/></radialGradient><radialGradient cx="235.70078" cy="107.00001" r="59.5" gradientUnits="userSpaceOnUse" id="color-127"><stop offset="0" stop-color="#c2e7f7"/><stop offset="1" stop-color="#c2e7f7" stop-opacity="0"/></radialGradient><radialGradient cx="270.70076" cy="98.00001" r="59.5" gradientUnits="userSpaceOnUse" id="color-128"><stop offset="0" stop-color="#c2e7f7"/><stop offset="1" stop-color="#c2e7f7" stop-opacity="0"/></radialGradient><radialGradient cx="27.70075" cy="385.00002" r="59.5" gradientUnits="userSpaceOnUse" id="color-129"><stop offset="0" stop-color="#a8e0f8"/><stop offset="1" stop-color="#a8e0f8" stop-opacity="0"/></radialGradient><radialGradient cx="142.70072" cy="124.00001" r="59.5" gradientUnits="userSpaceOnUse" id="color-130"><stop offset="0" stop-color="#c2e7f7"/><stop offset="1" stop-color="#c2e7f7" stop-opacity="0"/></radialGradient><radialGradient cx="192.70078" cy="140.99997" r="59.5" gradientUnits="userSpaceOnUse" id="color-131"><stop offset="0" stop-color="#c2e7f7"/><stop offset="1" stop-color="#c2e7f7" stop-opacity="0"/></radialGradient><radialGradient cx="247.70078" cy="132.99997" r="59.5" gradientUnits="userSpaceOnUse" id="color-132"><stop offset="0" stop-color="#c2e7f7"/><stop offset="1" stop-color="#c2e7f7" stop-opacity="0"/></radialGradient><radialGradient cx="187.70078" cy="162.99997" r="59.5" gradientUnits="userSpaceOnUse" id="color-133"><stop offset="0" stop-color="#c2e7f7"/><stop offset="1" stop-color="#c2e7f7" stop-opacity="0"/></radialGradient><radialGradient cx="164.70072" cy="206.00001" r="59.5" gradientUnits="userSpaceOnUse" id="color-134"><stop offset="0" stop-color="#c2e7f7"/><stop offset="1" stop-color="#c2e7f7" stop-opacity="0"/></radialGradient><radialGradient cx="129.70072" cy="243" r="59.5" gradientUnits="userSpaceOnUse" id="color-135"><stop offset="0" stop-color="#c2e7f7"/><stop offset="1" stop-color="#c2e7f7" stop-opacity="0"/></radialGradient><radialGradient cx="97.70073" cy="266.99998" r="59.5" gradientUnits="userSpaceOnUse" id="color-136"><stop offset="0" stop-color="#c2e7f7"/><stop offset="1" stop-color="#c2e7f7" stop-opacity="0"/></radialGradient><radialGradient cx="70.70076" cy="292.99998" r="59.5" gradientUnits="userSpaceOnUse" id="color-137"><stop offset="0" stop-color="#c2e7f7"/><stop offset="1" stop-color="#c2e7f7" stop-opacity="0"/></radialGradient><radialGradient cx="45.70075" cy="322.99998" r="59.5" gradientUnits="userSpaceOnUse" id="color-138"><stop offset="0" stop-color="#c2e7f7"/><stop offset="1" stop-color="#c2e7f7" stop-opacity="0"/></radialGradient><radialGradient cx="20.70074" cy="347.00002" r="59.5" gradientUnits="userSpaceOnUse" id="color-139"><stop offset="0" stop-color="#c2e7f7"/><stop offset="1" stop-color="#c2e7f7" stop-opacity="0"/></radialGradient><radialGradient cx="135.70072" cy="359.00002" r="59.5" gradientUnits="userSpaceOnUse" id="color-140"><stop offset="0" stop-color="#c2e7f7"/><stop offset="1" stop-color="#c2e7f7" stop-opacity="0"/></radialGradient><radialGradient cx="161.70072" cy="337.99998" r="59.5" gradientUnits="userSpaceOnUse" id="color-141"><stop offset="0" stop-color="#c2e7f7"/><stop offset="1" stop-color="#c2e7f7" stop-opacity="0"/></radialGradient><radialGradient cx="186.70078" cy="313.99998" r="59.5" gradientUnits="userSpaceOnUse" id="color-142"><stop offset="0" stop-color="#c2e7f7"/><stop offset="1" stop-color="#c2e7f7" stop-opacity="0"/></radialGradient><radialGradient cx="213.70078" cy="282.99998" r="59.5" gradientUnits="userSpaceOnUse" id="color-143"><stop offset="0" stop-color="#c2e7f7"/><stop offset="1" stop-color="#c2e7f7" stop-opacity="0"/></radialGradient><radialGradient cx="236.70078" cy="258.00002" r="59.5" gradientUnits="userSpaceOnUse" id="color-144"><stop offset="0" stop-color="#c2e7f7"/><stop offset="1" stop-color="#c2e7f7" stop-opacity="0"/></radialGradient><radialGradient cx="389.70078" cy="119.00001" r="59.5" gradientUnits="userSpaceOnUse" id="color-145"><stop offset="0" stop-color="#c2e7f7"/><stop offset="1" stop-color="#c2e7f7" stop-opacity="0"/></radialGradient><radialGradient cx="361.70078" cy="147.99997" r="59.5" gradientUnits="userSpaceOnUse" id="color-146"><stop offset="0" stop-color="#c2e7f7"/><stop offset="1" stop-color="#c2e7f7" stop-opacity="0"/></radialGradient><radialGradient cx="348.70078" cy="159.99997" r="59.5" gradientUnits="userSpaceOnUse" id="color-147"><stop offset="0" stop-color="#c2e7f7"/><stop offset="1" stop-color="#c2e7f7" stop-opacity="0"/></radialGradient><radialGradient cx="303.70076" cy="75" r="59.5" gradientUnits="userSpaceOnUse" id="color-148"><stop offset="0" stop-color="#c2e7f7"/><stop offset="1" stop-color="#c2e7f7" stop-opacity="0"/></radialGradient><radialGradient cx="427.70078" cy="88.00001" r="59.5" gradientUnits="userSpaceOnUse" id="color-149"><stop offset="0" stop-color="#c2e7f7"/><stop offset="1" stop-color="#c2e7f7" stop-opacity="0"/></radialGradient><radialGradient cx="63.70076" cy="71" r="59.5" gradientUnits="userSpaceOnUse" id="color-150"><stop offset="0" stop-color="#c2e7f7"/><stop offset="1" stop-color="#c2e7f7" stop-opacity="0"/></radialGradient><radialGradient cx="117.70073" cy="98.00001" r="59.5" gradientUnits="userSpaceOnUse" id="color-151"><stop offset="0" stop-color="#c2e7f7"/><stop offset="1" stop-color="#c2e7f7" stop-opacity="0"/></radialGradient><radialGradient cx="398.70078" cy="84" r="59.5" gradientUnits="userSpaceOnUse" id="color-152"><stop offset="0" stop-color="#c2e7f7"/><stop offset="1" stop-color="#c2e7f7" stop-opacity="0"/></radialGradient></defs><g transform="translate(53.5,3.99993)"><g data-paper-data="{&quot;isPaintingLayer&quot;:true}" fill-rule="nonzero" stroke="none" stroke-width="0" stroke-linecap="butt" stroke-linejoin="miter" stroke-miterlimit="10" stroke-dasharray="" stroke-dashoffset="0" style="mix-blend-mode: normal"><g><g><path d="M481.00002,-3.99993v363h-484v-363z" data-paper-data="{&quot;origRot&quot;:0}" fill="url(#color-1)"/><path d="M-2.99998,359.50015v-129l1.95726,-111.69978c0,0 -8.56277,-83.86401 23.87624,-99.5798c122.21726,-59.21084 159.56487,47.66237 251.16651,121.27958c91.60164,73.61721 171.19207,218.15605 171.19207,218.15605l-318.19207,0.84395z" data-paper-data="{&quot;origPos&quot;:null,&quot;origRot&quot;:0}" fill="url(#color-2)"/></g><g><path d="M455.32267,100.97857c0,0 33.68908,23.12462 33.70802,32.24189c0.04155,20.00543 -33.46757,83.51972 -33.46757,83.51972c0,0 -9.15501,1.64784 -13.96444,1.64784c-32.86095,0 -59.5,-26.63905 -59.5,-59.5c0,-32.86095 26.63905,-59.5 59.5,-59.5c4.72343,0 13.72399,1.59054 13.72399,1.59054z" fill="url(#color-3)"/><path d="M66.59869,246.38802c-32.86095,0 -59.5,-26.63905 -59.5,-59.5c0,-32.86095 26.63905,-59.5 59.5,-59.5c32.86095,0 59.5,26.63905 59.5,59.5c0,32.86095 -26.63905,59.5 -59.5,59.5z" fill="url(#color-4)"/><path d="M24.59869,240.38801c-21.31449,0 -50.51891,-28.05089 -50.51891,-28.05089l-0.53905,-62.0172c0,0 29.37397,-28.93191 51.05796,-28.93191c32.86095,0 59.5,26.63905 59.5,59.5c0,32.86095 -26.63905,59.5 -59.5,59.5z" fill="url(#color-5)"/><path d="M392.5987,238.38801c-32.86095,0 -59.5,-26.63905 -59.5,-59.5c0,-32.86095 26.63905,-59.5 59.5,-59.5c32.86095,0 59.5,26.63905 59.5,59.5c0,32.86095 -26.63905,59.5 -59.5,59.5z" fill="url(#color-6)"/><path d="M346.59869,257.38802c-32.86095,0 -59.5,-26.63905 -59.5,-59.5c0,-32.86095 26.63905,-59.5 59.5,-59.5c32.86095,0 59.5,26.63905 59.5,59.5c0,32.86095 -26.63905,59.5 -59.5,59.5z" fill="url(#color-7)"/><path d="M309.59869,239.38801c-32.86095,0 -59.5,-26.63905 -59.5,-59.5c0,-32.86095 26.63905,-59.5 59.5,-59.5c32.86095,0 59.5,26.63905 59.5,59.5c0,32.86095 -26.63905,59.5 -59.5,59.5z" fill="url(#color-8)"/><path d="M224.59869,260.38802c-32.86095,0 -59.5,-26.63905 -59.5,-59.5c0,-32.86095 26.63905,-59.5 59.5,-59.5c32.86095,0 59.5,26.63905 59.5,59.5c0,32.86095 -26.63905,59.5 -59.5,59.5z" fill="url(#color-9)"/><path d="M189.59869,251.38802c-32.86095,0 -59.5,-26.63905 -59.5,-59.5c0,-32.86095 26.63905,-59.5 59.5,-59.5c32.86095,0 59.5,26.63905 59.5,59.5c0,32.86095 -26.63905,59.5 -59.5,59.5z" fill="url(#color-10)"/><path d="M317.59871,277.38802c-32.86095,0 -59.5,-26.63905 -59.5,-59.5c0,-32.86095 26.63905,-59.5 59.5,-59.5c32.86095,0 59.5,26.63905 59.5,59.5c0,32.86095 -26.63905,59.5 -59.5,59.5z" fill="url(#color-11)"/><path d="M267.59869,294.38796c-32.86095,0 -59.5,-26.63905 -59.5,-59.5c0,-32.86095 26.63905,-59.5 59.5,-59.5c32.86095,0 59.5,26.63905 59.5,59.5c0,32.86095 -26.63905,59.5 -59.5,59.5z" fill="url(#color-12)"/><path d="M212.59869,286.38796c-32.86095,0 -59.5,-26.63905 -59.5,-59.5c0,-32.86095 26.63905,-59.5 59.5,-59.5c32.86095,0 59.5,26.63905 59.5,59.5c0,32.86095 -26.63905,59.5 -59.5,59.5z" fill="url(#color-13)"/><path d="M272.59869,316.38796c-32.86095,0 -59.5,-26.63905 -59.5,-59.5c0,-32.86095 26.63905,-59.5 59.5,-59.5c32.86095,0 59.5,26.63905 59.5,59.5c0,32.86095 -26.63905,59.5 -59.5,59.5z" fill="url(#color-14)"/><path d="M295.59869,359.38802c-32.86095,0 -59.5,-26.63905 -59.5,-59.5c0,-32.86095 26.63905,-59.5 59.5,-59.5c32.86095,0 59.5,26.63905 59.5,59.5c0,32.86095 -26.63905,59.5 -59.5,59.5z" fill="url(#color-15)"/><path d="M70.59869,272.38802c-32.86095,0 -59.5,-26.63905 -59.5,-59.5c0,-32.86095 26.63905,-59.5 59.5,-59.5c32.86095,0 59.5,26.63905 59.5,59.5c0,32.86095 -26.63905,59.5 -59.5,59.5z" fill="url(#color-16)"/><path d="M98.59869,301.38796c-32.86095,0 -59.5,-26.63905 -59.5,-59.5c0,-32.86095 26.63905,-59.5 59.5,-59.5c32.86095,0 59.5,26.63905 59.5,59.5c0,32.86095 -26.63905,59.5 -59.5,59.5z" fill="url(#color-17)"/><path d="M111.59869,313.38796c-32.86095,0 -59.5,-26.63905 -59.5,-59.5c0,-32.86095 26.63905,-59.5 59.5,-59.5c32.86095,0 59.5,26.63905 59.5,59.5c0,32.86095 -26.63905,59.5 -59.5,59.5z" fill="url(#color-18)"/><path d="M156.59867,228.38801c-32.86095,0 -59.5,-26.63905 -59.5,-59.5c0,-32.86095 26.63905,-59.5 59.5,-59.5c32.86095,0 59.5,26.63905 59.5,59.5c0,32.86095 -26.63905,59.5 -59.5,59.5z" fill="url(#color-19)"/><path d="M24.59869,243.38801c-21.47913,0 -50.76093,-28.4422 -50.76093,-28.4422l-0.00001,-62.11559c0,0 29.2818,-28.44221 50.76094,-28.44221c32.86095,0 59.5,26.63905 59.5,59.5c0,32.86095 -26.63905,59.5 -59.5,59.5z" fill="url(#color-20)"/><path d="M396.5987,224.38799c-32.86095,0 -59.5,-26.63905 -59.5,-59.5c0,-32.86095 26.63905,-59.5 59.5,-59.5c32.86095,0 59.5,26.63905 59.5,59.5c0,32.86095 -26.63905,59.5 -59.5,59.5z" fill="url(#color-21)"/><path d="M342.59869,251.38802c-32.86095,0 -59.5,-26.63905 -59.5,-59.5c0,-32.86095 26.63905,-59.5 59.5,-59.5c32.86095,0 59.5,26.63905 59.5,59.5c0,32.86095 -26.63905,59.5 -59.5,59.5z" fill="url(#color-22)"/><path d="M69.59869,237.38801c-32.86095,0 -59.5,-26.63905 -59.5,-59.5c0,-32.86095 26.63905,-59.5 59.5,-59.5c32.86095,0 59.5,26.63905 59.5,59.5c0,32.86095 -26.63905,59.5 -59.5,59.5z" fill="url(#color-23)"/><path d="M60.59869,250.38802c-32.86095,0 -59.5,-26.63905 -59.5,-59.5c0,-32.86095 26.63905,-59.5 59.5,-59.5c32.86095,0 59.5,26.63905 59.5,59.5c0,32.86095 -26.63905,59.5 -59.5,59.5z" fill="url(#color-24)"/><path d="M78.09865,184.888c0,32.86095 -26.63905,59.5 -59.5,59.5c-17.43291,0 -43.99718,-19.4432 -43.99718,-19.4432l-1.10142,-78.08274c0,0 26.69758,-21.47405 45.0986,-21.47405c32.86095,0 59.5,26.63905 59.5,59.5z" fill="url(#color-25)"/><path d="M386.5987,242.38801c-32.86095,0 -59.5,-26.63905 -59.5,-59.5c0,-32.86095 26.63905,-59.5 59.5,-59.5c32.86095,0 59.5,26.63905 59.5,59.5c0,32.86095 -26.63905,59.5 -59.5,59.5z" fill="url(#color-26)"/><path d="M340.59868,261.38802c-32.86095,0 -59.5,-26.63905 -59.5,-59.5c0,-32.86095 26.63905,-59.5 59.5,-59.5c32.86095,0 59.5,26.63905 59.5,59.5c0,32.86095 -26.63905,59.5 -59.5,59.5z" fill="url(#color-27)"/><path d="M303.59868,243.38801c-32.86095,0 -59.5,-26.63905 -59.5,-59.5c0,-32.86095 26.63905,-59.5 59.5,-59.5c32.86095,0 59.5,26.63905 59.5,59.5c0,32.86095 -26.63905,59.5 -59.5,59.5z" fill="url(#color-28)"/><path d="M218.59869,264.38802c-32.86095,0 -59.5,-26.63905 -59.5,-59.5c0,-32.86095 26.63905,-59.5 59.5,-59.5c32.86095,0 59.5,26.63905 59.5,59.5c0,32.86095 -26.63905,59.5 -59.5,59.5z" fill="url(#color-29)"/><path d="M183.59869,255.38802c-32.86095,0 -59.5,-26.63905 -59.5,-59.5c0,-32.86095 26.63905,-59.5 59.5,-59.5c32.86095,0 59.5,26.63905 59.5,59.5c0,32.86095 -26.63905,59.5 -59.5,59.5z" fill="url(#color-30)"/><path d="M311.59872,281.38802c-32.86095,0 -59.5,-26.63905 -59.5,-59.5c0,-32.86095 26.63905,-59.5 59.5,-59.5c32.86095,0 59.5,26.63905 59.5,59.5c0,32.86095 -26.63905,59.5 -59.5,59.5z" fill="url(#color-31)"/><path d="M261.59869,298.38796c-32.86095,0 -59.5,-26.63905 -59.5,-59.5c0,-32.86095 26.63905,-59.5 59.5,-59.5c32.86095,0 59.5,26.63905 59.5,59.5c0,32.86095 -26.63905,59.5 -59.5,59.5z" fill="url(#color-32)"/><path d="M206.59869,290.38796c-32.86095,0 -59.5,-26.63905 -59.5,-59.5c0,-32.86095 26.63905,-59.5 59.5,-59.5c32.86095,0 59.5,26.63905 59.5,59.5c0,32.86095 -26.63905,59.5 -59.5,59.5z" fill="url(#color-33)"/><path d="M266.59869,320.38796c-32.86095,0 -59.5,-26.63905 -59.5,-59.5c0,-32.86095 26.63905,-59.5 59.5,-59.5c32.86095,0 59.5,26.63905 59.5,59.5c0,32.86095 -26.63905,59.5 -59.5,59.5z" fill="url(#color-34)"/><path d="M64.59869,276.38802c-32.86095,0 -59.5,-26.63905 -59.5,-59.5c0,-32.86095 26.63905,-59.5 59.5,-59.5c32.86095,0 59.5,26.63905 59.5,59.5c0,32.86095 -26.63905,59.5 -59.5,59.5z" fill="url(#color-35)"/><path d="M92.59869,305.38796c-32.86095,0 -59.5,-26.63905 -59.5,-59.5c0,-32.86095 26.63905,-59.5 59.5,-59.5c32.86095,0 59.5,26.63905 59.5,59.5c0,32.86095 -26.63905,59.5 -59.5,59.5z" fill="url(#color-36)"/><path d="M105.59869,317.38796c-32.86095,0 -59.5,-26.63905 -59.5,-59.5c0,-32.86095 26.63905,-59.5 59.5,-59.5c32.86095,0 59.5,26.63905 59.5,59.5c0,32.86095 -26.63905,59.5 -59.5,59.5z" fill="url(#color-37)"/><path d="M150.59867,232.38801c-32.86095,0 -59.5,-26.63905 -59.5,-59.5c0,-32.86095 26.63905,-59.5 59.5,-59.5c32.86095,0 59.5,26.63905 59.5,59.5c0,32.86095 -26.63905,59.5 -59.5,59.5z" fill="url(#color-38)"/><path d="M390.5987,228.38801c-32.86095,0 -59.5,-26.63905 -59.5,-59.5c0,-32.86095 26.63905,-59.5 59.5,-59.5c32.86095,0 59.5,26.63905 59.5,59.5c0,32.86095 -26.63905,59.5 -59.5,59.5z" fill="url(#color-39)"/><path d="M336.59868,255.38802c-32.86095,0 -59.5,-26.63905 -59.5,-59.5c0,-32.86095 26.63905,-59.5 59.5,-59.5c32.86095,0 59.5,26.63905 59.5,59.5c0,32.86095 -26.63905,59.5 -59.5,59.5z" fill="url(#color-40)"/><path d="M55.59869,241.38801c-32.86095,0 -59.5,-26.63905 -59.5,-59.5c0,-32.86095 26.63905,-59.5 59.5,-59.5c32.86095,0 59.5,26.63905 59.5,59.5c0,32.86095 -26.63905,59.5 -59.5,59.5z" fill="url(#color-41)"/><path d="M160.5,144.49992c0,-35.07008 28.42992,-63.5 63.5,-63.5c35.07008,0 63.5,28.42992 63.5,63.5c0,35.07008 -28.42992,63.5 -63.5,63.5c-35.07008,0 -63.5,-28.42992 -63.5,-63.5z" fill="url(#color-42)"/><path d="M183.5,156.49992c0,-35.07008 28.42992,-63.5 63.5,-63.5c35.07008,0 63.5,28.42992 63.5,63.5c0,35.07008 -28.42992,63.5 -63.5,63.5c-35.07008,0 -63.5,-28.42992 -63.5,-63.5z" fill="url(#color-43)"/><path d="M228.5,146.49992c0,-35.07008 28.42992,-63.5 63.5,-63.5c35.07008,0 63.5,28.42992 63.5,63.5c0,35.07008 -28.42992,63.5 -63.5,63.5c-35.07008,0 -63.5,-28.42992 -63.5,-63.5z" fill="url(#color-44)"/><path d="M195.5,125.49992c0,-35.07008 28.42992,-63.5 63.5,-63.5c35.07008,0 63.5,28.42992 63.5,63.5c0,35.07008 -28.42992,63.5 -63.5,63.5c-35.07008,0 -63.5,-28.42992 -63.5,-63.5z" fill="url(#color-45)"/><g><path d="M153.5,138.49992c0,-35.07008 28.42992,-63.5 63.5,-63.5c35.07008,0 63.5,28.42992 63.5,63.5c0,35.07008 -28.42992,63.5 -63.5,63.5c-35.07008,0 -63.5,-28.42992 -63.5,-63.5z" fill="url(#color-46)"/><path d="M176.5,150.49992c0,-35.07008 28.42992,-63.5 63.5,-63.5c35.07008,0 63.5,28.42992 63.5,63.5c0,35.07008 -28.42992,63.5 -63.5,63.5c-35.07008,0 -63.5,-28.42992 -63.5,-63.5z" fill="url(#color-47)"/><path d="M221.5,140.49992c0,-35.07008 28.42992,-63.5 63.5,-63.5c35.07008,0 63.5,28.42992 63.5,63.5c0,35.07008 -28.42992,63.5 -63.5,63.5c-35.07008,0 -63.5,-28.42992 -63.5,-63.5z" fill="url(#color-48)"/><path d="M188.5,119.49994c0,-35.07008 28.42992,-63.5 63.5,-63.5c35.07008,0 63.5,28.42992 63.5,63.5c0,35.07008 -28.42992,63.5 -63.5,63.5c-35.07008,0 -63.5,-28.42992 -63.5,-63.5z" fill="url(#color-49)"/></g><g><path d="M-53.5,268.49994c0,-35.07008 28.42992,-63.5 63.5,-63.5c35.07008,0 63.5,28.42992 63.5,63.5c0,35.07008 -28.42992,63.5 -63.5,63.5c-35.07008,0 -63.5,-28.42992 -63.5,-63.5z" fill="url(#color-50)"/><path d="M-30.5,280.49994c0,-35.07008 28.42992,-63.5 63.5,-63.5c35.07008,0 63.5,28.42992 63.5,63.5c0,35.07008 -28.42992,63.5 -63.5,63.5c-35.07008,0 -63.5,-28.42992 -63.5,-63.5z" fill="url(#color-51)"/><path d="M14.5,270.49994c0,-35.07008 28.42992,-63.5 63.5,-63.5c35.07008,0 63.5,28.42992 63.5,63.5c0,35.07008 -28.42992,63.5 -63.5,63.5c-35.07008,0 -63.5,-28.42992 -63.5,-63.5z" fill="url(#color-52)"/><path d="M-18.5,249.49994c0,-35.07008 28.42992,-63.5 63.5,-63.5c35.07008,0 63.5,28.42992 63.5,63.5c0,35.07008 -28.42992,63.5 -63.5,63.5c-35.07008,0 -63.5,-28.42992 -63.5,-63.5z" fill="url(#color-53)"/></g><g><path d="M-49.5,337.49994c0,-35.07008 28.42992,-63.5 63.5,-63.5c35.07008,0 63.5,28.42992 63.5,63.5c0,35.07008 -28.42992,63.5 -63.5,63.5c-35.07008,0 -63.5,-28.42992 -63.5,-63.5z" fill="url(#color-54)"/><path d="M-26.5,349.49994c0,-35.07008 28.42992,-63.5 63.5,-63.5c35.07008,0 63.5,28.42992 63.5,63.5c0,35.07008 -28.42992,63.5 -63.5,63.5c-35.07008,0 -63.5,-28.42992 -63.5,-63.5z" fill="url(#color-55)"/><path d="M18.5,339.49994c0,-35.07008 28.42992,-63.5 63.5,-63.5c35.07008,0 63.5,28.42992 63.5,63.5c0,35.07008 -28.42992,63.5 -63.5,63.5c-35.07008,0 -63.5,-28.42992 -63.5,-63.5z" fill="url(#color-56)"/><path d="M-14.5,318.49994c0,-35.07008 28.42992,-63.5 63.5,-63.5c35.07008,0 63.5,28.42992 63.5,63.5c0,35.07008 -28.42992,63.5 -63.5,63.5c-35.07008,0 -63.5,-28.42992 -63.5,-63.5z" fill="url(#color-57)"/></g><g><path d="M79.5,310.49994c0,-35.07008 28.42992,-63.5 63.5,-63.5c35.07008,0 63.5,28.42992 63.5,63.5c0,35.07008 -28.42992,63.5 -63.5,63.5c-35.07008,0 -63.5,-28.42992 -63.5,-63.5z" fill="url(#color-58)"/><path d="M102.5,322.49994c0,-35.07008 28.42992,-63.5 63.5,-63.5c35.07008,0 63.5,28.42992 63.5,63.5c0,35.07008 -28.42992,63.5 -63.5,63.5c-35.07008,0 -63.5,-28.42992 -63.5,-63.5z" fill="url(#color-59)"/><path d="M147.5,312.49994c0,-35.07008 28.42992,-63.5 63.5,-63.5c35.07008,0 63.5,28.42992 63.5,63.5c0,35.07008 -28.42992,63.5 -63.5,63.5c-35.07008,0 -63.5,-28.42992 -63.5,-63.5z" fill="url(#color-60)"/><path d="M114.5,291.49994c0,-35.07008 28.42992,-63.5 63.5,-63.5c35.07008,0 63.5,28.42992 63.5,63.5c0,35.07008 -28.42992,63.5 -63.5,63.5c-35.07008,0 -63.5,-28.42992 -63.5,-63.5z" fill="url(#color-61)"/></g><g><path d="M59.5,329.49994c0,-35.07008 28.42992,-63.5 63.5,-63.5c35.07008,0 63.5,28.42992 63.5,63.5c0,35.07008 -28.42992,63.5 -63.5,63.5c-35.07008,0 -63.5,-28.42992 -63.5,-63.5z" fill="url(#color-62)"/><path d="M82.5,341.49994c0,-35.07008 28.42992,-63.5 63.5,-63.5c35.07008,0 63.5,28.42992 63.5,63.5c0,35.07008 -28.42992,63.5 -63.5,63.5c-35.07008,0 -63.5,-28.42992 -63.5,-63.5z" fill="url(#color-63)"/><path d="M127.5,331.49994c0,-35.07008 28.42992,-63.5 63.5,-63.5c35.07008,0 63.5,28.42992 63.5,63.5c0,35.07008 -28.42992,63.5 -63.5,63.5c-35.07008,0 -63.5,-28.42992 -63.5,-63.5z" fill="url(#color-64)"/><path d="M94.5,310.49994c0,-35.07008 28.42992,-63.5 63.5,-63.5c35.07008,0 63.5,28.42992 63.5,63.5c0,35.07008 -28.42992,63.5 -63.5,63.5c-35.07008,0 -63.5,-28.42992 -63.5,-63.5z" fill="url(#color-65)"/></g><g><path d="M62.5,236.49994c0,-35.07008 28.42992,-63.5 63.5,-63.5c35.07008,0 63.5,28.42992 63.5,63.5c0,35.07008 -28.42992,63.5 -63.5,63.5c-35.07008,0 -63.5,-28.42992 -63.5,-63.5z" fill="url(#color-66)"/><path d="M85.5,248.49994c0,-35.07008 28.42992,-63.5 63.5,-63.5c35.07008,0 63.5,28.42992 63.5,63.5c0,35.07008 -28.42992,63.5 -63.5,63.5c-35.07008,0 -63.5,-28.42992 -63.5,-63.5z" fill="url(#color-67)"/><path d="M130.5,238.49994c0,-35.07008 28.42992,-63.5 63.5,-63.5c35.07008,0 63.5,28.42992 63.5,63.5c0,35.07008 -28.42992,63.5 -63.5,63.5c-35.07008,0 -63.5,-28.42992 -63.5,-63.5z" fill="url(#color-68)"/><path d="M97.5,217.49994c0,-35.07008 28.42992,-63.5 63.5,-63.5c35.07008,0 63.5,28.42992 63.5,63.5c0,35.07008 -28.42992,63.5 -63.5,63.5c-35.07008,0 -63.5,-28.42992 -63.5,-63.5z" fill="url(#color-69)"/></g><g><path d="M176.5,331.49994c0,-35.07008 28.42992,-63.5 63.5,-63.5c35.07008,0 63.5,28.42992 63.5,63.5c0,35.07008 -28.42992,63.5 -63.5,63.5c-35.07008,0 -63.5,-28.42992 -63.5,-63.5z" fill="url(#color-70)"/><path d="M199.5,343.49994c0,-35.07008 28.42992,-63.5 63.5,-63.5c35.07008,0 63.5,28.42992 63.5,63.5c0,35.07008 -28.42992,63.5 -63.5,63.5c-35.07008,0 -63.5,-28.42992 -63.5,-63.5z" fill="url(#color-71)"/><path d="M244.5,333.49994c0,-35.07008 28.42992,-63.5 63.5,-63.5c35.07008,0 63.5,28.42992 63.5,63.5c0,35.07008 -28.42992,63.5 -63.5,63.5c-35.07008,0 -63.5,-28.42992 -63.5,-63.5z" fill="url(#color-72)"/><path d="M211.5,312.49994c0,-35.07008 28.42992,-63.5 63.5,-63.5c35.07008,0 63.5,28.42992 63.5,63.5c0,35.07008 -28.42992,63.5 -63.5,63.5c-35.07008,0 -63.5,-28.42992 -63.5,-63.5z" fill="url(#color-73)"/></g><g><path d="M273.5,291.49994c0,-35.07008 28.42992,-63.5 63.5,-63.5c35.07008,0 63.5,28.42992 63.5,63.5c0,35.07008 -28.42992,63.5 -63.5,63.5c-35.07008,0 -63.5,-28.42992 -63.5,-63.5z" fill="url(#color-74)"/><path d="M296.5,303.49994c0,-35.07008 28.42992,-63.5 63.5,-63.5c35.07008,0 63.5,28.42992 63.5,63.5c0,35.07008 -28.42992,63.5 -63.5,63.5c-35.07008,0 -63.5,-28.42992 -63.5,-63.5z" fill="url(#color-75)"/><path d="M341.5,293.49994c0,-35.07008 28.42992,-63.5 63.5,-63.5c35.07008,0 63.5,28.42992 63.5,63.5c0,35.07008 -28.42992,63.5 -63.5,63.5c-35.07008,0 -63.5,-28.42992 -63.5,-63.5z" fill="url(#color-76)"/><path d="M308.5,272.49994c0,-35.07008 28.42992,-63.5 63.5,-63.5c35.07008,0 63.5,28.42992 63.5,63.5c0,35.07008 -28.42992,63.5 -63.5,63.5c-35.07008,0 -63.5,-28.42992 -63.5,-63.5z" fill="url(#color-77)"/></g><g><path d="M334.5,249.49994c0,-35.07008 28.42992,-63.5 63.5,-63.5c35.07008,0 63.5,28.42992 63.5,63.5c0,35.07008 -28.42992,63.5 -63.5,63.5c-35.07008,0 -63.5,-28.42992 -63.5,-63.5z" fill="url(#color-78)"/><path d="M357.5,261.49994c0,-35.07008 28.42992,-63.5 63.5,-63.5c35.07008,0 63.5,28.42992 63.5,63.5c0,35.07008 -28.42992,63.5 -63.5,63.5c-35.07008,0 -63.5,-28.42992 -63.5,-63.5z" fill="url(#color-79)"/><path d="M402.5,251.49994c0,-35.07008 28.42992,-63.5 63.5,-63.5c35.07008,0 63.5,28.42992 63.5,63.5c0,35.07008 -28.42992,63.5 -63.5,63.5c-35.07008,0 -63.5,-28.42992 -63.5,-63.5z" fill="url(#color-80)"/><path d="M369.5,230.49994c0,-35.07008 28.42992,-63.5 63.5,-63.5c35.07008,0 63.5,28.42992 63.5,63.5c0,35.07008 -28.42992,63.5 -63.5,63.5c-35.07008,0 -63.5,-28.42992 -63.5,-63.5z" fill="url(#color-81)"/></g><g><path d="M279.5,340.49994c0,-35.07008 28.42992,-63.5 63.5,-63.5c35.07008,0 63.5,28.42992 63.5,63.5c0,35.07008 -28.42992,63.5 -63.5,63.5c-35.07008,0 -63.5,-28.42992 -63.5,-63.5z" fill="url(#color-82)"/><path d="M302.5,352.49994c0,-35.07008 28.42992,-63.5 63.5,-63.5c35.07008,0 63.5,28.42992 63.5,63.5c0,35.07008 -28.42992,63.5 -63.5,63.5c-35.07008,0 -63.5,-28.42992 -63.5,-63.5z" fill="url(#color-83)"/><path d="M347.5,342.49994c0,-35.07008 28.42992,-63.5 63.5,-63.5c35.07008,0 63.5,28.42992 63.5,63.5c0,35.07008 -28.42992,63.5 -63.5,63.5c-35.07008,0 -63.5,-28.42992 -63.5,-63.5z" fill="url(#color-84)"/><path d="M314.5,321.49994c0,-35.07008 28.42992,-63.5 63.5,-63.5c35.07008,0 63.5,28.42992 63.5,63.5c0,35.07008 -28.42992,63.5 -63.5,63.5c-35.07008,0 -63.5,-28.42992 -63.5,-63.5z" fill="url(#color-85)"/></g><g><path d="M364.5,342.49994c0,-35.07008 28.42992,-63.5 63.5,-63.5c35.07008,0 63.5,28.42992 63.5,63.5c0,35.07008 -28.42992,63.5 -63.5,63.5c-35.07008,0 -63.5,-28.42992 -63.5,-63.5z" fill="url(#color-86)"/><path d="M387.5,354.49994c0,-35.07008 28.42992,-63.5 63.5,-63.5c35.07008,0 63.5,28.42992 63.5,63.5c0,35.07008 -28.42992,63.5 -63.5,63.5c-35.07008,0 -63.5,-28.42992 -63.5,-63.5z" fill="url(#color-87)"/><path d="M432.5,344.49994c0,-35.07008 28.42992,-63.5 63.5,-63.5c35.07008,0 63.5,28.42992 63.5,63.5c0,35.07008 -28.42992,63.5 -63.5,63.5c-35.07008,0 -63.5,-28.42992 -63.5,-63.5z" fill="url(#color-88)"/><path d="M399.5,323.49994c0,-35.07008 28.42992,-63.5 63.5,-63.5c35.07008,0 63.5,28.42992 63.5,63.5c0,35.07008 -28.42992,63.5 -63.5,63.5c-35.07008,0 -63.5,-28.42992 -63.5,-63.5z" fill="url(#color-89)"/></g></g></g><g><path d="M-1.0233,3.09055c0,0 9.00056,-1.59054 13.72399,-1.59054c32.86095,0 59.5,26.63905 59.5,59.5c0,32.86095 -26.63905,59.5 -59.5,59.5c-4.80943,0 -13.96444,-1.64784 -13.96444,-1.64784c0,0 -33.50912,-63.51429 -33.46757,-83.51972c0.01894,-9.11727 33.70802,-32.24189 33.70802,-32.24189z" fill="url(#color-90)"/><path d="M328.20068,89.00001c0,-32.86095 26.63905,-59.5 59.5,-59.5c32.86095,0 59.5,26.63905 59.5,59.5c0,32.86095 -26.63905,59.5 -59.5,59.5c-32.86095,0 -59.5,-26.63905 -59.5,-59.5z" fill="url(#color-91)"/><path d="M370.20071,83c0,-32.86095 26.63905,-59.5 59.5,-59.5c21.68399,0 51.05796,28.93191 51.05796,28.93191l-0.53905,62.0172c0,0 -29.20442,28.05089 -50.51891,28.05089c-32.86095,0 -59.5,-26.63905 -59.5,-59.5z" fill="url(#color-92)"/><path d="M2.20069,81c0,-32.86095 26.63905,-59.5 59.5,-59.5c32.86095,0 59.5,26.63905 59.5,59.5c0,32.86095 -26.63905,59.5 -59.5,59.5c-32.86095,0 -59.5,-26.63905 -59.5,-59.5z" fill="url(#color-93)"/><path d="M48.2007,100.00001c0,-32.86095 26.63905,-59.5 59.5,-59.5c32.86095,0 59.5,26.63905 59.5,59.5c0,32.86095 -26.63905,59.5 -59.5,59.5c-32.86095,0 -59.5,-26.63905 -59.5,-59.5z" fill="url(#color-94)"/><path d="M85.2007,82c0,-32.86095 26.63905,-59.5 59.5,-59.5c32.86095,0 59.5,26.63905 59.5,59.5c0,32.86095 -26.63905,59.5 -59.5,59.5c-32.86095,0 -59.5,-26.63905 -59.5,-59.5z" fill="url(#color-95)"/><path d="M170.20069,103.00001c0,-32.86095 26.63905,-59.5 59.5,-59.5c32.86095,0 59.5,26.63905 59.5,59.5c0,32.86095 -26.63905,59.5 -59.5,59.5c-32.86095,0 -59.5,-26.63905 -59.5,-59.5z" fill="url(#color-96)"/><path d="M205.20069,94.00001c0,-32.86095 26.63905,-59.5 59.5,-59.5c32.86095,0 59.5,26.63905 59.5,59.5c0,32.86095 -26.63905,59.5 -59.5,59.5c-32.86095,0 -59.5,-26.63905 -59.5,-59.5z" fill="url(#color-97)"/><path d="M-37.79931,381.00001c0,-32.86095 26.63905,-59.5 59.5,-59.5c32.86095,0 59.5,26.63905 59.5,59.5c0,32.86095 -26.63905,59.5 -59.5,59.5c-32.86095,0 -59.5,-26.63905 -59.5,-59.5z" fill="url(#color-98)"/><path d="M77.20068,120.00001c0,-32.86095 26.63905,-59.5 59.5,-59.5c32.86095,0 59.5,26.63905 59.5,59.5c0,32.86095 -26.63905,59.5 -59.5,59.5c-32.86095,0 -59.5,-26.63905 -59.5,-59.5z" fill="url(#color-99)"/><path d="M127.2007,136.99997c0,-32.86095 26.63905,-59.5 59.5,-59.5c32.86095,0 59.5,26.63905 59.5,59.5c0,32.86095 -26.63905,59.5 -59.5,59.5c-32.86095,0 -59.5,-26.63905 -59.5,-59.5z" fill="url(#color-100)"/><path d="M182.20069,128.99999c0,-32.86095 26.63905,-59.5 59.5,-59.5c32.86095,0 59.5,26.63905 59.5,59.5c0,32.86095 -26.63905,59.5 -59.5,59.5c-32.86095,0 -59.5,-26.63905 -59.5,-59.5z" fill="url(#color-101)"/><path d="M122.2007,158.99997c0,-32.86095 26.63905,-59.5 59.5,-59.5c32.86095,0 59.5,26.63905 59.5,59.5c0,32.86095 -26.63905,59.5 -59.5,59.5c-32.86095,0 -59.5,-26.63905 -59.5,-59.5z" fill="url(#color-102)"/><path d="M99.2007,202.00001c0,-32.86095 26.63905,-59.5 59.5,-59.5c32.86095,0 59.5,26.63905 59.5,59.5c0,32.86095 -26.63905,59.5 -59.5,59.5c-32.86095,0 -59.5,-26.63905 -59.5,-59.5z" fill="url(#color-103)"/><path d="M64.20068,239c0,-32.86095 26.63905,-59.5 59.5,-59.5c32.86095,0 59.5,26.63905 59.5,59.5c0,32.86095 -26.63905,59.5 -59.5,59.5c-32.86095,0 -59.5,-26.63905 -59.5,-59.5z" fill="url(#color-104)"/><path d="M32.20065,262.99998c0,-32.86095 26.63905,-59.5 59.5,-59.5c32.86095,0 59.5,26.63905 59.5,59.5c0,32.86095 -26.63905,59.5 -59.5,59.5c-32.86095,0 -59.5,-26.63905 -59.5,-59.5z" fill="url(#color-105)"/><path d="M5.20069,288.99998c0,-32.86095 26.63905,-59.5 59.5,-59.5c32.86095,0 59.5,26.63905 59.5,59.5c0,32.86095 -26.63905,59.5 -59.5,59.5c-32.86095,0 -59.5,-26.63905 -59.5,-59.5z" fill="url(#color-106)"/><path d="M-19.79931,318.99998c0,-32.86095 26.63905,-59.5 59.5,-59.5c32.86095,0 59.5,26.63905 59.5,59.5c0,32.86095 -26.63905,59.5 -59.5,59.5c-32.86095,0 -59.5,-26.63905 -59.5,-59.5z" fill="url(#color-107)"/><path d="M-44.7993,343.00001c0,-32.86095 26.63905,-59.5 59.5,-59.5c32.86095,0 59.5,26.63905 59.5,59.5c0,32.86095 -26.63905,59.5 -59.5,59.5c-32.86095,0 -59.5,-26.63905 -59.5,-59.5z" fill="url(#color-108)"/><path d="M70.20068,355.00001c0,-32.86095 26.63905,-59.5 59.5,-59.5c32.86095,0 59.5,26.63905 59.5,59.5c0,32.86095 -26.63905,59.5 -59.5,59.5c-32.86095,0 -59.5,-26.63905 -59.5,-59.5z" fill="url(#color-109)"/><path d="M96.2007,333.99998c0,-32.86095 26.63905,-59.5 59.5,-59.5c32.86095,0 59.5,26.63905 59.5,59.5c0,32.86095 -26.63905,59.5 -59.5,59.5c-32.86095,0 -59.5,-26.63905 -59.5,-59.5z" fill="url(#color-110)"/><path d="M121.2007,309.99998c0,-32.86095 26.63905,-59.5 59.5,-59.5c32.86095,0 59.5,26.63905 59.5,59.5c0,32.86095 -26.63905,59.5 -59.5,59.5c-32.86095,0 -59.5,-26.63905 -59.5,-59.5z" fill="url(#color-111)"/><path d="M148.20069,278.99998c0,-32.86095 26.63905,-59.5 59.5,-59.5c32.86095,0 59.5,26.63905 59.5,59.5c0,32.86095 -26.63905,59.5 -59.5,59.5c-32.86095,0 -59.5,-26.63905 -59.5,-59.5z" fill="url(#color-112)"/><path d="M171.20069,254c0,-32.86095 26.63905,-59.5 59.5,-59.5c32.86095,0 59.5,26.63905 59.5,59.5c0,32.86095 -26.63905,59.5 -59.5,59.5c-32.86095,0 -59.5,-26.63905 -59.5,-59.5z" fill="url(#color-113)"/><path d="M324.20068,115.00001c0,-32.86095 26.63905,-59.5 59.5,-59.5c32.86095,0 59.5,26.63905 59.5,59.5c0,32.86095 -26.63905,59.5 -59.5,59.5c-32.86095,0 -59.5,-26.63905 -59.5,-59.5z" fill="url(#color-114)"/><path d="M296.20068,143.99997c0,-32.86095 26.63905,-59.5 59.5,-59.5c32.86095,0 59.5,26.63905 59.5,59.5c0,32.86095 -26.63905,59.5 -59.5,59.5c-32.86095,0 -59.5,-26.63905 -59.5,-59.5z" fill="url(#color-115)"/><path d="M283.20068,155.99997c0,-32.86095 26.63905,-59.5 59.5,-59.5c32.86095,0 59.5,26.63905 59.5,59.5c0,32.86095 -26.63905,59.5 -59.5,59.5c-32.86095,0 -59.5,-26.63905 -59.5,-59.5z" fill="url(#color-116)"/><path d="M238.20069,71c0,-32.86095 26.63905,-59.5 59.5,-59.5c32.86095,0 59.5,26.63905 59.5,59.5c0,32.86095 -26.63905,59.5 -59.5,59.5c-32.86095,0 -59.5,-26.63905 -59.5,-59.5z" fill="url(#color-117)"/><path d="M370.20071,86c0,-32.86095 26.63905,-59.5 59.5,-59.5c21.47914,0 50.76094,28.44221 50.76094,28.44221l-0.00001,62.11559c0,0 -29.2818,28.4422 -50.76093,28.4422c-32.86095,0 -59.5,-26.63905 -59.5,-59.5z" fill="url(#color-118)"/><path d="M-1.79931,66.99998c0,-32.86095 26.63905,-59.5 59.5,-59.5c32.86095,0 59.5,26.63905 59.5,59.5c0,32.86095 -26.63905,59.5 -59.5,59.5c-32.86095,0 -59.5,-26.63905 -59.5,-59.5z" fill="url(#color-119)"/><path d="M52.2007,94.00001c0,-32.86095 26.63905,-59.5 59.5,-59.5c32.86095,0 59.5,26.63905 59.5,59.5c0,32.86095 -26.63905,59.5 -59.5,59.5c-32.86095,0 -59.5,-26.63905 -59.5,-59.5z" fill="url(#color-120)"/><path d="M325.20068,80c0,-32.86095 26.63905,-59.5 59.5,-59.5c32.86095,0 59.5,26.63905 59.5,59.5c0,32.86095 -26.63905,59.5 -59.5,59.5c-32.86095,0 -59.5,-26.63905 -59.5,-59.5z" fill="url(#color-121)"/><path d="M334.20068,93.00001c0,-32.86095 26.63905,-59.5 59.5,-59.5c32.86095,0 59.5,26.63905 59.5,59.5c0,32.86095 -26.63905,59.5 -59.5,59.5c-32.86095,0 -59.5,-26.63905 -59.5,-59.5z" fill="url(#color-122)"/><path d="M376.20072,87c0,-32.86095 26.63905,-59.5 59.5,-59.5c18.40102,0 45.0986,21.47405 45.0986,21.47405l-1.10142,78.08274c0,0 -26.56427,19.4432 -43.99718,19.4432c-32.86095,0 -59.5,-26.63905 -59.5,-59.5z" fill="url(#color-123)"/><path d="M8.20069,85c0,-32.86095 26.63905,-59.5 59.5,-59.5c32.86095,0 59.5,26.63905 59.5,59.5c0,32.86095 -26.63905,59.5 -59.5,59.5c-32.86095,0 -59.5,-26.63905 -59.5,-59.5z" fill="url(#color-124)"/><path d="M54.20071,104.00001c0,-32.86095 26.63905,-59.5 59.5,-59.5c32.86095,0 59.5,26.63905 59.5,59.5c0,32.86095 -26.63905,59.5 -59.5,59.5c-32.86095,0 -59.5,-26.63905 -59.5,-59.5z" fill="url(#color-125)"/><path d="M91.20071,86c0,-32.86095 26.63905,-59.5 59.5,-59.5c32.86095,0 59.5,26.63905 59.5,59.5c0,32.86095 -26.63905,59.5 -59.5,59.5c-32.86095,0 -59.5,-26.63905 -59.5,-59.5z" fill="url(#color-126)"/><path d="M176.20069,107.00001c0,-32.86095 26.63905,-59.5 59.5,-59.5c32.86095,0 59.5,26.63905 59.5,59.5c0,32.86095 -26.63905,59.5 -59.5,59.5c-32.86095,0 -59.5,-26.63905 -59.5,-59.5z" fill="url(#color-127)"/><path d="M211.20069,98.00001c0,-32.86095 26.63905,-59.5 59.5,-59.5c32.86095,0 59.5,26.63905 59.5,59.5c0,32.86095 -26.63905,59.5 -59.5,59.5c-32.86095,0 -59.5,-26.63905 -59.5,-59.5z" fill="url(#color-128)"/><path d="M-31.79931,385.00002c0,-32.86095 26.63905,-59.5 59.5,-59.5c32.86095,0 59.5,26.63905 59.5,59.5c0,32.86095 -26.63905,59.5 -59.5,59.5c-32.86095,0 -59.5,-26.63905 -59.5,-59.5z" fill="url(#color-129)"/><path d="M83.20067,124.00001c0,-32.86095 26.63905,-59.5 59.5,-59.5c32.86095,0 59.5,26.63905 59.5,59.5c0,32.86095 -26.63905,59.5 -59.5,59.5c-32.86095,0 -59.5,-26.63905 -59.5,-59.5z" fill="url(#color-130)"/><path d="M133.20069,140.99997c0,-32.86095 26.63905,-59.5 59.5,-59.5c32.86095,0 59.5,26.63905 59.5,59.5c0,32.86095 -26.63905,59.5 -59.5,59.5c-32.86095,0 -59.5,-26.63905 -59.5,-59.5z" fill="url(#color-131)"/><path d="M188.20069,132.99997c0,-32.86095 26.63905,-59.5 59.5,-59.5c32.86095,0 59.5,26.63905 59.5,59.5c0,32.86095 -26.63905,59.5 -59.5,59.5c-32.86095,0 -59.5,-26.63905 -59.5,-59.5z" fill="url(#color-132)"/><path d="M128.20069,162.99997c0,-32.86095 26.63905,-59.5 59.5,-59.5c32.86095,0 59.5,26.63905 59.5,59.5c0,32.86095 -26.63905,59.5 -59.5,59.5c-32.86095,0 -59.5,-26.63905 -59.5,-59.5z" fill="url(#color-133)"/><path d="M105.20071,206.00001c0,-32.86095 26.63905,-59.5 59.5,-59.5c32.86095,0 59.5,26.63905 59.5,59.5c0,32.86095 -26.63905,59.5 -59.5,59.5c-32.86095,0 -59.5,-26.63905 -59.5,-59.5z" fill="url(#color-134)"/><path d="M70.20068,243c0,-32.86095 26.63905,-59.5 59.5,-59.5c32.86095,0 59.5,26.63905 59.5,59.5c0,32.86095 -26.63905,59.5 -59.5,59.5c-32.86095,0 -59.5,-26.63905 -59.5,-59.5z" fill="url(#color-135)"/><path d="M38.20065,266.99998c0,-32.86095 26.63905,-59.5 59.5,-59.5c32.86095,0 59.5,26.63905 59.5,59.5c0,32.86095 -26.63905,59.5 -59.5,59.5c-32.86095,0 -59.5,-26.63905 -59.5,-59.5z" fill="url(#color-136)"/><path d="M11.20069,292.99998c0,-32.86095 26.63905,-59.5 59.5,-59.5c32.86095,0 59.5,26.63905 59.5,59.5c0,32.86095 -26.63905,59.5 -59.5,59.5c-32.86095,0 -59.5,-26.63905 -59.5,-59.5z" fill="url(#color-137)"/><path d="M-13.79931,322.99998c0,-32.86095 26.63905,-59.5 59.5,-59.5c32.86095,0 59.5,26.63905 59.5,59.5c0,32.86095 -26.63905,59.5 -59.5,59.5c-32.86095,0 -59.5,-26.63905 -59.5,-59.5z" fill="url(#color-138)"/><path d="M-38.79931,347.00002c0,-32.86095 26.63905,-59.5 59.5,-59.5c32.86095,0 59.5,26.63905 59.5,59.5c0,32.86095 -26.63905,59.5 -59.5,59.5c-32.86095,0 -59.5,-26.63905 -59.5,-59.5z" fill="url(#color-139)"/><path d="M76.20068,359.00002c0,-32.86095 26.63905,-59.5 59.5,-59.5c32.86095,0 59.5,26.63905 59.5,59.5c0,32.86095 -26.63905,59.5 -59.5,59.5c-32.86095,0 -59.5,-26.63905 -59.5,-59.5z" fill="url(#color-140)"/><path d="M102.20071,337.99998c0,-32.86095 26.63905,-59.5 59.5,-59.5c32.86095,0 59.5,26.63905 59.5,59.5c0,32.86095 -26.63905,59.5 -59.5,59.5c-32.86095,0 -59.5,-26.63905 -59.5,-59.5z" fill="url(#color-141)"/><path d="M127.20071,313.99998c0,-32.86095 26.63905,-59.5 59.5,-59.5c32.86095,0 59.5,26.63905 59.5,59.5c0,32.86095 -26.63905,59.5 -59.5,59.5c-32.86095,0 -59.5,-26.63905 -59.5,-59.5z" fill="url(#color-142)"/><path d="M154.20069,282.99998c0,-32.86095 26.63905,-59.5 59.5,-59.5c32.86095,0 59.5,26.63905 59.5,59.5c0,32.86095 -26.63905,59.5 -59.5,59.5c-32.86095,0 -59.5,-26.63905 -59.5,-59.5z" fill="url(#color-143)"/><path d="M177.20069,258.00002c0,-32.86095 26.63905,-59.5 59.5,-59.5c32.86095,0 59.5,26.63905 59.5,59.5c0,32.86095 -26.63905,59.5 -59.5,59.5c-32.86095,0 -59.5,-26.63905 -59.5,-59.5z" fill="url(#color-144)"/><path d="M330.20068,119.00001c0,-32.86095 26.63905,-59.5 59.5,-59.5c32.86095,0 59.5,26.63905 59.5,59.5c0,32.86095 -26.63905,59.5 -59.5,59.5c-32.86095,0 -59.5,-26.63905 -59.5,-59.5z" fill="url(#color-145)"/><path d="M302.20068,147.99997c0,-32.86095 26.63905,-59.5 59.5,-59.5c32.86095,0 59.5,26.63905 59.5,59.5c0,32.86095 -26.63905,59.5 -59.5,59.5c-32.86095,0 -59.5,-26.63905 -59.5,-59.5z" fill="url(#color-146)"/><path d="M289.20068,159.99997c0,-32.86095 26.63905,-59.5 59.5,-59.5c32.86095,0 59.5,26.63905 59.5,59.5c0,32.86095 -26.63905,59.5 -59.5,59.5c-32.86095,0 -59.5,-26.63905 -59.5,-59.5z" fill="url(#color-147)"/><path d="M244.20069,75c0,-32.86095 26.63905,-59.5 59.5,-59.5c32.86095,0 59.5,26.63905 59.5,59.5c0,32.86095 -26.63905,59.5 -59.5,59.5c-32.86095,0 -59.5,-26.63905 -59.5,-59.5z" fill="url(#color-148)"/><path d="M368.20072,88.00001c0,-32.86095 26.63905,-59.5 59.5,-59.5c22.60315,0 52.33371,31.16646 52.33371,31.16646l0.01174,56.64543c0,0 -29.73352,31.18811 -52.34545,31.18811c-32.86095,0 -59.5,-26.63905 -59.5,-59.5z" fill="url(#color-149)"/><path d="M4.20068,71c0,-32.86095 26.63905,-59.5 59.5,-59.5c32.86095,0 59.5,26.63905 59.5,59.5c0,32.86095 -26.63905,59.5 -59.5,59.5c-32.86095,0 -59.5,-26.63905 -59.5,-59.5z" fill="url(#color-150)"/><path d="M58.20071,98.00001c0,-32.86095 26.63905,-59.5 59.5,-59.5c32.86095,0 59.5,26.63905 59.5,59.5c0,32.86095 -26.63905,59.5 -59.5,59.5c-32.86095,0 -59.5,-26.63905 -59.5,-59.5z" fill="url(#color-151)"/><path d="M339.20071,84c0,-32.86095 26.63905,-59.5 59.5,-59.5c32.86095,0 59.5,26.63905 59.5,59.5c0,32.86095 -26.63905,59.5 -59.5,59.5c-32.86095,0 -59.5,-26.63905 -59.5,-59.5z" fill="url(#color-152)"/></g><path d="" fill="#80b0f8"/><path d="" fill="#60a0e0"/><g><g><g><path d="M343.35763,67.48264l1.32526,-20.40893l19.02156,-19.22129l19.41084,1.99297l-0.26506,39.22754l-257.02558,264.93605l-59.73717,-0.31641z" fill="#1b2459"/><path d="M273.27357,113.3565l62.9926,-60.5528l-21.35622,0.56364l45.36576,-46.36562l23.11558,22.9224l-19.5565,-0.87359l-18.62089,19.48948l0.064,19.63664l-72.27015,67.67984z" fill="#3074a8"/><path d="M274.18581,93.32515l24.61965,-24.11964l-0.00141,-19.73621l42.82955,-42.58588l18.75819,0.00852l-45.44409,46.4818l21.49501,-0.73392l-62.62512,60.68533z" fill="#89b2e8"/></g><path d="M219.45069,145.88341l31.5,-33.5h23l-2,59l-68.4241,31.33243l-145.81608,146.79401l-8.4206,-9.21647l145.23729,-145.25375z" fill="#1b2459"/><path d="M250.9507,113.38342v-20.5h23.5v20.5z" fill="#6094c8"/><path d="M219.95071,147.38332l-5.02622,28.64057l-140.08403,151.61427l-50.98408,7.05649l25.09433,-28.31133l202,-213.5v20.5z" fill="#89b2e8"/></g><g><g><path d="M-0.73604,189.50913l58.43673,-56.12567l46,6l-104.36814,101.87329z" fill="#182050"/><path d="M113.32571,86.98704v-24l19.25,22l0.25,23.75z" fill="#185c90"/><path d="M-0.57227,94.05325l36.05424,-32.25097l48.88861,7.13683l-9.3071,37.0109l-42.47332,44.38225l-33.42855,5.1818z" fill="#182050"/><path d="M-0.86492,78.77128l32.08822,-31.26493l-19.70902,-1.11195l-0.49905,-24.65213l23.02899,-0.554l49.4311,47.80469l-48.49034,-0.12806l-35.69054,35.73114z" fill="#2870a8"/><path d="M-0.10486,131.45893l18.7998,2.94096l12.25607,11.36193l34.71822,-34.84702l23.11298,-0.11335l25.68497,-24.31462l18.18532,22.07909l-30.14447,29.87393l-43.78216,-1.1627l-18.09501,18.3948l-3.13709,14.66745l-19.9985,3.68227l-17.94347,-17.16442z" fill="#3070a8"/><path d="M-0.62391,33.99773l11.76749,-12.31819l0.59654,24.69657l19.94231,1.09349l-32.29921,31.53961z" fill="#609cc0"/><path d="M65.73945,111.04051l-0.15533,-25.84852l22.96404,-22.07503l25.0732,-0.19698l1.19307,23.78188l-25.77034,24.33865z" fill="#6094c0"/><path d="M-0.17161,156.9136l18.37232,16.96984l-18.93174,17.6261z" fill="#2868a8"/></g><g><path d="M-0.58423,56.37828l17.45796,1.79246l-0.28036,41.49175l-17.31602,16.57691z" fill="#182050"/><path d="M-0.55231,40.68402l17.71806,17.56998l-17.73909,-0.7924z" fill="#2870a8"/></g><path d="M-0.59464,263.65681l77.43998,-78.35032l79.77203,-30.42309h7.99999l-0.33333,11.66666l-45.43145,53.28321l-32.8292,1.55371l-72.21193,70.00896l-14.64076,15.69006l0.13818,-27.2863z" fill="#182c68"/><path d="M82.45067,159.05006l50.5,-24.83333l24,20.66666l-30.06741,32.32358l-43.84718,2.4082l-83.38126,75.98105l0.00268,-31.02943z" fill="#2868a8"/><path d="M82.28409,134.55007l27.66667,-26h23v26.33333l-24.99708,23.7763l-25.46125,1.02347z" fill="#809ce8"/><path d="M132.95071,134.55009v-26l31.14704,29.02109l0.51962,17.64558l-8.33333,-0.33334z" fill="#185490"/></g><g><g><path d="M345.86736,333.38345l134.30074,-144.10241l-0.09482,51.9034l-93.20592,100.69901z" fill="#182050"/><path d="M304.49442,323.37118l-17.16519,-22.69684l192.57055,-206.44697l0.34368,61.22235z" fill="#182050"/><path d="M296.86736,348.4978l-2.5,-19l186,-197.5l-3,25.5z" fill="#609cc0"/><path d="M464.94229,93.24949l15.34957,-14.95575l-0.17568,26.14704l-13.25744,13.27252z" fill="#2870a8"/><path d="M477.06053,153.8364l3.5013,-22.37746l-0.08225,25.64807z" fill="#3070a8"/><path d="M443.37158,72.38508l36.8162,-38.53911l-0.15575,45.18074l-14.94654,14.59504z" fill="#609cc0"/><path d="M358.36743,276.38344l118.66667,-122.66666l3.11808,2.88006l-0.36075,34.54702l-96.42399,103.23958l-66.35686,72.63678l-27.57421,-18.94715z" fill="#2868a8"/></g><g><path d="M455.48798,97.98034l1.40176,-21.58692l20.11948,-20.33073l3.32704,0.29026l0.32885,59.6748l-117.40391,109.48118l-8.08851,-20.33468z" fill="#182050"/><path d="M334.21515,205.34768l113.7721,-122.8935l-22.58889,0.59617l47.98426,-49.04183l6.95549,6.40154l0.04106,17.04196l-3.23204,-0.12204l-19.69568,20.61441l0.0677,20.77006l-100.31531,106.63322z" fill="#2870a8"/><path d="M310.85246,205.31456l97.51183,-105.51181l-0.00149,-20.87538l45.30166,-45.04392l19.84091,0.00901l-48.06711,49.16472l22.7357,-0.77628l-113.91227,123.03367z" fill="#609cc0"/></g><path d="M471.11739,272.71675l8.8142,-8.91781l0.03623,15.9946z" fill="#182c68"/><path d="M480.02218,265.86899l-8.10402,7.38477l-86.40214,62.11667l94.09535,-100.15346z" fill="#2868a8"/><path d="" fill="#185490"/></g><g><path d="M311.59269,218.05812l0.28471,-30.17914l25.6238,-26.76263l28.40968,1.93231l-0.2235,3.47715v52.76604l-135.21901,142.55512l-32.53956,0.09128l0.13741,-24.3209z" fill="#1b2459"/><path d="M193.98588,341.78916l-6.41544,-27.64875l107.04137,-113.42098l-29.21874,0.5107l10.16348,-11.85513l57.80475,-56.73521l32.13384,30.46844l-28.34539,-0.45331l-24.56649,25.34583l-0.775,30.48451z" fill="#3074a8"/><path d="M143.05817,330.77501l101.54468,-108.54467l-0.00202,-28.26663l61.34141,-60.99243l26.86589,0.0122l-65.08603,66.57226l30.78562,-1.05114l-123.75196,132.27041z" fill="#89b2e8"/></g></g><g><path d="M158.79273,213.60189l-49.25,57l-23.5,-21.25l15.75,-19z" fill="#203870"/><path d="M76.85825,231.40979l0.33334,-55.4l26.71795,0.45573l55.22055,32.38997l-0.15747,4.56724l-29.94312,18.6184l-27.2897,-0.46473l-36.99378,42.23963l-12.91221,-15.42101z" fill="#3074a8"/><path d="M39.41774,232.72689v-20l38.00001,-36.33333v55.33333l-30.69064,32.484l-31.69497,-3.75492z" fill="#609cc0"/></g><g><path d="M0.80171,367.30549l-0.31452,-88.34755l61.31452,-111.31911l81.5238,2.23809l0.14286,47.35715z" fill="#182450"/><path d="M35.91774,252.9721l-35.94937,35.26105l0.82148,-59.86441l62.2232,-63.32763l30.19244,-0.19782l23.55617,-25.09324l26.89962,30.21014l-26.41019,-0.32143l-52,51v32.33333z" fill="#387098"/><path d="M62.96837,165.25781l-64.27013,65.40551l2.19154,-33.16863l56.41193,-57.57021h60l-24,25z" fill="#68a0c0"/></g><g><path d="M477.94163,149.03889v-28l2.23286,2.40462l0.10047,27.09538z" fill="#206498"/><g><path d="M431.33617,419.21399l-76.82319,-12.97871l125.97426,-127.27733l0.81452,88.34755z" fill="#182450"/><g><path d="M392.55742,253.77437l-0.3577,-30.40487l23.60848,-22.53538l49.62769,-1.6192l-57.74088,64.05552z" fill="#203870"/><g><path d="M259.49685,198.59841l-260.75974,243.82277l0.00738,-90.68323l257.35418,-246.32154v51.50944z" fill="#609cc0"/><path d="M39.73783,403.43246l220.82547,-209.75236l128.30908,-69.99918l53.17917,3.40307l-13.50822,45.46016l-43.49888,44.74444l-34.31132,-12.85613l-259.85928,251.86842z" fill="#102050"/><path d="M351.95678,206.19959l-31.29914,-34.51848l67.63812,-52.31888l54.96636,8.02406l-10.46414,41.61204l-47.75354,49.89977z" fill="#102050"/><path d="M256.07448,105.55395h24.14505l50.50395,49.16495l52.78414,-51.42987l-22.15922,-1.25019l-0.5611,-27.71685l25.89192,-0.62287l55.57629,53.74769l-54.51858,-0.14398l-54.85875,54.92116l22.72105,19.40989l-4.69381,3.49899l-17.97063,2.32972l-45.81906,6.96759l-26.56633,-19.95623l-236.48063,223.47157l-11.11178,-16.57522l243.06919,-233.44248z" fill="#2870a8"/><path d="M383.20149,213.7595l39.03434,-39.17914l25.98634,-0.12744l28.87808,-25.83737l3.22465,1.22156l-0.19387,47.36736l-22.6279,13.82372l-43.07387,-6.80816l-20.34456,20.68161z" fill="#2870a8"/><path d="M306.47116,131.26058l54.4605,-57.00914l0.6707,27.76681l22.42151,1.22943l-53.13938,51.88967z" fill="#609cc0"/><path d="M422.31485,174.72163l-0.17463,-29.06197l26.94321,-24.81937l29.06593,0.27854l-0.15861,27.7384l-29.47406,25.86439z" fill="#609cc0"/></g></g><g><path d="M384.10828,394.35984l-36.13258,0.7342l100.13258,-107.2342l-39.1187,-32.91395l70.73635,-11.9482l1.37541,52.84572z" fill="#2870a8"/><path d="M437.10828,270.85979l-22.5,-25.5l65.72181,-64.84495l-0.11918,61.26311l-15.10262,14.58185h-29.5z" fill="#88a8e8"/></g><g><path d="M170.16688,399.53364l175,-168l58,56l-151,149z" fill="#306898"/><path d="M157.16688,413.88362l-11,-15l199.5,-194v27.5z" fill="#88acf0"/><path d="M286.16688,398.38362l116.5,-112l54.5,1.5l-139.5,138z" fill="#102050"/><path d="M345.66693,232.88356v-28l26.70558,-1.94786l84.79442,84.94786l-55.5,-1.5z" fill="#2870a8"/></g></g></g><path d="M-0.22507,151.37224l-0.10559,-27.93422l28.10558,30.26755v27z" fill="#206498"/><path d="M-0.25424,150.5218l27.71859,30.01602l-27.79456,20.49039z" fill="#2870a8"/><path d="M-0.1771,224.27917l28.78537,-10.91939l31.33333,23l-60.25092,60.8968z" fill="#2870a8"/><path d="M-0.16993,180.51484l28.35852,-0.60162l-0.08033,34.44657l-28.64551,27.65774z" fill="#88a8e8"/><path d="M28.10826,214.51066v-34.66666l31.66666,32.33334v23.66666z" fill="#185c90"/><g><path d="M460.46608,336.2553l0.25,-26.5l22.5,-23.5l24.94625,1.69675l-0.19625,3.05325v46.33333l-51.12153,51.41667l-28.57266,0.08015l0.12066,-21.35594z" fill="#284885"/><path d="M428.32199,367.63034l-5.63333,-23.4l22.86667,-23.2l-25.65669,0.44844l8.92445,-10.40987l50.75777,-49.81862l28.2164,26.75403l-24.8898,-0.39804l-21.57159,22.25592l-0.68052,26.76815z" fill="#4182d1"/><path d="M371.30963,370.25219l30.33334,-30.33333l-0.00177,-24.82064l53.86328,-53.55685l23.59067,0.01072l-57.15139,58.45643l27.03254,-0.923l-49.83333,51.16667z" fill="#82b6eb"/></g><path d="M92.68656,254.96625v-23.75l59.25,-58.25001l21.81052,-0.2184l1.53512,31.2314l-53.59564,53.73701z" fill="#84bbe7"/><path d="M38.84456,327.83543l-65.00688,61.33814l0.00688,-84.50481l61.83334,-63.66666v48z" fill="#84bbe7"/><path d="M172.01155,226.4984l28.14286,-26.85715v54.57143z" fill="#284885"/><path d="M-26.16163,388.25219l66,-65l119.56714,-65.23l49.55597,3.17121l-12.58788,42.36287l-40.53522,41.69592l-100,43z" fill="#284885"/><path d="M108.505,339.58543l-12.66667,-36.83334l63.02981,-48.7543l51.2214,7.47737l-9.7512,38.77693l-44.5,46.5z" fill="#253f80"/><path d="M261.17263,355.75209l1.66667,-25.66667l23.92188,-24.17307l24.41146,2.5064l-0.33334,49.33333l-32.10147,30.73126l-51.23186,-0.39793z" fill="#253f80"/><path d="M40.97623,389.25219v-12.66667h32.66667v12.66667z" fill="#253f80"/><path d="M94.50606,372.25219l19.66667,-19.66667l15,10.33333l-22.66667,17.66667z" fill="#284885"/><path d="M162.83941,379.25218l-0.33333,-28.33333l21.99999,-21l25.74536,2.68453l-36.41202,44.31547z" fill="#284885"/><path d="M164.41797,388.38552v-11l41.2,-40.8l1.42316,22.50254l-25.22316,29.29746z" fill="#82b6eb"/><path d="M27.90535,297.8803l7.71887,-8.66543l0.03113,-48.08457h22.5l47.06302,45.81525l49.18786,-47.92586l-20.64947,-1.16501l-0.52287,-25.82845l24.12785,-0.58043l51.78977,50.08576l-50.80413,-0.13417l-51.12112,51.17928l16.42302,12.83746l-1.87401,8.0106l-15.49626,4.42099l-34.24238,1.0154l-27.78135,-8.38512l-16.0999,-15.84565z" fill="#376fb3"/><path d="M115.12096,354.96359l-9,-17.33333l12.66667,-1.33334l22.49245,-6.23739l12.84088,11.90407l36.37486,-36.50979l24.21584,-0.11876l26.91056,-25.47482l-0.99509,-24.63362l24.13793,24.75328l-6.18522,-0.0368l-53.23567,52.95221l-22.12304,0.17877l-18.95845,19.27253l1.37256,35.86842l-23.74836,-23.16619l-17.01121,0.03251z" fill="#376fb3"/><path d="M202.58765,388.29161l49.66667,-51l-26.858,0.70884l57.05287,-58.31032l29.07061,28.82766l-24.59465,-1.09864l-23.41799,24.51036l0.08049,24.69543l-33.66667,31.66667z" fill="#4182d1"/><path d="M55.17872,377.13036v-23.75h10.75l18.57615,5.05858l21.38745,19.39908l-10.60022,10.70789l-24.61338,0.08445l-0.07901,-4.64618l-7.68131,-6.8306z" fill="#376fb3"/><path d="M144.43387,388.26408l-2,-23.21428l24.39286,23.35715z" fill="#284885"/><path d="M118.37494,388.63036v-23.66667h24l2.66667,23.66667z" fill="#4182d1"/><path d="M95.33765,388.33553l23.08334,-23.375v23.25z" fill="#84bbe7"/><path d="M174.80963,388.25219l30.33334,-30.33333l-0.00177,-24.82064l53.86328,-53.55685l23.59067,0.01072l-57.15139,58.45643l27.03254,-0.923l-49.83333,51.16667z" fill="#84bbe7"/><path d="M82.61843,265.0855l50.75,-53.125l0.625,25.875l20.89389,1.14567l-49.51889,48.35433z" fill="#82b6eb"/><path d="M190.56941,305.58543l-0.16273,-27.08192l25.10752,-23.12838l25.22188,-0.20637l1.25,24.91666l-27,25.5z" fill="#82b6eb"/><path d="M98.33533,371.08553l-13.77984,-12.54575l21.77984,-20.70425l9,17.25z" fill="#82b6eb"/><path d="M16.83938,388.25219l38.43333,-34.83333v23.56667l-11.76667,11.26667z" fill="#82b6eb"/><path d="M175.26468,203.42458l-1.66666,-30.66666l26.66666,27l-27.33333,27.66666l-10.86369,-11.11638z" fill="#376fb3"/><path d="M412.3736,389.08553l14.16666,-14.66667l-0.07436,-29.76914l26.1379,25.29971l-0.06354,19.1361z" fill="#253f80"/><path d="M401.23346,373.53035v-28.4l25.4,-0.2l1.41455,21.77325l0.65211,7.62675l-14.86867,14.41524l-28.79799,-0.01524z" fill="#4182d1"/><path d="M376.64295,368.41885l24.66667,-23.66666l0.33333,28.66666l-15.66667,15.33333l-52.57833,0.46315l20.0083,-20.89549z" fill="#84bbe7"/></g></g></svg>