<svg version="1.1" xmlns="http://www.w3.org/2000/svg" xmlns:xlink="http://www.w3.org/1999/xlink" width="588.75684" height="382.60177" viewBox="0,0,588.75684,382.60177"><g transform="translate(49.81523,-97.69915)"><g data-paper-data="{&quot;isPaintingLayer&quot;:true}" fill-rule="nonzero" stroke="none" stroke-width="0" stroke-linecap="butt" stroke-linejoin="miter" stroke-miterlimit="10" stroke-dasharray="" stroke-dashoffset="0" style="mix-blend-mode: normal"><g><path d="M158.79276,237.60194l-49.25,57l-23.5,-21.25l15.75,-19z" fill="#203870"/><path d="M76.85827,255.40983l0.33334,-55.4l26.71795,0.45573l55.22055,32.38997l-0.15747,4.56724l-29.94312,18.6184l-27.2897,-0.46473l-36.99378,42.23963l-12.91221,-15.42101z" fill="#3074a8"/><path d="M39.41774,256.72693v-20l38.00001,-36.33333v55.33333l-30.69064,32.484l-31.69497,-3.75492z" fill="#609cc0"/></g><g><path d="M0.80173,391.30553l-0.31452,-88.34755l61.31452,-111.31911l81.5238,2.23809l0.14286,47.35715z" fill="#182450"/><path d="M35.91774,276.97211l-35.94937,35.26105l0.82148,-59.86441l62.2232,-63.32763l30.19244,-0.19782l23.55617,-25.09324l26.89962,30.21014l-26.41019,-0.32143l-52,51v32.33333z" fill="#387098"/><path d="M62.96839,189.25786l-64.27013,65.40551l2.19154,-33.16863l56.41193,-57.57021h60l-24,25z" fill="#68a0c0"/></g><g><path d="M477.94165,173.03893v-28l2.23286,2.40462l0.10047,27.09538z" fill="#206498"/><g><path d="M431.3362,443.21403l-76.82319,-12.97871l125.97426,-127.27733l0.81452,88.34755z" fill="#182450"/><g><path d="M392.55745,277.77441l-0.3577,-30.40487l23.60848,-22.53538l49.62769,-1.6192l-57.74088,64.05552z" fill="#203870"/><g><path d="M259.49688,222.59846l-260.75974,243.82277l0.00738,-90.68323l257.35418,-246.32154v51.50944z" fill="#609cc0"/><path d="M39.73783,427.43251l220.82547,-209.75236l128.30908,-69.99918l53.17917,3.40307l-13.50822,45.46016l-43.49888,44.74444l-34.31132,-12.85613l-259.85928,251.86842z" fill="#102050"/><path d="M351.95681,230.19964l-31.29914,-34.51848l67.63812,-52.31888l54.96636,8.02406l-10.46414,41.61204l-47.75354,49.89977z" fill="#102050"/><path d="M256.07451,129.55399h24.14505l50.50395,49.16495l52.78414,-51.42987l-22.15922,-1.25019l-0.5611,-27.71685l25.89192,-0.62287l55.57629,53.74769l-54.51858,-0.14398l-54.85875,54.92116l22.72105,19.40989l-4.69381,3.49899l-17.97063,2.32972l-45.81906,6.96759l-26.56633,-19.95623l-236.48063,223.47157l-11.11178,-16.57522l243.06919,-233.44248z" fill="#2870a8"/><path d="M383.20152,237.75955l39.03434,-39.17914l25.98634,-0.12744l28.87808,-25.83737l3.22465,1.22156l-0.19387,47.36736l-22.6279,13.82372l-43.07387,-6.80816l-20.34456,20.68161z" fill="#2870a8"/><path d="M306.47119,155.26063l54.4605,-57.00914l0.6707,27.76681l22.42151,1.22943l-53.13938,51.88967z" fill="#609cc0"/><path d="M422.31488,198.72168l-0.17463,-29.06197l26.94321,-24.81937l29.06593,0.27854l-0.15861,27.7384l-29.47406,25.86439z" fill="#609cc0"/></g></g><g><path d="M384.10831,418.35989l-36.13258,0.7342l100.13258,-107.2342l-39.1187,-32.91395l70.73635,-11.9482l1.37541,52.84572z" fill="#2870a8"/><path d="M437.10831,294.85983l-22.5,-25.5l65.72181,-64.84495l-0.11918,61.26311l-15.10262,14.58185h-29.5z" fill="#88a8e8"/></g><g><path d="M170.1669,423.53369l175,-168l58,56l-151,149z" fill="#306898"/><path d="M157.1669,437.88367l-11,-15l199.5,-194v27.5z" fill="#88acf0"/><path d="M286.16688,422.38367l116.5,-112l54.5,1.5l-139.5,138z" fill="#102050"/><path d="M345.66696,256.88356v-28l26.70558,-1.94786l84.79442,84.94786l-55.5,-1.5z" fill="#2870a8"/></g></g></g><path d="M-0.22505,175.37229l-0.10559,-27.93422l28.10558,30.26755v27z" fill="#206498"/><path d="M-0.25422,174.52184l27.71859,30.01602l-27.79456,20.49039z" fill="#2870a8"/><path d="M-0.17708,248.27922l28.78537,-10.91939l31.33333,23l-60.25092,60.8968z" fill="#2870a8"/><path d="M-0.16991,204.51489l28.35852,-0.60162l-0.08033,34.44657l-28.64551,27.65774z" fill="#88a8e8"/><path d="M28.10828,238.51071v-34.66666l31.66666,32.33334v23.66666z" fill="#185c90"/><path d="M-2.05836,174.03893v-28l2.23286,2.40462l0.10047,27.09538z" fill="#206498"/><path d="M-35.66383,379.21403l36.15107,-75.25604l0.81452,88.34755z" fill="#182450"/><path d="M-14.56409,224.21496z" fill="#203870"/><path d="M-31.77781,199.45297l28.87808,-25.83737l3.22465,1.22156l-0.19387,47.36736l-22.6279,13.82372z" fill="#2870a8"/><path d="M-30.91655,145.84033l29.06593,0.27854l-0.15861,27.7384l-29.47406,25.86439z" fill="#609cc0"/><path d="M-41.8917,306.85989l41.61765,-42.86215l1.37541,56.84572z" fill="#2870a8"/><path d="M-42.8917,295.85983l-6.92352,-48.59697l50.14533,-41.74798l-0.11918,59.26311l-36.60262,40.58185z" fill="#88a8e8"/><path d="M-22.8331,312.88365z" fill="#102050"/><path d="M-22.83305,312.88356z" fill="#2870a8"/><path d="M478.77495,174.37228l-0.10559,-27.93422l28.10558,30.26755v27z" fill="#206498"/><path d="M478.74578,173.52184l27.71859,30.01602l-27.79456,20.49039z" fill="#2870a8"/><path d="M478.82292,247.27921l28.78537,-10.91939l31.33333,23l-60.25092,60.8968z" fill="#2870a8"/><path d="M477.83009,206.51488l29.35852,-2.60162l-0.08033,33.44657l-28.64551,30.65774z" fill="#88a8e8"/><path d="M507.10828,237.5107v-34.66666l31.66666,32.33334v23.66666z" fill="#185c90"/></g></g></svg>