<svg version="1.1" xmlns="http://www.w3.org/2000/svg" xmlns:xlink="http://www.w3.org/1999/xlink" width="498.39316" height="34.87642" viewBox="0,0,498.39316,34.87642"><defs><linearGradient x1="363.90939" y1="63.0148" x2="363.90939" y2="83.30713" gradientUnits="userSpaceOnUse" id="color-1"><stop offset="0" stop-color="#91e3eb"/><stop offset="1" stop-color="#91e3eb" stop-opacity="0"/></linearGradient><linearGradient x1="363.59908" y1="53.80733" x2="363.59908" y2="70.3769" gradientUnits="userSpaceOnUse" id="color-2"><stop offset="0" stop-color="#f5fdfd"/><stop offset="1" stop-color="#beeef3"/></linearGradient><linearGradient x1="363.59908" y1="56.67347" x2="363.59908" y2="73.24304" gradientUnits="userSpaceOnUse" id="color-3"><stop offset="0" stop-color="#76d2df" stop-opacity="0"/><stop offset="1" stop-color="#76d2df"/></linearGradient><linearGradient x1="115.10298" y1="63.0148" x2="115.10298" y2="83.30714" gradientUnits="userSpaceOnUse" id="color-4"><stop offset="0" stop-color="#91e3eb"/><stop offset="1" stop-color="#91e3eb" stop-opacity="0"/></linearGradient><linearGradient x1="115.5689" y1="55.59381" x2="115.5689" y2="70.37615" gradientUnits="userSpaceOnUse" id="color-5"><stop offset="0" stop-color="#f5fdfd"/><stop offset="1" stop-color="#daf0f2"/></linearGradient><linearGradient x1="115.41582" y1="56.67348" x2="115.41582" y2="73.24304" gradientUnits="userSpaceOnUse" id="color-6"><stop offset="0" stop-color="#76d2df" stop-opacity="0"/><stop offset="1" stop-color="#76d2df"/></linearGradient></defs><g transform="translate(10.19658,-55.59351)"><g data-paper-data="{&quot;isPaintingLayer&quot;:true}" fill-rule="nonzero" stroke="none" stroke-width="0" stroke-linecap="butt" stroke-linejoin="miter" stroke-miterlimit="10" stroke-dasharray="" stroke-dashoffset="0" style="mix-blend-mode: normal"><g><g fill="url(#color-1)"><path d="M239.62221,83.30713v-20.12566l248.57437,-1.5v21.62566z"/></g><path d="M487.97998,67.60062c0,0 -7.27435,-2.3717 -21.42307,-2.54775c-6.25982,-0.07789 -28.54845,3.94374 -41.10324,3.82129c-11.74496,-0.11455 -28.32376,-2.57198 -42.57462,-2.92378c-11.50802,-0.28409 -35.46068,2.95354 -47.26366,2.90517c-8.6882,-0.03561 -24.92441,-1.9435 -32.80602,-2.18186c-11.43314,-0.34577 -20.26017,1.57256 -28.61787,1.29364c-22.56604,-0.75308 -34.97333,-1.96215 -34.97333,-1.96215c0,0 -0.96305,-9.20327 1.108,-8.82023c4.99136,0.92314 17.85839,1.08982 33.74529,1.72211c8.38558,0.33373 17.25525,-1.54519 28.74456,-1.19495c7.96181,0.24271 24.28659,1.63869 33.06799,1.67712c11.57884,0.05069 35.30046,-3.18692 46.5987,-2.90695c14.3976,0.35678 31.1186,2.818 42.97299,2.93363c12.55582,0.12246 34.84517,-3.89917 41.10511,-3.82128c14.1471,0.17604 21.41918,2.54771 21.41918,2.54771v9.45829z" fill="url(#color-2)"/><path d="M487.97998,70.46676c0,0 -7.27435,-2.3717 -21.42307,-2.54775c-6.25982,-0.0779 -28.54845,3.94374 -41.10324,3.82129c-11.74496,-0.11455 -28.32376,-2.57197 -42.57462,-2.92378c-11.50802,-0.28409 -35.46068,2.95354 -47.26366,2.90517c-8.6882,-0.03561 -24.92441,-1.9435 -32.80602,-2.18187c-11.43314,-0.34577 -20.26017,1.57256 -28.61787,1.29364c-22.56604,-0.75308 -34.66083,-2.08715 -34.66083,-2.08715l-0.3125,-9.33329c0,0 12.37448,1.46553 34.85329,2.36017c8.38558,0.33374 17.25525,-1.54519 28.74456,-1.19495c7.96181,0.24271 24.28659,1.63868 33.06799,1.67712c11.57884,0.05069 35.30046,-3.18693 46.5987,-2.90695c14.3976,0.35678 31.1186,2.818 42.97299,2.93362c12.55582,0.12246 34.84517,-3.89917 41.10511,-3.82127c14.1471,0.17604 21.41918,2.5477 21.41918,2.5477v9.45829z" fill="url(#color-3)"/></g><g><g fill="url(#color-4)"><path d="M-10.19658,83.30714v-20.95901h249.80529l0.05195,20.95901z"/></g><path d="M-9.97823,67.60062v-9.45829c0,0 7.33132,-2.37166 21.59366,-2.5477c6.31092,-0.0779 28.78183,5.44373 41.43992,5.32127c11.95095,-0.11562 28.80815,-4.41019 43.32304,-4.76697c11.39026,-0.27997 35.30511,4.29098 46.97826,4.24029c8.85293,-0.03844 25.31068,-2.43441 33.33733,-2.67712c11.5829,-0.35024 20.52482,-1.47131 28.97871,-1.80505c18.58998,-0.73389 30.73066,2.02428 34.38009,1.69784c1.81412,-0.16227 0.7571,8.40028 0.7571,8.40028c0,0 -12.50835,-1.79092 -35.2582,-1.03785c-8.42578,0.27891 -17.32472,1.36059 -28.85097,1.70635c-7.94582,0.23836 -24.31427,3.14625 -33.07324,3.18187c-11.89913,0.04837 -36.04689,-4.52261 -47.64864,-4.23851c-14.36694,0.35181 -31.08079,4.64257 -42.92141,4.75712c-12.65705,0.12245 -35.12724,-5.39918 -41.43805,-5.32129c-14.26397,0.17605 -21.59758,2.54775 -21.59758,2.54775z" fill="url(#color-5)"/><path d="M-9.97823,70.46676v-9.45829c0,0 7.33132,-2.37166 21.59366,-2.5477c6.31092,-0.0779 28.78183,5.44373 41.43992,5.32127c11.95095,-0.11562 28.80815,-4.41019 43.32304,-4.76697c11.39026,-0.27997 35.30511,4.29098 46.97826,4.24029c8.85293,-0.03844 25.31068,-2.43441 33.33733,-2.67712c11.5829,-0.35024 20.52482,-1.47131 28.97871,-1.80505c22.66192,-0.89464 35.56576,0.63983 35.56576,0.63983l-0.42857,9.45829c0,0 -12.50835,-1.79092 -35.2582,-1.03785c-8.42578,0.27891 -17.32472,1.36059 -28.85097,1.70635c-7.94582,0.23836 -24.31427,3.14625 -33.07324,3.18187c-11.89913,0.04837 -36.04689,-4.52261 -47.64864,-4.23851c-14.36694,0.35181 -31.08079,4.64257 -42.92141,4.75712c-12.65705,0.12245 -35.12724,-5.39918 -41.43805,-5.32129c-14.26397,0.17605 -21.59758,2.54775 -21.59758,2.54775z" fill="url(#color-6)"/></g><g fill="#b4e5e9"><path d="M453.68264,81.47636c3.02554,0 5.47824,1.03537 5.47824,2.31257c0,1.27718 -2.45269,2.31256 -5.47824,2.31256c-3.02554,0 -5.47823,-1.59038 -5.47823,-2.86758c0,-1.27718 2.45269,-1.75755 5.47823,-1.75755z"/><path d="M427.28749,79.90381c0,-1.78808 3.30742,-3.23759 7.38733,-3.23759c4.0799,0 7.29122,-0.02731 7.38732,1.75756c0.16601,3.0831 -3.30742,4.71764 -7.38732,4.71764c-4.0799,0 -7.38733,-1.44953 -7.38733,-3.23759z"/><path d="M406.7856,82.95637c2.33792,0 4.23319,0.95255 4.23319,2.12757c0,1.17502 -1.89526,2.12755 -4.23319,2.12755c-2.33792,0 -4.23319,-1.50755 -4.23319,-2.68257c0,-1.17502 1.89526,-1.57255 4.23319,-1.57255z"/><path d="M381.4695,75.09367c0,-2.19678 3.54775,-1.01753 7.71934,-1.01753c4.17159,0 7.55333,1.78083 7.55333,3.97761c0,2.19678 -3.38174,3.97762 -7.55333,3.97762c-4.17159,0 -7.71934,-3.07588 -7.71934,-6.93771z"/><path d="M358.01164,77.57575c3.07139,0 5.56125,1.9604 5.56125,3.23759c0,1.2772 -2.48986,1.38755 -5.56125,1.38755c-3.07139,0 -5.22922,0.25966 -5.22922,-1.01753c0,-1.2772 2.15784,-3.60761 5.22922,-3.60761z"/><path d="M343.20484,84.36476c4.0799,0 7.38732,0.44167 7.38732,2.12756c0,1.6859 -3.30742,3.97761 -7.38732,3.97761c-4.0799,0 -7.38733,-2.66174 -7.38733,-4.34763c0,-1.68591 3.30742,-1.75755 7.38733,-1.75755z"/><path d="M315.56464,81.10634c2.65882,0 4.81421,1.81681 4.81421,3.1451c0,1.32829 -2.1554,1.66505 -4.81421,1.66505c-2.65881,0 -4.81421,-0.15177 -4.81421,-1.48004c0,-1.32829 2.1554,-3.33009 4.81421,-3.33009z"/><path d="M297.75127,74.63115c3.89654,0 7.05531,1.78083 7.05531,3.97761c0,2.19678 -3.15877,3.97762 -7.05531,3.97762c-3.89654,0 -7.0553,-1.78084 -7.0553,-3.97762c0,-2.19678 3.15877,-3.97761 7.0553,-3.97761z"/><path d="M262.56028,84.3574c2.93386,0 5.31224,1.03537 5.31224,2.31257c0,1.27718 -2.37837,2.31257 -5.31224,2.31257c-2.93387,0 -5.31224,-1.03538 -5.31224,-2.31257c0,-1.27718 2.37838,-2.31257 5.31224,-2.31257z"/><path d="M245.76757,77.32387c0.18044,-1.51939 3.3845,-2.30007 7.15647,-1.74371c3.77196,0.55637 6.68346,2.23909 6.50302,3.75848c-0.18044,1.51939 -3.3845,2.30007 -7.15647,1.74371c-3.77196,-0.55636 -6.68346,-2.23909 -6.50302,-3.75847z"/></g><path d="M15.09657,84.52895c0,1.17502 -2.61777,2.68257 -5.84694,2.68257c-3.22918,0 -5.84694,-0.95254 -5.84694,-2.12756c0,-1.17502 2.61777,-2.12756 5.84694,-2.12756c3.22918,0 5.84694,0.39753 5.84694,1.57255z" fill="#b4e5e9"/><path d="M44.21666,75.09367c0,3.86183 -4.90021,6.93771 -10.66208,6.93771c-5.76187,0 -10.43279,-1.78084 -10.43279,-3.97762c0,-2.19678 4.67092,-3.97761 10.43279,-3.97761c5.76187,0 10.66208,-1.17926 10.66208,1.01753z" fill="#b4e5e9"/><path d="M78.83974,83.60392c0,1.27719 -2.98044,1.01753 -7.2227,1.01753c-4.24225,0 -7.68128,-0.11034 -7.68128,-1.38755c0,-1.27719 3.43903,-3.23759 7.68128,-3.23759c4.24225,0 7.2227,2.33041 7.2227,3.60761z" fill="#b4e5e9"/><path d="M107.27194,82.08803c0,1.68591 -4.56826,4.34763 -10.2035,4.34763c-5.63524,0 -10.20349,-2.29172 -10.20349,-3.97761c0,-1.68591 4.56825,-2.12756 10.20349,-2.12756c5.63524,0 10.2035,0.07164 10.2035,1.75755z" fill="#b4e5e9"/><path d="M141.89503,84.43644c0,1.32829 -2.97707,1.48004 -6.64947,1.48004c-3.6724,0 -6.64947,-0.33676 -6.64947,-1.66505c0,-1.32829 2.97707,-3.1451 6.64947,-3.1451c3.6724,0 6.64947,2.00181 6.64947,3.3301z" fill="#b4e5e9"/><path d="M169.59458,78.60877c0,2.19678 -4.36294,3.97762 -9.7449,3.97762c-5.38196,0 -9.74491,-1.78084 -9.74491,-3.97762c0,-2.19678 4.36294,-3.97761 9.74491,-3.97761c5.38196,0 9.7449,1.78083 9.7449,3.97761z" fill="#b4e5e9"/><path d="M205.59342,83.60392c0,1.27719 -3.28504,2.31257 -7.33734,2.31257c-4.0523,0 -7.33734,-1.03539 -7.33734,-2.31257c0,-1.27719 3.28505,-2.31256 7.33734,-2.31256c4.0523,0 7.33734,1.03538 7.33734,2.31256z" fill="#b4e5e9"/><path d="M231.65044,77.32388c0.24923,1.51939 -3.77218,3.20211 -8.98208,3.75847c-5.2099,0.55636 -9.63539,-0.22432 -9.88463,-1.74371c-0.24923,-1.51939 3.77218,-3.20211 8.98208,-3.75848c5.2099,-0.55636 9.63539,0.22432 9.88463,1.74371z" fill="#b4e5e9"/></g></g></svg>