<svg version="1.1" xmlns="http://www.w3.org/2000/svg" xmlns:xlink="http://www.w3.org/1999/xlink" width="534.32465" height="216.50435" viewBox="0,0,534.32465,216.50435"><g transform="translate(27.16232,-155.74784)"><g data-paper-data="{&quot;isPaintingLayer&quot;:true}" fill-rule="nonzero" stroke="none" stroke-width="0" stroke-linecap="butt" stroke-linejoin="miter" stroke-miterlimit="10" stroke-dasharray="" stroke-dashoffset="0" style="mix-blend-mode: normal"><g><path d="M459.46608,319.2553l0.25,-26.5l22.5,-23.5l24.94625,1.69675l-0.19625,3.05325v46.33333l-51.12153,51.41667l-28.57266,0.08015l0.12066,-21.35594z" fill="#284885"/><path d="M427.32199,350.63034l-5.63333,-23.4l22.86667,-23.2l-25.65669,0.44844l8.92445,-10.40987l50.75777,-49.81862l28.2164,26.75403l-24.8898,-0.39804l-21.57159,22.25592l-0.68052,26.76815z" fill="#4182d1"/><path d="M370.30963,353.25219l30.33334,-30.33333l-0.00177,-24.82064l53.86328,-53.55685l23.59067,0.01072l-57.15139,58.45643l27.03254,-0.923l-49.83333,51.16667z" fill="#82b6eb"/></g><path d="M91.68656,237.96625v-23.75l59.25,-58.25001l21.81052,-0.2184l1.53512,31.2314l-53.59564,53.73701z" fill="#84bbe7"/><path d="M37.84456,310.83543l-65.00688,61.33814l0.00688,-84.50481l61.83334,-63.66666v48z" fill="#84bbe7"/><path d="M171.01155,209.4984l28.14286,-26.85715v54.57143z" fill="#284885"/><path d="M-27.16163,371.25219l66,-65l119.56714,-65.23l49.55597,3.17121l-12.58788,42.36287l-40.53522,41.69592l-100,43z" fill="#284885"/><path d="M107.505,322.58543l-12.66667,-36.83334l63.02981,-48.7543l51.2214,7.47737l-9.7512,38.77693l-44.5,46.5z" fill="#253f80"/><path d="M260.17263,338.75209l1.66667,-25.66667l23.92188,-24.17307l24.41146,2.5064l-0.33334,49.33333l-32.10147,30.73126l-51.23186,-0.39793z" fill="#253f80"/><path d="M39.97623,372.25219v-12.66667h32.66667v12.66667z" fill="#253f80"/><path d="M93.50606,355.25219l19.66667,-19.66667l15,10.33333l-22.66667,17.66667z" fill="#284885"/><path d="M161.83941,362.25219l-0.33333,-28.33333l21.99999,-21l25.74536,2.68453l-36.41202,44.31547z" fill="#284885"/><path d="M163.41797,371.38552v-11l41.2,-40.8l1.42316,22.50254l-25.22316,29.29746z" fill="#82b6eb"/><path d="M26.90535,280.8803l7.71887,-8.66543l0.03113,-48.08457h22.5l47.06302,45.81525l49.18786,-47.92586l-20.64947,-1.16501l-0.52287,-25.82845l24.12785,-0.58043l51.78977,50.08576l-50.80413,-0.13417l-51.12112,51.17928l16.42302,12.83746l-1.87401,8.0106l-15.49626,4.42099l-34.24238,1.0154l-27.78135,-8.38512l-16.0999,-15.84565z" fill="#376fb3"/><path d="M114.12096,337.96359l-9,-17.33333l12.66667,-1.33334l22.49245,-6.23739l12.84088,11.90407l36.37486,-36.50979l24.21584,-0.11876l26.91056,-25.47482l-0.99509,-24.63362l24.13793,24.75328l-6.18522,-0.0368l-53.23567,52.95221l-22.12304,0.17877l-18.95845,19.27253l1.37256,35.86842l-23.74836,-23.16619l-17.01121,0.03251z" fill="#376fb3"/><path d="M201.58765,371.29161l49.66667,-51l-26.858,0.70884l57.05287,-58.31032l29.07061,28.82766l-24.59465,-1.09864l-23.41799,24.51036l0.08049,24.69543l-33.66667,31.66667z" fill="#4182d1"/><path d="M54.17872,360.13036v-23.75h10.75l18.57615,5.05858l21.38745,19.39908l-10.60022,10.70789l-24.61338,0.08445l-0.07901,-4.64618l-7.68131,-6.8306z" fill="#376fb3"/><path d="M143.43387,371.26408l-2,-23.21428l24.39286,23.35715z" fill="#284885"/><path d="M117.37494,371.63036v-23.66667h24l2.66667,23.66667z" fill="#4182d1"/><path d="M94.33765,371.33553l23.08334,-23.375v23.25z" fill="#84bbe7"/><path d="M173.80963,371.25219l30.33334,-30.33333l-0.00177,-24.82064l53.86328,-53.55685l23.59067,0.01072l-57.15139,58.45643l27.03254,-0.923l-49.83333,51.16667z" fill="#84bbe7"/><path d="M81.61843,248.0855l50.75,-53.125l0.625,25.875l20.89389,1.14567l-49.51889,48.35433z" fill="#82b6eb"/><path d="M189.56941,288.58543l-0.16273,-27.08192l25.10752,-23.12838l25.22188,-0.20637l1.25,24.91666l-27,25.5z" fill="#82b6eb"/><path d="M97.33533,354.08553l-13.77984,-12.54575l21.77984,-20.70425l9,17.25z" fill="#82b6eb"/><path d="M15.83938,371.25219l38.43333,-34.83333v23.56667l-11.76667,11.26667z" fill="#82b6eb"/><path d="M174.26468,186.42459l-1.66666,-30.66666l26.66666,27l-27.33333,27.66666l-10.86369,-11.11638z" fill="#376fb3"/><path d="M411.3736,372.08553l14.16666,-14.66667l-0.07436,-29.76914l26.1379,25.29971l-0.06354,19.1361z" fill="#253f80"/><path d="M400.23346,356.53035v-28.4l25.4,-0.2l1.41455,21.77325l0.65211,7.62675l-14.86867,14.41524l-28.79799,-0.01524z" fill="#4182d1"/><path d="M375.64295,351.41885l24.66667,-23.66666l0.33333,28.66666l-15.66667,15.33333l-52.57833,0.46315l20.0083,-20.89549z" fill="#84bbe7"/></g></g></svg>