<svg version="1.1" xmlns="http://www.w3.org/2000/svg" xmlns:xlink="http://www.w3.org/1999/xlink" width="152" height="152" viewBox="0,0,152,152"><defs><radialGradient cx="216.05696" cy="165.87499" r="29.79878" gradientUnits="userSpaceOnUse" id="color-1"><stop offset="0" stop-color="#fffc3b"/><stop offset="1" stop-color="#dfaa02"/></radialGradient><radialGradient cx="217.35958" cy="179.37499" r="27.96031" gradientUnits="userSpaceOnUse" id="color-2"><stop offset="0" stop-color="#fffa38"/><stop offset="1" stop-color="#f2c00a"/></radialGradient><radialGradient cx="266.45466" cy="188.80453" r="20.43237" gradientUnits="userSpaceOnUse" id="color-3"><stop offset="0" stop-color="#bf8000"/><stop offset="1" stop-color="#bf8000" stop-opacity="0"/></radialGradient><linearGradient x1="243.28058" y1="153.47147" x2="243.28058" y2="206.53432" gradientUnits="userSpaceOnUse" id="color-4"><stop offset="0" stop-color="#facd14"/><stop offset="1" stop-color="#facd0f"/></linearGradient><radialGradient cx="259.27588" cy="185.17211" r="20.55359" gradientUnits="userSpaceOnUse" id="color-5"><stop offset="0" stop-color="#fff949"/><stop offset="1" stop-color="#fff949" stop-opacity="0"/></radialGradient><linearGradient x1="226.61411" y1="179.9645" x2="262.50679" y2="179.9645" gradientUnits="userSpaceOnUse" id="color-6"><stop offset="0" stop-color="#cb9604"/><stop offset="1" stop-color="#fac818"/></linearGradient><radialGradient cx="261.50981" cy="180.875" r="19.78958" gradientUnits="userSpaceOnUse" id="color-7"><stop offset="0" stop-color="#ffec19"/><stop offset="1" stop-color="#ffec19" stop-opacity="0"/></radialGradient><linearGradient x1="243.9138" y1="161.18282" x2="243.9138" y2="198.82984" gradientUnits="userSpaceOnUse" id="color-8"><stop offset="0" stop-color="#e7b913"/><stop offset="1" stop-color="#edbb09"/></linearGradient></defs><g transform="translate(-164,-104.00001)"><g data-paper-data="{&quot;isPaintingLayer&quot;:true}" fill-rule="nonzero" stroke="none" stroke-width="0" stroke-linecap="butt" stroke-linejoin="miter" stroke-miterlimit="10" stroke-dasharray="" stroke-dashoffset="0" style="mix-blend-mode: normal"><path d="M164,256.00001v-152h152v152z" data-paper-data="{&quot;origPos&quot;:null}" fill="none"/><path d="M236.45164,208.42325l-0.91135,-5.97229h9.00986v6.03896z" fill="#e2b500"/><path d="M236.56783,159.81654v-8.25606l5.81539,-0.06667v8.32273z" fill="#fffa44"/><path d="M211.94116,180.00289c0,-15.72982 12.15243,-28.48137 27.14324,-28.48137c14.9908,0 27.14324,12.75155 27.14324,28.48138c0,15.72982 -12.15246,28.48138 -27.14323,28.48138c-14.9908,0 -27.14323,-12.75155 -27.14323,-28.48138z" fill="url(#color-1)"/><path d="M221.51647,196.81107c-8.37839,-12.71227 -5.86921,-30.54286 5.60434,-39.82577c11.47358,-9.28291 27.56677,-6.50286 35.94513,6.20941c8.37836,12.71227 5.86921,30.54288 -5.60436,39.82579c-11.47358,9.28291 -27.56674,6.50287 -35.94513,-6.20941z" data-paper-data="{&quot;origRot&quot;:0}" fill="url(#color-2)"/><path d="M268.05884,180.1022c0,15.6294 -12.83052,28.29956 -28.65777,28.29956c-15.82725,0 28.65777,-66.0029 28.65777,-28.29956z" fill="url(#color-3)"/><path d="M223.45906,194.8839c-7.30763,-12.1293 -4.35725,-28.62449 6.5899,-36.84306c6.34933,-4.76677 13.99425,-5.70232 20.72174,-3.28075c4.87163,1.75355 9.26221,5.26748 12.3314,10.36177c7.30764,12.12931 4.35726,28.62451 -6.58988,36.84308c-10.94713,8.21856 -25.74552,5.04828 -33.05315,-7.08101z" fill="url(#color-4)"/><path d="M231.10457,198.51947c-10.78506,-4.3737 6.66637,-41.48366 17.45142,-37.10996c10.78505,4.3737 15.62144,16.22662 10.80238,26.47426c-4.81907,10.24765 -17.46871,15.0094 -28.25376,10.63571z" data-paper-data="{&quot;origRot&quot;:0}" fill="url(#color-5)"/><g><path d="M237.24095,199.06037c-9.04697,-4.5012 -13.10392,-16.69966 -9.06147,-27.24603c4.04244,-10.54636 14.6535,-15.44692 23.70045,-10.94573c9.04697,4.5012 13.10392,16.69965 9.0615,27.24602c-4.04243,10.54637 -14.6535,15.44693 -23.70046,10.94576z" data-paper-data="{&quot;origRot&quot;:0}" fill="url(#color-6)"/><path d="M237.92961,198.51275c-8.8021,-4.37937 5.44067,-41.53741 14.24277,-37.15804c8.80209,4.37937 12.74926,16.24764 8.81625,26.50856c-3.93303,10.26093 -14.25688,15.02884 -23.05897,10.64949z" data-paper-data="{&quot;origRot&quot;:0}" fill="url(#color-7)"/></g><path d="M227.47551,180.00633c0,-10.39593 7.35968,-18.82351 16.4383,-18.82351c9.07861,0 16.43827,8.42756 16.43827,18.82351c0,10.39594 -7.35967,18.82351 -16.43827,18.82351c-9.07861,0 -16.43828,-8.42756 -16.43828,-18.82351z" fill="url(#color-8)"/><g><path d="M248.21291,185.60457v-10.94584h2.03448v10.94584z" fill="#ffd528"/><path d="M246.35678,185.48205v-11.1092h1.76519v11.10921z" fill="#9b7401"/><path d="M249.58584,174.71381l-1.40619,1.83792l-0.53257,-1.83791z" data-paper-data="{&quot;index&quot;:null}" fill="#ffce18"/><path d="M247.65388,185.44119l0.46811,-1.83791l1.40618,1.83792z" fill="#feff37"/><path d="M242.35712,172.07337v-3.10404h10.86274v3.10404z" fill="#feff37"/><path d="M242.35712,190.97086v-3.10404h10.86274v3.10404z" fill="#b68c09"/><path d="M242.50022,191.03148v-22.05909l2.71433,1.54788v18.56704z" fill="#ffd528"/><path d="M236.19684,170.74356l-1.95239,-1.75687l8.25847,-0.01686l-0.11496,1.73414z" fill="#feff37"/><path d="M242.23311,189.13975l0.01349,-18.47416l0.25855,-1.69719v22.04453z" fill="#9b7401"/><path d="M234.24373,176.3932v-7.39796l2.85236,1.63936l-0.04032,3.85661l2.24166,0.00002l-0.04504,14.653l-3.04235,1.89311l0.07961,-14.64489z" fill="#ffd528"/><path d="M236.22853,190.96123l3.08864,-1.86119h2.9178l0.29257,1.86541z" fill="#b68c09"/><path d="M252.71051,189.15268v-18.50576l0.50265,-1.67455v21.95732z" data-paper-data="{&quot;index&quot;:null}" fill="#9b7401"/></g><g fill="#fceb12"><path d="M239.23219,189.10262l0.00592,-14.65254l-2.13564,0.00148v-3.84226h5.122v18.49332z"/><path d="M245.16718,189.12573v-18.55121h7.53566v18.55121zM250.23916,185.35373l-0.03796,-10.52545l-2.52647,0.0017l-0.0077,10.50667z"/></g></g></g></svg>