<svg version="1.1" xmlns="http://www.w3.org/2000/svg" xmlns:xlink="http://www.w3.org/1999/xlink" width="498.39317" height="34.37583" viewBox="0,0,498.39317,34.37583"><defs><linearGradient x1="363.90939" y1="63.01479" x2="363.90939" y2="83.30712" gradientUnits="userSpaceOnUse" id="color-1"><stop offset="0" stop-color="#91e3eb"/><stop offset="1" stop-color="#91e3eb" stop-opacity="0"/></linearGradient><linearGradient x1="363.59908" y1="53.80732" x2="363.59908" y2="70.3769" gradientUnits="userSpaceOnUse" id="color-2"><stop offset="0" stop-color="#f5fdfd"/><stop offset="1" stop-color="#beeef3"/></linearGradient><linearGradient x1="363.59908" y1="56.67346" x2="363.59908" y2="73.24304" gradientUnits="userSpaceOnUse" id="color-3"><stop offset="0" stop-color="#76d2df" stop-opacity="0"/><stop offset="1" stop-color="#76d2df"/></linearGradient><linearGradient x1="115.10298" y1="63.01479" x2="115.10298" y2="83.30713" gradientUnits="userSpaceOnUse" id="color-4"><stop offset="0" stop-color="#91e3eb"/><stop offset="1" stop-color="#91e3eb" stop-opacity="0"/></linearGradient><linearGradient x1="115.5689" y1="54.09409" x2="115.5689" y2="71.87545" gradientUnits="userSpaceOnUse" id="color-5"><stop offset="0" stop-color="#f5fdfd"/><stop offset="1" stop-color="#daf0f2"/></linearGradient><linearGradient x1="115.41582" y1="56.67347" x2="115.41582" y2="73.24304" gradientUnits="userSpaceOnUse" id="color-6"><stop offset="0" stop-color="#76d2df" stop-opacity="0"/><stop offset="1" stop-color="#76d2df"/></linearGradient></defs><g transform="translate(10.19658,-54.09409)"><g data-paper-data="{&quot;isPaintingLayer&quot;:true}" fill-rule="nonzero" stroke="none" stroke-width="0" stroke-linecap="butt" stroke-linejoin="miter" stroke-miterlimit="10" stroke-dasharray="" stroke-dashoffset="0" style="mix-blend-mode: normal"><g><g fill="url(#color-1)"><path d="M240.40793,83.23569v-17.55423l54.63163,-1.48576l193.15703,0.48576v18.62566z"/></g><path d="M487.97998,67.60062c0,0 -7.27435,-2.3717 -21.42307,-2.54775c-6.25982,-0.07789 -28.54845,3.94374 -41.10324,3.82129c-11.74496,-0.11455 -28.32376,-1.07198 -42.57462,-1.42378c-11.50802,-0.28409 -35.46068,2.95354 -47.26366,2.90517c-8.6882,-0.03561 -24.92441,-4.9435 -32.80602,-5.18186c-11.43314,-0.34577 -20.26017,4.57256 -28.61787,4.29364c-22.56604,-0.75308 -34.97333,-1.96215 -34.97333,-1.96215c0,0 -0.96305,-9.20327 1.108,-8.82023c4.99136,0.92314 17.85839,1.08982 33.74529,1.72211c8.38558,0.33373 17.25525,-4.54519 28.74456,-4.19495c7.96181,0.24271 24.28659,4.63869 33.06799,4.67712c11.57884,0.05069 35.30046,-3.18692 46.5987,-2.90695c14.3976,0.35678 31.1186,1.318 42.97299,1.43363c12.55582,0.12246 34.84517,-3.89917 41.10511,-3.82128c14.1471,0.17604 21.41918,2.54771 21.41918,2.54771v9.45829z" fill="url(#color-2)"/><path d="M487.97998,70.46676c0,0 -7.27435,-2.3717 -21.42307,-2.54775c-6.25982,-0.0779 -28.54845,3.94374 -41.10324,3.82129c-11.74496,-0.11455 -28.32376,-1.07197 -42.57462,-1.42378c-11.50802,-0.28409 -35.46068,2.95354 -47.26366,2.90517c-8.6882,-0.03561 -24.92441,-4.9435 -32.80602,-5.18187c-11.43314,-0.34577 -20.26017,4.57256 -28.61787,4.29364c-22.56604,-0.75308 -33.68762,-2.03358 -33.68762,-2.03358l-1.28571,-9.38686c0,0 12.37448,1.46553 34.85329,2.36017c8.38558,0.33374 17.25525,-4.54519 28.74456,-4.19495c7.96181,0.24271 24.28659,4.63868 33.06799,4.67712c11.57884,0.05069 35.30046,-3.18693 46.5987,-2.90695c14.3976,0.35678 31.1186,1.318 42.97299,1.43362c12.55582,0.12246 34.84517,-3.89917 41.10511,-3.82127c14.1471,0.17604 21.41918,2.5477 21.41918,2.5477v9.45829z" fill="url(#color-3)"/></g><g><g fill="url(#color-4)"><path d="M-10.19658,83.30713v-20.95901l250.59913,1.07142v19.88759z"/></g><path d="M-9.97823,67.60062v-9.45829c0,0 7.33132,-3.87166 21.59366,-4.0477c6.31092,-0.0779 28.78183,8.44373 41.43992,8.32127c11.95095,-0.11562 28.80815,-7.41019 43.32304,-7.76697c11.39026,-0.27997 35.30511,7.29098 46.97826,7.24029c8.85293,-0.03844 25.31068,-2.43441 33.33733,-2.67712c11.5829,-0.35024 20.52482,-4.47131 28.97871,-4.80505c18.58998,-0.73389 30.73066,5.02428 34.38009,4.69784c1.81412,-0.16227 0.7571,8.40028 0.7571,8.40028c0,0 -12.50835,-4.79092 -35.2582,-4.03785c-8.42578,0.27891 -17.32472,4.36059 -28.85097,4.70635c-7.94582,0.23836 -24.31427,3.14625 -33.07324,3.18187c-11.89913,0.04837 -36.04689,-7.52261 -47.64864,-7.23851c-14.36694,0.35181 -31.08079,7.64257 -42.92141,7.75712c-12.65705,0.12245 -35.12724,-8.39918 -41.43805,-8.32129c-14.26397,0.17605 -21.59758,4.04775 -21.59758,4.04775z" fill="url(#color-5)"/><path d="M-9.97823,70.46676v-9.45829c0,0 7.33132,-3.87166 21.59366,-4.0477c6.31092,-0.0779 28.78183,8.44373 41.43992,8.32127c11.95095,-0.11562 28.80815,-7.41019 43.32304,-7.76697c11.39026,-0.27997 35.30511,7.29098 46.97826,7.24029c8.85293,-0.03844 25.31068,-2.43441 33.33733,-2.67712c11.5829,-0.35024 20.52482,-4.47131 28.97871,-4.80505c22.66192,-0.89464 35.56576,3.92554 35.56576,3.92554l-0.42857,9.17258c0,0 -12.50835,-4.79092 -35.2582,-4.03785c-8.42578,0.27891 -17.32472,4.36059 -28.85097,4.70635c-7.94582,0.23836 -24.31427,3.14625 -33.07324,3.18187c-11.89913,0.04837 -36.04689,-7.52261 -47.64864,-7.23851c-14.36694,0.35181 -31.08079,7.64257 -42.92141,7.75712c-12.65705,0.12245 -35.12724,-8.39918 -41.43805,-8.32129c-14.26397,0.17605 -21.59758,4.04775 -21.59758,4.04775z" fill="url(#color-6)"/></g><g fill="#b4e5e9"><path d="M453.68264,78.39991c3.02554,0 5.47824,1.15929 5.47824,2.58936c0,1.43005 -2.45269,2.58935 -5.47824,2.58935c-3.02554,0 -5.47823,-1.78073 -5.47823,-3.2108c0,-1.43005 2.45269,-1.96791 5.47823,-1.96791z"/><path d="M427.28749,76.63915c0,-2.00209 3.30742,-3.6251 7.38733,-3.6251c4.0799,0 7.29122,-0.03058 7.38732,1.96792c0.16601,3.45212 -3.30742,5.28229 -7.38732,5.28229c-4.0799,0 -7.38733,-1.62302 -7.38733,-3.6251z"/><path d="M406.7856,80.05708c2.33792,0 4.23319,1.06656 4.23319,2.38222c0,1.31566 -1.89526,2.3822 -4.23319,2.3822c-2.33792,0 -4.23319,-1.68799 -4.23319,-3.00365c0,-1.31566 1.89526,-1.76077 4.23319,-1.76077z"/><path d="M381.4695,71.25329c0,-2.45971 3.54775,-1.13932 7.71934,-1.13932c4.17159,0 7.55333,1.99398 7.55333,4.45369c0,2.45971 -3.38174,4.4537 -7.55333,4.4537c-4.17159,0 -7.71934,-3.44403 -7.71934,-7.76808z"/><path d="M358.01164,74.03244c3.07139,0 5.56125,2.19504 5.56125,3.6251c0,1.43007 -2.48986,1.55362 -5.56125,1.55362c-3.07139,0 -5.22922,0.29074 -5.22922,-1.13932c0,-1.43007 2.15784,-4.0394 5.22922,-4.0394z"/><path d="M343.20484,81.63403c4.0799,0 7.38732,0.49453 7.38732,2.38221c0,1.88768 -3.30742,4.45369 -7.38732,4.45369c-4.0799,0 -7.38733,-2.98032 -7.38733,-4.868c0,-1.88769 3.30742,-1.96791 7.38733,-1.96791z"/><path d="M315.56464,77.98561c2.65882,0 4.81421,2.03426 4.81421,3.52153c0,1.48727 -2.1554,1.86434 -4.81421,1.86434c-2.65881,0 -4.81421,-0.16993 -4.81421,-1.65719c0,-1.48727 2.1554,-3.72867 4.81421,-3.72867z"/><path d="M297.75127,70.73541c3.89654,0 7.05531,1.99398 7.05531,4.45369c0,2.45971 -3.15877,4.4537 -7.05531,4.4537c-3.89654,0 -7.0553,-1.99399 -7.0553,-4.4537c0,-2.45971 3.15877,-4.45369 7.0553,-4.45369z"/><path d="M262.56028,81.62579c2.93386,0 5.31224,1.15929 5.31224,2.58936c0,1.43005 -2.37837,2.58936 -5.31224,2.58936c-2.93387,0 -5.31224,-1.1593 -5.31224,-2.58936c0,-1.43005 2.37838,-2.58936 5.31224,-2.58936z"/><path d="M245.76757,73.75042c0.18044,-1.70124 3.3845,-2.57536 7.15647,-1.95241c3.77196,0.62296 6.68346,2.50708 6.50302,4.20833c-0.18044,1.70124 -3.3845,2.57536 -7.15647,1.95241c-3.77196,-0.62295 -6.68346,-2.50708 -6.50302,-4.20832z"/></g><path d="M15.09657,81.81787c0,1.31566 -2.61777,3.00365 -5.84694,3.00365c-3.22918,0 -5.84694,-1.06655 -5.84694,-2.38221c0,-1.31566 2.61777,-2.38221 5.84694,-2.38221c3.22918,0 5.84694,0.44511 5.84694,1.76077z" fill="#b4e5e9"/><path d="M44.21666,71.25328c0,4.32405 -4.90021,7.76808 -10.66208,7.76808c-5.76187,0 -10.43279,-1.99399 -10.43279,-4.4537c0,-2.45971 4.67092,-4.45369 10.43279,-4.45369c5.76187,0 10.66208,-1.3204 10.66208,1.13932z" fill="#b4e5e9"/><path d="M78.83974,80.78212c0,1.43006 -2.98044,1.13932 -7.2227,1.13932c-4.24225,0 -7.68128,-0.12355 -7.68128,-1.55362c0,-1.43006 3.43903,-3.6251 7.68128,-3.6251c4.24225,0 7.2227,2.60933 7.2227,4.0394z" fill="#b4e5e9"/><path d="M107.27194,79.0848c0,1.88769 -4.56826,4.868 -10.2035,4.868c-5.63524,0 -10.20349,-2.56602 -10.20349,-4.45369c0,-1.88769 4.56825,-2.38221 10.20349,-2.38221c5.63524,0 10.2035,0.08022 10.2035,1.96791z" fill="#b4e5e9"/><path d="M141.89503,81.71429c0,1.48727 -2.97707,1.65719 -6.64947,1.65719c-3.6724,0 -6.64947,-0.37707 -6.64947,-1.86434c0,-1.48727 2.97707,-3.52153 6.64947,-3.52153c3.6724,0 6.64947,2.2414 6.64947,3.72868z" fill="#b4e5e9"/><path d="M169.59458,75.18911c0,2.45971 -4.36294,4.4537 -9.7449,4.4537c-5.38196,0 -9.74491,-1.99399 -9.74491,-4.4537c0,-2.45971 4.36294,-4.45369 9.74491,-4.45369c5.38196,0 9.7449,1.99398 9.7449,4.45369z" fill="#b4e5e9"/><path d="M205.59342,80.78212c0,1.43006 -3.28504,2.58936 -7.33734,2.58936c-4.0523,0 -7.33734,-1.15931 -7.33734,-2.58936c0,-1.43006 3.28505,-2.58935 7.33734,-2.58935c4.0523,0 7.33734,1.1593 7.33734,2.58935z" fill="#b4e5e9"/><path d="M231.65044,73.75043c0.24923,1.70124 -3.77218,3.58537 -8.98208,4.20832c-5.2099,0.62295 -9.63539,-0.25117 -9.88463,-1.95241c-0.24923,-1.70124 3.77218,-3.58537 8.98208,-4.20833c5.2099,-0.62295 9.63539,0.25117 9.88463,1.95241z" fill="#b4e5e9"/></g></g></svg>