<svg version="1.1" xmlns="http://www.w3.org/2000/svg" xmlns:xlink="http://www.w3.org/1999/xlink" width="1125.48229" height="443.00001" viewBox="0,0,1125.48229,443.00001"><defs><radialGradient cx="13.70076" cy="81" r="59.5" gradientUnits="userSpaceOnUse" id="color-1"><stop offset="0" stop-color="#c2e7f7"/><stop offset="1" stop-color="#c2e7f7" stop-opacity="0"/></radialGradient><radialGradient cx="388.70074" cy="109.00001" r="59.5" gradientUnits="userSpaceOnUse" id="color-2"><stop offset="0" stop-color="#c2e7f7"/><stop offset="1" stop-color="#c2e7f7" stop-opacity="0"/></radialGradient><radialGradient cx="430.70074" cy="103" r="59.5" gradientUnits="userSpaceOnUse" id="color-3"><stop offset="0" stop-color="#c2e7f7"/><stop offset="1" stop-color="#c2e7f7" stop-opacity="0"/></radialGradient><radialGradient cx="62.70075" cy="101" r="59.5" gradientUnits="userSpaceOnUse" id="color-4"><stop offset="0" stop-color="#c2e7f7"/><stop offset="1" stop-color="#c2e7f7" stop-opacity="0"/></radialGradient><radialGradient cx="108.70073" cy="120.00001" r="59.5" gradientUnits="userSpaceOnUse" id="color-5"><stop offset="0" stop-color="#c2e7f7"/><stop offset="1" stop-color="#c2e7f7" stop-opacity="0"/></radialGradient><radialGradient cx="145.70072" cy="102" r="59.5" gradientUnits="userSpaceOnUse" id="color-6"><stop offset="0" stop-color="#c2e7f7"/><stop offset="1" stop-color="#c2e7f7" stop-opacity="0"/></radialGradient><radialGradient cx="230.70076" cy="123.00001" r="59.5" gradientUnits="userSpaceOnUse" id="color-7"><stop offset="0" stop-color="#c2e7f7"/><stop offset="1" stop-color="#c2e7f7" stop-opacity="0"/></radialGradient><radialGradient cx="265.70074" cy="114.00001" r="59.5" gradientUnits="userSpaceOnUse" id="color-8"><stop offset="0" stop-color="#c2e7f7"/><stop offset="1" stop-color="#c2e7f7" stop-opacity="0"/></radialGradient><radialGradient cx="22.70075" cy="401.00001" r="59.5" gradientUnits="userSpaceOnUse" id="color-9"><stop offset="0" stop-color="#a8e0f8"/><stop offset="1" stop-color="#a8e0f8" stop-opacity="0"/></radialGradient><radialGradient cx="137.70072" cy="140.00001" r="59.5" gradientUnits="userSpaceOnUse" id="color-10"><stop offset="0" stop-color="#c2e7f7"/><stop offset="1" stop-color="#c2e7f7" stop-opacity="0"/></radialGradient><radialGradient cx="187.70076" cy="156.99997" r="59.5" gradientUnits="userSpaceOnUse" id="color-11"><stop offset="0" stop-color="#c2e7f7"/><stop offset="1" stop-color="#c2e7f7" stop-opacity="0"/></radialGradient><radialGradient cx="242.70076" cy="148.99999" r="59.5" gradientUnits="userSpaceOnUse" id="color-12"><stop offset="0" stop-color="#c2e7f7"/><stop offset="1" stop-color="#c2e7f7" stop-opacity="0"/></radialGradient><radialGradient cx="182.70076" cy="178.99997" r="59.5" gradientUnits="userSpaceOnUse" id="color-13"><stop offset="0" stop-color="#c2e7f7"/><stop offset="1" stop-color="#c2e7f7" stop-opacity="0"/></radialGradient><radialGradient cx="159.70072" cy="222.00001" r="59.5" gradientUnits="userSpaceOnUse" id="color-14"><stop offset="0" stop-color="#c2e7f7"/><stop offset="1" stop-color="#c2e7f7" stop-opacity="0"/></radialGradient><radialGradient cx="124.70073" cy="259" r="59.5" gradientUnits="userSpaceOnUse" id="color-15"><stop offset="0" stop-color="#c2e7f7"/><stop offset="1" stop-color="#c2e7f7" stop-opacity="0"/></radialGradient><radialGradient cx="92.70073" cy="282.99998" r="59.5" gradientUnits="userSpaceOnUse" id="color-16"><stop offset="0" stop-color="#c2e7f7"/><stop offset="1" stop-color="#c2e7f7" stop-opacity="0"/></radialGradient><radialGradient cx="65.70076" cy="308.99998" r="59.5" gradientUnits="userSpaceOnUse" id="color-17"><stop offset="0" stop-color="#c2e7f7"/><stop offset="1" stop-color="#c2e7f7" stop-opacity="0"/></radialGradient><radialGradient cx="40.70075" cy="338.99998" r="59.5" gradientUnits="userSpaceOnUse" id="color-18"><stop offset="0" stop-color="#c2e7f7"/><stop offset="1" stop-color="#c2e7f7" stop-opacity="0"/></radialGradient><radialGradient cx="15.70072" cy="363.00001" r="59.5" gradientUnits="userSpaceOnUse" id="color-19"><stop offset="0" stop-color="#c2e7f7"/><stop offset="1" stop-color="#c2e7f7" stop-opacity="0"/></radialGradient><radialGradient cx="130.70072" cy="375.00001" r="59.5" gradientUnits="userSpaceOnUse" id="color-20"><stop offset="0" stop-color="#c2e7f7"/><stop offset="1" stop-color="#c2e7f7" stop-opacity="0"/></radialGradient><radialGradient cx="156.70072" cy="353.99998" r="59.5" gradientUnits="userSpaceOnUse" id="color-21"><stop offset="0" stop-color="#c2e7f7"/><stop offset="1" stop-color="#c2e7f7" stop-opacity="0"/></radialGradient><radialGradient cx="181.70076" cy="329.99998" r="59.5" gradientUnits="userSpaceOnUse" id="color-22"><stop offset="0" stop-color="#c2e7f7"/><stop offset="1" stop-color="#c2e7f7" stop-opacity="0"/></radialGradient><radialGradient cx="208.70076" cy="298.99998" r="59.5" gradientUnits="userSpaceOnUse" id="color-23"><stop offset="0" stop-color="#c2e7f7"/><stop offset="1" stop-color="#c2e7f7" stop-opacity="0"/></radialGradient><radialGradient cx="231.70076" cy="274" r="59.5" gradientUnits="userSpaceOnUse" id="color-24"><stop offset="0" stop-color="#c2e7f7"/><stop offset="1" stop-color="#c2e7f7" stop-opacity="0"/></radialGradient><radialGradient cx="384.70074" cy="135.00001" r="59.5" gradientUnits="userSpaceOnUse" id="color-25"><stop offset="0" stop-color="#c2e7f7"/><stop offset="1" stop-color="#c2e7f7" stop-opacity="0"/></radialGradient><radialGradient cx="356.70074" cy="163.99997" r="59.5" gradientUnits="userSpaceOnUse" id="color-26"><stop offset="0" stop-color="#c2e7f7"/><stop offset="1" stop-color="#c2e7f7" stop-opacity="0"/></radialGradient><radialGradient cx="343.70074" cy="175.99997" r="59.5" gradientUnits="userSpaceOnUse" id="color-27"><stop offset="0" stop-color="#c2e7f7"/><stop offset="1" stop-color="#c2e7f7" stop-opacity="0"/></radialGradient><radialGradient cx="298.70074" cy="91" r="59.5" gradientUnits="userSpaceOnUse" id="color-28"><stop offset="0" stop-color="#c2e7f7"/><stop offset="1" stop-color="#c2e7f7" stop-opacity="0"/></radialGradient><radialGradient cx="430.70074" cy="106" r="59.5" gradientUnits="userSpaceOnUse" id="color-29"><stop offset="0" stop-color="#c2e7f7"/><stop offset="1" stop-color="#c2e7f7" stop-opacity="0"/></radialGradient><radialGradient cx="58.70075" cy="86.99998" r="59.5" gradientUnits="userSpaceOnUse" id="color-30"><stop offset="0" stop-color="#c2e7f7"/><stop offset="1" stop-color="#c2e7f7" stop-opacity="0"/></radialGradient><radialGradient cx="112.70073" cy="114.00001" r="59.5" gradientUnits="userSpaceOnUse" id="color-31"><stop offset="0" stop-color="#c2e7f7"/><stop offset="1" stop-color="#c2e7f7" stop-opacity="0"/></radialGradient><radialGradient cx="385.70074" cy="100" r="59.5" gradientUnits="userSpaceOnUse" id="color-32"><stop offset="0" stop-color="#c2e7f7"/><stop offset="1" stop-color="#c2e7f7" stop-opacity="0"/></radialGradient><radialGradient cx="394.70079" cy="113.00001" r="59.5" gradientUnits="userSpaceOnUse" id="color-33"><stop offset="0" stop-color="#c2e7f7"/><stop offset="1" stop-color="#c2e7f7" stop-opacity="0"/></radialGradient><radialGradient cx="436.70079" cy="107" r="59.5" gradientUnits="userSpaceOnUse" id="color-34"><stop offset="0" stop-color="#c2e7f7"/><stop offset="1" stop-color="#c2e7f7" stop-opacity="0"/></radialGradient><radialGradient cx="68.70076" cy="105" r="59.5" gradientUnits="userSpaceOnUse" id="color-35"><stop offset="0" stop-color="#c2e7f7"/><stop offset="1" stop-color="#c2e7f7" stop-opacity="0"/></radialGradient><radialGradient cx="114.70073" cy="124.00001" r="59.5" gradientUnits="userSpaceOnUse" id="color-36"><stop offset="0" stop-color="#c2e7f7"/><stop offset="1" stop-color="#c2e7f7" stop-opacity="0"/></radialGradient><radialGradient cx="151.70072" cy="106" r="59.5" gradientUnits="userSpaceOnUse" id="color-37"><stop offset="0" stop-color="#c2e7f7"/><stop offset="1" stop-color="#c2e7f7" stop-opacity="0"/></radialGradient><radialGradient cx="236.70079" cy="127.00001" r="59.5" gradientUnits="userSpaceOnUse" id="color-38"><stop offset="0" stop-color="#c2e7f7"/><stop offset="1" stop-color="#c2e7f7" stop-opacity="0"/></radialGradient><radialGradient cx="271.70076" cy="118.00001" r="59.5" gradientUnits="userSpaceOnUse" id="color-39"><stop offset="0" stop-color="#c2e7f7"/><stop offset="1" stop-color="#c2e7f7" stop-opacity="0"/></radialGradient><radialGradient cx="28.70075" cy="405.00002" r="59.5" gradientUnits="userSpaceOnUse" id="color-40"><stop offset="0" stop-color="#a8e0f8"/><stop offset="1" stop-color="#a8e0f8" stop-opacity="0"/></radialGradient><radialGradient cx="143.70072" cy="144.00001" r="59.5" gradientUnits="userSpaceOnUse" id="color-41"><stop offset="0" stop-color="#c2e7f7"/><stop offset="1" stop-color="#c2e7f7" stop-opacity="0"/></radialGradient><radialGradient cx="193.70079" cy="160.99997" r="59.5" gradientUnits="userSpaceOnUse" id="color-42"><stop offset="0" stop-color="#c2e7f7"/><stop offset="1" stop-color="#c2e7f7" stop-opacity="0"/></radialGradient><radialGradient cx="248.70079" cy="152.99997" r="59.5" gradientUnits="userSpaceOnUse" id="color-43"><stop offset="0" stop-color="#c2e7f7"/><stop offset="1" stop-color="#c2e7f7" stop-opacity="0"/></radialGradient><radialGradient cx="188.70079" cy="182.99997" r="59.5" gradientUnits="userSpaceOnUse" id="color-44"><stop offset="0" stop-color="#c2e7f7"/><stop offset="1" stop-color="#c2e7f7" stop-opacity="0"/></radialGradient><radialGradient cx="165.70072" cy="226.00001" r="59.5" gradientUnits="userSpaceOnUse" id="color-45"><stop offset="0" stop-color="#c2e7f7"/><stop offset="1" stop-color="#c2e7f7" stop-opacity="0"/></radialGradient><radialGradient cx="130.70072" cy="263" r="59.5" gradientUnits="userSpaceOnUse" id="color-46"><stop offset="0" stop-color="#c2e7f7"/><stop offset="1" stop-color="#c2e7f7" stop-opacity="0"/></radialGradient><radialGradient cx="98.70073" cy="286.99998" r="59.5" gradientUnits="userSpaceOnUse" id="color-47"><stop offset="0" stop-color="#c2e7f7"/><stop offset="1" stop-color="#c2e7f7" stop-opacity="0"/></radialGradient><radialGradient cx="71.70076" cy="312.99998" r="59.5" gradientUnits="userSpaceOnUse" id="color-48"><stop offset="0" stop-color="#c2e7f7"/><stop offset="1" stop-color="#c2e7f7" stop-opacity="0"/></radialGradient><radialGradient cx="46.70075" cy="342.99998" r="59.5" gradientUnits="userSpaceOnUse" id="color-49"><stop offset="0" stop-color="#c2e7f7"/><stop offset="1" stop-color="#c2e7f7" stop-opacity="0"/></radialGradient><radialGradient cx="21.70075" cy="367.00002" r="59.5" gradientUnits="userSpaceOnUse" id="color-50"><stop offset="0" stop-color="#c2e7f7"/><stop offset="1" stop-color="#c2e7f7" stop-opacity="0"/></radialGradient><radialGradient cx="136.70072" cy="379.00002" r="59.5" gradientUnits="userSpaceOnUse" id="color-51"><stop offset="0" stop-color="#c2e7f7"/><stop offset="1" stop-color="#c2e7f7" stop-opacity="0"/></radialGradient><radialGradient cx="162.70072" cy="357.99998" r="59.5" gradientUnits="userSpaceOnUse" id="color-52"><stop offset="0" stop-color="#c2e7f7"/><stop offset="1" stop-color="#c2e7f7" stop-opacity="0"/></radialGradient><radialGradient cx="187.70079" cy="333.99998" r="59.5" gradientUnits="userSpaceOnUse" id="color-53"><stop offset="0" stop-color="#c2e7f7"/><stop offset="1" stop-color="#c2e7f7" stop-opacity="0"/></radialGradient><radialGradient cx="214.70079" cy="302.99998" r="59.5" gradientUnits="userSpaceOnUse" id="color-54"><stop offset="0" stop-color="#c2e7f7"/><stop offset="1" stop-color="#c2e7f7" stop-opacity="0"/></radialGradient><radialGradient cx="237.70079" cy="278.00002" r="59.5" gradientUnits="userSpaceOnUse" id="color-55"><stop offset="0" stop-color="#c2e7f7"/><stop offset="1" stop-color="#c2e7f7" stop-opacity="0"/></radialGradient><radialGradient cx="390.70079" cy="139.00001" r="59.5" gradientUnits="userSpaceOnUse" id="color-56"><stop offset="0" stop-color="#c2e7f7"/><stop offset="1" stop-color="#c2e7f7" stop-opacity="0"/></radialGradient><radialGradient cx="362.70079" cy="167.99997" r="59.5" gradientUnits="userSpaceOnUse" id="color-57"><stop offset="0" stop-color="#c2e7f7"/><stop offset="1" stop-color="#c2e7f7" stop-opacity="0"/></radialGradient><radialGradient cx="349.70079" cy="179.99997" r="59.5" gradientUnits="userSpaceOnUse" id="color-58"><stop offset="0" stop-color="#c2e7f7"/><stop offset="1" stop-color="#c2e7f7" stop-opacity="0"/></radialGradient><radialGradient cx="304.70076" cy="95" r="59.5" gradientUnits="userSpaceOnUse" id="color-59"><stop offset="0" stop-color="#c2e7f7"/><stop offset="1" stop-color="#c2e7f7" stop-opacity="0"/></radialGradient><radialGradient cx="428.70079" cy="108.00001" r="59.5" gradientUnits="userSpaceOnUse" id="color-60"><stop offset="0" stop-color="#c2e7f7"/><stop offset="1" stop-color="#c2e7f7" stop-opacity="0"/></radialGradient><radialGradient cx="64.70076" cy="91" r="59.5" gradientUnits="userSpaceOnUse" id="color-61"><stop offset="0" stop-color="#c2e7f7"/><stop offset="1" stop-color="#c2e7f7" stop-opacity="0"/></radialGradient><radialGradient cx="118.70073" cy="118.00001" r="59.5" gradientUnits="userSpaceOnUse" id="color-62"><stop offset="0" stop-color="#c2e7f7"/><stop offset="1" stop-color="#c2e7f7" stop-opacity="0"/></radialGradient><radialGradient cx="399.70079" cy="104" r="59.5" gradientUnits="userSpaceOnUse" id="color-63"><stop offset="0" stop-color="#c2e7f7"/><stop offset="1" stop-color="#c2e7f7" stop-opacity="0"/></radialGradient></defs><g transform="translate(479.86492,-21.50001)"><g data-paper-data="{&quot;isPaintingLayer&quot;:true}" fill-rule="nonzero" stroke="none" stroke-width="0" stroke-linecap="butt" stroke-linejoin="miter" stroke-miterlimit="10" stroke-dasharray="" stroke-dashoffset="0" style="mix-blend-mode: normal"><g><path d="M-0.02329,23.09055c0,0 9.00056,-1.59054 13.72399,-1.59054c32.86095,0 59.5,26.63905 59.5,59.5c0,32.86095 -26.63905,59.5 -59.5,59.5c-4.80943,0 -13.96444,-1.64784 -13.96444,-1.64784c0,0 -33.50912,-63.51429 -33.46757,-83.51972c0.01894,-9.11727 33.70802,-32.24189 33.70802,-32.24189z" fill="url(#color-1)"/><path d="M329.20068,109.00001c0,-32.86095 26.63905,-59.5 59.5,-59.5c32.86095,0 59.5,26.63905 59.5,59.5c0,32.86095 -26.63905,59.5 -59.5,59.5c-32.86095,0 -59.5,-26.63905 -59.5,-59.5z" fill="url(#color-2)"/><path d="M371.20071,103c0,-32.86095 26.63905,-59.5 59.5,-59.5c21.68399,0 51.05796,28.93191 51.05796,28.93191l-0.53905,62.0172c0,0 -29.20442,28.05089 -50.51891,28.05089c-32.86095,0 -59.5,-26.63905 -59.5,-59.5z" fill="url(#color-3)"/><path d="M3.20069,101c0,-32.86095 26.63905,-59.5 59.5,-59.5c32.86095,0 59.5,26.63905 59.5,59.5c0,32.86095 -26.63905,59.5 -59.5,59.5c-32.86095,0 -59.5,-26.63905 -59.5,-59.5z" fill="url(#color-4)"/><path d="M49.2007,120.00001c0,-32.86095 26.63905,-59.5 59.5,-59.5c32.86095,0 59.5,26.63905 59.5,59.5c0,32.86095 -26.63905,59.5 -59.5,59.5c-32.86095,0 -59.5,-26.63905 -59.5,-59.5z" fill="url(#color-5)"/><path d="M86.2007,102c0,-32.86095 26.63905,-59.5 59.5,-59.5c32.86095,0 59.5,26.63905 59.5,59.5c0,32.86095 -26.63905,59.5 -59.5,59.5c-32.86095,0 -59.5,-26.63905 -59.5,-59.5z" fill="url(#color-6)"/><path d="M171.2007,123.00001c0,-32.86095 26.63905,-59.5 59.5,-59.5c32.86095,0 59.5,26.63905 59.5,59.5c0,32.86095 -26.63905,59.5 -59.5,59.5c-32.86095,0 -59.5,-26.63905 -59.5,-59.5z" fill="url(#color-7)"/><path d="M206.2007,114.00001c0,-32.86095 26.63905,-59.5 59.5,-59.5c32.86095,0 59.5,26.63905 59.5,59.5c0,32.86095 -26.63905,59.5 -59.5,59.5c-32.86095,0 -59.5,-26.63905 -59.5,-59.5z" fill="url(#color-8)"/><path d="M-36.79931,401.00001c0,-32.86095 26.63905,-59.5 59.5,-59.5c32.86095,0 59.5,26.63905 59.5,59.5c0,32.86095 -26.63905,59.5 -59.5,59.5c-32.86095,0 -59.5,-26.63905 -59.5,-59.5z" fill="url(#color-9)"/><path d="M78.20068,140.00001c0,-32.86095 26.63905,-59.5 59.5,-59.5c32.86095,0 59.5,26.63905 59.5,59.5c0,32.86095 -26.63905,59.5 -59.5,59.5c-32.86095,0 -59.5,-26.63905 -59.5,-59.5z" fill="url(#color-10)"/><path d="M128.2007,156.99997c0,-32.86095 26.63905,-59.5 59.5,-59.5c32.86095,0 59.5,26.63905 59.5,59.5c0,32.86095 -26.63905,59.5 -59.5,59.5c-32.86095,0 -59.5,-26.63905 -59.5,-59.5z" fill="url(#color-11)"/><path d="M183.2007,148.99999c0,-32.86095 26.63905,-59.5 59.5,-59.5c32.86095,0 59.5,26.63905 59.5,59.5c0,32.86095 -26.63905,59.5 -59.5,59.5c-32.86095,0 -59.5,-26.63905 -59.5,-59.5z" fill="url(#color-12)"/><path d="M123.2007,178.99997c0,-32.86095 26.63905,-59.5 59.5,-59.5c32.86095,0 59.5,26.63905 59.5,59.5c0,32.86095 -26.63905,59.5 -59.5,59.5c-32.86095,0 -59.5,-26.63905 -59.5,-59.5z" fill="url(#color-13)"/><path d="M100.2007,222.00001c0,-32.86095 26.63905,-59.5 59.5,-59.5c32.86095,0 59.5,26.63905 59.5,59.5c0,32.86095 -26.63905,59.5 -59.5,59.5c-32.86095,0 -59.5,-26.63905 -59.5,-59.5z" fill="url(#color-14)"/><path d="M65.20068,259c0,-32.86095 26.63905,-59.5 59.5,-59.5c32.86095,0 59.5,26.63905 59.5,59.5c0,32.86095 -26.63905,59.5 -59.5,59.5c-32.86095,0 -59.5,-26.63905 -59.5,-59.5z" fill="url(#color-15)"/><path d="M33.20065,282.99998c0,-32.86095 26.63905,-59.5 59.5,-59.5c32.86095,0 59.5,26.63905 59.5,59.5c0,32.86095 -26.63905,59.5 -59.5,59.5c-32.86095,0 -59.5,-26.63905 -59.5,-59.5z" fill="url(#color-16)"/><path d="M6.20069,308.99998c0,-32.86095 26.63905,-59.5 59.5,-59.5c32.86095,0 59.5,26.63905 59.5,59.5c0,32.86095 -26.63905,59.5 -59.5,59.5c-32.86095,0 -59.5,-26.63905 -59.5,-59.5z" fill="url(#color-17)"/><path d="M-18.79931,338.99998c0,-32.86095 26.63905,-59.5 59.5,-59.5c32.86095,0 59.5,26.63905 59.5,59.5c0,32.86095 -26.63905,59.5 -59.5,59.5c-32.86095,0 -59.5,-26.63905 -59.5,-59.5z" fill="url(#color-18)"/><path d="M-43.7993,363.00001c0,-32.86095 26.63905,-59.5 59.5,-59.5c32.86095,0 59.5,26.63905 59.5,59.5c0,32.86095 -26.63905,59.5 -59.5,59.5c-32.86095,0 -59.5,-26.63905 -59.5,-59.5z" fill="url(#color-19)"/><path d="M71.20068,375.00001c0,-32.86095 26.63905,-59.5 59.5,-59.5c32.86095,0 59.5,26.63905 59.5,59.5c0,32.86095 -26.63905,59.5 -59.5,59.5c-32.86095,0 -59.5,-26.63905 -59.5,-59.5z" fill="url(#color-20)"/><path d="M97.2007,353.99998c0,-32.86095 26.63905,-59.5 59.5,-59.5c32.86095,0 59.5,26.63905 59.5,59.5c0,32.86095 -26.63905,59.5 -59.5,59.5c-32.86095,0 -59.5,-26.63905 -59.5,-59.5z" fill="url(#color-21)"/><path d="M122.2007,329.99998c0,-32.86095 26.63905,-59.5 59.5,-59.5c32.86095,0 59.5,26.63905 59.5,59.5c0,32.86095 -26.63905,59.5 -59.5,59.5c-32.86095,0 -59.5,-26.63905 -59.5,-59.5z" fill="url(#color-22)"/><path d="M149.2007,298.99998c0,-32.86095 26.63905,-59.5 59.5,-59.5c32.86095,0 59.5,26.63905 59.5,59.5c0,32.86095 -26.63905,59.5 -59.5,59.5c-32.86095,0 -59.5,-26.63905 -59.5,-59.5z" fill="url(#color-23)"/><path d="M172.2007,274c0,-32.86095 26.63905,-59.5 59.5,-59.5c32.86095,0 59.5,26.63905 59.5,59.5c0,32.86095 -26.63905,59.5 -59.5,59.5c-32.86095,0 -59.5,-26.63905 -59.5,-59.5z" fill="url(#color-24)"/><path d="M325.20068,135.00001c0,-32.86095 26.63905,-59.5 59.5,-59.5c32.86095,0 59.5,26.63905 59.5,59.5c0,32.86095 -26.63905,59.5 -59.5,59.5c-32.86095,0 -59.5,-26.63905 -59.5,-59.5z" fill="url(#color-25)"/><path d="M297.20068,163.99997c0,-32.86095 26.63905,-59.5 59.5,-59.5c32.86095,0 59.5,26.63905 59.5,59.5c0,32.86095 -26.63905,59.5 -59.5,59.5c-32.86095,0 -59.5,-26.63905 -59.5,-59.5z" fill="url(#color-26)"/><path d="M284.20068,175.99997c0,-32.86095 26.63905,-59.5 59.5,-59.5c32.86095,0 59.5,26.63905 59.5,59.5c0,32.86095 -26.63905,59.5 -59.5,59.5c-32.86095,0 -59.5,-26.63905 -59.5,-59.5z" fill="url(#color-27)"/><path d="M239.2007,91c0,-32.86095 26.63905,-59.5 59.5,-59.5c32.86095,0 59.5,26.63905 59.5,59.5c0,32.86095 -26.63905,59.5 -59.5,59.5c-32.86095,0 -59.5,-26.63905 -59.5,-59.5z" fill="url(#color-28)"/><path d="M371.20071,106c0,-32.86095 26.63905,-59.5 59.5,-59.5c21.47914,0 50.76094,28.44221 50.76094,28.44221l-0.00001,62.11559c0,0 -29.2818,28.4422 -50.76093,28.4422c-32.86095,0 -59.5,-26.63905 -59.5,-59.5z" fill="url(#color-29)"/><path d="M-0.79931,86.99998c0,-32.86095 26.63905,-59.5 59.5,-59.5c32.86095,0 59.5,26.63905 59.5,59.5c0,32.86095 -26.63905,59.5 -59.5,59.5c-32.86095,0 -59.5,-26.63905 -59.5,-59.5z" fill="url(#color-30)"/><path d="M53.2007,114.00001c0,-32.86095 26.63905,-59.5 59.5,-59.5c32.86095,0 59.5,26.63905 59.5,59.5c0,32.86095 -26.63905,59.5 -59.5,59.5c-32.86095,0 -59.5,-26.63905 -59.5,-59.5z" fill="url(#color-31)"/><path d="M326.20068,100c0,-32.86095 26.63905,-59.5 59.5,-59.5c32.86095,0 59.5,26.63905 59.5,59.5c0,32.86095 -26.63905,59.5 -59.5,59.5c-32.86095,0 -59.5,-26.63905 -59.5,-59.5z" fill="url(#color-32)"/><path d="M335.20068,113.00001c0,-32.86095 26.63905,-59.5 59.5,-59.5c32.86095,0 59.5,26.63905 59.5,59.5c0,32.86095 -26.63905,59.5 -59.5,59.5c-32.86095,0 -59.5,-26.63905 -59.5,-59.5z" fill="url(#color-33)"/><path d="M377.20072,107c0,-32.86095 26.63905,-59.5 59.5,-59.5c18.40102,0 45.0986,21.47405 45.0986,21.47405l-1.10142,78.08274c0,0 -26.56427,19.4432 -43.99718,19.4432c-32.86095,0 -59.5,-26.63905 -59.5,-59.5z" fill="url(#color-34)"/><path d="M9.20069,105c0,-32.86095 26.63905,-59.5 59.5,-59.5c32.86095,0 59.5,26.63905 59.5,59.5c0,32.86095 -26.63905,59.5 -59.5,59.5c-32.86095,0 -59.5,-26.63905 -59.5,-59.5z" fill="url(#color-35)"/><path d="M55.20071,124.00001c0,-32.86095 26.63905,-59.5 59.5,-59.5c32.86095,0 59.5,26.63905 59.5,59.5c0,32.86095 -26.63905,59.5 -59.5,59.5c-32.86095,0 -59.5,-26.63905 -59.5,-59.5z" fill="url(#color-36)"/><path d="M92.20071,106c0,-32.86095 26.63905,-59.5 59.5,-59.5c32.86095,0 59.5,26.63905 59.5,59.5c0,32.86095 -26.63905,59.5 -59.5,59.5c-32.86095,0 -59.5,-26.63905 -59.5,-59.5z" fill="url(#color-37)"/><path d="M177.2007,127.00001c0,-32.86095 26.63905,-59.5 59.5,-59.5c32.86095,0 59.5,26.63905 59.5,59.5c0,32.86095 -26.63905,59.5 -59.5,59.5c-32.86095,0 -59.5,-26.63905 -59.5,-59.5z" fill="url(#color-38)"/><path d="M212.2007,118.00001c0,-32.86095 26.63905,-59.5 59.5,-59.5c32.86095,0 59.5,26.63905 59.5,59.5c0,32.86095 -26.63905,59.5 -59.5,59.5c-32.86095,0 -59.5,-26.63905 -59.5,-59.5z" fill="url(#color-39)"/><path d="M-30.79931,405.00002c0,-32.86095 26.63905,-59.5 59.5,-59.5c32.86095,0 59.5,26.63905 59.5,59.5c0,32.86095 -26.63905,59.5 -59.5,59.5c-32.86095,0 -59.5,-26.63905 -59.5,-59.5z" fill="url(#color-40)"/><path d="M84.20067,144.00001c0,-32.86095 26.63905,-59.5 59.5,-59.5c32.86095,0 59.5,26.63905 59.5,59.5c0,32.86095 -26.63905,59.5 -59.5,59.5c-32.86095,0 -59.5,-26.63905 -59.5,-59.5z" fill="url(#color-41)"/><path d="M134.2007,160.99997c0,-32.86095 26.63905,-59.5 59.5,-59.5c32.86095,0 59.5,26.63905 59.5,59.5c0,32.86095 -26.63905,59.5 -59.5,59.5c-32.86095,0 -59.5,-26.63905 -59.5,-59.5z" fill="url(#color-42)"/><path d="M189.2007,152.99997c0,-32.86095 26.63905,-59.5 59.5,-59.5c32.86095,0 59.5,26.63905 59.5,59.5c0,32.86095 -26.63905,59.5 -59.5,59.5c-32.86095,0 -59.5,-26.63905 -59.5,-59.5z" fill="url(#color-43)"/><path d="M129.2007,182.99997c0,-32.86095 26.63905,-59.5 59.5,-59.5c32.86095,0 59.5,26.63905 59.5,59.5c0,32.86095 -26.63905,59.5 -59.5,59.5c-32.86095,0 -59.5,-26.63905 -59.5,-59.5z" fill="url(#color-44)"/><path d="M106.20071,226.00001c0,-32.86095 26.63905,-59.5 59.5,-59.5c32.86095,0 59.5,26.63905 59.5,59.5c0,32.86095 -26.63905,59.5 -59.5,59.5c-32.86095,0 -59.5,-26.63905 -59.5,-59.5z" fill="url(#color-45)"/><path d="M71.20068,263c0,-32.86095 26.63905,-59.5 59.5,-59.5c32.86095,0 59.5,26.63905 59.5,59.5c0,32.86095 -26.63905,59.5 -59.5,59.5c-32.86095,0 -59.5,-26.63905 -59.5,-59.5z" fill="url(#color-46)"/><path d="M39.20065,286.99998c0,-32.86095 26.63905,-59.5 59.5,-59.5c32.86095,0 59.5,26.63905 59.5,59.5c0,32.86095 -26.63905,59.5 -59.5,59.5c-32.86095,0 -59.5,-26.63905 -59.5,-59.5z" fill="url(#color-47)"/><path d="M12.20069,312.99998c0,-32.86095 26.63905,-59.5 59.5,-59.5c32.86095,0 59.5,26.63905 59.5,59.5c0,32.86095 -26.63905,59.5 -59.5,59.5c-32.86095,0 -59.5,-26.63905 -59.5,-59.5z" fill="url(#color-48)"/><path d="M-12.79931,342.99998c0,-32.86095 26.63905,-59.5 59.5,-59.5c32.86095,0 59.5,26.63905 59.5,59.5c0,32.86095 -26.63905,59.5 -59.5,59.5c-32.86095,0 -59.5,-26.63905 -59.5,-59.5z" fill="url(#color-49)"/><path d="M-37.79931,367.00002c0,-32.86095 26.63905,-59.5 59.5,-59.5c32.86095,0 59.5,26.63905 59.5,59.5c0,32.86095 -26.63905,59.5 -59.5,59.5c-32.86095,0 -59.5,-26.63905 -59.5,-59.5z" fill="url(#color-50)"/><path d="M77.20068,379.00002c0,-32.86095 26.63905,-59.5 59.5,-59.5c32.86095,0 59.5,26.63905 59.5,59.5c0,32.86095 -26.63905,59.5 -59.5,59.5c-32.86095,0 -59.5,-26.63905 -59.5,-59.5z" fill="url(#color-51)"/><path d="M103.20071,357.99998c0,-32.86095 26.63905,-59.5 59.5,-59.5c32.86095,0 59.5,26.63905 59.5,59.5c0,32.86095 -26.63905,59.5 -59.5,59.5c-32.86095,0 -59.5,-26.63905 -59.5,-59.5z" fill="url(#color-52)"/><path d="M128.20071,333.99998c0,-32.86095 26.63905,-59.5 59.5,-59.5c32.86095,0 59.5,26.63905 59.5,59.5c0,32.86095 -26.63905,59.5 -59.5,59.5c-32.86095,0 -59.5,-26.63905 -59.5,-59.5z" fill="url(#color-53)"/><path d="M155.2007,302.99998c0,-32.86095 26.63905,-59.5 59.5,-59.5c32.86095,0 59.5,26.63905 59.5,59.5c0,32.86095 -26.63905,59.5 -59.5,59.5c-32.86095,0 -59.5,-26.63905 -59.5,-59.5z" fill="url(#color-54)"/><path d="M178.2007,278.00002c0,-32.86095 26.63905,-59.5 59.5,-59.5c32.86095,0 59.5,26.63905 59.5,59.5c0,32.86095 -26.63905,59.5 -59.5,59.5c-32.86095,0 -59.5,-26.63905 -59.5,-59.5z" fill="url(#color-55)"/><path d="M331.20068,139.00001c0,-32.86095 26.63905,-59.5 59.5,-59.5c32.86095,0 59.5,26.63905 59.5,59.5c0,32.86095 -26.63905,59.5 -59.5,59.5c-32.86095,0 -59.5,-26.63905 -59.5,-59.5z" fill="url(#color-56)"/><path d="M303.20068,167.99997c0,-32.86095 26.63905,-59.5 59.5,-59.5c32.86095,0 59.5,26.63905 59.5,59.5c0,32.86095 -26.63905,59.5 -59.5,59.5c-32.86095,0 -59.5,-26.63905 -59.5,-59.5z" fill="url(#color-57)"/><path d="M290.20068,179.99997c0,-32.86095 26.63905,-59.5 59.5,-59.5c32.86095,0 59.5,26.63905 59.5,59.5c0,32.86095 -26.63905,59.5 -59.5,59.5c-32.86095,0 -59.5,-26.63905 -59.5,-59.5z" fill="url(#color-58)"/><path d="M245.2007,95c0,-32.86095 26.63905,-59.5 59.5,-59.5c32.86095,0 59.5,26.63905 59.5,59.5c0,32.86095 -26.63905,59.5 -59.5,59.5c-32.86095,0 -59.5,-26.63905 -59.5,-59.5z" fill="url(#color-59)"/><path d="M369.20072,108.00001c0,-32.86095 26.63905,-59.5 59.5,-59.5c22.60315,0 52.33371,31.16646 52.33371,31.16646l0.01174,56.64543c0,0 -29.73352,31.18811 -52.34545,31.18811c-32.86095,0 -59.5,-26.63905 -59.5,-59.5z" fill="url(#color-60)"/><path d="M5.20068,91c0,-32.86095 26.63905,-59.5 59.5,-59.5c32.86095,0 59.5,26.63905 59.5,59.5c0,32.86095 -26.63905,59.5 -59.5,59.5c-32.86095,0 -59.5,-26.63905 -59.5,-59.5z" fill="url(#color-61)"/><path d="M59.20071,118.00001c0,-32.86095 26.63905,-59.5 59.5,-59.5c32.86095,0 59.5,26.63905 59.5,59.5c0,32.86095 -26.63905,59.5 -59.5,59.5c-32.86095,0 -59.5,-26.63905 -59.5,-59.5z" fill="url(#color-62)"/><path d="M340.20071,104c0,-32.86095 26.63905,-59.5 59.5,-59.5c32.86095,0 59.5,26.63905 59.5,59.5c0,32.86095 -26.63905,59.5 -59.5,59.5c-32.86095,0 -59.5,-26.63905 -59.5,-59.5z" fill="url(#color-63)"/></g><path d="" fill="#80b0f8"/><path d="" fill="#60a0e0"/><g><g><g><path d="M344.35764,87.48264l1.32526,-20.40893l19.02156,-19.22129l19.41084,1.99297l-0.26506,39.22754l-257.02558,264.93605l-59.73717,-0.31641z" fill="#1b2459"/><path d="M274.27358,133.3565l62.9926,-60.5528l-21.35622,0.56364l45.36576,-46.36562l23.11558,22.9224l-19.5565,-0.87359l-18.62089,19.48948l0.064,19.63664l-72.27015,67.67984z" fill="#3074a8"/><path d="M275.18582,113.32515l24.61965,-24.11964l-0.00141,-19.73621l42.82955,-42.58588l18.75819,0.00852l-45.44409,46.4818l21.49501,-0.73392l-62.62512,60.68533z" fill="#89b2e8"/></g><path d="M220.4507,165.88341l31.5,-33.5h23l-2,59l-68.4241,31.33243l-145.81608,146.79401l-8.4206,-9.21647l145.23729,-145.25375z" fill="#1b2459"/><path d="M251.95071,133.38342v-20.5h23.5v20.5z" fill="#6094c8"/><path d="M220.95071,167.38332l-5.02622,28.64057l-140.08403,151.61427l-50.98408,7.05649l25.09433,-28.31133l202,-213.5v20.5z" fill="#89b2e8"/></g><g><g><path d="M0.26396,209.50913l58.43673,-56.12567l46,6l-104.36814,101.87329z" fill="#182050"/><path d="M114.32571,106.98704v-24l19.25,22l0.25,23.75z" fill="#185c90"/><path d="M0.42773,114.05325l36.05424,-32.25097l48.88861,7.13683l-9.3071,37.0109l-42.47332,44.38225l-33.42855,5.1818z" fill="#182050"/><path d="M0.13508,98.77128l32.08822,-31.26493l-19.70902,-1.11195l-0.49905,-24.65213l23.02899,-0.554l49.4311,47.80469l-48.49034,-0.12806l-35.69054,35.73114z" fill="#2870a8"/><path d="M0.89514,151.45893l18.7998,2.94096l12.25607,11.36193l34.71822,-34.84702l23.11298,-0.11335l25.68497,-24.31462l18.18532,22.07909l-30.14447,29.87393l-43.78216,-1.1627l-18.09501,18.3948l-3.13709,14.66745l-19.9985,3.68227l-17.94347,-17.16442z" fill="#3070a8"/><path d="M0.37609,53.99773l11.76749,-12.31819l0.59654,24.69657l19.94231,1.09349l-32.29921,31.53961z" fill="#609cc0"/><path d="M66.73945,131.04051l-0.15533,-25.84852l22.96404,-22.07503l25.0732,-0.19698l1.19307,23.78188l-25.77034,24.33865z" fill="#6094c0"/><path d="M0.82839,176.9136l18.37232,16.96984l-18.93174,17.6261z" fill="#2868a8"/></g><g><path d="M0.41577,76.37828l17.45796,1.79246l-0.28036,41.49175l-17.31602,16.57691z" fill="#182050"/><path d="M0.44769,60.68402l17.71806,17.56998l-17.73909,-0.7924z" fill="#2870a8"/></g><path d="M0.40536,283.65681l77.43998,-78.35032l79.77203,-30.42309h7.99999l-0.33333,11.66666l-45.43145,53.28321l-32.8292,1.55371l-72.21193,70.00896l-14.64076,15.69006l0.13818,-27.2863z" fill="#182c68"/><path d="M83.45067,179.05006l50.5,-24.83333l24,20.66666l-30.06741,32.32358l-43.84718,2.4082l-83.38126,75.98105l0.00268,-31.02943z" fill="#2868a8"/><path d="M83.28409,154.55007l27.66667,-26h23v26.33333l-24.99708,23.7763l-25.46125,1.02347z" fill="#809ce8"/><path d="M133.95071,154.55009v-26l31.14704,29.02109l0.51962,17.64558l-8.33333,-0.33334z" fill="#185490"/></g><g><g><path d="M346.86737,353.38345l134.30074,-144.10241l-0.09482,51.9034l-93.20592,100.69901z" fill="#182050"/><path d="M305.49442,343.37118l-17.16519,-22.69684l192.57055,-206.44697l0.34368,61.22235z" fill="#182050"/><path d="M297.86737,368.4978l-2.5,-19l186,-197.5l-3,25.5z" fill="#609cc0"/><path d="M465.9423,113.24949l15.34957,-14.95575l-0.17568,26.14704l-13.25744,13.27252z" fill="#2870a8"/><path d="M478.06053,173.8364l3.5013,-22.37746l-0.08225,25.64807z" fill="#3070a8"/><path d="M444.37158,92.38508l36.8162,-38.53911l-0.15575,45.18074l-14.94654,14.59504z" fill="#609cc0"/><path d="M359.36743,296.38344l118.66667,-122.66666l3.11808,2.88006l-0.36075,34.54702l-96.42399,103.23958l-66.35686,72.63678l-27.57421,-18.94715z" fill="#2868a8"/></g><g><path d="M456.48799,117.98034l1.40176,-21.58692l20.11948,-20.33073l3.32704,0.29026l0.32885,59.6748l-117.40391,109.48118l-8.08851,-20.33468z" fill="#182050"/><path d="M335.21515,225.34768l113.7721,-122.8935l-22.58889,0.59617l47.98426,-49.04183l6.95549,6.40154l0.04106,17.04196l-3.23204,-0.12204l-19.69568,20.61441l0.0677,20.77006l-100.31531,106.63322z" fill="#2870a8"/><path d="M311.85247,225.31456l97.51183,-105.51181l-0.00149,-20.87538l45.30166,-45.04392l19.84091,0.00901l-48.06711,49.16472l22.7357,-0.77628l-113.91227,123.03367z" fill="#609cc0"/></g><path d="M472.1174,292.71675l8.8142,-8.91781l0.03623,15.9946z" fill="#182c68"/><path d="M481.0222,285.86899l-8.10402,7.38477l-86.40214,62.11667l94.09535,-100.15346z" fill="#2868a8"/><path d="" fill="#185490"/></g><g><path d="M312.5927,238.05812l0.28471,-30.17914l25.6238,-26.76263l28.40968,1.93231l-0.2235,3.47715v52.76604l-135.21901,142.55512l-32.53956,0.09128l0.13741,-24.3209z" fill="#1b2459"/><path d="M194.98588,361.78916l-6.41544,-27.64875l107.04137,-113.42098l-29.21874,0.5107l10.16348,-11.85513l57.80475,-56.73521l32.13384,30.46844l-28.34539,-0.45331l-24.56649,25.34583l-0.775,30.48451z" fill="#3074a8"/><path d="M144.05817,350.77501l101.54468,-108.54467l-0.00202,-28.26663l61.34141,-60.99243l26.86589,0.0122l-65.08603,66.57226l30.78562,-1.05114l-123.75196,132.27041z" fill="#89b2e8"/></g></g><g><g><g fill="#89b2e8"><path d="M-204.81418,113.32515z"/></g><path d="M-429.71009,360.29338l8.4206,9.21647z" fill="#1b2459"/><path d="M-228.04929,112.88342h23.5z" fill="#6094c8"/><path d="M-404.15954,347.63816l-50.98408,7.05649l25.09433,-28.31133l202,-213.5z" fill="#89b2e8"/></g><g><g><path d="M-479.66745,261.25675l-0.06859,-51.74762z" fill="#182050"/><path d="M-365.67429,106.98704v-24l19.25,22l0.25,23.75z" fill="#185c90"/><path d="M-479.57227,114.05325l36.05424,-32.25097l48.88861,7.13683l-85.20897,86.57495z" fill="#182050"/><path d="M-479.86492,98.77128l32.08822,-31.26493l-19.70902,-1.11195l-0.49905,-24.65213l23.02899,-0.554l49.4311,47.80469l-48.49034,-0.12806l-35.69054,35.73114z" fill="#2870a8"/><path d="M-479.10486,151.45893l18.7998,2.94096l12.25607,11.36193l34.71822,-34.84702l23.11298,-0.11335l25.68497,-24.31462l18.18532,22.07909l-92.02164,47.10603l-3.13709,14.66745l-19.9985,3.68227l-17.94347,-17.16442z" fill="#3070a8"/><path d="M-479.62391,53.99773l11.76749,-12.31819l0.59654,24.69657l19.94231,1.09349l-32.29921,31.53961z" fill="#609cc0"/><path d="M-413.41588,105.19199l22.96404,-22.07503l25.0732,-0.19698l1.19307,23.78188z" fill="#6094c0"/><path d="M-479.17161,176.9136l18.37232,16.96984l-18.93174,17.6261z" fill="#2868a8"/></g><g><path d="M-479.58423,76.37828l17.45796,1.79246l-0.28036,41.49175l-17.31602,16.57691z" fill="#182050"/><path d="M-479.55231,60.68402l17.71806,17.56998l-17.73909,-0.7924z" fill="#2870a8"/></g><path d="M-479.59464,283.65681l14.40609,27.73913l-14.64076,15.69006l0.13818,-27.2863z" fill="#182c68"/><path d="M-479.34518,285.59622l0.00268,-31.02943z" fill="#2868a8"/><path d="M-346.04924,128.55007h-23z" fill="#809ce8"/><path d="M-346.04929,128.55009z" fill="#185490"/></g><g><g><path d="M1.16811,209.28104l-0.09482,51.9034l-19.23307,20.77927l-3.43084,-47.90773z" fill="#182050"/><path d="M-34.61387,143.32657l35.51366,-29.0992l0.34368,61.22235l-27.01962,20.3402z" fill="#182050"/><path d="M-1.63263,177.4978l3,-25.5z" fill="#609cc0"/><path d="M-14.0577,113.24949l15.34957,-14.95575l-0.17568,26.14704l-13.25744,13.27252z" fill="#2870a8"/><path d="M-1.93947,173.8364l3.5013,-22.37746l-0.08225,25.64807z" fill="#3070a8"/><path d="M-35.62842,92.38508l36.8162,-38.53911l-0.15575,45.18074l-14.94654,14.59504z" fill="#609cc0"/><path d="M-1.9659,173.71678l3.11808,2.88006l-0.36075,34.54702l-18.5447,19.85551l-3.51955,-37.2801z" fill="#2868a8"/></g><g><path d="M-23.51202,117.98034l1.40176,-21.58692l20.11948,-20.33073l3.32704,0.29026l0.32885,59.6748z" fill="#182050"/><path d="M-31.01275,102.45418l-22.58889,0.59617l47.98426,-49.04183l6.95549,6.40154l0.04106,17.04196l-3.23204,-0.12204l-19.69568,20.61441l0.0677,20.77006z" fill="#2870a8"/></g><path d="M-7.88261,292.71675l8.8142,-8.91781l0.03623,15.9946z" fill="#182c68"/><path d="M1.02218,285.86899l-8.10402,7.38477l-7.98619,-21.34791l15.6794,-16.68888z" fill="#2868a8"/><path d="" fill="#185490"/></g><g><path d="M-248.53162,381.84697l-32.53956,0.09128l0.13741,-24.3209z" fill="#1b2459"/><path d="M-285.01412,361.78916z" fill="#3074a8"/><path d="M-335.94183,350.77501h31.69759z" fill="#89b2e8"/></g></g><g><g><path d="M480.26397,210.50913l58.43673,-56.12567l46,6l-104.36814,101.87329z" fill="#182050"/><path d="M594.32571,107.98704v-24l19.25,22l0.25,23.75z" fill="#185c90"/><path d="M480.42774,115.05325l36.05424,-32.25097l48.88861,7.13683l-9.3071,37.0109l-42.47332,44.38225l-33.42855,5.1818z" fill="#182050"/><path d="M480.13509,99.77128l32.08822,-31.26493l-19.70902,-1.11195l-0.49905,-24.65213l23.02899,-0.554l49.4311,47.80469l-48.49034,-0.12806l-35.69054,35.73114z" fill="#2870a8"/><path d="M480.89515,152.45893l18.7998,2.94096l12.25607,11.36193l34.71822,-34.84702l23.11298,-0.11335l25.68497,-24.31462l18.18532,22.07909l-30.14447,29.87393l-43.78216,-1.1627l-18.09501,18.3948l-3.13709,14.66745l-19.9985,3.68227l-17.94347,-17.16442z" fill="#3070a8"/><path d="M480.3761,54.99773l11.76749,-12.31819l0.59654,24.69657l19.94231,1.09349l-32.29921,31.53961z" fill="#609cc0"/><path d="M546.73946,132.04051l-0.15533,-25.84852l22.96404,-22.07503l25.0732,-0.19698l1.19307,23.78188l-25.77034,24.33865z" fill="#6094c0"/><path d="M480.8284,177.9136l18.37232,16.96984l-18.93174,17.6261z" fill="#2868a8"/></g><g><path d="M480.41578,77.37828l17.45796,1.79246l-0.28036,41.49175l-17.31602,16.57691z" fill="#182050"/><path d="M480.4477,61.68402l17.71806,17.56998l-17.73909,-0.7924z" fill="#2870a8"/></g><path d="M480.40537,284.65681l77.43998,-78.35032l79.77203,-30.42309h7.99999l-0.33333,11.66666l-45.43145,53.28321l-32.8292,1.55371l-72.21193,70.00896l-14.64076,15.69006l0.13818,-27.2863z" fill="#182c68"/><path d="M563.45068,180.05006l50.5,-24.83333l24,20.66666l-30.06741,32.32358l-43.84718,2.4082l-83.38126,75.98105l0.00268,-31.02943z" fill="#2868a8"/><path d="M563.2841,155.55007l27.66667,-26h23v26.33333l-24.99708,23.7763l-25.46125,1.02347z" fill="#809ce8"/><path d="M613.95071,155.55009v-26l31.14704,29.02109l0.51962,17.64558l-8.33333,-0.33334z" fill="#185490"/></g></g></g></svg>