<svg version="1.1" xmlns="http://www.w3.org/2000/svg" xmlns:xlink="http://www.w3.org/1999/xlink" width="152" height="152" viewBox="0,0,152,152"><defs><linearGradient x1="241.79635" y1="151.70044" x2="241.79635" y2="208.29956" gradientUnits="userSpaceOnUse" id="color-1"><stop offset="0" stop-color="#fffa44"/><stop offset="1" stop-color="#e2b500"/></linearGradient><linearGradient x1="256.20502" y1="156.9824" x2="222.9388" y2="203.01758" gradientUnits="userSpaceOnUse" id="color-2"><stop offset="0" stop-color="#fffa3e"/><stop offset="1" stop-color="#e6b800"/></linearGradient><linearGradient x1="253.86266" y1="158.03793" x2="224.32195" y2="201.96202" gradientUnits="userSpaceOnUse" id="color-3"><stop offset="0" stop-color="#ffe100"/><stop offset="1" stop-color="#ffe138"/></linearGradient><linearGradient x1="220.24907" y1="171.81144" x2="258.47331" y2="188.11174" gradientUnits="userSpaceOnUse" id="color-4"><stop offset="0" stop-color="#e7ad0e"/><stop offset="1" stop-color="#ffdd00"/></linearGradient><radialGradient cx="258.44983" cy="185.14519" r="19.57134" gradientUnits="userSpaceOnUse" id="color-5"><stop offset="0" stop-color="#fff949"/><stop offset="1" stop-color="#fff949" stop-opacity="0"/></radialGradient><linearGradient x1="239.30143" y1="161.17993" x2="239.30143" y2="198.82693" gradientUnits="userSpaceOnUse" id="color-6"><stop offset="0" stop-color="#fcd600"/><stop offset="1" stop-color="#ffda22"/></linearGradient></defs><g transform="translate(-164,-104)"><g data-paper-data="{&quot;isPaintingLayer&quot;:true}" fill-rule="nonzero" stroke="none" stroke-width="0" stroke-linecap="butt" stroke-linejoin="miter" stroke-miterlimit="10" stroke-dasharray="" stroke-dashoffset="0" style="mix-blend-mode: normal"><path d="M269.63445,180c0,15.62941 -12.46353,28.29956 -27.83811,28.29956c-15.37454,0 -27.83811,-12.67016 -27.83811,-28.29956c0,-15.62941 12.46354,-28.29956 27.83812,-28.29956c15.37457,0 27.83812,12.67015 27.83812,28.29955z" data-paper-data="{&quot;index&quot;:null}" fill="url(#color-1)"/><path d="M262.34976,196.80819c-9.18623,12.71228 -27.8311,15.49232 -40.41095,6.20941c-12.57986,-9.28291 -15.33094,-27.11352 -6.14474,-39.82579c9.18621,-12.71227 27.83111,-15.49232 40.41096,-6.20941c12.57984,9.28291 15.33094,27.1135 6.14472,39.82577z" data-paper-data="{&quot;origRot&quot;:0,&quot;index&quot;:null}" fill="url(#color-2)"/><path d="M261.21887,194.88103c-8.15744,12.12929 -24.67677,15.29957 -36.89695,7.08101c-12.2202,-8.21857 -15.51369,-24.71377 -7.35623,-36.84308c8.15744,-12.12929 24.67677,-15.29958 36.89695,-7.08102c12.22021,8.21857 15.51369,24.71376 7.35625,36.84306z" data-paper-data="{&quot;index&quot;:null}" fill="url(#color-3)"/><path d="M230.82136,199.05747c-10.55535,-4.5012 -15.28871,-16.69966 -10.57225,-27.24603c4.71642,-10.54636 17.09663,-15.44692 27.65196,-10.94573c10.55534,4.5012 15.28871,16.69965 10.57229,27.24602c-4.71641,10.54637 -17.09663,15.44693 -27.65197,10.94576z" data-paper-data="{&quot;origRot&quot;:0,&quot;index&quot;:null}" fill="url(#color-4)"/><path d="M231.62481,198.50985c-10.26965,-4.37936 6.34779,-41.5374 16.61742,-37.15804c10.26964,4.37936 14.8749,16.24764 10.28614,26.50855c-4.58877,10.26093 -16.63389,15.02884 -26.90353,10.64949z" data-paper-data="{&quot;origRot&quot;:0,&quot;index&quot;:null}" fill="url(#color-5)"/><path d="M258.16922,180.00343c0,10.39595 -8.4474,18.82351 -18.86779,18.82351c-10.42039,0 -18.86778,-8.42757 -18.86778,-18.82351c0,-10.39595 8.44739,-18.82351 18.86778,-18.82351c10.4204,0 18.8678,8.42758 18.8678,18.82351z" data-paper-data="{&quot;index&quot;:null}" fill="url(#color-6)"/><path d="M164,256v-152h152v152z" data-paper-data="{&quot;origPos&quot;:null}" fill="none"/><g data-paper-data="{&quot;index&quot;:null}"><path d="M244.78018,185.64304v-11.02668h2.74747v11.02668z" fill="#fec207"/><path d="M242.39634,185.51962v-11.19124h2.38383v11.19125z" fill="#d19e04"/><path d="M246.67915,174.86324l-1.89899,1.85149l-1.85858,-1.85148z" data-paper-data="{&quot;index&quot;:null}" fill="#ffcc0d"/><path d="M242.92158,185.47846l1.85858,-1.85148l1.89898,1.85149z" fill="#feff37"/><path d="M236.99498,172.01191v-3.12697h15.15142v3.12697z" fill="#feff37"/><path d="M236.99498,191.11276v-3.12697h15.15142v3.12697z" fill="#d19e04"/><path d="M237.18821,191.11003v-22.222l2.18154,1.68691v18.70416z" fill="#fcc70b"/><path d="M227.92492,170.67228l-1.8858,-1.76985l11.15269,-0.01699l-1.97403,1.78683z" fill="#feff37"/><path d="M235.1416,189.20433l0.01821,-18.57232l2.03504,-1.74801v22.20734z" fill="#d19e04"/><path d="M230.88943,189.23984l0.00846,-14.76075l-3.05227,0.00149v-3.87064h7.32039v18.6299z" fill="#fceb12"/><path d="M239.37175,189.26312v-18.68821h10.77v18.68821zM246.62064,185.46326l-0.05427,-10.60318l-3.61085,0.00171l-0.01101,10.58427z" fill="#fceb12"/><path d="M226.03817,176.36365v-7.4526l1.89359,1.71982v3.81674l2.97105,0.00002l-0.00461,14.76122l-2.20461,1.90709l0.10751,-14.75304z" fill="#fcc70b"/><path d="M228.71858,191.10762l2.21089,-1.93874h4.20685l2.0888,1.94298z" fill="#d19e04"/><path d="M250.1271,189.27909v-18.70417l2.01024,-1.68692v22.222z" data-paper-data="{&quot;index&quot;:null}" fill="#d19e04"/></g></g></g></svg>