<svg version="1.1" xmlns="http://www.w3.org/2000/svg" xmlns:xlink="http://www.w3.org/1999/xlink" width="482.02407" height="361.44726" viewBox="0,0,482.02407,361.44726"><defs><linearGradient x1="-0.31585" y1="180.22363" x2="480.7397" y2="180.22363" gradientUnits="userSpaceOnUse" id="color-1"><stop offset="0" stop-color="#e88207"/><stop offset="1" stop-color="#e89c27"/></linearGradient><radialGradient cx="480.01206" cy="50.77637" r="142.5" gradientUnits="userSpaceOnUse" id="color-2"><stop offset="0" stop-color="#f2b825"/><stop offset="1" stop-color="#f2b825" stop-opacity="0"/></radialGradient><linearGradient x1="239.51575" y1="125.72343" x2="239.51575" y2="360.47363" gradientUnits="userSpaceOnUse" id="color-3"><stop offset="0" stop-color="#b42639" stop-opacity="0"/><stop offset="1" stop-color="#b42639"/></linearGradient><radialGradient cx="450.22915" cy="284.33387" r="135.42514" gradientUnits="userSpaceOnUse" id="color-4"><stop offset="0" stop-color="#cb5448"/><stop offset="1" stop-color="#cb5448" stop-opacity="0"/></radialGradient></defs><g transform="translate(1.01202,0.72363)"><g data-paper-data="{&quot;isPaintingLayer&quot;:true}" fill-rule="nonzero" stroke="none" stroke-width="0" stroke-linecap="butt" stroke-linejoin="miter" stroke-miterlimit="10" stroke-dasharray="" stroke-dashoffset="0" style="mix-blend-mode: normal"><path d="M-0.31585,360.72363v-361h481.05555v361z" fill="url(#color-1)"/><path d="M267.51205,50.77637c0,-28.53662 -1.06311,-50.98826 -1.06311,-50.98826l122.56311,-0.51174l90.5,0.5l1.5,246.5c0,0 -104.44764,-0.25736 -162.52525,-45.08231c-47.6295,-36.76098 -50.97475,-114.95679 -50.97475,-150.41769z" fill="url(#color-2)"/><path d="M-1.01202,360.47363l1,-239.5l480.05555,0.54805v238.95195z" fill="url(#color-3)"/><path d="M214.55375,359.75c0,0 -28.40524,-112.91592 56.93174,-197.68932c90.66067,-90.06192 209.38146,-41.52121 209.38146,-41.52121v239.21053z" fill="url(#color-4)"/></g></g></svg>