<svg xmlns="http://www.w3.org/2000/svg" xmlns:xlink="http://www.w3.org/1999/xlink" version="1.1" width="28.70048894641602" height="29.860589883305668" viewBox="0.12690520704883435 0.8086052429785142 28.70048894641602 29.860589883305668">
  <!-- Exported by Scratch - http://scratch.mit.edu/ -->
  <g id="ID0.7264484716579318">
    <g id="ID0.21329550631344318">
      <path id="ID0.9838066836819053" fill="#64D43B" d="M 4.6563 9.4168 L 4.0591 4.3185 L 8.7086 5.8556 " stroke-width="0.11038961169922157"/>
    </g>
    <g id="ID0.5554032581858337">
      <path id="ID0.42807482555508614" fill="#5EC737" d="M 4.5167 16.0133 L 0.1821 13.2635 L 4.3059 10.6225 " stroke-width="0.11038961169922157"/>
    </g>
    <g id="ID0.7419375772587955">
      <path id="ID0.3225601129233837" fill="#5BBF35" d="M 8.7521 21.0576 L 3.7091 22.0164 L 4.9112 17.2692 " stroke-width="0.11038961169922157"/>
    </g>
    <g id="ID0.3259068592451513">
      <path id="ID0.30251788860186934" fill="#5BBF35" d="M 22.8926 19.4917 L 22.5704 24.6148 L 18.2697 22.2727 " stroke-width="0.11038961169922157"/>
    </g>
    <g id="ID0.7809302546083927">
      <path id="ID0.06356818834319711" fill="#64D43B" d="M 10.1611 5.6899 L 11.9103 0.8638 L 15.3792 4.3203 " stroke-width="0.11038961169922157"/>
    </g>
    <g id="ID0.7607020041905344">
      <path id="ID0.8240484269335866" fill="#64D43B" d="M 16.4609 4.8083 L 20.1369 1.2255 L 21.7547 5.8474 " stroke-width="0.11038961169922157"/>
    </g>
    <g id="ID0.2565034353174269">
      <path id="ID0.9721975028514862" fill="#64D43B" d="M 22.1142 6.625 L 27.2071 7.2666 L 24.601 11.4126 " stroke-width="0.11038961169922157"/>
    </g>
    <g id="ID0.6474132603034377">
      <path id="ID0.5148030240088701" fill="#5EC737" d="M 25.067 12.9933 L 28.7722 16.5459 L 24.2076 18.3192 " stroke-width="0.11038961169922157"/>
    </g>
    <g id="ID0.5650587300769985">
      <path id="ID0.040350568015128374" fill="#69DF3E" d="M 25.6674 13.4023 C 26.386 18.9483 21.6676 23.528 15.2357 23.528 C 8.8036 23.528 3.5896 18.9948 3.5896 13.4023 C 3.5896 7.8102 8.8036 4.3808 15.2357 4.3808 C 21.6676 4.3808 24.7859 6.599 25.6674 13.4023 Z " stroke-width="0.11038961169922157"/>
    </g>
    <g id="ID0.6333982930518687">
      <path id="ID0.23541010916233063" fill="#5BBF35" d="M 25.6674 13.4023 C 24.7859 6.599 21.6676 4.3808 15.2357 4.3808 C 8.8036 4.3808 3.5896 7.8102 3.5896 13.4023 C 3.5896 18.9947 8.8036 23.528 15.2357 23.528 C 21.6676 23.528 26.386 18.9483 25.6674 13.4023 Z M 15.2448 21.6572 C 9.4785 21.6572 4.8039 17.5928 4.8039 12.5794 C 4.8039 7.5658 9.4785 4.4911 15.2448 4.4911 C 21.0113 4.4911 23.807 6.4798 24.5974 12.5794 C 25.2416 17.5514 21.0113 21.6572 15.2448 21.6572 Z " stroke-width="0.11038961169922157"/>
    </g>
    <g id="ID0.8654231247492135">
      <path id="ID0.03313764790073037" fill="#FFFFFF" d="M 21.5591 8.723 L 16.7013 11.5033 C 16.7073 11.8006 16.7359 12.1046 16.7892 12.412 C 17.2081 14.8381 18.9979 16.5557 20.7876 16.2458 C 22.5746 15.937 23.6859 13.7186 23.2659 11.2916 C 22.9951 9.7296 22.6879 9.6376 21.5591 8.723 Z " stroke-width="0.11038961169922157"/>
    </g>
    <g id="ID0.45081066712737083">
      <path id="ID0.7701443987898529" fill="#FFFFFF" d="M 11.0125 8.9915 C 9.7193 9.7674 9.2246 10.7905 9.5806 12.8431 C 10.0087 15.3228 11.8381 17.0784 13.6675 16.7617 C 15.4915 16.4466 16.6264 14.1848 16.2019 11.708 L 11.0125 8.9915 Z " stroke-width="0.11038961169922157"/>
    </g>
    <g id="Pupil_28_">
      <path id="ID0.19152800319716334" d="M 14.6421 12.7183 C 14.3604 13.3715 13.6465 13.6923 13.0428 13.4319 C 12.4427 13.1732 12.1812 12.4298 12.4624 11.7781 C 12.7442 11.1246 13.4637 10.8063 14.0637 11.0651 C 14.666 11.3248 14.924 12.0648 14.6421 12.7183 " stroke-width="0.11038961169922157"/>
    </g>
    <g id="Pupil_27_">
      <path id="ID0.3420352637767792" d="M 21.7269 12.2588 C 21.4514 12.8979 20.7528 13.2118 20.1621 12.9569 C 19.5751 12.7038 19.3192 11.9765 19.5941 11.3388 C 19.8698 10.6996 20.5739 10.3883 21.1607 10.6412 C 21.7502 10.8955 22.0027 11.6195 21.7269 12.2588 " stroke-width="0.11038961169922157"/>
    </g>
    <g id="Mouth_14_">
      <path id="ID0.15266713872551918" fill="#033F00" d="M 18.881 19.3182 C 18.0187 18.7085 16.4982 17.7457 16.0857 17.7483 C 16.0847 17.7483 16.0836 17.7483 16.0827 17.7483 C 15.7174 17.7483 14.1684 18.6998 13.2742 19.3015 L 13.0885 19.0255 C 13.4889 18.7561 15.5101 17.4157 16.0807 17.4157 C 16.0845 17.4156 16.0879 17.4156 16.0916 17.4157 C 16.7476 17.4157 18.8365 18.8793 19.0732 19.0467 L 18.881 19.3182 L 18.881 19.3182 Z " stroke-width="0.11038961169922157"/>
    </g>
    <g id="ID0.10258483979851007">
      <path id="ID0.3082099095918238" fill="#69DF3E" d="M 5.6182 28.4982 C 5.4052 28.4982 5.2023 28.3742 5.1118 28.1664 C 4.9902 27.8869 5.1183 27.5616 5.3978 27.44 C 8.3375 26.161 8.5728 25.3127 8.9626 23.9073 C 9.3015 22.6851 9.7234 21.1641 11.7388 18.9237 C 11.9428 18.697 12.2917 18.6784 12.5183 18.8825 C 12.745 19.0864 12.7634 19.4354 12.5595 19.662 C 10.7177 21.7094 10.3343 23.0916 10.0263 24.2023 C 9.5515 25.9141 9.0953 27.0351 5.8381 28.4523 C 5.7663 28.4834 5.6917 28.4982 5.6182 28.4982 L 5.6182 28.4982 Z " stroke-width="0.11038961169922157"/>
    </g>
    <g id="ID0.5145280305296183">
      <path id="ID0.17313984967768192" fill="#69DF3E" d="M 18.3826 30.0436 C 18.2448 30.0436 18.1068 29.9922 17.9996 29.8891 C 17.7802 29.6775 17.7736 29.3281 17.9852 29.1087 C 18.784 28.2797 18.4896 27.6401 17.7474 26.2727 C 17.0183 24.929 16.1106 23.2569 16.5286 20.8068 C 16.5799 20.5064 16.8653 20.304 17.1655 20.3556 C 17.466 20.4068 17.6681 20.692 17.6168 20.9925 C 17.2631 23.066 18.0358 24.4899 18.7177 25.7461 C 19.4335 27.0649 20.1737 28.4288 18.7802 29.8748 C 18.6718 29.9871 18.5272 30.0436 18.3826 30.0436 L 18.3826 30.0436 Z " stroke-width="0.11038961169922157"/>
    </g>
    <g id="ID0.4680206230841577">
      <path id="ID0.7848022114485502" fill="#69DF3E" d="M 14.6652 30.614 C 14.4824 30.614 14.3035 30.5232 14.1985 30.3574 C 12.4182 27.5483 12.6942 26.0396 12.9611 24.5806 C 13.1184 23.7206 13.267 22.9083 13.0483 21.7469 C 12.9919 21.4473 13.1889 21.1588 13.4885 21.1022 C 13.7884 21.046 14.0767 21.243 14.1331 21.5425 C 14.3898 22.9053 14.2076 23.9008 14.0469 24.7792 C 13.7973 26.1436 13.5817 27.322 15.1308 29.7664 C 15.294 30.0239 15.2175 30.3649 14.96 30.5281 C 14.8685 30.5861 14.7662 30.614 14.6652 30.614 L 14.6652 30.614 Z " stroke-width="0.11038961169922157"/>
    </g>
  </g>
</svg>