<svg xmlns="http://www.w3.org/2000/svg" xmlns:xlink="http://www.w3.org/1999/xlink" version="1.1" width="28.742891862988472" height="29.808891847729683" viewBox="0.32745420187711716 0.34045418351888657 28.742891862988472 29.808891847729683">
  <!-- Exported by Scratch - http://scratch.mit.edu/ -->
  <g id="ID0.35401746118441224">
    <g id="ID0.9201196720823646">
      <path id="ID0.0590452766045928" fill="#64D43B" d="M 4.7025 8.863 L 4.1111 3.8154 L 8.7145 5.3372 " stroke-width="0.10929162800312042"/>
    </g>
    <g id="ID0.06557337148115039">
      <path id="ID0.04530783323571086" fill="#5EC737" d="M 4.6735 15.5032 L 0.3821 12.7806 L 4.4649 10.166 " stroke-width="0.10929162800312042"/>
    </g>
    <g id="ID0.49033153522759676">
      <path id="ID0.612342890817672" fill="#5BBF35" d="M 9.4132 20.7159 L 4.4204 21.6651 L 5.6105 16.9652 " stroke-width="0.10929162800312042"/>
    </g>
    <g id="ID0.16158433351665735">
      <path id="ID0.7603460275568068" fill="#5BBF35" d="M 23.4132 18.5098 L 23.0941 23.582 L 18.8362 21.2632 " stroke-width="0.10929162800312042"/>
    </g>
    <g id="ID0.24348617857322097">
      <path id="ID0.8633264708332717" fill="#64D43B" d="M 9.9339 5.1731 L 11.6657 0.3951 L 15.1 3.8172 " stroke-width="0.10929162800312042"/>
    </g>
    <g id="ID0.10220582690089941">
      <path id="ID0.26085626566782594" fill="#64D43B" d="M 16.171 4.0816 L 19.8104 0.5345 L 21.4123 5.1105 " stroke-width="0.10929162800312042"/>
    </g>
    <g id="ID0.728846836835146">
      <path id="ID0.7022943603806198" fill="#64D43B" d="M 22.5331 5.6617 L 27.5755 6.297 L 24.9952 10.4016 " stroke-width="0.10929162800312042"/>
    </g>
    <g id="ID0.5669071367010474">
      <path id="ID0.6545892874710262" fill="#5EC737" d="M 25.3472 11.7481 L 29.0157 15.2653 L 24.4965 17.0211 " stroke-width="0.10929162800312042"/>
    </g>
    <g id="ID0.3752350313588977">
      <path id="ID0.8698592139407992" fill="#69DF3E" d="M 25.6138 12.5903 C 26.3253 18.081 21.6539 22.6152 15.2859 22.6152 C 8.9178 22.6152 3.7557 18.1269 3.7557 12.5903 C 3.7557 7.0537 8.9178 3.6584 15.2859 3.6584 C 21.6539 3.6584 24.7412 5.8546 25.6138 12.5903 Z " stroke-width="0.10929162800312042"/>
    </g>
    <g id="ID0.5601821909658611">
      <path id="ID0.42560381488874555" fill="#5BBF35" d="M 25.6138 12.5903 C 24.7412 5.8545 21.6539 3.6584 15.2859 3.6584 C 8.9178 3.6584 3.7557 7.0537 3.7557 12.5903 C 3.7557 18.1269 8.9178 22.6152 15.2859 22.6152 C 21.6539 22.6153 26.3253 18.081 25.6138 12.5903 Z M 15.2949 20.763 C 9.5859 20.763 4.9578 16.7391 4.9578 11.7754 C 4.9578 6.8117 9.5859 3.7676 15.2949 3.7676 C 21.0041 3.7676 23.7719 5.7365 24.5544 11.7754 C 25.1922 16.698 21.0041 20.763 15.2949 20.763 Z " stroke-width="0.10929162800312042"/>
    </g>
    <g id="ID0.21736617013812065">
      <path id="ID0.16521943407133222" fill="#FFFFFF" d="M 21.1093 6.7554 L 16.737 10.3822 C 16.7428 10.6765 16.7712 10.9775 16.8239 11.2819 C 17.2387 13.6838 19.0106 15.3844 20.7825 15.0775 C 22.5519 14.7718 23.6521 12.5755 23.2363 10.1726 C 22.9682 8.6261 22.1384 7.3722 21.1093 6.7554 Z " stroke-width="0.10929162800312042"/>
    </g>
    <g id="ID0.885264003649354">
      <path id="ID0.3891721572726965" fill="#FFFFFF" d="M 11.3234 7.021 C 10.043 7.7894 9.3347 9.6764 9.6871 11.7088 C 10.111 14.1638 11.9222 15.902 13.7333 15.5883 C 15.5393 15.2763 16.6627 13.037 16.2426 10.5848 L 11.3234 7.021 Z " stroke-width="0.10929162800312042"/>
    </g>
    <g id="Pupil_24_">
      <path id="ID0.8048562030307949" d="M 14.6982 11.8037 C 14.4193 12.4504 13.7125 12.768 13.1148 12.5102 C 12.5206 12.254 12.2617 11.5181 12.5401 10.8728 C 12.8191 10.2258 13.5315 9.9107 14.1255 10.1668 C 14.7218 10.4242 14.9773 11.1567 14.6982 11.8037 " stroke-width="0.10929162800312042"/>
    </g>
    <g id="Pupil_23_">
      <path id="ID0.8746326914988458" d="M 21.7126 11.4582 C 21.4398 12.0909 20.7482 12.4017 20.1633 12.1493 C 19.5821 11.8987 19.3289 11.1787 19.601 10.5473 C 19.874 9.9143 20.571 9.606 21.1519 9.8566 C 21.7357 10.1084 21.9856 10.8252 21.7126 11.4582 " stroke-width="0.10929162800312042"/>
    </g>
    <g id="Mouth_12_">
      <path id="ID0.8539696717634797" fill="#033F00" d="M 19.3319 18.0102 C 18.4783 17.4066 16.9719 16.449 16.5645 16.4559 C 16.5636 16.4559 16.5625 16.4559 16.5616 16.4559 C 16.1998 16.4559 14.6663 17.398 13.7809 17.9936 L 13.5971 17.7204 C 13.9936 17.4537 15.9946 16.1266 16.5596 16.1266 C 16.5632 16.1265 16.5667 16.1265 16.5704 16.1266 C 17.2199 16.1266 19.2879 17.5757 19.5222 17.7413 L 19.3319 18.0102 L 19.3319 18.0102 Z " stroke-width="0.10929162800312042"/>
    </g>
    <g id="ID0.8914323588833213">
      <path id="ID0.9184994325041771" fill="#69DF3E" d="M 5.9453 28.6471 C 5.7024 28.6471 5.4807 28.4841 5.4168 28.2379 C 4.2943 23.9164 6.9644 22.6716 9.1098 21.6714 C 10.9889 20.7953 12.0356 20.2175 11.6943 18.5306 C 11.6345 18.2348 11.8258 17.9465 12.1216 17.8867 C 12.4176 17.8262 12.7058 18.0181 12.7656 18.3139 C 13.294 20.9264 11.3164 21.8485 9.5715 22.6619 C 7.4302 23.6603 5.5808 24.5223 6.4746 27.9632 C 6.5505 28.2553 6.3752 28.5536 6.083 28.6295 C 6.037 28.6414 5.9908 28.6471 5.9453 28.6471 L 5.9453 28.6471 Z " stroke-width="0.10929162800312042"/>
    </g>
    <g id="ID0.5933681400492787">
      <path id="ID0.4123861491680145" fill="#69DF3E" d="M 19.9738 29.6306 C 19.8241 29.6306 19.6751 29.5694 19.567 29.4494 C 18.2531 27.9869 18.5387 27.1298 19.0486 26.1614 C 19.5587 25.1926 20.1367 24.0946 16.7036 20.3841 C 16.4986 20.1627 16.512 19.8169 16.7335 19.612 C 16.955 19.4072 17.3006 19.4203 17.5057 19.6419 C 21.166 23.5977 20.808 25.1655 20.0155 26.6706 C 19.6525 27.3603 19.4702 27.7066 20.38 28.719 C 20.5817 28.9435 20.5632 29.2891 20.3387 29.4909 C 20.2343 29.5844 20.1038 29.6306 19.9738 29.6306 L 19.9738 29.6306 Z " stroke-width="0.10929162800312042"/>
    </g>
    <g id="ID0.17069024685770273">
      <path id="ID0.15943069802597165" fill="#69DF3E" d="M 12.5174 30.0947 C 12.3524 30.0947 12.1895 30.0204 12.0821 29.8791 C 11.8993 29.6389 11.9459 29.296 12.1861 29.1132 C 13.4149 28.1785 15.0569 26.8582 15.1307 26.1879 C 15.155 25.9683 14.9748 25.7434 14.6275 25.3316 C 13.9544 24.534 12.9374 23.3289 13.1121 20.7142 C 13.1322 20.413 13.392 20.1871 13.6938 20.2053 C 13.9949 20.2255 14.2226 20.4859 14.2025 20.787 C 14.0572 22.9613 14.8365 23.8847 15.4627 24.6268 C 15.89 25.1333 16.2937 25.6117 16.217 26.3076 C 16.1183 27.2039 15.2365 28.1657 12.8478 29.9831 C 12.749 30.0584 12.6328 30.0947 12.5174 30.0947 L 12.5174 30.0947 Z " stroke-width="0.10929162800312042"/>
    </g>
  </g>
</svg>